G75*
%MOIN*%
%OFA0B0*%
%FSLAX24Y24*%
%IPPOS*%
%LPD*%
%AMOC8*
5,1,8,0,0,1.08239X$1,22.5*
%
%ADD10R,0.0580X0.0140*%
%ADD11R,0.0394X0.0433*%
%ADD12R,0.0433X0.0394*%
%ADD13C,0.0118*%
D10*
X007546Y007480D03*
X007546Y007740D03*
X007546Y008000D03*
X007546Y008250D03*
X007546Y008510D03*
X007546Y008760D03*
X007546Y009020D03*
X007546Y009280D03*
X009846Y009280D03*
X009846Y009020D03*
X009846Y008760D03*
X009846Y008510D03*
X009846Y008250D03*
X009846Y008000D03*
X009846Y007740D03*
X009846Y007480D03*
D11*
X004896Y002445D03*
X004896Y003115D03*
X004896Y003745D03*
X004896Y004415D03*
X004896Y005045D03*
X004896Y005715D03*
X004896Y006645D03*
X004896Y007315D03*
X004896Y007945D03*
X004896Y008615D03*
X004896Y009245D03*
X004896Y009915D03*
X009196Y005715D03*
X009196Y005045D03*
X009196Y004415D03*
X009196Y003745D03*
X009196Y003115D03*
X009196Y002445D03*
X012596Y002445D03*
X012596Y003115D03*
X012596Y003745D03*
X012596Y004415D03*
X012596Y005045D03*
X012596Y005715D03*
X013696Y005715D03*
X013696Y005045D03*
X013696Y004415D03*
X013696Y003745D03*
X013696Y003115D03*
X013696Y002445D03*
X013696Y006645D03*
X013696Y007315D03*
X013696Y007945D03*
X013696Y008615D03*
X013696Y009245D03*
X013696Y009915D03*
X012596Y009915D03*
X012596Y009245D03*
X012596Y008615D03*
X012596Y007945D03*
D12*
X008131Y006880D03*
X007462Y006880D03*
X003231Y010980D03*
X002562Y010980D03*
D13*
X002313Y011642D02*
X002313Y011918D01*
X002589Y011918D01*
X002589Y011642D01*
X002313Y011642D01*
X002313Y011759D02*
X002589Y011759D01*
X002589Y011876D02*
X002313Y011876D01*
X003004Y011918D02*
X003004Y011642D01*
X003004Y011918D02*
X003280Y011918D01*
X003280Y011642D01*
X003004Y011642D01*
X003004Y011759D02*
X003280Y011759D01*
X003280Y011876D02*
X003004Y011876D01*
M02*
