G75*
%MOIN*%
%OFA0B0*%
%FSLAX24Y24*%
%IPPOS*%
%LPD*%
%AMOC8*
5,1,8,0,0,1.08239X$1,22.5*
%
%ADD10R,0.0720X0.0720*%
%ADD11OC8,0.0720*%
%ADD12R,0.0635X0.0635*%
%ADD13C,0.0635*%
%ADD14R,0.0660X0.0220*%
%ADD15R,0.0580X0.0330*%
%ADD16R,0.0474X0.0513*%
%ADD17R,0.0513X0.0474*%
%ADD18C,0.0330*%
%ADD19C,0.0867*%
%ADD20C,0.0820*%
%ADD21C,0.0142*%
D10*
X015196Y010680D03*
D11*
X014196Y010680D03*
X013196Y010680D03*
X012196Y010680D03*
X011196Y010680D03*
X010196Y010680D03*
X009196Y010680D03*
X008196Y010680D03*
X007196Y010680D03*
X006196Y010680D03*
X005196Y010680D03*
X004196Y010680D03*
X004196Y001680D03*
X005196Y001680D03*
X006196Y001680D03*
X007196Y001680D03*
X008196Y001680D03*
X009196Y001680D03*
X010196Y001680D03*
X011196Y001680D03*
X012196Y001680D03*
X013196Y001680D03*
X014196Y001680D03*
X015196Y001680D03*
D12*
X015196Y005261D03*
X015196Y009461D03*
X006896Y002899D03*
X003496Y002899D03*
X003496Y007099D03*
D13*
X003496Y007886D03*
X003496Y008674D03*
X003496Y009461D03*
X003496Y005261D03*
X003496Y004474D03*
X003496Y003686D03*
X006896Y003686D03*
X006896Y004474D03*
X006896Y005261D03*
X015196Y004474D03*
X015196Y003686D03*
X015196Y002899D03*
X015196Y007099D03*
X015196Y007886D03*
X015196Y008674D03*
D14*
X009846Y008760D03*
X009846Y008510D03*
X009846Y008250D03*
X009846Y008000D03*
X009846Y007740D03*
X009846Y007480D03*
X009846Y009020D03*
X009846Y009280D03*
X007546Y009280D03*
X007546Y009020D03*
X007546Y008760D03*
X007546Y008510D03*
X007546Y008250D03*
X007546Y008000D03*
X007546Y007740D03*
X007546Y007480D03*
D15*
X010696Y009603D03*
X010696Y009957D03*
X011696Y005757D03*
X011696Y005403D03*
X011696Y004457D03*
X011696Y004103D03*
X011696Y003157D03*
X011696Y002803D03*
D16*
X012596Y003115D03*
X012596Y003745D03*
X012596Y004415D03*
X012596Y005045D03*
X012596Y005715D03*
X013696Y005715D03*
X013696Y005045D03*
X013696Y004415D03*
X013696Y003745D03*
X013696Y003115D03*
X013696Y002445D03*
X012596Y002445D03*
X009196Y002445D03*
X009196Y003115D03*
X009196Y003745D03*
X009196Y004415D03*
X009196Y005045D03*
X009196Y005715D03*
X012596Y007945D03*
X012596Y008615D03*
X012596Y009245D03*
X012596Y009915D03*
X013696Y009915D03*
X013696Y009245D03*
X013696Y008615D03*
X013696Y007945D03*
X013696Y007315D03*
X013696Y006645D03*
X004896Y006645D03*
X004896Y007315D03*
X004896Y007945D03*
X004896Y008615D03*
X004896Y009245D03*
X004896Y009915D03*
X004896Y005715D03*
X004896Y005045D03*
X004896Y004415D03*
X004896Y003745D03*
X004896Y003115D03*
X004896Y002445D03*
D17*
X007462Y006880D03*
X008131Y006880D03*
X003231Y010980D03*
X002562Y010980D03*
D18*
X001996Y011480D03*
X016496Y011480D03*
X001996Y001380D03*
X016496Y000980D03*
D19*
X001346Y000930D03*
X001346Y011430D03*
X017346Y011430D03*
X017346Y000930D03*
D20*
X004696Y000680D03*
X003696Y000680D03*
X002696Y000680D03*
D21*
X002285Y011614D02*
X002285Y011946D01*
X002617Y011946D01*
X002617Y011614D01*
X002285Y011614D01*
X002285Y011755D02*
X002617Y011755D01*
X002617Y011896D02*
X002285Y011896D01*
X002976Y011946D02*
X002976Y011614D01*
X002976Y011946D02*
X003308Y011946D01*
X003308Y011614D01*
X002976Y011614D01*
X002976Y011755D02*
X003308Y011755D01*
X003308Y011896D02*
X002976Y011896D01*
M02*
