G75*
%MOIN*%
%OFA0B0*%
%FSLAX24Y24*%
%IPPOS*%
%LPD*%
%AMOC8*
5,1,8,0,0,1.08239X$1,22.5*
%
%ADD10C,0.0040*%
%ADD11C,0.0050*%
%ADD12C,0.0100*%
%ADD13C,0.0060*%
%ADD14C,0.0030*%
%ADD15C,0.0080*%
%ADD16C,0.0220*%
%ADD17R,0.0300X0.0180*%
%ADD18C,0.0000*%
%ADD19R,0.0013X0.0003*%
%ADD20R,0.0018X0.0003*%
%ADD21R,0.0022X0.0003*%
%ADD22R,0.0027X0.0003*%
%ADD23R,0.0032X0.0003*%
%ADD24R,0.0037X0.0003*%
%ADD25R,0.0043X0.0003*%
%ADD26R,0.0047X0.0003*%
%ADD27R,0.0053X0.0003*%
%ADD28R,0.0057X0.0003*%
%ADD29R,0.0060X0.0003*%
%ADD30R,0.0065X0.0003*%
%ADD31R,0.0067X0.0003*%
%ADD32R,0.0070X0.0003*%
%ADD33R,0.0035X0.0003*%
%ADD34R,0.0063X0.0003*%
%ADD35R,0.0040X0.0003*%
%ADD36R,0.0045X0.0003*%
%ADD37R,0.0050X0.0003*%
%ADD38R,0.0055X0.0003*%
%ADD39R,0.0005X0.0003*%
%ADD40R,0.0073X0.0003*%
%ADD41R,0.0075X0.0003*%
%ADD42R,0.0077X0.0003*%
%ADD43R,0.0080X0.0003*%
%ADD44R,0.0083X0.0003*%
%ADD45R,0.0010X0.0003*%
%ADD46R,0.0015X0.0003*%
%ADD47R,0.0020X0.0003*%
%ADD48R,0.0025X0.0003*%
%ADD49R,0.0030X0.0003*%
%ADD50R,0.0008X0.0003*%
%ADD51R,0.0088X0.0003*%
%ADD52R,0.0095X0.0003*%
%ADD53R,0.0105X0.0003*%
%ADD54R,0.0112X0.0003*%
%ADD55R,0.0085X0.0003*%
%ADD56R,0.0120X0.0003*%
%ADD57R,0.0097X0.0003*%
%ADD58R,0.0103X0.0003*%
%ADD59R,0.0107X0.0003*%
%ADD60R,0.0115X0.0003*%
%ADD61R,0.0118X0.0003*%
%ADD62R,0.0100X0.0003*%
%ADD63R,0.0123X0.0003*%
%ADD64R,0.0127X0.0003*%
%ADD65R,0.0092X0.0003*%
%ADD66R,0.0147X0.0003*%
%ADD67R,0.0125X0.0003*%
%ADD68R,0.0145X0.0003*%
%ADD69R,0.0143X0.0003*%
%ADD70R,0.0132X0.0003*%
%ADD71R,0.0130X0.0003*%
%ADD72R,0.0090X0.0003*%
%ADD73R,0.0003X0.0003*%
%ADD74R,0.0180X0.0300*%
%ADD75C,0.0090*%
D10*
X002316Y001233D02*
X002350Y001200D01*
X002417Y001200D01*
X002450Y001233D01*
X002450Y001267D01*
X002417Y001300D01*
X002383Y001300D01*
X002417Y001300D02*
X002450Y001333D01*
X002450Y001367D01*
X002417Y001400D01*
X002350Y001400D01*
X002316Y001367D01*
X002537Y001233D02*
X002571Y001233D01*
X002571Y001200D01*
X002537Y001200D01*
X002537Y001233D01*
X002648Y001233D02*
X002681Y001200D01*
X002748Y001200D01*
X002781Y001233D01*
X002781Y001267D01*
X002748Y001300D01*
X002715Y001300D01*
X002748Y001300D02*
X002781Y001333D01*
X002781Y001367D01*
X002748Y001400D01*
X002681Y001400D01*
X002648Y001367D01*
X002869Y001400D02*
X002869Y001267D01*
X002936Y001200D01*
X003002Y001267D01*
X003002Y001400D01*
X003216Y001400D02*
X003216Y001267D01*
X003283Y001200D01*
X003350Y001267D01*
X003350Y001400D01*
X003437Y001367D02*
X003437Y001233D01*
X003471Y001200D01*
X003538Y001200D01*
X003571Y001233D01*
X003658Y001233D02*
X003692Y001200D01*
X003759Y001200D01*
X003792Y001233D01*
X003658Y001233D02*
X003658Y001367D01*
X003692Y001400D01*
X003759Y001400D01*
X003792Y001367D01*
X003571Y001367D02*
X003538Y001400D01*
X003471Y001400D01*
X003437Y001367D01*
X004276Y002133D02*
X004310Y002100D01*
X004443Y002100D01*
X004476Y002133D01*
X004476Y002200D01*
X004443Y002233D01*
X004376Y002233D01*
X004376Y002167D01*
X004310Y002233D02*
X004276Y002200D01*
X004276Y002133D01*
X004276Y002321D02*
X004476Y002454D01*
X004276Y002454D01*
X004276Y002542D02*
X004276Y002642D01*
X004310Y002675D01*
X004443Y002675D01*
X004476Y002642D01*
X004476Y002542D01*
X004276Y002542D01*
X004276Y002321D02*
X004476Y002321D01*
X005376Y002321D02*
X005510Y002321D01*
X005576Y002388D01*
X005510Y002454D01*
X005376Y002454D01*
X005376Y002233D02*
X005376Y002100D01*
X005476Y002100D01*
X005443Y002167D01*
X005443Y002200D01*
X005476Y002233D01*
X005543Y002233D01*
X005576Y002200D01*
X005576Y002133D01*
X005543Y002100D01*
X004871Y001400D02*
X004871Y001267D01*
X004804Y001200D01*
X004737Y001267D01*
X004737Y001400D01*
X004650Y001400D02*
X004516Y001400D01*
X004516Y001300D01*
X004583Y001333D01*
X004617Y001333D01*
X004650Y001300D01*
X004650Y001233D01*
X004617Y001200D01*
X004550Y001200D01*
X004516Y001233D01*
X003221Y010400D02*
X003087Y010400D01*
X003154Y010400D02*
X003154Y010600D01*
X003087Y010533D01*
X003000Y010567D02*
X003000Y010500D01*
X002967Y010467D01*
X002866Y010467D01*
X002866Y010400D02*
X002866Y010600D01*
X002967Y010600D01*
X003000Y010567D01*
X002933Y010467D02*
X003000Y010400D01*
X002121Y011775D02*
X001987Y011775D01*
X002054Y011775D02*
X002054Y011975D01*
X001987Y011908D01*
X001900Y011942D02*
X001867Y011975D01*
X001766Y011975D01*
X001766Y011775D01*
X001867Y011775D01*
X001900Y011808D01*
X001900Y011942D01*
D11*
X004101Y011829D02*
X004101Y011694D01*
X004371Y011694D01*
X004371Y011829D01*
X004326Y011874D01*
X004146Y011874D01*
X004101Y011829D01*
X004101Y011580D02*
X004371Y011580D01*
X004101Y011400D01*
X004371Y011400D01*
X004326Y011285D02*
X004236Y011285D01*
X004236Y011195D01*
X004146Y011105D02*
X004326Y011105D01*
X004371Y011150D01*
X004371Y011240D01*
X004326Y011285D01*
X004146Y011285D02*
X004101Y011240D01*
X004101Y011150D01*
X004146Y011105D01*
X005101Y011150D02*
X005146Y011105D01*
X005101Y011150D02*
X005101Y011240D01*
X005146Y011285D01*
X005191Y011285D01*
X005236Y011240D01*
X005281Y011285D01*
X005326Y011285D01*
X005371Y011240D01*
X005371Y011150D01*
X005326Y011105D01*
X005236Y011195D02*
X005236Y011240D01*
X005281Y011400D02*
X005101Y011400D01*
X005101Y011580D02*
X005281Y011580D01*
X005371Y011490D01*
X005281Y011400D01*
X005326Y011694D02*
X005371Y011739D01*
X005371Y011829D01*
X005326Y011874D01*
X005281Y011874D01*
X005236Y011829D01*
X005236Y011784D01*
X005236Y011829D02*
X005191Y011874D01*
X005146Y011874D01*
X005101Y011829D01*
X005101Y011739D01*
X005146Y011694D01*
X006001Y011635D02*
X006001Y011545D01*
X006046Y011500D01*
X006226Y011500D01*
X006271Y011545D01*
X006271Y011635D01*
X006226Y011680D01*
X006046Y011680D02*
X006001Y011635D01*
X006001Y011385D02*
X006271Y011385D01*
X006001Y011205D01*
X006271Y011205D01*
X007001Y011205D02*
X007271Y011385D01*
X007001Y011385D01*
X007046Y011500D02*
X007226Y011500D01*
X007271Y011545D01*
X007271Y011635D01*
X007226Y011680D01*
X007046Y011680D02*
X007001Y011635D01*
X007001Y011545D01*
X007046Y011500D01*
X007001Y011205D02*
X007271Y011205D01*
X008001Y011205D02*
X008271Y011385D01*
X008001Y011385D01*
X008046Y011500D02*
X008226Y011500D01*
X008271Y011545D01*
X008271Y011635D01*
X008226Y011680D01*
X008046Y011680D02*
X008001Y011635D01*
X008001Y011545D01*
X008046Y011500D01*
X008001Y011205D02*
X008271Y011205D01*
X009001Y011205D02*
X009271Y011385D01*
X009001Y011385D01*
X009046Y011500D02*
X009226Y011500D01*
X009271Y011545D01*
X009271Y011635D01*
X009226Y011680D01*
X009046Y011680D02*
X009001Y011635D01*
X009001Y011545D01*
X009046Y011500D01*
X009001Y011205D02*
X009271Y011205D01*
X010001Y011180D02*
X010001Y012064D01*
X010101Y011974D02*
X010101Y011794D01*
X010101Y011884D02*
X010371Y011884D01*
X010326Y011680D02*
X010371Y011635D01*
X010371Y011545D01*
X010326Y011500D01*
X010236Y011545D02*
X010236Y011635D01*
X010281Y011680D01*
X010326Y011680D01*
X010236Y011545D02*
X010191Y011500D01*
X010146Y011500D01*
X010101Y011545D01*
X010101Y011635D01*
X010146Y011680D01*
X010146Y011385D02*
X010236Y011385D01*
X010281Y011340D01*
X010281Y011205D01*
X010281Y011295D02*
X010371Y011385D01*
X010371Y011205D02*
X010101Y011205D01*
X010101Y011340D01*
X010146Y011385D01*
X011001Y011385D02*
X011271Y011385D01*
X011001Y011205D01*
X011271Y011205D01*
X011226Y011500D02*
X011046Y011500D01*
X011001Y011545D01*
X011001Y011635D01*
X011046Y011680D01*
X011226Y011680D02*
X011271Y011635D01*
X011271Y011545D01*
X011226Y011500D01*
X012001Y011545D02*
X012046Y011500D01*
X012226Y011500D01*
X012271Y011545D01*
X012271Y011635D01*
X012226Y011680D01*
X012046Y011680D02*
X012001Y011635D01*
X012001Y011545D01*
X012001Y011385D02*
X012271Y011385D01*
X012001Y011205D01*
X012271Y011205D01*
X013001Y011205D02*
X013271Y011385D01*
X013001Y011385D01*
X013046Y011500D02*
X013226Y011500D01*
X013271Y011545D01*
X013271Y011635D01*
X013226Y011680D01*
X013046Y011680D02*
X013001Y011635D01*
X013001Y011545D01*
X013046Y011500D01*
X013001Y011205D02*
X013271Y011205D01*
X014001Y011205D02*
X014271Y011385D01*
X014001Y011385D01*
X014046Y011500D02*
X014226Y011500D01*
X014271Y011545D01*
X014271Y011635D01*
X014226Y011680D01*
X014046Y011680D02*
X014001Y011635D01*
X014001Y011545D01*
X014046Y011500D01*
X014001Y011205D02*
X014271Y011205D01*
X015001Y011205D02*
X015271Y011385D01*
X015001Y011385D01*
X015046Y011500D02*
X015226Y011500D01*
X015271Y011545D01*
X015271Y011635D01*
X015226Y011680D01*
X015046Y011680D02*
X015001Y011635D01*
X015001Y011545D01*
X015046Y011500D01*
X015001Y011205D02*
X015271Y011205D01*
X015590Y010249D02*
X014803Y010249D01*
X013371Y009979D02*
X013371Y009889D01*
X013326Y009844D01*
X013236Y009844D02*
X013191Y009934D01*
X013191Y009979D01*
X013236Y010024D01*
X013326Y010024D01*
X013371Y009979D01*
X013236Y009844D02*
X013101Y009844D01*
X013101Y010024D01*
X013371Y009730D02*
X013371Y009550D01*
X013371Y009640D02*
X013101Y009640D01*
X013191Y009550D01*
X013146Y009435D02*
X013236Y009435D01*
X013281Y009390D01*
X013281Y009255D01*
X013281Y009345D02*
X013371Y009435D01*
X013146Y009435D02*
X013101Y009390D01*
X013101Y009255D01*
X013371Y009255D01*
X013146Y008541D02*
X013056Y008541D01*
X013011Y008495D01*
X013011Y008450D01*
X013056Y008360D01*
X012921Y008360D01*
X012921Y008541D01*
X013146Y008541D02*
X013191Y008495D01*
X013191Y008405D01*
X013146Y008360D01*
X013146Y008246D02*
X013191Y008201D01*
X013191Y008111D01*
X013146Y008066D01*
X012966Y008066D01*
X012921Y008111D01*
X012921Y008201D01*
X012966Y008246D01*
X014021Y008156D02*
X014291Y008156D01*
X014291Y008066D02*
X014291Y008246D01*
X014156Y008360D02*
X014156Y008541D01*
X014021Y008495D02*
X014156Y008360D01*
X014291Y008495D02*
X014021Y008495D01*
X014021Y008156D02*
X014111Y008066D01*
X014066Y007951D02*
X014156Y007951D01*
X014201Y007906D01*
X014201Y007771D01*
X014201Y007861D02*
X014291Y007951D01*
X014066Y007951D02*
X014021Y007906D01*
X014021Y007771D01*
X014291Y007771D01*
X014066Y007241D02*
X014246Y007060D01*
X014291Y007060D01*
X014246Y006946D02*
X014291Y006901D01*
X014291Y006811D01*
X014246Y006766D01*
X014066Y006766D01*
X014021Y006811D01*
X014021Y006901D01*
X014066Y006946D01*
X014021Y007060D02*
X014021Y007241D01*
X014066Y007241D01*
X014803Y006049D02*
X015590Y006049D01*
X014291Y005495D02*
X014291Y005405D01*
X014246Y005360D01*
X014291Y005246D02*
X014291Y005066D01*
X014291Y005156D02*
X014021Y005156D01*
X014111Y005066D01*
X014066Y004951D02*
X014156Y004951D01*
X014201Y004906D01*
X014201Y004771D01*
X014201Y004861D02*
X014291Y004951D01*
X014291Y004771D02*
X014021Y004771D01*
X014021Y004906D01*
X014066Y004951D01*
X014066Y005360D02*
X014021Y005405D01*
X014021Y005495D01*
X014066Y005541D01*
X014111Y005541D01*
X014156Y005495D01*
X014201Y005541D01*
X014246Y005541D01*
X014291Y005495D01*
X014156Y005495D02*
X014156Y005450D01*
X013191Y005505D02*
X013146Y005460D01*
X012966Y005641D01*
X013146Y005641D01*
X013191Y005595D01*
X013191Y005505D01*
X013146Y005460D02*
X012966Y005460D01*
X012921Y005505D01*
X012921Y005595D01*
X012966Y005641D01*
X013191Y005346D02*
X013191Y005166D01*
X013191Y005256D02*
X012921Y005256D01*
X013011Y005166D01*
X012966Y005051D02*
X013056Y005051D01*
X013101Y005006D01*
X013101Y004871D01*
X013101Y004961D02*
X013191Y005051D01*
X013191Y004871D02*
X012921Y004871D01*
X012921Y005006D01*
X012966Y005051D01*
X012966Y004341D02*
X012921Y004295D01*
X012921Y004205D01*
X012966Y004160D01*
X013011Y004160D01*
X013056Y004205D01*
X013056Y004341D01*
X013146Y004341D02*
X012966Y004341D01*
X013146Y004341D02*
X013191Y004295D01*
X013191Y004205D01*
X013146Y004160D01*
X013191Y004046D02*
X013101Y003956D01*
X013101Y004001D02*
X013101Y003866D01*
X013191Y003866D02*
X012921Y003866D01*
X012921Y004001D01*
X012966Y004046D01*
X013056Y004046D01*
X013101Y004001D01*
X014021Y003956D02*
X014291Y003956D01*
X014291Y003866D02*
X014291Y004046D01*
X014291Y004160D02*
X014111Y004341D01*
X014066Y004341D01*
X014021Y004295D01*
X014021Y004205D01*
X014066Y004160D01*
X014291Y004160D02*
X014291Y004341D01*
X014021Y003956D02*
X014111Y003866D01*
X014066Y003751D02*
X014156Y003751D01*
X014201Y003706D01*
X014201Y003571D01*
X014201Y003661D02*
X014291Y003751D01*
X014066Y003751D02*
X014021Y003706D01*
X014021Y003571D01*
X014291Y003571D01*
X014246Y003041D02*
X014201Y003041D01*
X014156Y002995D01*
X014156Y002860D01*
X014246Y002860D01*
X014291Y002905D01*
X014291Y002995D01*
X014246Y003041D01*
X014066Y002950D02*
X014156Y002860D01*
X014066Y002950D02*
X014021Y003041D01*
X014066Y002746D02*
X014021Y002701D01*
X014021Y002611D01*
X014066Y002566D01*
X014246Y002566D01*
X014291Y002611D01*
X014291Y002701D01*
X014246Y002746D01*
X013191Y002746D02*
X013101Y002656D01*
X013101Y002701D02*
X013101Y002566D01*
X013191Y002566D02*
X012921Y002566D01*
X012921Y002701D01*
X012966Y002746D01*
X013056Y002746D01*
X013101Y002701D01*
X013101Y002860D02*
X013056Y002905D01*
X013056Y002995D01*
X013101Y003041D01*
X013146Y003041D01*
X013191Y002995D01*
X013191Y002905D01*
X013146Y002860D01*
X013101Y002860D01*
X013056Y002905D02*
X013011Y002860D01*
X012966Y002860D01*
X012921Y002905D01*
X012921Y002995D01*
X012966Y003041D01*
X013011Y003041D01*
X013056Y002995D01*
X011171Y002987D02*
X011126Y002942D01*
X010946Y003122D01*
X011126Y003122D01*
X011171Y003077D01*
X011171Y002987D01*
X011126Y002942D02*
X010946Y002942D01*
X010901Y002987D01*
X010901Y003077D01*
X010946Y003122D01*
X010991Y002828D02*
X011171Y002828D01*
X011036Y002828D02*
X011036Y002648D01*
X010991Y002648D02*
X011171Y002648D01*
X010991Y002648D02*
X010901Y002738D01*
X010991Y002828D01*
X010991Y003948D02*
X010901Y004038D01*
X010991Y004128D01*
X011171Y004128D01*
X011171Y004242D02*
X011171Y004422D01*
X011171Y004332D02*
X010901Y004332D01*
X010991Y004242D01*
X011036Y004128D02*
X011036Y003948D01*
X010991Y003948D02*
X011171Y003948D01*
X011171Y005248D02*
X010991Y005248D01*
X010901Y005338D01*
X010991Y005428D01*
X011171Y005428D01*
X011171Y005542D02*
X010991Y005722D01*
X010946Y005722D01*
X010901Y005677D01*
X010901Y005587D01*
X010946Y005542D01*
X011036Y005428D02*
X011036Y005248D01*
X011171Y005542D02*
X011171Y005722D01*
X009936Y007055D02*
X009756Y007055D01*
X009846Y007055D02*
X009846Y007325D01*
X009756Y007235D01*
X009642Y007325D02*
X009642Y007100D01*
X009597Y007055D01*
X009506Y007055D01*
X009461Y007100D01*
X009461Y007325D01*
X008346Y006530D02*
X008301Y006575D01*
X008211Y006575D01*
X008166Y006530D01*
X008052Y006530D02*
X008007Y006575D01*
X007916Y006575D01*
X007871Y006530D01*
X007871Y006350D01*
X007916Y006305D01*
X008007Y006305D01*
X008052Y006350D01*
X008166Y006350D02*
X008211Y006305D01*
X008301Y006305D01*
X008346Y006350D01*
X008346Y006395D01*
X008301Y006440D01*
X008256Y006440D01*
X008301Y006440D02*
X008346Y006485D01*
X008346Y006530D01*
X008736Y005530D02*
X008736Y005350D01*
X008601Y005485D01*
X008871Y005485D01*
X008826Y005235D02*
X008871Y005190D01*
X008871Y005100D01*
X008826Y005055D01*
X008646Y005055D01*
X008601Y005100D01*
X008601Y005190D01*
X008646Y005235D01*
X008646Y004230D02*
X008826Y004050D01*
X008871Y004050D01*
X008871Y003935D02*
X008781Y003845D01*
X008781Y003890D02*
X008781Y003755D01*
X008871Y003755D02*
X008601Y003755D01*
X008601Y003890D01*
X008646Y003935D01*
X008736Y003935D01*
X008781Y003890D01*
X008601Y004050D02*
X008601Y004230D01*
X008646Y004230D01*
X008601Y002930D02*
X008646Y002840D01*
X008736Y002750D01*
X008736Y002885D01*
X008781Y002930D01*
X008826Y002930D01*
X008871Y002885D01*
X008871Y002795D01*
X008826Y002750D01*
X008736Y002750D01*
X008736Y002635D02*
X008781Y002590D01*
X008781Y002455D01*
X008781Y002545D02*
X008871Y002635D01*
X008736Y002635D02*
X008646Y002635D01*
X008601Y002590D01*
X008601Y002455D01*
X008871Y002455D01*
X007290Y002111D02*
X006503Y002111D01*
X006271Y001174D02*
X006091Y001174D01*
X006001Y001084D01*
X006091Y000994D01*
X006271Y000994D01*
X006226Y000880D02*
X006046Y000880D01*
X006001Y000835D01*
X006001Y000700D01*
X006271Y000700D01*
X006271Y000835D01*
X006226Y000880D01*
X006136Y000994D02*
X006136Y001174D01*
X006181Y000585D02*
X006136Y000540D01*
X006136Y000450D01*
X006091Y000405D01*
X006046Y000405D01*
X006001Y000450D01*
X006001Y000540D01*
X006046Y000585D01*
X006181Y000585D02*
X006226Y000585D01*
X006271Y000540D01*
X006271Y000450D01*
X006226Y000405D01*
X007101Y000450D02*
X007146Y000405D01*
X007191Y000405D01*
X007236Y000450D01*
X007236Y000540D01*
X007281Y000585D01*
X007326Y000585D01*
X007371Y000540D01*
X007371Y000450D01*
X007326Y000405D01*
X007146Y000585D02*
X007101Y000540D01*
X007101Y000450D01*
X007146Y000700D02*
X007326Y000700D01*
X007371Y000745D01*
X007371Y000835D01*
X007326Y000880D01*
X007371Y000994D02*
X007371Y001174D01*
X007371Y000994D02*
X007101Y000994D01*
X007146Y000880D02*
X007101Y000835D01*
X007101Y000745D01*
X007146Y000700D01*
X008101Y000705D02*
X008371Y000885D01*
X008101Y000885D01*
X008146Y001000D02*
X008326Y001000D01*
X008371Y001045D01*
X008371Y001135D01*
X008326Y001180D01*
X008146Y001180D02*
X008101Y001135D01*
X008101Y001045D01*
X008146Y001000D01*
X008101Y000705D02*
X008371Y000705D01*
X009001Y000705D02*
X009271Y000885D01*
X009001Y000885D01*
X009046Y001000D02*
X009226Y001000D01*
X009271Y001045D01*
X009271Y001135D01*
X009226Y001180D01*
X009046Y001180D02*
X009001Y001135D01*
X009001Y001045D01*
X009046Y001000D01*
X009001Y000705D02*
X009271Y000705D01*
X010101Y000705D02*
X010371Y000885D01*
X010101Y000885D01*
X010146Y001000D02*
X010326Y001000D01*
X010371Y001045D01*
X010371Y001135D01*
X010326Y001180D01*
X010146Y001180D02*
X010101Y001135D01*
X010101Y001045D01*
X010146Y001000D01*
X010101Y000705D02*
X010371Y000705D01*
X011101Y000705D02*
X011371Y000885D01*
X011101Y000885D01*
X011146Y001000D02*
X011326Y001000D01*
X011371Y001045D01*
X011371Y001135D01*
X011326Y001180D01*
X011146Y001180D02*
X011101Y001135D01*
X011101Y001045D01*
X011146Y001000D01*
X011101Y000705D02*
X011371Y000705D01*
X012101Y000705D02*
X012371Y000885D01*
X012101Y000885D01*
X012146Y001000D02*
X012326Y001000D01*
X012371Y001045D01*
X012371Y001135D01*
X012326Y001180D01*
X012146Y001180D02*
X012101Y001135D01*
X012101Y001045D01*
X012146Y001000D01*
X012101Y000705D02*
X012371Y000705D01*
X013001Y000705D02*
X013271Y000885D01*
X013001Y000885D01*
X013046Y001000D02*
X013226Y001000D01*
X013271Y001045D01*
X013271Y001135D01*
X013226Y001180D01*
X013046Y001180D02*
X013001Y001135D01*
X013001Y001045D01*
X013046Y001000D01*
X013001Y000705D02*
X013271Y000705D01*
X014101Y000705D02*
X014371Y000885D01*
X014101Y000885D01*
X014146Y001000D02*
X014326Y001000D01*
X014371Y001045D01*
X014371Y001135D01*
X014326Y001180D01*
X014146Y001180D02*
X014101Y001135D01*
X014101Y001045D01*
X014146Y001000D01*
X014101Y000705D02*
X014371Y000705D01*
X015001Y000705D02*
X015271Y000885D01*
X015001Y000885D01*
X015046Y001000D02*
X015226Y001000D01*
X015271Y001045D01*
X015271Y001135D01*
X015226Y001180D01*
X015046Y001180D02*
X015001Y001135D01*
X015001Y001045D01*
X015046Y001000D01*
X015001Y000705D02*
X015271Y000705D01*
X004571Y002855D02*
X004301Y002855D01*
X004301Y002990D01*
X004346Y003035D01*
X004436Y003035D01*
X004481Y002990D01*
X004481Y002855D01*
X004481Y002945D02*
X004571Y003035D01*
X004571Y003150D02*
X004391Y003330D01*
X004346Y003330D01*
X004301Y003285D01*
X004301Y003195D01*
X004346Y003150D01*
X004571Y003150D02*
X004571Y003330D01*
X004571Y003955D02*
X004301Y003955D01*
X004301Y004090D01*
X004346Y004135D01*
X004436Y004135D01*
X004481Y004090D01*
X004481Y003955D01*
X004481Y004045D02*
X004571Y004135D01*
X004526Y004250D02*
X004571Y004295D01*
X004571Y004385D01*
X004526Y004430D01*
X004481Y004430D01*
X004436Y004385D01*
X004436Y004340D01*
X004436Y004385D02*
X004391Y004430D01*
X004346Y004430D01*
X004301Y004385D01*
X004301Y004295D01*
X004346Y004250D01*
X004346Y005055D02*
X004526Y005055D01*
X004571Y005100D01*
X004571Y005190D01*
X004526Y005235D01*
X004571Y005350D02*
X004571Y005530D01*
X004571Y005440D02*
X004301Y005440D01*
X004391Y005350D01*
X004346Y005235D02*
X004301Y005190D01*
X004301Y005100D01*
X004346Y005055D01*
X003890Y006311D02*
X003103Y006311D01*
X004301Y006655D02*
X004301Y006790D01*
X004346Y006835D01*
X004436Y006835D01*
X004481Y006790D01*
X004481Y006655D01*
X004481Y006745D02*
X004571Y006835D01*
X004436Y006950D02*
X004436Y007130D01*
X004301Y007085D02*
X004436Y006950D01*
X004571Y007085D02*
X004301Y007085D01*
X004301Y006655D02*
X004571Y006655D01*
X004571Y007955D02*
X004301Y007955D01*
X004301Y008090D01*
X004346Y008135D01*
X004436Y008135D01*
X004481Y008090D01*
X004481Y007955D01*
X004481Y008045D02*
X004571Y008135D01*
X004526Y008250D02*
X004571Y008295D01*
X004571Y008385D01*
X004526Y008430D01*
X004436Y008430D01*
X004391Y008385D01*
X004391Y008340D01*
X004436Y008250D01*
X004301Y008250D01*
X004301Y008430D01*
X004346Y009255D02*
X004526Y009255D01*
X004571Y009300D01*
X004571Y009390D01*
X004526Y009435D01*
X004571Y009550D02*
X004391Y009730D01*
X004346Y009730D01*
X004301Y009685D01*
X004301Y009595D01*
X004346Y009550D01*
X004346Y009435D02*
X004301Y009390D01*
X004301Y009300D01*
X004346Y009255D01*
X004571Y009550D02*
X004571Y009730D01*
X009801Y009423D02*
X009801Y010306D01*
X009901Y010217D02*
X009901Y010037D01*
X009901Y010127D02*
X010171Y010127D01*
X010126Y009922D02*
X010081Y009922D01*
X010036Y009877D01*
X010036Y009787D01*
X009991Y009742D01*
X009946Y009742D01*
X009901Y009787D01*
X009901Y009877D01*
X009946Y009922D01*
X010126Y009922D02*
X010171Y009877D01*
X010171Y009787D01*
X010126Y009742D01*
X010171Y009628D02*
X010081Y009538D01*
X010081Y009583D02*
X010081Y009448D01*
X010171Y009448D02*
X009901Y009448D01*
X009901Y009583D01*
X009946Y009628D01*
X010036Y009628D01*
X010081Y009583D01*
X012001Y009640D02*
X012271Y009640D01*
X012271Y009550D02*
X012271Y009730D01*
X012271Y009844D02*
X012271Y010024D01*
X012271Y009934D02*
X012001Y009934D01*
X012091Y009844D01*
X012001Y009640D02*
X012091Y009550D01*
X012046Y009435D02*
X012136Y009435D01*
X012181Y009390D01*
X012181Y009255D01*
X012181Y009345D02*
X012271Y009435D01*
X012046Y009435D02*
X012001Y009390D01*
X012001Y009255D01*
X012271Y009255D01*
X003890Y002111D02*
X003103Y002111D01*
X002051Y000800D02*
X002051Y000620D01*
X002051Y000710D02*
X001781Y000710D01*
X001871Y000620D01*
X001781Y000505D02*
X001781Y000415D01*
X001781Y000460D02*
X002006Y000460D01*
X002051Y000415D01*
X002051Y000370D01*
X002006Y000325D01*
D12*
X002224Y001480D02*
X002224Y001880D01*
X002024Y001680D01*
X002291Y001680D01*
X001831Y001547D02*
X001764Y001480D01*
X001631Y001480D01*
X001564Y001547D01*
X001564Y001814D01*
X001631Y001880D01*
X001764Y001880D01*
X001831Y001814D01*
X001370Y001814D02*
X001304Y001880D01*
X001170Y001880D01*
X001103Y001814D01*
X000930Y001880D02*
X000796Y001880D01*
X000863Y001880D02*
X000863Y001480D01*
X000796Y001480D02*
X000930Y001480D01*
X001103Y001480D02*
X001370Y001747D01*
X001370Y001814D01*
X001370Y001480D02*
X001103Y001480D01*
X000189Y002111D02*
X000189Y002978D01*
X000583Y002978D01*
X000583Y005182D01*
X000189Y005182D01*
X000189Y006049D01*
X002867Y006049D01*
X002867Y002111D01*
X004087Y002111D01*
X004087Y006049D01*
X002867Y006049D01*
X002867Y006311D02*
X002867Y010249D01*
X000189Y010249D01*
X000189Y009382D01*
X000583Y009382D01*
X000583Y007178D01*
X000189Y007178D01*
X000189Y006311D01*
X002867Y006311D01*
X004087Y006311D01*
X004087Y010249D01*
X002867Y010249D01*
X002291Y010547D02*
X002224Y010480D01*
X002091Y010480D01*
X002024Y010547D01*
X002158Y010680D02*
X002224Y010680D01*
X002291Y010613D01*
X002291Y010547D01*
X002224Y010680D02*
X002291Y010747D01*
X002291Y010814D01*
X002224Y010880D01*
X002091Y010880D01*
X002024Y010814D01*
X001831Y010814D02*
X001764Y010880D01*
X001631Y010880D01*
X001564Y010814D01*
X001564Y010547D01*
X001631Y010480D01*
X001764Y010480D01*
X001831Y010547D01*
X001370Y010480D02*
X001103Y010480D01*
X001370Y010747D01*
X001370Y010814D01*
X001304Y010880D01*
X001170Y010880D01*
X001103Y010814D01*
X000930Y010880D02*
X000796Y010880D01*
X000863Y010880D02*
X000863Y010480D01*
X000796Y010480D02*
X000930Y010480D01*
X006030Y006049D02*
X006030Y002111D01*
X007763Y002111D01*
X007999Y002111D01*
X007999Y002820D01*
X007763Y002820D01*
X007763Y005340D01*
X007999Y005340D01*
X007999Y006049D01*
X007763Y006049D01*
X006030Y006049D01*
X006306Y006049D02*
X007487Y006049D01*
X007763Y006049D02*
X007763Y005340D01*
X007763Y002820D02*
X007763Y002111D01*
X002867Y002111D02*
X000189Y002111D01*
X014606Y002111D02*
X014606Y006049D01*
X015826Y006049D01*
X015826Y002111D01*
X018504Y002111D01*
X018504Y002978D01*
X018110Y002978D01*
X018110Y005182D01*
X018504Y005182D01*
X018504Y006049D01*
X015826Y006049D01*
X015826Y006311D02*
X015826Y010249D01*
X014606Y010249D01*
X014606Y006311D01*
X015826Y006311D01*
X018504Y006311D01*
X018504Y007178D01*
X018110Y007178D01*
X018110Y009382D01*
X018504Y009382D01*
X018504Y010249D01*
X015826Y010249D01*
X016396Y010480D02*
X016530Y010480D01*
X016463Y010480D02*
X016463Y010880D01*
X016396Y010880D02*
X016530Y010880D01*
X016703Y010814D02*
X016770Y010880D01*
X016904Y010880D01*
X016970Y010814D01*
X016970Y010747D01*
X016703Y010480D01*
X016970Y010480D01*
X017164Y010547D02*
X017231Y010480D01*
X017364Y010480D01*
X017431Y010547D01*
X017624Y010480D02*
X017891Y010747D01*
X017891Y010814D01*
X017824Y010880D01*
X017691Y010880D01*
X017624Y010814D01*
X017431Y010814D02*
X017364Y010880D01*
X017231Y010880D01*
X017164Y010814D01*
X017164Y010547D01*
X017624Y010480D02*
X017891Y010480D01*
X015826Y002111D02*
X014606Y002111D01*
X016396Y001880D02*
X016530Y001880D01*
X016463Y001880D02*
X016463Y001480D01*
X016396Y001480D02*
X016530Y001480D01*
X016703Y001480D02*
X016970Y001747D01*
X016970Y001814D01*
X016904Y001880D01*
X016770Y001880D01*
X016703Y001814D01*
X017164Y001814D02*
X017164Y001547D01*
X017231Y001480D01*
X017364Y001480D01*
X017431Y001547D01*
X017624Y001480D02*
X017891Y001480D01*
X017758Y001480D02*
X017758Y001880D01*
X017624Y001747D01*
X017431Y001814D02*
X017364Y001880D01*
X017231Y001880D01*
X017164Y001814D01*
X016970Y001480D02*
X016703Y001480D01*
D13*
X017396Y000180D02*
X001296Y000180D01*
X001246Y000182D01*
X001196Y000187D01*
X001147Y000196D01*
X001099Y000208D01*
X001051Y000224D01*
X001005Y000243D01*
X000961Y000266D01*
X000918Y000291D01*
X000877Y000320D01*
X000838Y000351D01*
X000801Y000385D01*
X000767Y000422D01*
X000736Y000461D01*
X000707Y000502D01*
X000682Y000545D01*
X000659Y000589D01*
X000640Y000635D01*
X000624Y000683D01*
X000612Y000731D01*
X000603Y000780D01*
X000598Y000830D01*
X000596Y000880D01*
X000596Y011480D01*
X000598Y011530D01*
X000603Y011580D01*
X000612Y011629D01*
X000624Y011677D01*
X000640Y011725D01*
X000659Y011771D01*
X000682Y011815D01*
X000707Y011858D01*
X000736Y011899D01*
X000767Y011938D01*
X000801Y011975D01*
X000838Y012009D01*
X000877Y012040D01*
X000918Y012069D01*
X000961Y012094D01*
X001005Y012117D01*
X001051Y012136D01*
X001099Y012152D01*
X001147Y012164D01*
X001196Y012173D01*
X001246Y012178D01*
X001296Y012180D01*
X017396Y012180D01*
X017446Y012178D01*
X017496Y012173D01*
X017545Y012164D01*
X017593Y012152D01*
X017641Y012136D01*
X017687Y012117D01*
X017731Y012094D01*
X017774Y012069D01*
X017815Y012040D01*
X017854Y012009D01*
X017891Y011975D01*
X017925Y011938D01*
X017956Y011899D01*
X017985Y011858D01*
X018010Y011815D01*
X018033Y011771D01*
X018052Y011725D01*
X018068Y011677D01*
X018080Y011629D01*
X018089Y011580D01*
X018094Y011530D01*
X018096Y011480D01*
X018096Y000880D01*
X018094Y000830D01*
X018089Y000780D01*
X018080Y000731D01*
X018068Y000683D01*
X018052Y000635D01*
X018033Y000589D01*
X018010Y000545D01*
X017985Y000502D01*
X017956Y000461D01*
X017925Y000422D01*
X017891Y000385D01*
X017854Y000351D01*
X017815Y000320D01*
X017774Y000291D01*
X017731Y000266D01*
X017687Y000243D01*
X017641Y000224D01*
X017593Y000208D01*
X017545Y000196D01*
X017496Y000187D01*
X017446Y000182D01*
X017396Y000180D01*
X009436Y007380D02*
X008816Y007380D01*
X008576Y007380D01*
X007956Y007380D01*
X008576Y007380D02*
X008578Y007401D01*
X008583Y007421D01*
X008592Y007440D01*
X008604Y007457D01*
X008619Y007472D01*
X008636Y007484D01*
X008655Y007493D01*
X008675Y007498D01*
X008696Y007500D01*
X008717Y007498D01*
X008737Y007493D01*
X008756Y007484D01*
X008773Y007472D01*
X008788Y007457D01*
X008800Y007440D01*
X008809Y007421D01*
X008814Y007401D01*
X008816Y007380D01*
X007116Y009020D02*
X006716Y009020D01*
X007956Y009380D02*
X009436Y009380D01*
D14*
X009848Y007307D02*
X010161Y006993D01*
X010005Y006993D02*
X010005Y007307D01*
X010161Y007307D02*
X009848Y006993D01*
X009848Y007150D02*
X010161Y007150D01*
D15*
X011303Y005895D02*
X011303Y005265D01*
X011309Y005247D01*
X011318Y005229D01*
X011330Y005214D01*
X011346Y005202D01*
X011363Y005193D01*
X011382Y005187D01*
X011401Y005185D01*
X011421Y005187D01*
X011972Y005187D02*
X011990Y005185D01*
X012007Y005186D01*
X012024Y005190D01*
X012040Y005197D01*
X012055Y005207D01*
X012067Y005219D01*
X012077Y005233D01*
X012085Y005249D01*
X012090Y005265D01*
X012090Y005895D01*
X012085Y005911D01*
X012077Y005927D01*
X012067Y005941D01*
X012055Y005953D01*
X012040Y005963D01*
X012024Y005970D01*
X012007Y005974D01*
X011990Y005975D01*
X011972Y005973D01*
X011421Y005973D02*
X011401Y005975D01*
X011382Y005973D01*
X011363Y005967D01*
X011346Y005958D01*
X011330Y005946D01*
X011318Y005931D01*
X011309Y005913D01*
X011303Y005895D01*
X011303Y004595D02*
X011303Y003965D01*
X011309Y003947D01*
X011318Y003929D01*
X011330Y003914D01*
X011346Y003902D01*
X011363Y003893D01*
X011382Y003887D01*
X011401Y003885D01*
X011421Y003887D01*
X011972Y003887D02*
X011990Y003885D01*
X012007Y003886D01*
X012024Y003890D01*
X012040Y003897D01*
X012055Y003907D01*
X012067Y003919D01*
X012077Y003933D01*
X012085Y003949D01*
X012090Y003965D01*
X012090Y004595D01*
X012085Y004611D01*
X012077Y004627D01*
X012067Y004641D01*
X012055Y004653D01*
X012040Y004663D01*
X012024Y004670D01*
X012007Y004674D01*
X011990Y004675D01*
X011972Y004673D01*
X011421Y004673D02*
X011401Y004675D01*
X011382Y004673D01*
X011363Y004667D01*
X011346Y004658D01*
X011330Y004646D01*
X011318Y004631D01*
X011309Y004613D01*
X011303Y004595D01*
X011303Y003295D02*
X011303Y002665D01*
X011309Y002647D01*
X011318Y002629D01*
X011330Y002614D01*
X011346Y002602D01*
X011363Y002593D01*
X011382Y002587D01*
X011401Y002585D01*
X011421Y002587D01*
X011972Y002587D02*
X011990Y002585D01*
X012007Y002586D01*
X012024Y002590D01*
X012040Y002597D01*
X012055Y002607D01*
X012067Y002619D01*
X012077Y002633D01*
X012085Y002649D01*
X012090Y002665D01*
X012090Y003295D01*
X012085Y003311D01*
X012077Y003327D01*
X012067Y003341D01*
X012055Y003353D01*
X012040Y003363D01*
X012024Y003370D01*
X012007Y003374D01*
X011990Y003375D01*
X011972Y003373D01*
X011421Y003373D02*
X011401Y003375D01*
X011382Y003373D01*
X011363Y003367D01*
X011346Y003358D01*
X011330Y003346D01*
X011318Y003331D01*
X011309Y003313D01*
X011303Y003295D01*
X005196Y000930D02*
X005196Y000430D01*
X004946Y000180D01*
X004446Y000180D01*
X004196Y000430D01*
X003946Y000180D01*
X003096Y000180D01*
X002696Y000180D02*
X002446Y000180D01*
X002196Y000430D01*
X002196Y000930D01*
X002446Y001180D01*
X002696Y001180D01*
X003096Y001180D02*
X003946Y001180D01*
X004196Y000930D01*
X004446Y001180D01*
X004946Y001180D01*
X005196Y000930D01*
X010303Y009465D02*
X010303Y010095D01*
X010309Y010113D01*
X010318Y010131D01*
X010330Y010146D01*
X010346Y010158D01*
X010363Y010167D01*
X010382Y010173D01*
X010401Y010175D01*
X010421Y010173D01*
X010972Y010173D02*
X010990Y010175D01*
X011007Y010174D01*
X011024Y010170D01*
X011040Y010163D01*
X011055Y010153D01*
X011067Y010141D01*
X011077Y010127D01*
X011085Y010111D01*
X011090Y010095D01*
X011090Y009465D01*
X011085Y009449D01*
X011077Y009433D01*
X011067Y009419D01*
X011055Y009407D01*
X011040Y009397D01*
X011024Y009390D01*
X011007Y009386D01*
X010990Y009385D01*
X010972Y009387D01*
X010421Y009387D02*
X010401Y009385D01*
X010382Y009387D01*
X010363Y009393D01*
X010346Y009402D01*
X010330Y009414D01*
X010318Y009429D01*
X010309Y009447D01*
X010303Y009465D01*
X002863Y011599D02*
X002863Y011780D01*
X002741Y011688D01*
X002863Y011780D02*
X002863Y011961D01*
X002741Y011866D02*
X002857Y011790D01*
D16*
X004884Y009580D02*
X004908Y009580D01*
X007796Y006892D02*
X007796Y006868D01*
X009184Y005380D02*
X009208Y005380D01*
X004908Y005380D02*
X004884Y005380D01*
X012584Y008280D02*
X012608Y008280D01*
X013684Y006980D02*
X013708Y006980D01*
X013708Y002780D02*
X013684Y002780D01*
D17*
X012596Y002780D03*
X012596Y004080D03*
X013696Y004080D03*
X013696Y005380D03*
X012596Y005380D03*
X009196Y004080D03*
X009196Y002780D03*
X004896Y002780D03*
X004896Y004080D03*
X004896Y006980D03*
X004896Y008280D03*
X012596Y009580D03*
X013696Y009580D03*
X013696Y008280D03*
D18*
X016952Y011430D02*
X016954Y011469D01*
X016960Y011508D01*
X016970Y011546D01*
X016983Y011583D01*
X017000Y011618D01*
X017020Y011652D01*
X017044Y011683D01*
X017071Y011712D01*
X017100Y011738D01*
X017132Y011761D01*
X017166Y011781D01*
X017202Y011797D01*
X017239Y011809D01*
X017278Y011818D01*
X017317Y011823D01*
X017356Y011824D01*
X017395Y011821D01*
X017434Y011814D01*
X017471Y011803D01*
X017508Y011789D01*
X017543Y011771D01*
X017576Y011750D01*
X017607Y011725D01*
X017635Y011698D01*
X017660Y011668D01*
X017682Y011635D01*
X017701Y011601D01*
X017716Y011565D01*
X017728Y011527D01*
X017736Y011489D01*
X017740Y011450D01*
X017740Y011410D01*
X017736Y011371D01*
X017728Y011333D01*
X017716Y011295D01*
X017701Y011259D01*
X017682Y011225D01*
X017660Y011192D01*
X017635Y011162D01*
X017607Y011135D01*
X017576Y011110D01*
X017543Y011089D01*
X017508Y011071D01*
X017471Y011057D01*
X017434Y011046D01*
X017395Y011039D01*
X017356Y011036D01*
X017317Y011037D01*
X017278Y011042D01*
X017239Y011051D01*
X017202Y011063D01*
X017166Y011079D01*
X017132Y011099D01*
X017100Y011122D01*
X017071Y011148D01*
X017044Y011177D01*
X017020Y011208D01*
X017000Y011242D01*
X016983Y011277D01*
X016970Y011314D01*
X016960Y011352D01*
X016954Y011391D01*
X016952Y011430D01*
X000952Y011430D02*
X000954Y011469D01*
X000960Y011508D01*
X000970Y011546D01*
X000983Y011583D01*
X001000Y011618D01*
X001020Y011652D01*
X001044Y011683D01*
X001071Y011712D01*
X001100Y011738D01*
X001132Y011761D01*
X001166Y011781D01*
X001202Y011797D01*
X001239Y011809D01*
X001278Y011818D01*
X001317Y011823D01*
X001356Y011824D01*
X001395Y011821D01*
X001434Y011814D01*
X001471Y011803D01*
X001508Y011789D01*
X001543Y011771D01*
X001576Y011750D01*
X001607Y011725D01*
X001635Y011698D01*
X001660Y011668D01*
X001682Y011635D01*
X001701Y011601D01*
X001716Y011565D01*
X001728Y011527D01*
X001736Y011489D01*
X001740Y011450D01*
X001740Y011410D01*
X001736Y011371D01*
X001728Y011333D01*
X001716Y011295D01*
X001701Y011259D01*
X001682Y011225D01*
X001660Y011192D01*
X001635Y011162D01*
X001607Y011135D01*
X001576Y011110D01*
X001543Y011089D01*
X001508Y011071D01*
X001471Y011057D01*
X001434Y011046D01*
X001395Y011039D01*
X001356Y011036D01*
X001317Y011037D01*
X001278Y011042D01*
X001239Y011051D01*
X001202Y011063D01*
X001166Y011079D01*
X001132Y011099D01*
X001100Y011122D01*
X001071Y011148D01*
X001044Y011177D01*
X001020Y011208D01*
X001000Y011242D01*
X000983Y011277D01*
X000970Y011314D01*
X000960Y011352D01*
X000954Y011391D01*
X000952Y011430D01*
X000952Y000930D02*
X000954Y000969D01*
X000960Y001008D01*
X000970Y001046D01*
X000983Y001083D01*
X001000Y001118D01*
X001020Y001152D01*
X001044Y001183D01*
X001071Y001212D01*
X001100Y001238D01*
X001132Y001261D01*
X001166Y001281D01*
X001202Y001297D01*
X001239Y001309D01*
X001278Y001318D01*
X001317Y001323D01*
X001356Y001324D01*
X001395Y001321D01*
X001434Y001314D01*
X001471Y001303D01*
X001508Y001289D01*
X001543Y001271D01*
X001576Y001250D01*
X001607Y001225D01*
X001635Y001198D01*
X001660Y001168D01*
X001682Y001135D01*
X001701Y001101D01*
X001716Y001065D01*
X001728Y001027D01*
X001736Y000989D01*
X001740Y000950D01*
X001740Y000910D01*
X001736Y000871D01*
X001728Y000833D01*
X001716Y000795D01*
X001701Y000759D01*
X001682Y000725D01*
X001660Y000692D01*
X001635Y000662D01*
X001607Y000635D01*
X001576Y000610D01*
X001543Y000589D01*
X001508Y000571D01*
X001471Y000557D01*
X001434Y000546D01*
X001395Y000539D01*
X001356Y000536D01*
X001317Y000537D01*
X001278Y000542D01*
X001239Y000551D01*
X001202Y000563D01*
X001166Y000579D01*
X001132Y000599D01*
X001100Y000622D01*
X001071Y000648D01*
X001044Y000677D01*
X001020Y000708D01*
X001000Y000742D01*
X000983Y000777D01*
X000970Y000814D01*
X000960Y000852D01*
X000954Y000891D01*
X000952Y000930D01*
X016952Y000930D02*
X016954Y000969D01*
X016960Y001008D01*
X016970Y001046D01*
X016983Y001083D01*
X017000Y001118D01*
X017020Y001152D01*
X017044Y001183D01*
X017071Y001212D01*
X017100Y001238D01*
X017132Y001261D01*
X017166Y001281D01*
X017202Y001297D01*
X017239Y001309D01*
X017278Y001318D01*
X017317Y001323D01*
X017356Y001324D01*
X017395Y001321D01*
X017434Y001314D01*
X017471Y001303D01*
X017508Y001289D01*
X017543Y001271D01*
X017576Y001250D01*
X017607Y001225D01*
X017635Y001198D01*
X017660Y001168D01*
X017682Y001135D01*
X017701Y001101D01*
X017716Y001065D01*
X017728Y001027D01*
X017736Y000989D01*
X017740Y000950D01*
X017740Y000910D01*
X017736Y000871D01*
X017728Y000833D01*
X017716Y000795D01*
X017701Y000759D01*
X017682Y000725D01*
X017660Y000692D01*
X017635Y000662D01*
X017607Y000635D01*
X017576Y000610D01*
X017543Y000589D01*
X017508Y000571D01*
X017471Y000557D01*
X017434Y000546D01*
X017395Y000539D01*
X017356Y000536D01*
X017317Y000537D01*
X017278Y000542D01*
X017239Y000551D01*
X017202Y000563D01*
X017166Y000579D01*
X017132Y000599D01*
X017100Y000622D01*
X017071Y000648D01*
X017044Y000677D01*
X017020Y000708D01*
X017000Y000742D01*
X016983Y000777D01*
X016970Y000814D01*
X016960Y000852D01*
X016954Y000891D01*
X016952Y000930D01*
D19*
X005746Y009288D03*
X005684Y009350D03*
X005621Y009413D03*
X005536Y009628D03*
X005684Y009665D03*
X005599Y009880D03*
X005614Y009963D03*
X005476Y010003D03*
X005614Y010153D03*
D20*
X005614Y010150D03*
X005614Y009965D03*
X005599Y009878D03*
X005476Y010000D03*
X005684Y009663D03*
X005536Y009630D03*
X005621Y009415D03*
X005684Y009353D03*
X005746Y009290D03*
X006274Y009860D03*
X006464Y009758D03*
X005991Y009935D03*
D21*
X006051Y009860D03*
X005876Y009883D03*
X005876Y009885D03*
X005696Y009745D03*
X005684Y009660D03*
X005536Y009633D03*
X005526Y009545D03*
X005526Y009470D03*
X005621Y009418D03*
X005684Y009355D03*
X005746Y009293D03*
X005599Y009875D03*
X005614Y009968D03*
X005476Y009998D03*
X005516Y010095D03*
X005614Y010148D03*
X006334Y009860D03*
X006461Y009753D03*
X006459Y009748D03*
X007099Y009758D03*
X007099Y009760D03*
X007099Y009763D03*
X007099Y009765D03*
X007099Y009768D03*
X007099Y009858D03*
X007099Y009860D03*
X007099Y009863D03*
X007099Y009865D03*
D22*
X007096Y009883D03*
X007096Y009885D03*
X007096Y009888D03*
X007096Y009890D03*
X007096Y009743D03*
X007096Y009740D03*
X007096Y009738D03*
X007096Y009735D03*
X007096Y009733D03*
X006711Y009875D03*
X006711Y009878D03*
X006711Y009880D03*
X006711Y009883D03*
X006711Y009885D03*
X006711Y009888D03*
X006604Y009753D03*
X006604Y009750D03*
X006604Y009748D03*
X006604Y009745D03*
X006604Y009743D03*
X006604Y009740D03*
X006604Y009738D03*
X006604Y009735D03*
X006459Y009743D03*
X006174Y009855D03*
X005874Y009873D03*
X005874Y009875D03*
X005886Y009705D03*
X005684Y009658D03*
X005621Y009595D03*
X005536Y009635D03*
X005599Y009698D03*
X005599Y009873D03*
X005614Y009970D03*
X005476Y009995D03*
X005614Y010145D03*
X005621Y009420D03*
X005684Y009358D03*
X005746Y009295D03*
D23*
X005746Y009298D03*
X005684Y009360D03*
X005621Y009423D03*
X005526Y009473D03*
X005526Y009543D03*
X005536Y009638D03*
X005599Y009700D03*
X005684Y009655D03*
X005621Y009593D03*
X005871Y009863D03*
X005871Y009865D03*
X005984Y009930D03*
X006266Y009855D03*
X006444Y009708D03*
X006446Y009710D03*
X006531Y009665D03*
X006709Y009893D03*
X006839Y009860D03*
X006836Y009705D03*
X007094Y009728D03*
X005476Y009993D03*
D24*
X005476Y009990D03*
X005599Y009703D03*
X005869Y009743D03*
X005869Y009745D03*
X005869Y009748D03*
X005869Y009750D03*
X005869Y009753D03*
X005869Y009755D03*
X005869Y009758D03*
X005869Y009760D03*
X005869Y009763D03*
X005869Y009765D03*
X005869Y009768D03*
X005869Y009770D03*
X005869Y009773D03*
X005869Y009775D03*
X005869Y009778D03*
X005869Y009780D03*
X005869Y009783D03*
X005869Y009785D03*
X005869Y009788D03*
X005869Y009790D03*
X005869Y009793D03*
X005869Y009795D03*
X005869Y009798D03*
X005869Y009800D03*
X005869Y009803D03*
X005869Y009805D03*
X005869Y009808D03*
X005869Y009810D03*
X005869Y009813D03*
X005869Y009815D03*
X005869Y009818D03*
X005869Y009820D03*
X005869Y009823D03*
X005869Y009825D03*
X005869Y009828D03*
X005869Y009830D03*
X005869Y009833D03*
X005981Y009828D03*
X005981Y009825D03*
X005981Y009823D03*
X005981Y009820D03*
X005981Y009818D03*
X005981Y009815D03*
X005981Y009813D03*
X005981Y009810D03*
X005981Y009808D03*
X005981Y009805D03*
X005981Y009803D03*
X005981Y009800D03*
X005981Y009798D03*
X005981Y009795D03*
X005981Y009793D03*
X005981Y009790D03*
X005981Y009788D03*
X005981Y009785D03*
X005981Y009783D03*
X005981Y009780D03*
X005981Y009778D03*
X005981Y009775D03*
X005981Y009773D03*
X005981Y009770D03*
X005981Y009768D03*
X005981Y009765D03*
X005981Y009763D03*
X005981Y009760D03*
X005981Y009758D03*
X005981Y009755D03*
X005981Y009753D03*
X005981Y009750D03*
X005981Y009748D03*
X005981Y009745D03*
X005981Y009743D03*
X005981Y009740D03*
X005981Y009738D03*
X005981Y009735D03*
X005981Y009733D03*
X005981Y009730D03*
X005981Y009728D03*
X005981Y009725D03*
X006074Y009725D03*
X006074Y009728D03*
X006074Y009730D03*
X006074Y009733D03*
X006074Y009735D03*
X006074Y009738D03*
X006074Y009740D03*
X006074Y009743D03*
X006074Y009745D03*
X006074Y009748D03*
X006074Y009750D03*
X006074Y009753D03*
X006074Y009755D03*
X006074Y009758D03*
X006074Y009760D03*
X006074Y009763D03*
X006074Y009765D03*
X006074Y009768D03*
X006074Y009770D03*
X006074Y009773D03*
X006074Y009775D03*
X006074Y009778D03*
X006074Y009780D03*
X006074Y009783D03*
X006074Y009785D03*
X006074Y009788D03*
X006074Y009790D03*
X006074Y009793D03*
X006074Y009795D03*
X006074Y009798D03*
X006074Y009800D03*
X006074Y009803D03*
X006074Y009805D03*
X006074Y009808D03*
X006074Y009810D03*
X006074Y009813D03*
X006051Y009858D03*
X005981Y009858D03*
X005981Y009860D03*
X005981Y009863D03*
X005981Y009865D03*
X005981Y009868D03*
X005981Y009870D03*
X005981Y009873D03*
X005981Y009875D03*
X005981Y009878D03*
X005981Y009880D03*
X005981Y009883D03*
X005981Y009885D03*
X005981Y009888D03*
X005981Y009890D03*
X005981Y009893D03*
X005981Y009895D03*
X005981Y009898D03*
X005981Y009900D03*
X005981Y009903D03*
X005981Y009905D03*
X005981Y009908D03*
X005981Y009855D03*
X005981Y009853D03*
X005981Y009850D03*
X005981Y009848D03*
X005981Y009845D03*
X006169Y009833D03*
X006169Y009830D03*
X006169Y009828D03*
X006169Y009825D03*
X006169Y009823D03*
X006169Y009820D03*
X006169Y009818D03*
X006169Y009815D03*
X006169Y009813D03*
X006169Y009810D03*
X006169Y009808D03*
X006169Y009805D03*
X006169Y009803D03*
X006169Y009800D03*
X006169Y009798D03*
X006169Y009795D03*
X006169Y009793D03*
X006169Y009790D03*
X006169Y009788D03*
X006169Y009785D03*
X006169Y009783D03*
X006169Y009780D03*
X006169Y009778D03*
X006169Y009775D03*
X006169Y009773D03*
X006169Y009770D03*
X006169Y009768D03*
X006169Y009765D03*
X006169Y009763D03*
X006169Y009760D03*
X006169Y009758D03*
X006169Y009755D03*
X006169Y009753D03*
X006169Y009750D03*
X006169Y009748D03*
X006169Y009745D03*
X006169Y009743D03*
X006169Y009740D03*
X006169Y009738D03*
X006169Y009735D03*
X006169Y009733D03*
X006169Y009730D03*
X006169Y009728D03*
X006169Y009725D03*
X006264Y009725D03*
X006264Y009728D03*
X006264Y009730D03*
X006264Y009733D03*
X006264Y009735D03*
X006264Y009738D03*
X006264Y009740D03*
X006264Y009743D03*
X006264Y009745D03*
X006264Y009748D03*
X006264Y009750D03*
X006264Y009753D03*
X006264Y009755D03*
X006264Y009758D03*
X006264Y009760D03*
X006264Y009763D03*
X006264Y009765D03*
X006264Y009768D03*
X006264Y009770D03*
X006264Y009773D03*
X006264Y009775D03*
X006264Y009778D03*
X006264Y009780D03*
X006264Y009783D03*
X006264Y009785D03*
X006264Y009788D03*
X006264Y009790D03*
X006264Y009793D03*
X006264Y009795D03*
X006264Y009798D03*
X006264Y009800D03*
X006264Y009803D03*
X006264Y009805D03*
X006264Y009808D03*
X006264Y009810D03*
X006264Y009813D03*
X006264Y009815D03*
X006264Y009818D03*
X006264Y009820D03*
X006264Y009823D03*
X006264Y009825D03*
X006264Y009828D03*
X006334Y009858D03*
X006356Y009813D03*
X006356Y009810D03*
X006356Y009808D03*
X006356Y009805D03*
X006356Y009803D03*
X006356Y009800D03*
X006356Y009798D03*
X006356Y009795D03*
X006356Y009793D03*
X006356Y009790D03*
X006356Y009788D03*
X006356Y009785D03*
X006356Y009783D03*
X006356Y009780D03*
X006356Y009778D03*
X006356Y009775D03*
X006356Y009773D03*
X006356Y009770D03*
X006356Y009768D03*
X006356Y009765D03*
X006356Y009763D03*
X006356Y009760D03*
X006356Y009758D03*
X006356Y009755D03*
X006356Y009753D03*
X006356Y009750D03*
X006356Y009748D03*
X006356Y009745D03*
X006356Y009743D03*
X006356Y009740D03*
X006356Y009738D03*
X006356Y009735D03*
X006356Y009733D03*
X006356Y009730D03*
X006356Y009728D03*
X006356Y009725D03*
X006436Y009698D03*
X006436Y009695D03*
X006434Y009690D03*
X006434Y009688D03*
X006434Y009685D03*
X006434Y009683D03*
X006434Y009680D03*
X006461Y009738D03*
X006514Y009778D03*
X006516Y009780D03*
X006519Y009783D03*
X006521Y009788D03*
X006524Y009793D03*
X006524Y009795D03*
X006524Y009798D03*
X006526Y009800D03*
X006526Y009803D03*
X006526Y009805D03*
X006526Y009808D03*
X006526Y009810D03*
X006526Y009813D03*
X006526Y009815D03*
X006526Y009818D03*
X006526Y009820D03*
X006524Y009825D03*
X006524Y009828D03*
X006521Y009833D03*
X006449Y009838D03*
X006446Y009835D03*
X006444Y009830D03*
X006444Y009828D03*
X006441Y009823D03*
X006441Y009820D03*
X006541Y009690D03*
X006541Y009688D03*
X006541Y009685D03*
X006649Y009705D03*
X006704Y009740D03*
X006794Y009830D03*
X006621Y009885D03*
X006619Y009883D03*
X006619Y009880D03*
X006616Y009875D03*
X006616Y009873D03*
X006616Y009870D03*
X007049Y009918D03*
X007049Y009705D03*
X005746Y009300D03*
D25*
X005746Y009303D03*
X005526Y009475D03*
X005526Y009540D03*
X005599Y009705D03*
X005696Y009750D03*
X005871Y009735D03*
X005871Y009733D03*
X005981Y009723D03*
X006074Y009723D03*
X006169Y009723D03*
X006264Y009723D03*
X006356Y009723D03*
X006354Y009823D03*
X006354Y009825D03*
X006351Y009828D03*
X006266Y009830D03*
X006166Y009850D03*
X006071Y009823D03*
X006069Y009828D03*
X005984Y009830D03*
X005674Y009918D03*
X005539Y009925D03*
X005476Y009988D03*
X005516Y010090D03*
X006441Y009798D03*
X006451Y009778D03*
X006456Y009845D03*
X006616Y009855D03*
X006616Y009858D03*
X006631Y009895D03*
X006704Y009898D03*
X006786Y009815D03*
X006784Y009808D03*
X006784Y009805D03*
X006784Y009803D03*
X006781Y009798D03*
X006781Y009795D03*
X006781Y009793D03*
X006781Y009790D03*
X006781Y009788D03*
X006781Y009785D03*
X006781Y009783D03*
X006781Y009780D03*
X006781Y009778D03*
X006781Y009775D03*
X006781Y009773D03*
X006781Y009770D03*
X006781Y009768D03*
X006784Y009763D03*
X006784Y009760D03*
X006784Y009758D03*
X006786Y009750D03*
X006789Y009743D03*
X006801Y009725D03*
X006889Y009750D03*
X006891Y009758D03*
X006891Y009760D03*
X006891Y009763D03*
X006894Y009768D03*
X006894Y009770D03*
X006894Y009773D03*
X006894Y009775D03*
X006894Y009778D03*
X006894Y009780D03*
X006894Y009783D03*
X006894Y009785D03*
X006894Y009788D03*
X006894Y009790D03*
X006894Y009793D03*
X006894Y009795D03*
X006894Y009798D03*
X006891Y009803D03*
X006891Y009805D03*
X006891Y009808D03*
X006889Y009815D03*
X006964Y009830D03*
X006966Y009843D03*
X006969Y009850D03*
X006971Y009858D03*
X006974Y009863D03*
X006976Y009868D03*
X006964Y009793D03*
X006966Y009780D03*
X006969Y009773D03*
X006971Y009765D03*
X006974Y009760D03*
X006709Y009760D03*
X006709Y009758D03*
X006709Y009755D03*
X006699Y009733D03*
X006696Y009730D03*
X006539Y009698D03*
X006439Y009668D03*
D26*
X006536Y009700D03*
X006621Y009845D03*
X006619Y009848D03*
X006619Y009850D03*
X006706Y009770D03*
X006984Y009745D03*
X006989Y009740D03*
X006991Y009738D03*
X006994Y009735D03*
X006994Y009888D03*
X006996Y009890D03*
X006349Y009830D03*
X006259Y009850D03*
X006066Y009830D03*
X005976Y009925D03*
X005674Y009920D03*
X005601Y009860D03*
X005539Y009923D03*
X005476Y009985D03*
X005674Y010195D03*
X005889Y009708D03*
X005746Y009305D03*
D27*
X005746Y009308D03*
X005721Y009458D03*
X005721Y009460D03*
X005724Y009468D03*
X005724Y009470D03*
X005724Y009473D03*
X005724Y009475D03*
X005724Y009478D03*
X005726Y009485D03*
X005726Y009488D03*
X005726Y009528D03*
X005726Y009530D03*
X005726Y009533D03*
X005724Y009543D03*
X005724Y009545D03*
X005724Y009548D03*
X005721Y009558D03*
X005636Y009538D03*
X005636Y009535D03*
X005639Y009528D03*
X005639Y009525D03*
X005641Y009518D03*
X005641Y009515D03*
X005641Y009513D03*
X005641Y009510D03*
X005641Y009508D03*
X005641Y009505D03*
X005641Y009503D03*
X005641Y009500D03*
X005641Y009498D03*
X005639Y009493D03*
X005639Y009490D03*
X005639Y009488D03*
X005636Y009480D03*
X005636Y009478D03*
X005526Y009478D03*
X005526Y009538D03*
X005601Y009713D03*
X005584Y009758D03*
X005584Y009760D03*
X005584Y009763D03*
X005581Y009768D03*
X005581Y009770D03*
X005581Y009773D03*
X005581Y009775D03*
X005579Y009780D03*
X005579Y009788D03*
X005579Y009790D03*
X005581Y009793D03*
X005581Y009795D03*
X005581Y009798D03*
X005581Y009800D03*
X005584Y009805D03*
X005584Y009808D03*
X005584Y009810D03*
X005584Y009813D03*
X005601Y009858D03*
X005539Y009920D03*
X005476Y009983D03*
X005516Y010028D03*
X005516Y010088D03*
X005611Y010130D03*
X005629Y010085D03*
X005629Y010083D03*
X005629Y010080D03*
X005629Y010078D03*
X005629Y010075D03*
X005631Y010070D03*
X005631Y010068D03*
X005631Y010065D03*
X005631Y010063D03*
X005631Y010060D03*
X005631Y010058D03*
X005631Y010055D03*
X005631Y010053D03*
X005631Y010050D03*
X005631Y010048D03*
X005631Y010045D03*
X005629Y010040D03*
X005629Y010038D03*
X005629Y010035D03*
X005629Y010033D03*
X005629Y010030D03*
X005611Y009985D03*
X005674Y009923D03*
X005711Y010005D03*
X005714Y010010D03*
X005714Y010013D03*
X005714Y010015D03*
X005714Y010018D03*
X005716Y010023D03*
X005716Y010025D03*
X005716Y010028D03*
X005716Y010030D03*
X005716Y010033D03*
X005719Y010038D03*
X005719Y010040D03*
X005719Y010043D03*
X005719Y010045D03*
X005719Y010048D03*
X005719Y010050D03*
X005719Y010053D03*
X005719Y010055D03*
X005719Y010058D03*
X005719Y010060D03*
X005719Y010063D03*
X005719Y010065D03*
X005719Y010068D03*
X005719Y010070D03*
X005719Y010073D03*
X005719Y010075D03*
X005719Y010078D03*
X005716Y010083D03*
X005716Y010085D03*
X005716Y010088D03*
X005716Y010090D03*
X005716Y010093D03*
X005714Y010100D03*
X005714Y010103D03*
X005714Y010105D03*
X005711Y010110D03*
X005674Y010193D03*
X005801Y010105D03*
X005801Y010103D03*
X005801Y010100D03*
X005801Y010098D03*
X005801Y010095D03*
X005801Y010093D03*
X005801Y010090D03*
X005804Y010083D03*
X005804Y010080D03*
X005804Y010078D03*
X005804Y010075D03*
X005804Y010073D03*
X005804Y010070D03*
X005804Y010068D03*
X005804Y010065D03*
X005804Y010063D03*
X005804Y010060D03*
X005804Y010058D03*
X005804Y010055D03*
X005804Y010053D03*
X005804Y010050D03*
X005804Y010048D03*
X005804Y010045D03*
X005804Y010043D03*
X005804Y010040D03*
X005804Y010038D03*
X005804Y010035D03*
X005804Y010033D03*
X005804Y010030D03*
X005801Y010015D03*
X005801Y010013D03*
X005801Y010010D03*
X005801Y010008D03*
X006064Y009833D03*
X006256Y009848D03*
X006271Y009833D03*
X006346Y009833D03*
X006484Y009858D03*
X006481Y009763D03*
X006534Y009703D03*
X006686Y009725D03*
X006704Y009775D03*
X006701Y009778D03*
X006624Y009843D03*
X006839Y009858D03*
X006836Y009708D03*
X007001Y009730D03*
X007004Y009895D03*
X005876Y009728D03*
X005696Y009753D03*
X005499Y009738D03*
X005499Y009735D03*
X005496Y009748D03*
X005496Y009750D03*
X005494Y009763D03*
X005494Y009765D03*
X005494Y009768D03*
X005494Y009770D03*
X005494Y009773D03*
X005494Y009775D03*
X005494Y009778D03*
X005494Y009780D03*
X005494Y009783D03*
X005494Y009785D03*
X005494Y009788D03*
X005494Y009790D03*
X005494Y009793D03*
X005494Y009795D03*
X005494Y009798D03*
X005494Y009800D03*
X005494Y009803D03*
X005494Y009805D03*
X005496Y009818D03*
X005496Y009820D03*
X005499Y009830D03*
X005499Y009833D03*
X005414Y009850D03*
X005411Y009838D03*
X005411Y009835D03*
X005409Y009830D03*
X005409Y009828D03*
X005409Y009825D03*
X005409Y009823D03*
X005409Y009820D03*
X005409Y009818D03*
X005406Y009810D03*
X005406Y009808D03*
X005406Y009805D03*
X005406Y009803D03*
X005406Y009800D03*
X005406Y009798D03*
X005406Y009795D03*
X005406Y009793D03*
X005406Y009790D03*
X005406Y009788D03*
X005406Y009785D03*
X005406Y009783D03*
X005406Y009780D03*
X005406Y009778D03*
X005406Y009775D03*
X005406Y009773D03*
X005406Y009770D03*
X005406Y009768D03*
X005406Y009765D03*
X005406Y009763D03*
X005406Y009760D03*
X005406Y009758D03*
X005409Y009743D03*
X005409Y009740D03*
X005409Y009738D03*
X005411Y009733D03*
X005411Y009730D03*
X005414Y009718D03*
X005811Y009558D03*
X005811Y009555D03*
X005811Y009458D03*
D28*
X005814Y009468D03*
X005814Y009470D03*
X005814Y009473D03*
X005814Y009475D03*
X005809Y009445D03*
X005809Y009443D03*
X005806Y009435D03*
X005806Y009433D03*
X005804Y009430D03*
X005804Y009428D03*
X005804Y009425D03*
X005801Y009420D03*
X005801Y009418D03*
X005801Y009415D03*
X005799Y009410D03*
X005794Y009398D03*
X005711Y009428D03*
X005711Y009430D03*
X005709Y009425D03*
X005709Y009423D03*
X005706Y009420D03*
X005704Y009415D03*
X005701Y009410D03*
X005714Y009435D03*
X005714Y009438D03*
X005681Y009375D03*
X005619Y009438D03*
X005624Y009450D03*
X005629Y009460D03*
X005631Y009465D03*
X005631Y009550D03*
X005629Y009555D03*
X005626Y009560D03*
X005624Y009565D03*
X005619Y009578D03*
X005701Y009605D03*
X005704Y009603D03*
X005704Y009600D03*
X005706Y009598D03*
X005706Y009595D03*
X005709Y009593D03*
X005709Y009590D03*
X005711Y009588D03*
X005711Y009585D03*
X005714Y009580D03*
X005716Y009573D03*
X005681Y009640D03*
X005789Y009628D03*
X005791Y009623D03*
X005794Y009620D03*
X005794Y009618D03*
X005794Y009615D03*
X005796Y009610D03*
X005799Y009605D03*
X005801Y009598D03*
X005801Y009595D03*
X005804Y009588D03*
X005806Y009583D03*
X005806Y009580D03*
X005696Y009755D03*
X005601Y009715D03*
X005591Y009738D03*
X005589Y009743D03*
X005589Y009825D03*
X005591Y009830D03*
X005591Y009833D03*
X005594Y009835D03*
X005601Y009853D03*
X005519Y009880D03*
X005514Y009870D03*
X005511Y009865D03*
X005509Y009863D03*
X005509Y009860D03*
X005509Y009858D03*
X005506Y009855D03*
X005506Y009853D03*
X005504Y009848D03*
X005501Y009840D03*
X005539Y009918D03*
X005476Y009980D03*
X005516Y010030D03*
X005516Y010085D03*
X005616Y010113D03*
X005619Y010108D03*
X005621Y010103D03*
X005624Y010098D03*
X005624Y010018D03*
X005621Y010013D03*
X005619Y010008D03*
X005696Y009968D03*
X005699Y009970D03*
X005699Y009973D03*
X005701Y009975D03*
X005701Y009978D03*
X005704Y009983D03*
X005706Y009988D03*
X005694Y009963D03*
X005674Y009925D03*
X005779Y009938D03*
X005781Y009943D03*
X005781Y009945D03*
X005784Y009948D03*
X005784Y009950D03*
X005784Y009953D03*
X005786Y009955D03*
X005786Y009958D03*
X005789Y009960D03*
X005789Y009963D03*
X005789Y009965D03*
X005791Y009968D03*
X005791Y009970D03*
X005791Y009973D03*
X005794Y009980D03*
X005799Y009998D03*
X005799Y010000D03*
X005799Y010113D03*
X005799Y010115D03*
X005799Y010118D03*
X005796Y010125D03*
X005794Y010133D03*
X005794Y010135D03*
X005794Y010138D03*
X005791Y010140D03*
X005791Y010143D03*
X005791Y010145D03*
X005789Y010148D03*
X005789Y010150D03*
X005786Y010155D03*
X005786Y010158D03*
X005784Y010165D03*
X005781Y010170D03*
X005701Y010140D03*
X005701Y010138D03*
X005699Y010143D03*
X005699Y010145D03*
X005696Y010148D03*
X005694Y010153D03*
X005704Y010133D03*
X005704Y010130D03*
X005674Y010190D03*
X005441Y009920D03*
X005434Y009905D03*
X005431Y009903D03*
X005431Y009900D03*
X005429Y009898D03*
X005429Y009895D03*
X005426Y009890D03*
X005426Y009888D03*
X005424Y009885D03*
X005424Y009883D03*
X005421Y009875D03*
X005416Y009860D03*
X005504Y009720D03*
X005506Y009715D03*
X005506Y009713D03*
X005509Y009710D03*
X005509Y009708D03*
X005511Y009703D03*
X005514Y009698D03*
X005516Y009690D03*
X005539Y009653D03*
X005476Y009590D03*
X005441Y009648D03*
X005434Y009663D03*
X005431Y009665D03*
X005431Y009668D03*
X005429Y009670D03*
X005429Y009673D03*
X005426Y009678D03*
X005426Y009680D03*
X005424Y009683D03*
X005424Y009685D03*
X005421Y009690D03*
X005421Y009693D03*
X005526Y009535D03*
X005526Y009480D03*
X005746Y009310D03*
X006049Y009853D03*
X006159Y009845D03*
X006159Y009843D03*
X006159Y009840D03*
X006159Y009838D03*
X006159Y009835D03*
X006254Y009845D03*
X006331Y009853D03*
X006529Y009705D03*
X006699Y009783D03*
D29*
X006698Y009785D03*
X006630Y009835D03*
X006670Y009915D03*
X007010Y009898D03*
X006478Y009643D03*
X005970Y009910D03*
X005970Y009913D03*
X005970Y009915D03*
X005970Y009918D03*
X005970Y009920D03*
X005780Y009940D03*
X005778Y009935D03*
X005775Y009933D03*
X005775Y009930D03*
X005773Y009928D03*
X005773Y009925D03*
X005770Y009923D03*
X005770Y009920D03*
X005768Y009918D03*
X005735Y009863D03*
X005695Y009810D03*
X005598Y009843D03*
X005595Y009838D03*
X005518Y009878D03*
X005515Y009875D03*
X005515Y009873D03*
X005513Y009868D03*
X005520Y009883D03*
X005523Y009888D03*
X005445Y009928D03*
X005443Y009923D03*
X005440Y009918D03*
X005438Y009915D03*
X005438Y009913D03*
X005435Y009910D03*
X005435Y009908D03*
X005478Y009978D03*
X005610Y009990D03*
X005610Y009993D03*
X005615Y010000D03*
X005618Y010003D03*
X005618Y010005D03*
X005690Y009958D03*
X005690Y009955D03*
X005688Y009953D03*
X005688Y009950D03*
X005685Y009948D03*
X005693Y009960D03*
X005695Y009965D03*
X005673Y009928D03*
X005618Y010110D03*
X005615Y010115D03*
X005610Y010123D03*
X005610Y010125D03*
X005688Y010163D03*
X005688Y010165D03*
X005690Y010160D03*
X005690Y010158D03*
X005693Y010155D03*
X005695Y010150D03*
X005673Y010188D03*
X005735Y010253D03*
X005770Y010193D03*
X005773Y010188D03*
X005775Y010183D03*
X005778Y010178D03*
X005780Y010175D03*
X005780Y010173D03*
X005783Y010168D03*
X005785Y010163D03*
X005785Y010160D03*
X005745Y009703D03*
X005780Y009645D03*
X005780Y009643D03*
X005783Y009640D03*
X005785Y009638D03*
X005785Y009635D03*
X005788Y009633D03*
X005788Y009630D03*
X005790Y009625D03*
X005795Y009613D03*
X005798Y009608D03*
X005700Y009608D03*
X005698Y009613D03*
X005623Y009568D03*
X005625Y009563D03*
X005628Y009558D03*
X005628Y009458D03*
X005625Y009455D03*
X005625Y009453D03*
X005623Y009448D03*
X005620Y009445D03*
X005620Y009443D03*
X005620Y009440D03*
X005695Y009400D03*
X005698Y009403D03*
X005698Y009405D03*
X005700Y009408D03*
X005703Y009413D03*
X005705Y009418D03*
X005788Y009385D03*
X005788Y009383D03*
X005790Y009388D03*
X005790Y009390D03*
X005793Y009393D03*
X005793Y009395D03*
X005795Y009400D03*
X005795Y009403D03*
X005798Y009405D03*
X005798Y009408D03*
X005800Y009413D03*
X005780Y009370D03*
X005745Y009313D03*
X005445Y009643D03*
X005443Y009645D03*
X005440Y009650D03*
X005438Y009653D03*
X005438Y009655D03*
X005435Y009658D03*
X005435Y009660D03*
X005515Y009693D03*
X005515Y009695D03*
X005513Y009700D03*
X005510Y009705D03*
X005518Y009688D03*
X005520Y009685D03*
X005523Y009680D03*
X005598Y009725D03*
X005595Y009730D03*
X005595Y009733D03*
X005593Y009735D03*
X005603Y009718D03*
X005893Y009710D03*
D30*
X005773Y009658D03*
X005770Y009663D03*
X005768Y009665D03*
X005765Y009668D03*
X005765Y009670D03*
X005763Y009673D03*
X005760Y009675D03*
X005755Y009683D03*
X005745Y009698D03*
X005695Y009760D03*
X005695Y009808D03*
X005735Y009868D03*
X005743Y009880D03*
X005745Y009883D03*
X005750Y009890D03*
X005753Y009893D03*
X005758Y009900D03*
X005760Y009905D03*
X005680Y009940D03*
X005678Y009938D03*
X005675Y009935D03*
X005675Y009933D03*
X005538Y009910D03*
X005533Y009900D03*
X005530Y009898D03*
X005528Y009895D03*
X005463Y009953D03*
X005460Y009950D03*
X005458Y009948D03*
X005453Y009940D03*
X005465Y009958D03*
X005468Y009960D03*
X005475Y009973D03*
X005518Y010080D03*
X005675Y010180D03*
X005675Y010183D03*
X005678Y010178D03*
X005680Y010175D03*
X005758Y010213D03*
X005758Y010215D03*
X005755Y010218D03*
X005760Y010210D03*
X005763Y010205D03*
X005735Y010248D03*
X006048Y009850D03*
X006330Y009850D03*
X006485Y009855D03*
X006633Y009833D03*
X006648Y009708D03*
X007050Y009915D03*
X005693Y009620D03*
X005690Y009623D03*
X005688Y009625D03*
X005685Y009630D03*
X005683Y009633D03*
X005683Y009635D03*
X005538Y009658D03*
X005538Y009660D03*
X005533Y009668D03*
X005530Y009670D03*
X005528Y009673D03*
X005463Y009615D03*
X005460Y009618D03*
X005458Y009620D03*
X005465Y009610D03*
X005468Y009608D03*
X005475Y009595D03*
X005450Y009633D03*
X005528Y009530D03*
X005525Y009485D03*
X005683Y009383D03*
X005685Y009385D03*
X005683Y009380D03*
X005688Y009390D03*
X005690Y009393D03*
X005768Y009350D03*
X005770Y009353D03*
X005773Y009355D03*
X005773Y009358D03*
X005775Y009360D03*
X005765Y009345D03*
X005745Y009315D03*
D31*
X005746Y009318D03*
X005754Y009330D03*
X005756Y009333D03*
X005759Y009338D03*
X005761Y009340D03*
X005764Y009343D03*
X005766Y009348D03*
X005686Y009388D03*
X005526Y009488D03*
X005526Y009528D03*
X005474Y009598D03*
X005474Y009600D03*
X005471Y009603D03*
X005469Y009605D03*
X005464Y009613D03*
X005534Y009665D03*
X005536Y009663D03*
X005686Y009628D03*
X005756Y009680D03*
X005759Y009678D03*
X005754Y009685D03*
X005751Y009688D03*
X005749Y009690D03*
X005746Y009695D03*
X005696Y009763D03*
X005736Y009870D03*
X005739Y009875D03*
X005741Y009878D03*
X005746Y009885D03*
X005749Y009888D03*
X005536Y009905D03*
X005536Y009908D03*
X005534Y009903D03*
X005464Y009955D03*
X005469Y009963D03*
X005471Y009965D03*
X005474Y009968D03*
X005474Y009970D03*
X005516Y010035D03*
X005516Y010038D03*
X005516Y010078D03*
X005744Y010233D03*
X005746Y010230D03*
X005749Y010225D03*
X005751Y010223D03*
X005754Y010220D03*
X005736Y010245D03*
X006481Y009765D03*
X006636Y009830D03*
X006691Y009790D03*
X006839Y009855D03*
X006836Y009710D03*
X007049Y009708D03*
D32*
X006688Y009793D03*
X006640Y009828D03*
X006538Y009835D03*
X006478Y009733D03*
X006523Y009708D03*
X005748Y009693D03*
X005695Y009803D03*
X005695Y009805D03*
X005738Y009873D03*
X005748Y010228D03*
X005743Y010235D03*
X005740Y010238D03*
X005738Y010240D03*
X005738Y010243D03*
X005758Y009335D03*
X005753Y009328D03*
X005750Y009325D03*
X005748Y009323D03*
X005748Y009320D03*
D33*
X005683Y009363D03*
X005620Y009425D03*
X005620Y009590D03*
X005683Y009653D03*
X005745Y009715D03*
X005698Y009748D03*
X005735Y009850D03*
X005675Y009913D03*
X005600Y009868D03*
X005538Y009930D03*
X005613Y009975D03*
X005518Y010023D03*
X005518Y010093D03*
X005613Y010140D03*
X005675Y010203D03*
X005735Y010265D03*
X005870Y009860D03*
X005870Y009858D03*
X006170Y009853D03*
X006170Y009893D03*
X006170Y009920D03*
X006523Y009830D03*
X006525Y009823D03*
X006523Y009790D03*
X006520Y009785D03*
X006540Y009683D03*
X006540Y009680D03*
X006540Y009678D03*
X006538Y009675D03*
X006538Y009673D03*
X006535Y009670D03*
X006533Y009668D03*
X006528Y009663D03*
X006525Y009660D03*
X006478Y009640D03*
X006435Y009693D03*
X006438Y009700D03*
X006440Y009703D03*
X006443Y009705D03*
X006608Y009728D03*
X006708Y009895D03*
X006668Y009918D03*
X007093Y009895D03*
X005538Y009640D03*
X005475Y009578D03*
D34*
X005476Y009593D03*
X005456Y009623D03*
X005454Y009625D03*
X005454Y009628D03*
X005451Y009630D03*
X005449Y009635D03*
X005446Y009638D03*
X005446Y009640D03*
X005524Y009678D03*
X005526Y009675D03*
X005521Y009683D03*
X005539Y009655D03*
X005601Y009720D03*
X005599Y009723D03*
X005596Y009728D03*
X005696Y009758D03*
X005744Y009700D03*
X005771Y009660D03*
X005774Y009655D03*
X005776Y009653D03*
X005776Y009650D03*
X005779Y009648D03*
X005699Y009610D03*
X005696Y009615D03*
X005694Y009618D03*
X005681Y009638D03*
X005619Y009575D03*
X005619Y009573D03*
X005621Y009570D03*
X005526Y009533D03*
X005526Y009483D03*
X005691Y009395D03*
X005694Y009398D03*
X005681Y009378D03*
X005776Y009365D03*
X005776Y009363D03*
X005779Y009368D03*
X005781Y009373D03*
X005784Y009375D03*
X005784Y009378D03*
X005786Y009380D03*
X005734Y009865D03*
X005754Y009895D03*
X005756Y009898D03*
X005759Y009903D03*
X005761Y009908D03*
X005764Y009910D03*
X005764Y009913D03*
X005766Y009915D03*
X005684Y009945D03*
X005681Y009943D03*
X005674Y009930D03*
X005611Y009995D03*
X005614Y009998D03*
X005516Y010033D03*
X005516Y010083D03*
X005611Y010120D03*
X005614Y010118D03*
X005684Y010168D03*
X005684Y010170D03*
X005681Y010173D03*
X005674Y010185D03*
X005734Y010250D03*
X005761Y010208D03*
X005764Y010203D03*
X005766Y010200D03*
X005766Y010198D03*
X005769Y010195D03*
X005771Y010190D03*
X005774Y010185D03*
X005776Y010180D03*
X005539Y009915D03*
X005539Y009913D03*
X005526Y009893D03*
X005524Y009890D03*
X005521Y009885D03*
X005449Y009933D03*
X005449Y009935D03*
X005451Y009938D03*
X005454Y009943D03*
X005456Y009945D03*
X005446Y009930D03*
X005444Y009925D03*
X005476Y009975D03*
X005601Y009850D03*
X005601Y009848D03*
X005599Y009845D03*
X005596Y009840D03*
X006694Y009788D03*
X007011Y009725D03*
D35*
X007090Y009725D03*
X006893Y009765D03*
X006890Y009755D03*
X006890Y009753D03*
X006888Y009748D03*
X006888Y009745D03*
X006885Y009743D03*
X006885Y009740D03*
X006883Y009738D03*
X006883Y009735D03*
X006880Y009733D03*
X006878Y009730D03*
X006875Y009728D03*
X006873Y009725D03*
X006800Y009728D03*
X006798Y009730D03*
X006795Y009733D03*
X006793Y009735D03*
X006793Y009738D03*
X006790Y009740D03*
X006788Y009745D03*
X006788Y009748D03*
X006785Y009753D03*
X006785Y009755D03*
X006783Y009765D03*
X006783Y009800D03*
X006785Y009810D03*
X006785Y009813D03*
X006788Y009818D03*
X006788Y009820D03*
X006790Y009823D03*
X006790Y009825D03*
X006793Y009828D03*
X006795Y009833D03*
X006798Y009835D03*
X006800Y009838D03*
X006803Y009840D03*
X006875Y009838D03*
X006878Y009835D03*
X006880Y009833D03*
X006883Y009830D03*
X006883Y009828D03*
X006885Y009825D03*
X006885Y009823D03*
X006888Y009820D03*
X006888Y009818D03*
X006890Y009813D03*
X006890Y009810D03*
X006893Y009800D03*
X006708Y009753D03*
X006708Y009750D03*
X006708Y009748D03*
X006705Y009745D03*
X006705Y009743D03*
X006703Y009738D03*
X006700Y009735D03*
X006615Y009860D03*
X006615Y009863D03*
X006615Y009865D03*
X006615Y009868D03*
X006618Y009878D03*
X006623Y009888D03*
X006625Y009890D03*
X006628Y009893D03*
X006510Y009775D03*
X006478Y009760D03*
X006450Y009780D03*
X006448Y009783D03*
X006445Y009785D03*
X006445Y009788D03*
X006443Y009790D03*
X006443Y009793D03*
X006443Y009795D03*
X006440Y009800D03*
X006440Y009803D03*
X006440Y009805D03*
X006440Y009808D03*
X006440Y009810D03*
X006440Y009813D03*
X006440Y009815D03*
X006440Y009818D03*
X006443Y009825D03*
X006445Y009833D03*
X006450Y009840D03*
X006453Y009843D03*
X006355Y009820D03*
X006355Y009818D03*
X006355Y009815D03*
X006263Y009853D03*
X006170Y009895D03*
X006170Y009898D03*
X006170Y009915D03*
X006170Y009918D03*
X006070Y009825D03*
X006073Y009820D03*
X006073Y009818D03*
X006073Y009815D03*
X005980Y009928D03*
X005868Y009855D03*
X005870Y009740D03*
X005870Y009738D03*
X005745Y009713D03*
X005683Y009650D03*
X005620Y009588D03*
X005538Y009643D03*
X005475Y009580D03*
X005620Y009428D03*
X005683Y009365D03*
X005695Y009818D03*
X005735Y009853D03*
X005675Y009915D03*
X005613Y009978D03*
X005538Y009928D03*
X005600Y009865D03*
X005613Y010138D03*
X005675Y010200D03*
X005735Y010263D03*
X006435Y009678D03*
X006435Y009675D03*
X006435Y009673D03*
X006438Y009670D03*
X006520Y009658D03*
X006540Y009693D03*
X006540Y009695D03*
D36*
X006613Y009725D03*
X006693Y009728D03*
X006708Y009763D03*
X006708Y009765D03*
X006708Y009768D03*
X006808Y009723D03*
X006868Y009723D03*
X006970Y009768D03*
X006970Y009770D03*
X006968Y009775D03*
X006968Y009778D03*
X006965Y009783D03*
X006965Y009785D03*
X006965Y009788D03*
X006965Y009790D03*
X006963Y009795D03*
X006963Y009798D03*
X006963Y009800D03*
X006963Y009803D03*
X006963Y009805D03*
X006963Y009808D03*
X006963Y009810D03*
X006963Y009813D03*
X006963Y009815D03*
X006963Y009818D03*
X006963Y009820D03*
X006963Y009823D03*
X006963Y009825D03*
X006963Y009828D03*
X006965Y009833D03*
X006965Y009835D03*
X006965Y009838D03*
X006965Y009840D03*
X006968Y009845D03*
X006968Y009848D03*
X006970Y009853D03*
X006970Y009855D03*
X006973Y009860D03*
X006975Y009865D03*
X006978Y009870D03*
X006980Y009873D03*
X006980Y009875D03*
X006983Y009878D03*
X006985Y009880D03*
X006988Y009883D03*
X006990Y009885D03*
X007088Y009898D03*
X006973Y009763D03*
X006975Y009758D03*
X006978Y009755D03*
X006978Y009753D03*
X006980Y009750D03*
X006983Y009748D03*
X006985Y009743D03*
X006873Y009840D03*
X006868Y009843D03*
X006808Y009843D03*
X006618Y009853D03*
X006455Y009775D03*
X006440Y009665D03*
X006443Y009663D03*
X006445Y009660D03*
X006170Y009900D03*
X006170Y009903D03*
X006170Y009905D03*
X006170Y009908D03*
X006170Y009910D03*
X006170Y009913D03*
X005865Y009853D03*
X005873Y009730D03*
X005745Y009710D03*
X005683Y009648D03*
X005620Y009585D03*
X005538Y009645D03*
X005600Y009708D03*
X005600Y009863D03*
X005613Y009980D03*
X005518Y010025D03*
X005613Y010135D03*
X005675Y010198D03*
X005735Y010260D03*
X005735Y009855D03*
X005475Y009583D03*
X005620Y009430D03*
X005683Y009368D03*
D37*
X005683Y009370D03*
X005620Y009433D03*
X005638Y009483D03*
X005638Y009485D03*
X005638Y009530D03*
X005638Y009533D03*
X005620Y009583D03*
X005683Y009645D03*
X005745Y009708D03*
X005695Y009815D03*
X005735Y009858D03*
X005583Y009803D03*
X005580Y009785D03*
X005580Y009783D03*
X005580Y009778D03*
X005583Y009765D03*
X005600Y009710D03*
X005538Y009648D03*
X005475Y009585D03*
X005410Y009735D03*
X005410Y009833D03*
X005613Y009983D03*
X005613Y010133D03*
X005735Y010258D03*
X006050Y009855D03*
X006163Y009848D03*
X006333Y009855D03*
X006448Y009658D03*
X006705Y009773D03*
X006635Y009898D03*
X007000Y009893D03*
X006998Y009733D03*
X005728Y009525D03*
X005728Y009523D03*
X005728Y009520D03*
X005728Y009518D03*
X005728Y009515D03*
X005728Y009513D03*
X005728Y009510D03*
X005728Y009508D03*
X005728Y009505D03*
X005728Y009503D03*
X005728Y009500D03*
X005728Y009498D03*
X005728Y009495D03*
X005728Y009493D03*
X005728Y009490D03*
D38*
X005725Y009483D03*
X005725Y009480D03*
X005723Y009465D03*
X005723Y009463D03*
X005720Y009455D03*
X005720Y009453D03*
X005720Y009450D03*
X005718Y009448D03*
X005718Y009445D03*
X005715Y009443D03*
X005715Y009440D03*
X005713Y009433D03*
X005683Y009373D03*
X005620Y009435D03*
X005630Y009463D03*
X005633Y009468D03*
X005633Y009470D03*
X005635Y009473D03*
X005635Y009475D03*
X005640Y009495D03*
X005640Y009520D03*
X005640Y009523D03*
X005635Y009540D03*
X005635Y009543D03*
X005633Y009545D03*
X005633Y009548D03*
X005630Y009553D03*
X005620Y009580D03*
X005683Y009643D03*
X005713Y009583D03*
X005715Y009578D03*
X005715Y009575D03*
X005718Y009570D03*
X005718Y009568D03*
X005720Y009565D03*
X005720Y009563D03*
X005720Y009560D03*
X005723Y009555D03*
X005723Y009553D03*
X005723Y009550D03*
X005725Y009540D03*
X005725Y009538D03*
X005725Y009535D03*
X005813Y009540D03*
X005813Y009543D03*
X005813Y009545D03*
X005813Y009548D03*
X005813Y009550D03*
X005813Y009553D03*
X005810Y009560D03*
X005810Y009563D03*
X005810Y009565D03*
X005810Y009568D03*
X005810Y009570D03*
X005808Y009573D03*
X005808Y009575D03*
X005808Y009578D03*
X005805Y009585D03*
X005803Y009590D03*
X005803Y009593D03*
X005800Y009600D03*
X005800Y009603D03*
X005815Y009538D03*
X005815Y009535D03*
X005815Y009533D03*
X005815Y009530D03*
X005815Y009528D03*
X005815Y009525D03*
X005815Y009523D03*
X005815Y009520D03*
X005815Y009518D03*
X005815Y009515D03*
X005815Y009513D03*
X005815Y009510D03*
X005815Y009508D03*
X005815Y009505D03*
X005815Y009503D03*
X005815Y009500D03*
X005815Y009498D03*
X005815Y009495D03*
X005815Y009493D03*
X005815Y009490D03*
X005815Y009488D03*
X005815Y009485D03*
X005815Y009483D03*
X005815Y009480D03*
X005815Y009478D03*
X005813Y009465D03*
X005813Y009463D03*
X005813Y009460D03*
X005810Y009455D03*
X005810Y009453D03*
X005810Y009450D03*
X005810Y009448D03*
X005808Y009440D03*
X005808Y009438D03*
X005803Y009423D03*
X005745Y009705D03*
X005695Y009813D03*
X005735Y009860D03*
X005703Y009980D03*
X005705Y009985D03*
X005708Y009990D03*
X005708Y009993D03*
X005708Y009995D03*
X005710Y009998D03*
X005710Y010000D03*
X005710Y010003D03*
X005713Y010008D03*
X005715Y010020D03*
X005718Y010035D03*
X005718Y010080D03*
X005715Y010095D03*
X005715Y010098D03*
X005713Y010108D03*
X005710Y010113D03*
X005710Y010115D03*
X005710Y010118D03*
X005708Y010120D03*
X005708Y010123D03*
X005708Y010125D03*
X005705Y010128D03*
X005703Y010135D03*
X005788Y010153D03*
X005795Y010130D03*
X005795Y010128D03*
X005798Y010123D03*
X005798Y010120D03*
X005800Y010110D03*
X005800Y010108D03*
X005803Y010088D03*
X005803Y010085D03*
X005803Y010028D03*
X005803Y010025D03*
X005803Y010023D03*
X005803Y010020D03*
X005803Y010018D03*
X005800Y010005D03*
X005800Y010003D03*
X005798Y009995D03*
X005798Y009993D03*
X005798Y009990D03*
X005795Y009988D03*
X005795Y009985D03*
X005795Y009983D03*
X005793Y009978D03*
X005793Y009975D03*
X005628Y010025D03*
X005628Y010028D03*
X005625Y010023D03*
X005625Y010020D03*
X005623Y010015D03*
X005620Y010010D03*
X005610Y009988D03*
X005630Y010043D03*
X005630Y010073D03*
X005628Y010088D03*
X005628Y010090D03*
X005625Y010093D03*
X005625Y010095D03*
X005623Y010100D03*
X005620Y010105D03*
X005610Y010128D03*
X005735Y010255D03*
X005973Y009923D03*
X005990Y009833D03*
X006470Y009735D03*
X006625Y009840D03*
X006628Y009838D03*
X006700Y009780D03*
X007005Y009728D03*
X005603Y009855D03*
X005590Y009828D03*
X005588Y009823D03*
X005588Y009820D03*
X005585Y009818D03*
X005585Y009815D03*
X005585Y009755D03*
X005585Y009753D03*
X005585Y009750D03*
X005588Y009748D03*
X005588Y009745D03*
X005590Y009740D03*
X005505Y009718D03*
X005503Y009723D03*
X005503Y009725D03*
X005503Y009728D03*
X005500Y009730D03*
X005500Y009733D03*
X005498Y009740D03*
X005498Y009743D03*
X005498Y009745D03*
X005495Y009753D03*
X005495Y009755D03*
X005495Y009758D03*
X005495Y009760D03*
X005495Y009808D03*
X005495Y009810D03*
X005495Y009813D03*
X005495Y009815D03*
X005498Y009823D03*
X005498Y009825D03*
X005498Y009828D03*
X005500Y009835D03*
X005500Y009838D03*
X005503Y009843D03*
X005503Y009845D03*
X005505Y009850D03*
X005420Y009868D03*
X005420Y009870D03*
X005420Y009873D03*
X005423Y009878D03*
X005423Y009880D03*
X005428Y009893D03*
X005418Y009865D03*
X005418Y009863D03*
X005415Y009858D03*
X005415Y009855D03*
X005415Y009853D03*
X005413Y009848D03*
X005413Y009845D03*
X005413Y009843D03*
X005413Y009840D03*
X005408Y009815D03*
X005408Y009813D03*
X005408Y009755D03*
X005408Y009753D03*
X005408Y009750D03*
X005408Y009748D03*
X005408Y009745D03*
X005413Y009728D03*
X005413Y009725D03*
X005413Y009723D03*
X005413Y009720D03*
X005415Y009715D03*
X005415Y009713D03*
X005415Y009710D03*
X005418Y009708D03*
X005418Y009705D03*
X005418Y009703D03*
X005420Y009700D03*
X005420Y009698D03*
X005420Y009695D03*
X005423Y009688D03*
X005428Y009675D03*
X005475Y009588D03*
X005538Y009650D03*
D39*
X005683Y009668D03*
X005930Y009728D03*
X005623Y009410D03*
D40*
X005526Y009490D03*
X005526Y009493D03*
X005526Y009495D03*
X005526Y009520D03*
X005526Y009523D03*
X005526Y009525D03*
X005696Y009765D03*
X005894Y009713D03*
X006076Y009720D03*
X006046Y009848D03*
X006329Y009848D03*
X006359Y009720D03*
X006536Y009838D03*
X006684Y009795D03*
X005516Y010040D03*
X005516Y010043D03*
X005516Y010075D03*
D41*
X005518Y010073D03*
X005518Y010070D03*
X005518Y010045D03*
X005695Y009800D03*
X005695Y009798D03*
X005695Y009795D03*
X005695Y009793D03*
X005695Y009775D03*
X005695Y009773D03*
X005695Y009770D03*
X005695Y009768D03*
X005980Y009720D03*
X005980Y009718D03*
X005980Y009715D03*
X005980Y009713D03*
X005980Y009710D03*
X005980Y009708D03*
X006075Y009708D03*
X006075Y009710D03*
X006075Y009713D03*
X006075Y009715D03*
X006075Y009718D03*
X006263Y009718D03*
X006263Y009720D03*
X006263Y009715D03*
X006263Y009713D03*
X006263Y009710D03*
X006263Y009708D03*
X006358Y009708D03*
X006358Y009710D03*
X006358Y009713D03*
X006358Y009715D03*
X006358Y009718D03*
X006478Y009645D03*
X006535Y009840D03*
X006643Y009825D03*
X005525Y009518D03*
X005525Y009500D03*
X005525Y009498D03*
D42*
X005526Y009503D03*
X005526Y009513D03*
X005526Y009515D03*
X005894Y009715D03*
X005894Y009718D03*
X006169Y009720D03*
X006481Y009768D03*
X006486Y009853D03*
X006534Y009843D03*
X006646Y009823D03*
X006681Y009798D03*
X006671Y009913D03*
X006839Y009853D03*
X006836Y009713D03*
X005516Y010048D03*
X005516Y010050D03*
X005516Y010053D03*
X005516Y010065D03*
X005516Y010068D03*
D43*
X005518Y010063D03*
X005518Y010060D03*
X005695Y009790D03*
X005695Y009788D03*
X005695Y009780D03*
X005695Y009778D03*
X005893Y009723D03*
X005893Y009720D03*
X006045Y009845D03*
X006170Y009718D03*
X006170Y009715D03*
X006170Y009713D03*
X006170Y009710D03*
X006170Y009708D03*
X006328Y009845D03*
X006483Y009730D03*
X006650Y009820D03*
X006678Y009800D03*
X005528Y009510D03*
X005525Y009505D03*
D44*
X005526Y009508D03*
X005891Y009725D03*
X005696Y009783D03*
X005696Y009785D03*
X005516Y010055D03*
X005516Y010058D03*
X006481Y009770D03*
X006514Y009710D03*
X006531Y009845D03*
X006654Y009818D03*
X006671Y009805D03*
X006674Y009803D03*
D45*
X005745Y009728D03*
X005735Y009838D03*
X005675Y009900D03*
X005538Y009943D03*
X005598Y009688D03*
X005475Y009565D03*
X005675Y010215D03*
X005735Y010278D03*
D46*
X005735Y010275D03*
X005675Y010213D03*
X005538Y009940D03*
X005675Y009903D03*
X005735Y009840D03*
X005745Y009725D03*
X005598Y009690D03*
X005623Y009603D03*
X005475Y009568D03*
X006170Y009885D03*
X006170Y009928D03*
D47*
X006178Y009858D03*
X006460Y009750D03*
X006463Y009755D03*
X006713Y009858D03*
X005878Y009888D03*
X005878Y009890D03*
X005735Y009843D03*
X005695Y009823D03*
X005675Y009905D03*
X005538Y009938D03*
X005598Y009693D03*
X005623Y009600D03*
X005475Y009570D03*
X005745Y009723D03*
X005675Y010210D03*
X005735Y010273D03*
D48*
X005735Y010270D03*
X005675Y010208D03*
X005518Y010020D03*
X005538Y009935D03*
X005675Y009908D03*
X005735Y009845D03*
X005745Y009720D03*
X005598Y009695D03*
X005623Y009598D03*
X005475Y009573D03*
X005875Y009878D03*
X005875Y009880D03*
X005988Y009933D03*
X006170Y009925D03*
X006170Y009888D03*
X006270Y009858D03*
X006458Y009745D03*
X006603Y009755D03*
X006603Y009758D03*
X006603Y009760D03*
X006603Y009763D03*
X006603Y009765D03*
X006603Y009768D03*
X006713Y009860D03*
X006713Y009863D03*
X006713Y009865D03*
X006713Y009868D03*
X006713Y009870D03*
X006713Y009873D03*
X007098Y009873D03*
X007098Y009875D03*
X007098Y009878D03*
X007098Y009880D03*
X007098Y009870D03*
X007098Y009868D03*
X007098Y009755D03*
X007098Y009753D03*
X007098Y009750D03*
X007098Y009748D03*
X007098Y009745D03*
D49*
X007095Y009730D03*
X007095Y009893D03*
X006710Y009890D03*
X006605Y009733D03*
X006605Y009730D03*
X006458Y009740D03*
X006485Y009860D03*
X006170Y009890D03*
X006170Y009923D03*
X005873Y009870D03*
X005873Y009868D03*
X005735Y009848D03*
X005695Y009820D03*
X005675Y009910D03*
X005600Y009870D03*
X005538Y009933D03*
X005613Y009973D03*
X005613Y010143D03*
X005675Y010205D03*
X005735Y010268D03*
X005745Y009718D03*
X005475Y009575D03*
D50*
X005536Y009625D03*
X005621Y009605D03*
X005614Y009960D03*
X005476Y010005D03*
X005614Y010155D03*
D51*
X006486Y009728D03*
X006479Y009648D03*
X006839Y009850D03*
X007051Y009913D03*
X007051Y009710D03*
D52*
X006838Y009718D03*
X006838Y009848D03*
X006490Y009725D03*
X006480Y009650D03*
D53*
X006480Y009653D03*
X006498Y009718D03*
X006673Y009905D03*
D54*
X006669Y009900D03*
X006646Y009718D03*
X006481Y009655D03*
D55*
X006645Y009710D03*
X006668Y009808D03*
X006665Y009810D03*
X006660Y009813D03*
X006658Y009815D03*
X006838Y009715D03*
D56*
X006650Y009723D03*
X006495Y009713D03*
X007050Y009718D03*
D57*
X006644Y009713D03*
X005884Y009848D03*
D58*
X005881Y009845D03*
X005881Y009843D03*
X005881Y009840D03*
X005881Y009838D03*
X005881Y009835D03*
X006494Y009720D03*
X007051Y009713D03*
D59*
X006644Y009715D03*
X006499Y009715D03*
X006671Y009903D03*
D60*
X007053Y009908D03*
X007053Y009715D03*
D61*
X007051Y009905D03*
X006649Y009720D03*
D62*
X006493Y009723D03*
X006673Y009908D03*
X006838Y009845D03*
X006838Y009720D03*
X007053Y009910D03*
D63*
X007049Y009903D03*
X007049Y009720D03*
X006024Y009843D03*
D64*
X006026Y009835D03*
X007046Y009900D03*
X007046Y009723D03*
D65*
X006481Y009773D03*
X005886Y009850D03*
D66*
X006299Y009835D03*
D67*
X006025Y009838D03*
X006025Y009840D03*
D68*
X006298Y009840D03*
X006298Y009838D03*
D69*
X006296Y009843D03*
D70*
X006506Y009848D03*
D71*
X006508Y009850D03*
D72*
X006673Y009910D03*
D73*
X005674Y010218D03*
D74*
X002896Y010980D03*
D75*
X008009Y004826D02*
X007941Y004758D01*
X007941Y004621D01*
X008009Y004553D01*
X008078Y004553D01*
X008146Y004621D01*
X008146Y004758D01*
X008215Y004826D01*
X008283Y004826D01*
X008351Y004758D01*
X008351Y004621D01*
X008283Y004553D01*
X008283Y004366D02*
X008351Y004297D01*
X008351Y004161D01*
X008283Y004092D01*
X008009Y004092D01*
X007941Y004161D01*
X007941Y004297D01*
X008009Y004366D01*
X008009Y003905D02*
X007941Y003837D01*
X007941Y003700D01*
X008009Y003632D01*
X007941Y003462D02*
X007941Y003325D01*
X007941Y003393D02*
X008351Y003393D01*
X008351Y003325D02*
X008351Y003462D01*
X008351Y003632D02*
X008078Y003905D01*
X008009Y003905D01*
X008351Y003905D02*
X008351Y003632D01*
M02*
