G75*
%MOIN*%
%OFA0B0*%
%FSLAX24Y24*%
%IPPOS*%
%LPD*%
%AMOC8*
5,1,8,0,0,1.08239X$1,22.5*
%
%ADD10R,0.0640X0.0640*%
%ADD11OC8,0.0640*%
%ADD12R,0.0555X0.0555*%
%ADD13C,0.0555*%
%ADD14C,0.0740*%
%ADD15C,0.0320*%
%ADD16C,0.0340*%
%ADD17C,0.0120*%
%ADD18C,0.0070*%
%ADD19C,0.0100*%
%ADD20C,0.0240*%
D10*
X015196Y010680D03*
D11*
X014196Y010680D03*
X013196Y010680D03*
X012196Y010680D03*
X011196Y010680D03*
X010196Y010680D03*
X009196Y010680D03*
X008196Y010680D03*
X007196Y010680D03*
X006196Y010680D03*
X005196Y010680D03*
X004196Y010680D03*
X004196Y001680D03*
X005196Y001680D03*
X006196Y001680D03*
X007196Y001680D03*
X008196Y001680D03*
X009196Y001680D03*
X010196Y001680D03*
X011196Y001680D03*
X012196Y001680D03*
X013196Y001680D03*
X014196Y001680D03*
X015196Y001680D03*
D12*
X015196Y005261D03*
X015196Y009461D03*
X006896Y002899D03*
X003496Y002899D03*
X003496Y007099D03*
D13*
X003496Y007886D03*
X003496Y008674D03*
X003496Y009461D03*
X003496Y005261D03*
X003496Y004474D03*
X003496Y003686D03*
X006896Y003686D03*
X006896Y004474D03*
X006896Y005261D03*
X015196Y004474D03*
X015196Y003686D03*
X015196Y002899D03*
X015196Y007099D03*
X015196Y007886D03*
X015196Y008674D03*
D14*
X004696Y000680D03*
X003696Y000680D03*
X002696Y000680D03*
D15*
X002496Y001180D01*
X002196Y001480D01*
X002196Y010080D01*
X005196Y010080D01*
X009296Y010080D01*
X011696Y010080D01*
X009496Y011480D02*
X015796Y011480D01*
X012596Y007480D02*
X012596Y002380D01*
X014678Y002380D01*
X015196Y002899D01*
X015878Y002899D01*
X015896Y002880D01*
X015896Y007180D01*
X015815Y007099D01*
X015196Y007099D01*
X009296Y007480D02*
X009296Y006580D01*
X008796Y006880D02*
X008796Y005280D01*
X008796Y002280D01*
X011596Y002280D01*
X011696Y002380D01*
X012596Y002380D01*
X008796Y002280D02*
X004196Y002280D01*
X004196Y001680D01*
X004196Y002280D02*
X002696Y002280D01*
X002696Y005280D01*
X002815Y005261D01*
X003496Y005261D01*
X002696Y005280D02*
X002696Y009380D01*
X002796Y009480D01*
X003506Y009480D01*
X003515Y009480D01*
X002696Y009480D02*
X002696Y009380D01*
X004196Y010680D02*
X004196Y011480D01*
X009496Y011480D01*
X009296Y010080D02*
X009296Y007480D01*
X008796Y006880D02*
X008796Y009280D01*
X005196Y010080D02*
X005196Y010680D01*
X005196Y001680D02*
X004696Y000680D01*
D16*
X005996Y002680D03*
X004096Y003180D03*
X004096Y004474D03*
X008196Y006180D03*
X008796Y006880D03*
X009296Y006580D03*
X009296Y007480D03*
X008196Y008280D03*
X008796Y009280D03*
X010996Y007680D03*
X010596Y007380D03*
X011696Y007780D03*
X011696Y008280D03*
X011696Y008780D03*
X011696Y009280D03*
X011696Y010080D03*
X012596Y007480D03*
X011696Y006180D03*
X011696Y004980D03*
X010996Y004380D03*
X011696Y003580D03*
X010996Y003280D03*
X011696Y002380D03*
X004196Y007380D03*
X004196Y008674D03*
X003696Y011780D03*
D17*
X004196Y008674D02*
X004196Y007380D01*
X008196Y008280D02*
X008196Y006180D01*
X010596Y007380D02*
X010596Y003280D01*
X010996Y003280D01*
X011696Y003580D02*
X011696Y002380D01*
X011696Y003580D02*
X011696Y004980D01*
X011696Y006180D01*
X013496Y004874D02*
X013896Y004474D01*
X015196Y004474D01*
X015196Y005261D02*
X013996Y005261D01*
X013796Y005461D01*
X013796Y008280D01*
X011696Y008280D01*
X011696Y007780D02*
X013296Y007780D01*
X013496Y007680D01*
X013496Y004874D01*
X010996Y004380D02*
X010996Y007680D01*
X011696Y008780D02*
X015090Y008780D01*
X015196Y008674D01*
X014915Y009280D02*
X015196Y009461D01*
X014915Y009280D02*
X011696Y009280D01*
X009696Y011380D02*
X009496Y011480D01*
X004096Y004474D02*
X004096Y003180D01*
X005996Y003580D02*
X005996Y002680D01*
X005996Y003580D02*
X006096Y003680D01*
X006890Y003680D01*
X006896Y003686D01*
D18*
X003496Y009461D02*
X003506Y009490D01*
X003506Y009480D01*
D19*
X000596Y000335D02*
X000596Y000180D01*
X000752Y000180D01*
X000596Y000180D01*
X000596Y000335D01*
X000752Y000180D01*
X000696Y000180D02*
X000696Y000235D01*
X000652Y000280D02*
X000596Y000280D01*
X000875Y000580D02*
X000928Y000580D01*
X000896Y000559D02*
X000896Y000611D01*
X000886Y000622D02*
X001038Y000469D01*
X001238Y000386D01*
X001455Y000386D01*
X001654Y000469D01*
X001807Y000622D01*
X001890Y000822D01*
X001890Y001038D01*
X001807Y001238D01*
X001654Y001391D01*
X001455Y001474D01*
X001238Y001474D01*
X001038Y001391D01*
X000886Y001238D01*
X000803Y001038D01*
X000803Y000822D01*
X000886Y000622D01*
X000864Y000591D02*
X000786Y000779D01*
X000776Y000880D01*
X000803Y000880D01*
X000776Y000880D02*
X000776Y011480D01*
X000803Y011480D01*
X000776Y011480D02*
X000786Y011581D01*
X000864Y011769D01*
X001008Y011912D01*
X001195Y011990D01*
X001296Y012000D01*
X001296Y011974D01*
X001296Y012000D02*
X017396Y012000D01*
X017396Y011974D01*
X017396Y012000D02*
X017498Y011990D01*
X017685Y011912D01*
X017829Y011769D01*
X017906Y011581D01*
X017916Y011480D01*
X017890Y011480D01*
X017916Y011480D02*
X017916Y000880D01*
X017890Y000880D01*
X017916Y000880D02*
X017906Y000779D01*
X017829Y000591D01*
X017685Y000448D01*
X017498Y000370D01*
X017396Y000360D01*
X017396Y000386D01*
X017396Y000360D02*
X005112Y000360D01*
X005137Y000385D01*
X005216Y000577D01*
X005216Y000783D01*
X005161Y000917D01*
X005308Y001210D01*
X005391Y001210D01*
X005666Y001485D01*
X005666Y001875D01*
X005391Y002150D01*
X005002Y002150D01*
X004726Y001875D01*
X004726Y001485D01*
X004744Y001468D01*
X004610Y001200D01*
X004593Y001200D01*
X004402Y001121D01*
X004256Y000975D01*
X004196Y000832D01*
X004196Y001630D01*
X004146Y001630D02*
X004246Y001630D01*
X004246Y001240D01*
X004379Y001240D01*
X004636Y001498D01*
X004636Y001630D01*
X004246Y001630D01*
X004246Y001730D01*
X004146Y001730D01*
X004146Y001630D01*
X003756Y001630D01*
X003756Y001498D01*
X004014Y001240D01*
X004146Y001240D01*
X004146Y001630D01*
X004096Y001630D02*
X004096Y001730D01*
X004146Y001730D02*
X003756Y001730D01*
X003756Y001862D01*
X004014Y002120D01*
X004146Y002120D01*
X004146Y001730D01*
X004146Y001680D02*
X002506Y001680D01*
X002506Y001608D02*
X002506Y009770D01*
X003243Y009770D01*
X003243Y009770D01*
X003188Y009714D01*
X003144Y009649D01*
X003114Y009577D01*
X003099Y009500D01*
X003099Y009490D01*
X003468Y009490D01*
X003468Y009770D01*
X003525Y009770D01*
X003525Y009490D01*
X003468Y009490D01*
X003468Y009432D01*
X003099Y009432D01*
X003099Y009422D01*
X003114Y009345D01*
X003144Y009273D01*
X003188Y009208D01*
X003243Y009152D01*
X003308Y009109D01*
X003369Y009084D01*
X003254Y009036D01*
X003134Y008916D01*
X003069Y008759D01*
X003069Y008589D01*
X003134Y008432D01*
X003254Y008311D01*
X003330Y008280D01*
X003254Y008249D01*
X003134Y008128D01*
X003069Y007971D01*
X003069Y007801D01*
X003134Y007644D01*
X003252Y007526D01*
X003157Y007526D01*
X003069Y007439D01*
X003069Y006759D01*
X003157Y006671D01*
X003836Y006671D01*
X003924Y006759D01*
X003924Y007202D01*
X003925Y007199D01*
X004015Y007109D01*
X004133Y007060D01*
X004260Y007060D01*
X004378Y007109D01*
X004468Y007199D01*
X004516Y007316D01*
X004516Y007444D01*
X004468Y007561D01*
X004406Y007623D01*
X004406Y008431D01*
X004468Y008492D01*
X004516Y008610D01*
X004516Y008737D01*
X004468Y008855D01*
X004378Y008945D01*
X004260Y008994D01*
X004133Y008994D01*
X004015Y008945D01*
X003925Y008855D01*
X003905Y008805D01*
X003859Y008916D01*
X003739Y009036D01*
X003624Y009084D01*
X003685Y009109D01*
X003750Y009152D01*
X003805Y009208D01*
X003849Y009273D01*
X003879Y009345D01*
X003894Y009422D01*
X003894Y009432D01*
X003525Y009432D01*
X003525Y009490D01*
X003894Y009490D01*
X003894Y009500D01*
X003879Y009577D01*
X003849Y009649D01*
X003805Y009714D01*
X003750Y009770D01*
X003750Y009770D01*
X008986Y009770D01*
X008986Y007568D01*
X008976Y007544D01*
X008976Y007416D01*
X008986Y007392D01*
X008986Y006668D01*
X008976Y006644D01*
X008976Y006516D01*
X009025Y006399D01*
X009115Y006309D01*
X009233Y006260D01*
X009360Y006260D01*
X009478Y006309D01*
X009568Y006399D01*
X009616Y006516D01*
X009616Y006644D01*
X009606Y006668D01*
X009606Y007392D01*
X009616Y007416D01*
X009616Y007544D01*
X009606Y007568D01*
X009606Y009770D01*
X011609Y009770D01*
X011633Y009760D01*
X011760Y009760D01*
X011878Y009809D01*
X011968Y009899D01*
X012016Y010016D01*
X012016Y010144D01*
X011980Y010232D01*
X012002Y010210D01*
X012391Y010210D01*
X012666Y010485D01*
X012666Y010875D01*
X012391Y011150D01*
X012002Y011150D01*
X011726Y010875D01*
X011726Y010485D01*
X011848Y010363D01*
X011760Y010400D01*
X011633Y010400D01*
X011609Y010390D01*
X011571Y010390D01*
X011666Y010485D01*
X011666Y010875D01*
X011391Y011150D01*
X011002Y011150D01*
X010726Y010875D01*
X010726Y010485D01*
X010822Y010390D01*
X010571Y010390D01*
X010666Y010485D01*
X010666Y010875D01*
X010391Y011150D01*
X010002Y011150D01*
X009726Y010875D01*
X009726Y010485D01*
X009822Y010390D01*
X009571Y010390D01*
X009666Y010485D01*
X009666Y010875D01*
X009391Y011150D01*
X009002Y011150D01*
X008726Y010875D01*
X008726Y010485D01*
X008822Y010390D01*
X008571Y010390D01*
X008666Y010485D01*
X008666Y010875D01*
X008391Y011150D01*
X008002Y011150D01*
X007726Y010875D01*
X007726Y010485D01*
X007822Y010390D01*
X007571Y010390D01*
X007666Y010485D01*
X007666Y010875D01*
X007391Y011150D01*
X007002Y011150D01*
X006726Y010875D01*
X006726Y010485D01*
X006822Y010390D01*
X006571Y010390D01*
X006666Y010485D01*
X006666Y010875D01*
X006391Y011150D01*
X006002Y011150D01*
X005726Y010875D01*
X005726Y010485D01*
X005822Y010390D01*
X005571Y010390D01*
X005666Y010485D01*
X005666Y010875D01*
X005391Y011150D01*
X005002Y011150D01*
X004726Y010875D01*
X004726Y010485D01*
X004822Y010390D01*
X004529Y010390D01*
X004636Y010498D01*
X004636Y010630D01*
X004246Y010630D01*
X004246Y010730D01*
X004146Y010730D01*
X004146Y010630D01*
X003756Y010630D01*
X003756Y010498D01*
X003864Y010390D01*
X002135Y010390D01*
X002021Y010343D01*
X001934Y010256D01*
X001886Y010142D01*
X001886Y001418D01*
X001934Y001304D01*
X002021Y001217D01*
X002232Y001006D01*
X002250Y000961D01*
X002176Y000783D01*
X002176Y000577D01*
X002256Y000385D01*
X002281Y000360D01*
X001296Y000360D01*
X001195Y000370D01*
X001008Y000448D01*
X000864Y000591D01*
X000862Y000680D02*
X000827Y000680D01*
X000796Y000754D02*
X000796Y011606D01*
X000786Y011580D02*
X000820Y011580D01*
X000803Y011538D02*
X000803Y011322D01*
X000886Y011122D01*
X001038Y010969D01*
X001238Y010886D01*
X001455Y010886D01*
X001654Y010969D01*
X001807Y011122D01*
X001890Y011322D01*
X001890Y011538D01*
X001807Y011738D01*
X001654Y011891D01*
X001455Y011974D01*
X001238Y011974D01*
X001038Y011891D01*
X000886Y011738D01*
X000803Y011538D01*
X000827Y011680D02*
X000862Y011680D01*
X000896Y011749D02*
X000896Y011801D01*
X000875Y011780D02*
X000928Y011780D01*
X000996Y011849D02*
X000996Y011901D01*
X000975Y011880D02*
X001028Y011880D01*
X001096Y011915D02*
X001096Y011949D01*
X001171Y011980D02*
X017522Y011980D01*
X017496Y011990D02*
X017496Y011956D01*
X017455Y011974D02*
X017238Y011974D01*
X017038Y011891D01*
X016886Y011738D01*
X016803Y011538D01*
X016803Y011322D01*
X016886Y011122D01*
X017038Y010969D01*
X017238Y010886D01*
X017455Y010886D01*
X017654Y010969D01*
X017807Y011122D01*
X017890Y011322D01*
X017890Y011538D01*
X017807Y011738D01*
X017654Y011891D01*
X017455Y011974D01*
X017596Y011949D02*
X017596Y011915D01*
X017665Y011880D02*
X017718Y011880D01*
X017696Y011901D02*
X017696Y011849D01*
X017765Y011780D02*
X017818Y011780D01*
X017796Y011801D02*
X017796Y011749D01*
X017831Y011680D02*
X017866Y011680D01*
X017896Y011606D02*
X017896Y000754D01*
X017907Y000780D02*
X017873Y000780D01*
X017890Y000822D02*
X017807Y000622D01*
X017654Y000469D01*
X017455Y000386D01*
X017238Y000386D01*
X017038Y000469D01*
X016886Y000622D01*
X016803Y000822D01*
X016803Y001038D01*
X016886Y001238D01*
X017038Y001391D01*
X017238Y001474D01*
X017455Y001474D01*
X017654Y001391D01*
X017807Y001238D01*
X017890Y001038D01*
X017890Y000822D01*
X017866Y000680D02*
X017831Y000680D01*
X017796Y000611D02*
X017796Y000559D01*
X017818Y000580D02*
X017765Y000580D01*
X017696Y000511D02*
X017696Y000459D01*
X017718Y000480D02*
X017665Y000480D01*
X017596Y000445D02*
X017596Y000411D01*
X017522Y000380D02*
X005132Y000380D01*
X005196Y000360D02*
X005196Y000528D01*
X005176Y000480D02*
X017028Y000480D01*
X016996Y000511D02*
X016996Y000360D01*
X016896Y000360D02*
X016896Y000611D01*
X016928Y000580D02*
X005216Y000580D01*
X005216Y000680D02*
X016862Y000680D01*
X016820Y000780D02*
X005216Y000780D01*
X005196Y000832D02*
X005196Y000987D01*
X005193Y000980D02*
X016803Y000980D01*
X016803Y000880D02*
X005176Y000880D01*
X005243Y001080D02*
X016820Y001080D01*
X016862Y001180D02*
X005293Y001180D01*
X005296Y001187D02*
X005296Y000360D01*
X005396Y000360D02*
X005396Y001215D01*
X005461Y001280D02*
X005932Y001280D01*
X005896Y001315D02*
X005896Y000360D01*
X005796Y000360D02*
X005796Y001415D01*
X005832Y001380D02*
X005561Y001380D01*
X005596Y001415D02*
X005596Y000360D01*
X005496Y000360D02*
X005496Y001315D01*
X005661Y001480D02*
X005732Y001480D01*
X005726Y001485D02*
X006002Y001210D01*
X006391Y001210D01*
X006666Y001485D01*
X006666Y001875D01*
X006391Y002150D01*
X006002Y002150D01*
X005726Y001875D01*
X005726Y001485D01*
X005726Y001580D02*
X005666Y001580D01*
X005666Y001680D02*
X005726Y001680D01*
X005726Y001780D02*
X005666Y001780D01*
X005661Y001880D02*
X005732Y001880D01*
X005796Y001945D02*
X005796Y002427D01*
X005815Y002409D02*
X005933Y002360D01*
X006060Y002360D01*
X006178Y002409D01*
X006268Y002499D01*
X006316Y002616D01*
X006316Y002744D01*
X006268Y002861D01*
X006206Y002923D01*
X006206Y003470D01*
X006523Y003470D01*
X006534Y003444D01*
X006652Y003326D01*
X006557Y003326D01*
X006469Y003239D01*
X006469Y002559D01*
X006557Y002471D01*
X007236Y002471D01*
X007324Y002559D01*
X007324Y003239D01*
X007236Y003326D01*
X007141Y003326D01*
X007259Y003444D01*
X007324Y003601D01*
X007324Y003771D01*
X007259Y003928D01*
X007139Y004049D01*
X007063Y004080D01*
X007139Y004111D01*
X007259Y004232D01*
X007324Y004389D01*
X007324Y004559D01*
X007259Y004716D01*
X007139Y004836D01*
X007024Y004884D01*
X007085Y004909D01*
X007150Y004952D01*
X007205Y005008D01*
X007249Y005073D01*
X007279Y005145D01*
X007294Y005222D01*
X007294Y005232D01*
X006925Y005232D01*
X006925Y005290D01*
X006868Y005290D01*
X006868Y005659D01*
X006857Y005659D01*
X006781Y005643D01*
X006708Y005613D01*
X006643Y005570D01*
X006588Y005514D01*
X006544Y005449D01*
X006514Y005377D01*
X006499Y005300D01*
X006499Y005290D01*
X006868Y005290D01*
X006868Y005232D01*
X006499Y005232D01*
X006499Y005222D01*
X006514Y005145D01*
X006544Y005073D01*
X006588Y005008D01*
X006643Y004952D01*
X006708Y004909D01*
X006769Y004884D01*
X006654Y004836D01*
X006562Y004744D01*
X004279Y004744D01*
X004278Y004745D01*
X004160Y004794D01*
X004033Y004794D01*
X003915Y004745D01*
X003914Y004744D01*
X003831Y004744D01*
X003739Y004836D01*
X003624Y004884D01*
X003685Y004909D01*
X003750Y004952D01*
X003805Y005008D01*
X003849Y005073D01*
X003879Y005145D01*
X003894Y005222D01*
X003894Y005232D01*
X003525Y005232D01*
X003525Y005290D01*
X003468Y005290D01*
X003468Y005659D01*
X003457Y005659D01*
X003381Y005643D01*
X003308Y005613D01*
X003243Y005570D01*
X003188Y005514D01*
X003144Y005449D01*
X003114Y005377D01*
X003099Y005300D01*
X003099Y005290D01*
X003468Y005290D01*
X003468Y005232D01*
X003099Y005232D01*
X003099Y005222D01*
X003114Y005145D01*
X003144Y005073D01*
X003188Y005008D01*
X003243Y004952D01*
X003308Y004909D01*
X003369Y004884D01*
X003254Y004836D01*
X003134Y004716D01*
X003069Y004559D01*
X003069Y004389D01*
X003134Y004232D01*
X003254Y004111D01*
X003330Y004080D01*
X003254Y004049D01*
X003134Y003928D01*
X003069Y003771D01*
X003069Y003601D01*
X003134Y003444D01*
X003252Y003326D01*
X003157Y003326D01*
X003069Y003239D01*
X003069Y002559D01*
X003157Y002471D01*
X003836Y002471D01*
X003924Y002559D01*
X003924Y002905D01*
X004033Y002860D01*
X004160Y002860D01*
X004278Y002909D01*
X004368Y002999D01*
X004416Y003116D01*
X004416Y003244D01*
X004368Y003361D01*
X004306Y003423D01*
X004306Y004204D01*
X006562Y004204D01*
X006654Y004111D01*
X006730Y004080D01*
X006654Y004049D01*
X006534Y003928D01*
X006518Y003890D01*
X006009Y003890D01*
X005886Y003767D01*
X005786Y003667D01*
X005786Y002923D01*
X005725Y002861D01*
X005676Y002744D01*
X005676Y002616D01*
X005725Y002499D01*
X005815Y002409D01*
X005885Y002380D02*
X002506Y002380D01*
X002506Y002280D02*
X017916Y002280D01*
X017916Y002180D02*
X002506Y002180D01*
X002506Y002080D02*
X003974Y002080D01*
X003996Y002102D02*
X003996Y002875D01*
X003985Y002880D02*
X003924Y002880D01*
X003924Y002780D02*
X005692Y002780D01*
X005696Y002792D02*
X005696Y004204D01*
X005596Y004204D02*
X005596Y001945D01*
X005561Y001980D02*
X005832Y001980D01*
X005896Y002045D02*
X005896Y002375D01*
X005996Y002360D02*
X005996Y002145D01*
X005932Y002080D02*
X005461Y002080D01*
X005496Y002045D02*
X005496Y004204D01*
X005396Y004204D02*
X005396Y002145D01*
X005296Y002150D02*
X005296Y004204D01*
X005196Y004204D02*
X005196Y002150D01*
X005096Y002150D02*
X005096Y004204D01*
X004996Y004204D02*
X004996Y002145D01*
X004932Y002080D02*
X004419Y002080D01*
X004396Y002102D02*
X004396Y003068D01*
X004401Y003080D02*
X005786Y003080D01*
X005786Y002980D02*
X004349Y002980D01*
X004296Y002927D02*
X004296Y002120D01*
X004246Y002120D02*
X004246Y001730D01*
X004636Y001730D01*
X004636Y001862D01*
X004379Y002120D01*
X004246Y002120D01*
X004246Y002080D02*
X004146Y002080D01*
X004096Y002120D02*
X004096Y002860D01*
X004196Y002875D02*
X004196Y001730D01*
X004146Y001780D02*
X004246Y001780D01*
X004296Y001730D02*
X004296Y001630D01*
X004246Y001680D02*
X004726Y001680D01*
X004726Y001580D02*
X004636Y001580D01*
X004596Y001630D02*
X004596Y001730D01*
X004636Y001780D02*
X004726Y001780D01*
X004732Y001880D02*
X004619Y001880D01*
X004596Y001902D02*
X004596Y004204D01*
X004496Y004204D02*
X004496Y002002D01*
X004519Y001980D02*
X004832Y001980D01*
X004796Y001945D02*
X004796Y004204D01*
X004696Y004204D02*
X004696Y001373D01*
X004700Y001380D02*
X004519Y001380D01*
X004496Y001358D02*
X004496Y001160D01*
X004545Y001180D02*
X003848Y001180D01*
X003800Y001200D02*
X003593Y001200D01*
X003402Y001121D01*
X003256Y000975D01*
X003196Y000832D01*
X003196Y002471D01*
X003148Y002480D02*
X002506Y002480D01*
X002506Y002580D02*
X003069Y002580D01*
X003096Y002532D02*
X003096Y001015D01*
X003132Y000980D02*
X003261Y000980D01*
X003296Y001015D02*
X003296Y002471D01*
X003396Y002471D02*
X003396Y001115D01*
X003361Y001080D02*
X003032Y001080D01*
X002996Y001115D02*
X002996Y009770D01*
X002896Y009770D02*
X002896Y001160D01*
X002848Y001180D02*
X003545Y001180D01*
X003496Y001160D02*
X003496Y002471D01*
X003596Y002471D02*
X003596Y001200D01*
X003696Y001200D02*
X003696Y002471D01*
X003796Y002471D02*
X003796Y001902D01*
X003774Y001880D02*
X002506Y001880D01*
X002506Y001980D02*
X003874Y001980D01*
X003896Y002002D02*
X003896Y002532D01*
X003924Y002580D02*
X005692Y002580D01*
X005696Y002568D02*
X005696Y000360D01*
X005996Y000360D02*
X005996Y001215D01*
X006096Y001210D02*
X006096Y000360D01*
X006196Y000360D02*
X006196Y001210D01*
X006296Y001210D02*
X006296Y000360D01*
X006396Y000360D02*
X006396Y001215D01*
X006461Y001280D02*
X006932Y001280D01*
X006896Y001315D02*
X006896Y000360D01*
X006796Y000360D02*
X006796Y001415D01*
X006832Y001380D02*
X006561Y001380D01*
X006596Y001415D02*
X006596Y000360D01*
X006496Y000360D02*
X006496Y001315D01*
X006661Y001480D02*
X006732Y001480D01*
X006726Y001485D02*
X007002Y001210D01*
X007391Y001210D01*
X007666Y001485D01*
X007666Y001875D01*
X007391Y002150D01*
X007002Y002150D01*
X006726Y001875D01*
X006726Y001485D01*
X006726Y001580D02*
X006666Y001580D01*
X006666Y001680D02*
X006726Y001680D01*
X006726Y001780D02*
X006666Y001780D01*
X006661Y001880D02*
X006732Y001880D01*
X006796Y001945D02*
X006796Y002471D01*
X006696Y002471D02*
X006696Y000360D01*
X006996Y000360D02*
X006996Y001215D01*
X007096Y001210D02*
X007096Y000360D01*
X007196Y000360D02*
X007196Y001210D01*
X007296Y001210D02*
X007296Y000360D01*
X007396Y000360D02*
X007396Y001215D01*
X007461Y001280D02*
X007932Y001280D01*
X007896Y001315D02*
X007896Y000360D01*
X007796Y000360D02*
X007796Y001415D01*
X007832Y001380D02*
X007561Y001380D01*
X007596Y001415D02*
X007596Y000360D01*
X007496Y000360D02*
X007496Y001315D01*
X007661Y001480D02*
X007732Y001480D01*
X007726Y001485D02*
X008002Y001210D01*
X008391Y001210D01*
X008666Y001485D01*
X008666Y001875D01*
X008391Y002150D01*
X008002Y002150D01*
X007726Y001875D01*
X007726Y001485D01*
X007726Y001580D02*
X007666Y001580D01*
X007666Y001680D02*
X007726Y001680D01*
X007726Y001780D02*
X007666Y001780D01*
X007661Y001880D02*
X007732Y001880D01*
X007796Y001945D02*
X007796Y009770D01*
X007696Y009770D02*
X007696Y000360D01*
X007996Y000360D02*
X007996Y001215D01*
X008096Y001210D02*
X008096Y000360D01*
X008196Y000360D02*
X008196Y001210D01*
X008296Y001210D02*
X008296Y000360D01*
X008396Y000360D02*
X008396Y001215D01*
X008461Y001280D02*
X008932Y001280D01*
X008896Y001315D02*
X008896Y000360D01*
X008796Y000360D02*
X008796Y001415D01*
X008832Y001380D02*
X008561Y001380D01*
X008596Y001415D02*
X008596Y000360D01*
X008496Y000360D02*
X008496Y001315D01*
X008661Y001480D02*
X008732Y001480D01*
X008726Y001485D02*
X009002Y001210D01*
X009391Y001210D01*
X009666Y001485D01*
X009666Y001875D01*
X009391Y002150D01*
X009002Y002150D01*
X008726Y001875D01*
X008726Y001485D01*
X008726Y001580D02*
X008666Y001580D01*
X008666Y001680D02*
X008726Y001680D01*
X008726Y001780D02*
X008666Y001780D01*
X008661Y001880D02*
X008732Y001880D01*
X008796Y001945D02*
X008796Y009770D01*
X008696Y009770D02*
X008696Y000360D01*
X008996Y000360D02*
X008996Y001215D01*
X009096Y001210D02*
X009096Y000360D01*
X009196Y000360D02*
X009196Y001210D01*
X009296Y001210D02*
X009296Y000360D01*
X009396Y000360D02*
X009396Y001215D01*
X009461Y001280D02*
X009932Y001280D01*
X009896Y001315D02*
X009896Y000360D01*
X009796Y000360D02*
X009796Y001415D01*
X009832Y001380D02*
X009561Y001380D01*
X009596Y001415D02*
X009596Y000360D01*
X009496Y000360D02*
X009496Y001315D01*
X009661Y001480D02*
X009732Y001480D01*
X009726Y001485D02*
X010002Y001210D01*
X010391Y001210D01*
X010666Y001485D01*
X010666Y001875D01*
X010391Y002150D01*
X010002Y002150D01*
X009726Y001875D01*
X009726Y001485D01*
X009726Y001580D02*
X009666Y001580D01*
X009666Y001680D02*
X009726Y001680D01*
X009726Y001780D02*
X009666Y001780D01*
X009661Y001880D02*
X009732Y001880D01*
X009796Y001945D02*
X009796Y009770D01*
X009696Y009770D02*
X009696Y000360D01*
X009996Y000360D02*
X009996Y001215D01*
X010096Y001210D02*
X010096Y000360D01*
X010196Y000360D02*
X010196Y001210D01*
X010296Y001210D02*
X010296Y000360D01*
X010396Y000360D02*
X010396Y001215D01*
X010461Y001280D02*
X010932Y001280D01*
X010896Y001315D02*
X010896Y000360D01*
X010796Y000360D02*
X010796Y001415D01*
X010832Y001380D02*
X010561Y001380D01*
X010596Y001415D02*
X010596Y000360D01*
X010496Y000360D02*
X010496Y001315D01*
X010661Y001480D02*
X010732Y001480D01*
X010726Y001485D02*
X011002Y001210D01*
X011391Y001210D01*
X011666Y001485D01*
X011666Y001875D01*
X011391Y002150D01*
X011002Y002150D01*
X010726Y001875D01*
X010726Y001485D01*
X010726Y001580D02*
X010666Y001580D01*
X010666Y001680D02*
X010726Y001680D01*
X010726Y001780D02*
X010666Y001780D01*
X010661Y001880D02*
X010732Y001880D01*
X010796Y001945D02*
X010796Y003027D01*
X010815Y003009D02*
X010933Y002960D01*
X011060Y002960D01*
X011178Y003009D01*
X011268Y003099D01*
X011316Y003216D01*
X011316Y003344D01*
X011268Y003461D01*
X011178Y003551D01*
X011060Y003600D01*
X010933Y003600D01*
X010815Y003551D01*
X010806Y003543D01*
X010806Y004117D01*
X010815Y004109D01*
X010933Y004060D01*
X011060Y004060D01*
X011178Y004109D01*
X011268Y004199D01*
X011316Y004316D01*
X011316Y004444D01*
X011268Y004561D01*
X011206Y004623D01*
X011206Y007437D01*
X011268Y007499D01*
X011316Y007616D01*
X011316Y007744D01*
X011268Y007861D01*
X011178Y007951D01*
X011060Y008000D01*
X010933Y008000D01*
X010815Y007951D01*
X010725Y007861D01*
X010676Y007744D01*
X010676Y007693D01*
X010660Y007700D01*
X010533Y007700D01*
X010415Y007651D01*
X010325Y007561D01*
X010276Y007444D01*
X010276Y007316D01*
X010325Y007199D01*
X010386Y007137D01*
X010386Y003193D01*
X010509Y003070D01*
X010754Y003070D01*
X010815Y003009D01*
X010885Y002980D02*
X007324Y002980D01*
X007324Y003080D02*
X010499Y003080D01*
X010496Y003083D02*
X010496Y002045D01*
X010461Y002080D02*
X010932Y002080D01*
X010896Y002045D02*
X010896Y002975D01*
X010996Y002960D02*
X010996Y002145D01*
X011096Y002150D02*
X011096Y002975D01*
X011108Y002980D02*
X014807Y002980D01*
X014814Y003015D02*
X014799Y002938D01*
X014799Y002928D01*
X015168Y002928D01*
X015168Y002870D01*
X015225Y002870D01*
X015225Y002501D01*
X015236Y002501D01*
X015312Y002517D01*
X015385Y002547D01*
X015450Y002590D01*
X015505Y002646D01*
X015549Y002711D01*
X015579Y002783D01*
X015594Y002860D01*
X015594Y002870D01*
X015225Y002870D01*
X015225Y002928D01*
X015594Y002928D01*
X015594Y002938D01*
X015579Y003015D01*
X015549Y003087D01*
X015505Y003152D01*
X015450Y003208D01*
X015385Y003251D01*
X015324Y003276D01*
X015439Y003324D01*
X015559Y003444D01*
X015624Y003601D01*
X015624Y003771D01*
X015559Y003928D01*
X015439Y004049D01*
X015363Y004080D01*
X017916Y004080D01*
X017916Y003980D02*
X015507Y003980D01*
X015496Y003991D02*
X015496Y004169D01*
X015507Y004180D02*
X017916Y004180D01*
X017916Y004280D02*
X015579Y004280D01*
X015596Y004322D02*
X015596Y003838D01*
X015579Y003880D02*
X017916Y003880D01*
X017916Y003780D02*
X015620Y003780D01*
X015624Y003680D02*
X017916Y003680D01*
X017916Y003580D02*
X015615Y003580D01*
X015596Y003535D02*
X015596Y001945D01*
X015561Y001980D02*
X017916Y001980D01*
X017916Y001880D02*
X015661Y001880D01*
X015666Y001875D02*
X015391Y002150D01*
X015002Y002150D01*
X014726Y001875D01*
X014726Y001485D01*
X015002Y001210D01*
X015391Y001210D01*
X015666Y001485D01*
X015666Y001875D01*
X015666Y001780D02*
X017916Y001780D01*
X017916Y001680D02*
X015666Y001680D01*
X015666Y001580D02*
X017916Y001580D01*
X017916Y001480D02*
X015661Y001480D01*
X015596Y001415D02*
X015596Y000360D01*
X015496Y000360D02*
X015496Y001315D01*
X015461Y001280D02*
X016928Y001280D01*
X016896Y001249D02*
X016896Y011111D01*
X016928Y011080D02*
X015649Y011080D01*
X015666Y011062D02*
X015579Y011150D01*
X014814Y011150D01*
X014726Y011062D01*
X014726Y010298D01*
X014814Y010210D01*
X015579Y010210D01*
X015666Y010298D01*
X015666Y011062D01*
X015666Y010980D02*
X017028Y010980D01*
X016996Y011011D02*
X016996Y001349D01*
X017028Y001380D02*
X015561Y001380D01*
X015396Y001215D02*
X015396Y000360D01*
X015296Y000360D02*
X015296Y001210D01*
X015196Y001210D02*
X015196Y000360D01*
X015096Y000360D02*
X015096Y001210D01*
X014996Y001215D02*
X014996Y000360D01*
X014896Y000360D02*
X014896Y001315D01*
X014932Y001280D02*
X014461Y001280D01*
X014496Y001315D02*
X014496Y000360D01*
X014396Y000360D02*
X014396Y001215D01*
X014391Y001210D02*
X014666Y001485D01*
X014666Y001875D01*
X014391Y002150D01*
X014002Y002150D01*
X013726Y001875D01*
X013726Y001485D01*
X014002Y001210D01*
X014391Y001210D01*
X014296Y001210D02*
X014296Y000360D01*
X014196Y000360D02*
X014196Y001210D01*
X014096Y001210D02*
X014096Y000360D01*
X013996Y000360D02*
X013996Y001215D01*
X013932Y001280D02*
X013461Y001280D01*
X013496Y001315D02*
X013496Y000360D01*
X013396Y000360D02*
X013396Y001215D01*
X013391Y001210D02*
X013666Y001485D01*
X013666Y001875D01*
X013391Y002150D01*
X013002Y002150D01*
X012726Y001875D01*
X012726Y001485D01*
X013002Y001210D01*
X013391Y001210D01*
X013296Y001210D02*
X013296Y000360D01*
X013196Y000360D02*
X013196Y001210D01*
X013096Y001210D02*
X013096Y000360D01*
X012996Y000360D02*
X012996Y001215D01*
X012932Y001280D02*
X012461Y001280D01*
X012496Y001315D02*
X012496Y000360D01*
X012396Y000360D02*
X012396Y001215D01*
X012391Y001210D02*
X012666Y001485D01*
X012666Y001875D01*
X012391Y002150D01*
X012002Y002150D01*
X011726Y001875D01*
X011726Y001485D01*
X012002Y001210D01*
X012391Y001210D01*
X012296Y001210D02*
X012296Y000360D01*
X012196Y000360D02*
X012196Y001210D01*
X012096Y001210D02*
X012096Y000360D01*
X011996Y000360D02*
X011996Y001215D01*
X011932Y001280D02*
X011461Y001280D01*
X011496Y001315D02*
X011496Y000360D01*
X011396Y000360D02*
X011396Y001215D01*
X011296Y001210D02*
X011296Y000360D01*
X011196Y000360D02*
X011196Y001210D01*
X011096Y001210D02*
X011096Y000360D01*
X010996Y000360D02*
X010996Y001215D01*
X011561Y001380D02*
X011832Y001380D01*
X011796Y001415D02*
X011796Y000360D01*
X011696Y000360D02*
X011696Y007460D01*
X011633Y007460D02*
X011760Y007460D01*
X011878Y007509D01*
X011939Y007570D01*
X013247Y007570D01*
X013286Y007550D01*
X013286Y004787D01*
X013686Y004387D01*
X013809Y004264D01*
X014821Y004264D01*
X014834Y004232D01*
X014954Y004111D01*
X015030Y004080D01*
X011108Y004080D01*
X011096Y004075D02*
X011096Y003585D01*
X011108Y003580D02*
X014778Y003580D01*
X014769Y003601D02*
X014834Y003444D01*
X014954Y003324D01*
X015069Y003276D01*
X015008Y003251D01*
X014943Y003208D01*
X014888Y003152D01*
X014844Y003087D01*
X014814Y003015D01*
X014841Y003080D02*
X011249Y003080D01*
X011196Y003027D02*
X011196Y002150D01*
X011296Y002150D02*
X011296Y003168D01*
X011301Y003180D02*
X014915Y003180D01*
X014896Y003161D02*
X014896Y003382D01*
X014898Y003380D02*
X011301Y003380D01*
X011296Y003392D02*
X011296Y004268D01*
X011301Y004280D02*
X013793Y004280D01*
X013796Y004277D02*
X013796Y001945D01*
X013832Y001980D02*
X013561Y001980D01*
X013596Y001945D02*
X013596Y004477D01*
X013593Y004480D02*
X011301Y004480D01*
X011296Y004492D02*
X011296Y007568D01*
X011301Y007580D02*
X011444Y007580D01*
X011425Y007599D02*
X011515Y007509D01*
X011633Y007460D01*
X011596Y007475D02*
X011596Y001945D01*
X011561Y001980D02*
X011832Y001980D01*
X011796Y001945D02*
X011796Y007475D01*
X011808Y007480D02*
X013286Y007480D01*
X013286Y007380D02*
X011206Y007380D01*
X011206Y007280D02*
X013286Y007280D01*
X013286Y007180D02*
X011206Y007180D01*
X011206Y007080D02*
X013286Y007080D01*
X013286Y006980D02*
X011206Y006980D01*
X011206Y006880D02*
X013286Y006880D01*
X013286Y006780D02*
X011206Y006780D01*
X011206Y006680D02*
X013286Y006680D01*
X013286Y006580D02*
X011206Y006580D01*
X011206Y006480D02*
X013286Y006480D01*
X013286Y006380D02*
X011206Y006380D01*
X011206Y006280D02*
X013286Y006280D01*
X013286Y006180D02*
X011206Y006180D01*
X011206Y006080D02*
X013286Y006080D01*
X013286Y005980D02*
X011206Y005980D01*
X011206Y005880D02*
X013286Y005880D01*
X013286Y005780D02*
X011206Y005780D01*
X011206Y005680D02*
X013286Y005680D01*
X013286Y005580D02*
X011206Y005580D01*
X011206Y005480D02*
X013286Y005480D01*
X013286Y005380D02*
X011206Y005380D01*
X011206Y005280D02*
X013286Y005280D01*
X013286Y005180D02*
X011206Y005180D01*
X011206Y005080D02*
X013286Y005080D01*
X013286Y004980D02*
X011206Y004980D01*
X011206Y004880D02*
X013286Y004880D01*
X013293Y004780D02*
X011206Y004780D01*
X011206Y004680D02*
X013393Y004680D01*
X013396Y004677D02*
X013396Y002145D01*
X013461Y002080D02*
X013932Y002080D01*
X013896Y002045D02*
X013896Y004264D01*
X013996Y004264D02*
X013996Y002145D01*
X014096Y002150D02*
X014096Y004264D01*
X014196Y004264D02*
X014196Y002150D01*
X014296Y002150D02*
X014296Y004264D01*
X014396Y004264D02*
X014396Y002145D01*
X014461Y002080D02*
X014932Y002080D01*
X014896Y002045D02*
X014896Y002637D01*
X014888Y002646D02*
X014943Y002590D01*
X015008Y002547D01*
X015081Y002517D01*
X015157Y002501D01*
X015168Y002501D01*
X015168Y002870D01*
X014799Y002870D01*
X014799Y002860D01*
X014814Y002783D01*
X014844Y002711D01*
X014888Y002646D01*
X014865Y002680D02*
X007324Y002680D01*
X007324Y002580D02*
X014958Y002580D01*
X014996Y002554D02*
X014996Y002145D01*
X015096Y002150D02*
X015096Y002514D01*
X015168Y002580D02*
X015225Y002580D01*
X015296Y002514D02*
X015296Y002150D01*
X015196Y002150D02*
X015196Y002870D01*
X015168Y002880D02*
X007324Y002880D01*
X007324Y002780D02*
X014815Y002780D01*
X014896Y002870D02*
X014896Y002928D01*
X014996Y002928D02*
X014996Y002870D01*
X015096Y002870D02*
X015096Y002928D01*
X015225Y002880D02*
X017916Y002880D01*
X017916Y002780D02*
X015577Y002780D01*
X015528Y002680D02*
X017916Y002680D01*
X017916Y002580D02*
X015435Y002580D01*
X015396Y002554D02*
X015396Y002145D01*
X015461Y002080D02*
X017916Y002080D01*
X017916Y002380D02*
X006108Y002380D01*
X006096Y002375D02*
X006096Y002150D01*
X006196Y002150D02*
X006196Y002427D01*
X006249Y002480D02*
X006548Y002480D01*
X006596Y002471D02*
X006596Y001945D01*
X006561Y001980D02*
X006832Y001980D01*
X006896Y002045D02*
X006896Y002471D01*
X006996Y002471D02*
X006996Y002145D01*
X006932Y002080D02*
X006461Y002080D01*
X006496Y002045D02*
X006496Y002532D01*
X006469Y002580D02*
X006301Y002580D01*
X006296Y002568D02*
X006296Y002150D01*
X006396Y002145D02*
X006396Y003470D01*
X006296Y003470D02*
X006296Y002792D01*
X006301Y002780D02*
X006469Y002780D01*
X006469Y002680D02*
X006316Y002680D01*
X006249Y002880D02*
X006469Y002880D01*
X006469Y002980D02*
X006206Y002980D01*
X006206Y003080D02*
X006469Y003080D01*
X006469Y003180D02*
X006206Y003180D01*
X006206Y003280D02*
X006510Y003280D01*
X006496Y003266D02*
X006496Y003470D01*
X006596Y003382D02*
X006596Y003326D01*
X006598Y003380D02*
X006206Y003380D01*
X005799Y003680D02*
X004306Y003680D01*
X004306Y003580D02*
X005786Y003580D01*
X005796Y003677D02*
X005796Y004204D01*
X005896Y004204D02*
X005896Y003777D01*
X005899Y003780D02*
X004306Y003780D01*
X004306Y003880D02*
X005999Y003880D01*
X005996Y003877D02*
X005996Y004204D01*
X006096Y004204D02*
X006096Y003890D01*
X006196Y003890D02*
X006196Y004204D01*
X006296Y004204D02*
X006296Y003890D01*
X006396Y003890D02*
X006396Y004204D01*
X006496Y004204D02*
X006496Y003890D01*
X006586Y003980D02*
X004306Y003980D01*
X004306Y004080D02*
X006730Y004080D01*
X006696Y004066D02*
X006696Y004094D01*
X006596Y004169D02*
X006596Y003991D01*
X006586Y004180D02*
X004306Y004180D01*
X004396Y004204D02*
X004396Y003292D01*
X004401Y003280D02*
X005786Y003280D01*
X005786Y003180D02*
X004416Y003180D01*
X004349Y003380D02*
X005786Y003380D01*
X005786Y003480D02*
X004306Y003480D01*
X003886Y003480D02*
X003874Y003480D01*
X003886Y003511D02*
X003886Y003423D01*
X003825Y003361D01*
X003811Y003326D01*
X003741Y003326D01*
X003859Y003444D01*
X003886Y003511D01*
X003844Y003380D02*
X003795Y003380D01*
X003796Y003382D02*
X003796Y003326D01*
X003196Y003326D02*
X003196Y003382D01*
X003198Y003380D02*
X002506Y003380D01*
X002506Y003280D02*
X003110Y003280D01*
X003096Y003266D02*
X003096Y003535D01*
X003078Y003580D02*
X002506Y003580D01*
X002506Y003480D02*
X003119Y003480D01*
X003069Y003680D02*
X002506Y003680D01*
X002506Y003780D02*
X003073Y003780D01*
X003096Y003838D02*
X003096Y004322D01*
X003114Y004280D02*
X002506Y004280D01*
X002506Y004180D02*
X003186Y004180D01*
X003196Y004169D02*
X003196Y003991D01*
X003186Y003980D02*
X002506Y003980D01*
X002506Y004080D02*
X003330Y004080D01*
X003296Y004066D02*
X003296Y004094D01*
X003114Y003880D02*
X002506Y003880D01*
X001886Y003880D02*
X000776Y003880D01*
X000776Y003780D02*
X001886Y003780D01*
X001886Y003680D02*
X000776Y003680D01*
X000776Y003580D02*
X001886Y003580D01*
X001886Y003480D02*
X000776Y003480D01*
X000776Y003380D02*
X001886Y003380D01*
X001886Y003280D02*
X000776Y003280D01*
X000776Y003180D02*
X001886Y003180D01*
X001886Y003080D02*
X000776Y003080D01*
X000776Y002980D02*
X001886Y002980D01*
X001886Y002880D02*
X000776Y002880D01*
X000776Y002780D02*
X001886Y002780D01*
X001886Y002680D02*
X000776Y002680D01*
X000776Y002580D02*
X001886Y002580D01*
X001886Y002480D02*
X000776Y002480D01*
X000776Y002380D02*
X001886Y002380D01*
X001886Y002280D02*
X000776Y002280D01*
X000776Y002180D02*
X001886Y002180D01*
X001886Y002080D02*
X000776Y002080D01*
X000776Y001980D02*
X001886Y001980D01*
X001886Y001880D02*
X000776Y001880D01*
X000776Y001780D02*
X001886Y001780D01*
X001886Y001680D02*
X000776Y001680D01*
X000776Y001580D02*
X001886Y001580D01*
X001886Y001480D02*
X000776Y001480D01*
X000776Y001380D02*
X001028Y001380D01*
X000996Y001349D02*
X000996Y011011D01*
X001028Y010980D02*
X000776Y010980D01*
X000776Y010880D02*
X003774Y010880D01*
X003756Y010862D02*
X003756Y010730D01*
X004146Y010730D01*
X004146Y011120D01*
X004014Y011120D01*
X003756Y010862D01*
X003796Y010902D02*
X003796Y012000D01*
X003696Y012000D02*
X003696Y010390D01*
X003596Y010390D02*
X003596Y012000D01*
X003496Y012000D02*
X003496Y010390D01*
X003396Y010390D02*
X003396Y012000D01*
X003296Y012000D02*
X003296Y010390D01*
X003196Y010390D02*
X003196Y012000D01*
X003096Y012000D02*
X003096Y010390D01*
X002996Y010390D02*
X002996Y012000D01*
X002896Y012000D02*
X002896Y010390D01*
X002796Y010390D02*
X002796Y012000D01*
X002696Y012000D02*
X002696Y010390D01*
X002596Y010390D02*
X002596Y012000D01*
X002496Y012000D02*
X002496Y010390D01*
X002396Y010390D02*
X002396Y012000D01*
X002296Y012000D02*
X002296Y010390D01*
X002196Y010390D02*
X002196Y012000D01*
X002096Y012000D02*
X002096Y010374D01*
X002111Y010380D02*
X000776Y010380D01*
X000776Y010280D02*
X001958Y010280D01*
X001996Y010318D02*
X001996Y012000D01*
X001896Y012000D02*
X001896Y010166D01*
X001902Y010180D02*
X000776Y010180D01*
X000776Y010080D02*
X001886Y010080D01*
X001886Y009980D02*
X000776Y009980D01*
X000776Y009880D02*
X001886Y009880D01*
X001886Y009780D02*
X000776Y009780D01*
X000776Y009680D02*
X001886Y009680D01*
X001886Y009580D02*
X000776Y009580D01*
X000776Y009480D02*
X001886Y009480D01*
X001886Y009380D02*
X000776Y009380D01*
X000776Y009280D02*
X001886Y009280D01*
X001886Y009180D02*
X000776Y009180D01*
X000776Y009080D02*
X001886Y009080D01*
X001886Y008980D02*
X000776Y008980D01*
X000776Y008880D02*
X001886Y008880D01*
X001886Y008780D02*
X000776Y008780D01*
X000776Y008680D02*
X001886Y008680D01*
X001886Y008580D02*
X000776Y008580D01*
X000776Y008480D02*
X001886Y008480D01*
X001886Y008380D02*
X000776Y008380D01*
X000776Y008280D02*
X001886Y008280D01*
X001886Y008180D02*
X000776Y008180D01*
X000776Y008080D02*
X001886Y008080D01*
X001886Y007980D02*
X000776Y007980D01*
X000776Y007880D02*
X001886Y007880D01*
X001886Y007780D02*
X000776Y007780D01*
X000776Y007680D02*
X001886Y007680D01*
X001886Y007580D02*
X000776Y007580D01*
X000776Y007480D02*
X001886Y007480D01*
X001886Y007380D02*
X000776Y007380D01*
X000776Y007280D02*
X001886Y007280D01*
X001886Y007180D02*
X000776Y007180D01*
X000776Y007080D02*
X001886Y007080D01*
X001886Y006980D02*
X000776Y006980D01*
X000776Y006880D02*
X001886Y006880D01*
X001886Y006780D02*
X000776Y006780D01*
X000776Y006680D02*
X001886Y006680D01*
X001886Y006580D02*
X000776Y006580D01*
X000776Y006480D02*
X001886Y006480D01*
X001886Y006380D02*
X000776Y006380D01*
X000776Y006280D02*
X001886Y006280D01*
X001886Y006180D02*
X000776Y006180D01*
X000776Y006080D02*
X001886Y006080D01*
X001886Y005980D02*
X000776Y005980D01*
X000776Y005880D02*
X001886Y005880D01*
X001886Y005780D02*
X000776Y005780D01*
X000776Y005680D02*
X001886Y005680D01*
X001886Y005580D02*
X000776Y005580D01*
X000776Y005480D02*
X001886Y005480D01*
X001886Y005380D02*
X000776Y005380D01*
X000776Y005280D02*
X001886Y005280D01*
X001886Y005180D02*
X000776Y005180D01*
X000776Y005080D02*
X001886Y005080D01*
X001886Y004980D02*
X000776Y004980D01*
X000776Y004880D02*
X001886Y004880D01*
X001886Y004780D02*
X000776Y004780D01*
X000776Y004680D02*
X001886Y004680D01*
X001886Y004580D02*
X000776Y004580D01*
X000776Y004480D02*
X001886Y004480D01*
X001886Y004380D02*
X000776Y004380D01*
X000776Y004280D02*
X001886Y004280D01*
X001886Y004180D02*
X000776Y004180D01*
X000776Y004080D02*
X001886Y004080D01*
X001886Y003980D02*
X000776Y003980D01*
X002506Y004380D02*
X003073Y004380D01*
X003069Y004480D02*
X002506Y004480D01*
X002506Y004580D02*
X003078Y004580D01*
X003096Y004625D02*
X003096Y006732D01*
X003069Y006780D02*
X002506Y006780D01*
X002506Y006680D02*
X003148Y006680D01*
X003196Y006671D02*
X003196Y005523D01*
X003165Y005480D02*
X002506Y005480D01*
X002506Y005380D02*
X003115Y005380D01*
X003196Y005290D02*
X003196Y005232D01*
X003296Y005232D02*
X003296Y005290D01*
X003396Y005290D02*
X003396Y005232D01*
X003468Y005280D02*
X002506Y005280D01*
X002506Y005180D02*
X003107Y005180D01*
X003141Y005080D02*
X002506Y005080D01*
X002506Y004980D02*
X003215Y004980D01*
X003196Y004999D02*
X003196Y004778D01*
X003198Y004780D02*
X002506Y004780D01*
X002506Y004680D02*
X003119Y004680D01*
X003296Y004854D02*
X003296Y004917D01*
X003360Y004880D02*
X002506Y004880D01*
X003496Y005290D02*
X003496Y006671D01*
X003396Y006671D02*
X003396Y005646D01*
X003468Y005580D02*
X003525Y005580D01*
X003525Y005659D02*
X003525Y005290D01*
X003894Y005290D01*
X003894Y005300D01*
X003879Y005377D01*
X003849Y005449D01*
X003805Y005514D01*
X003750Y005570D01*
X003685Y005613D01*
X003612Y005643D01*
X003536Y005659D01*
X003525Y005659D01*
X003596Y005646D02*
X003596Y006671D01*
X003696Y006671D02*
X003696Y005606D01*
X003735Y005580D02*
X006658Y005580D01*
X006696Y005606D02*
X006696Y009770D01*
X006596Y009770D02*
X006596Y005523D01*
X006565Y005480D02*
X003828Y005480D01*
X003796Y005523D02*
X003796Y006671D01*
X003845Y006680D02*
X007986Y006680D01*
X007986Y006580D02*
X002506Y006580D01*
X002506Y006480D02*
X007986Y006480D01*
X007986Y006423D02*
X007925Y006361D01*
X007876Y006244D01*
X007876Y006116D01*
X007925Y005999D01*
X008015Y005909D01*
X008133Y005860D01*
X008260Y005860D01*
X008378Y005909D01*
X008468Y005999D01*
X008516Y006116D01*
X008516Y006244D01*
X008468Y006361D01*
X008406Y006423D01*
X008406Y008037D01*
X008468Y008099D01*
X008516Y008216D01*
X008516Y008344D01*
X008468Y008461D01*
X008378Y008551D01*
X008260Y008600D01*
X008133Y008600D01*
X008015Y008551D01*
X007925Y008461D01*
X007876Y008344D01*
X007876Y008216D01*
X007925Y008099D01*
X007986Y008037D01*
X007986Y006423D01*
X007944Y006380D02*
X002506Y006380D01*
X002506Y006280D02*
X007892Y006280D01*
X007896Y006292D02*
X007896Y008168D01*
X007892Y008180D02*
X004406Y008180D01*
X004406Y008280D02*
X007876Y008280D01*
X007892Y008380D02*
X004406Y008380D01*
X004455Y008480D02*
X007944Y008480D01*
X007996Y008533D02*
X007996Y009770D01*
X007896Y009770D02*
X007896Y008392D01*
X008085Y008580D02*
X004504Y008580D01*
X004496Y008562D02*
X004496Y007492D01*
X004501Y007480D02*
X007986Y007480D01*
X007986Y007380D02*
X004516Y007380D01*
X004501Y007280D02*
X007986Y007280D01*
X007986Y007180D02*
X004449Y007180D01*
X004396Y007127D02*
X004396Y004744D01*
X004296Y004744D02*
X004296Y007075D01*
X004308Y007080D02*
X007986Y007080D01*
X007986Y006980D02*
X003924Y006980D01*
X003924Y006880D02*
X007986Y006880D01*
X007986Y006780D02*
X003924Y006780D01*
X003896Y006732D02*
X003896Y004744D01*
X003796Y004778D02*
X003796Y004999D01*
X003777Y004980D02*
X006615Y004980D01*
X006596Y004999D02*
X006596Y004778D01*
X006598Y004780D02*
X004193Y004780D01*
X004196Y004779D02*
X004196Y007060D01*
X004096Y007075D02*
X004096Y004794D01*
X004000Y004780D02*
X003795Y004780D01*
X003696Y004854D02*
X003696Y004917D01*
X003633Y004880D02*
X006760Y004880D01*
X006696Y004854D02*
X006696Y004917D01*
X006496Y004744D02*
X006496Y009770D01*
X006396Y009770D02*
X006396Y004744D01*
X006296Y004744D02*
X006296Y009770D01*
X006196Y009770D02*
X006196Y004744D01*
X006096Y004744D02*
X006096Y009770D01*
X005996Y009770D02*
X005996Y004744D01*
X005896Y004744D02*
X005896Y009770D01*
X005796Y009770D02*
X005796Y004744D01*
X005696Y004744D02*
X005696Y009770D01*
X005596Y009770D02*
X005596Y004744D01*
X005496Y004744D02*
X005496Y009770D01*
X005396Y009770D02*
X005396Y004744D01*
X005296Y004744D02*
X005296Y009770D01*
X005196Y009770D02*
X005196Y004744D01*
X005096Y004744D02*
X005096Y009770D01*
X004996Y009770D02*
X004996Y004744D01*
X004896Y004744D02*
X004896Y009770D01*
X004796Y009770D02*
X004796Y004744D01*
X004696Y004744D02*
X004696Y009770D01*
X004596Y009770D02*
X004596Y004744D01*
X004496Y004744D02*
X004496Y007268D01*
X004449Y007580D02*
X007986Y007580D01*
X007986Y007680D02*
X004406Y007680D01*
X004406Y007780D02*
X007986Y007780D01*
X007986Y007880D02*
X004406Y007880D01*
X004406Y007980D02*
X007986Y007980D01*
X007944Y008080D02*
X004406Y008080D01*
X003986Y008080D02*
X003879Y008080D01*
X003896Y008038D02*
X003896Y008522D01*
X003905Y008542D02*
X003925Y008492D01*
X003986Y008431D01*
X003986Y007623D01*
X003925Y007561D01*
X003889Y007474D01*
X003836Y007526D01*
X003741Y007526D01*
X003859Y007644D01*
X003924Y007801D01*
X003924Y007971D01*
X003859Y008128D01*
X003739Y008249D01*
X003663Y008280D01*
X003739Y008311D01*
X003859Y008432D01*
X003905Y008542D01*
X003879Y008480D02*
X003938Y008480D01*
X003986Y008380D02*
X003807Y008380D01*
X003796Y008369D02*
X003796Y008191D01*
X003807Y008180D02*
X003986Y008180D01*
X003986Y008280D02*
X003663Y008280D01*
X003696Y008266D02*
X003696Y008294D01*
X003330Y008280D02*
X002506Y008280D01*
X002506Y008180D02*
X003186Y008180D01*
X003196Y008191D02*
X003196Y008369D01*
X003186Y008380D02*
X002506Y008380D01*
X002506Y008480D02*
X003114Y008480D01*
X003096Y008522D02*
X003096Y008038D01*
X003114Y008080D02*
X002506Y008080D01*
X002506Y007980D02*
X003073Y007980D01*
X003069Y007880D02*
X002506Y007880D01*
X002506Y007780D02*
X003078Y007780D01*
X003096Y007735D02*
X003096Y007466D01*
X003110Y007480D02*
X002506Y007480D01*
X002506Y007380D02*
X003069Y007380D01*
X003069Y007280D02*
X002506Y007280D01*
X002506Y007180D02*
X003069Y007180D01*
X003069Y007080D02*
X002506Y007080D01*
X002506Y006980D02*
X003069Y006980D01*
X003069Y006880D02*
X002506Y006880D01*
X003296Y006671D02*
X003296Y005606D01*
X003258Y005580D02*
X002506Y005580D01*
X002506Y005680D02*
X010386Y005680D01*
X010386Y005580D02*
X007135Y005580D01*
X007150Y005570D02*
X007085Y005613D01*
X007012Y005643D01*
X006936Y005659D01*
X006925Y005659D01*
X006925Y005290D01*
X007294Y005290D01*
X007294Y005300D01*
X007279Y005377D01*
X007249Y005449D01*
X007205Y005514D01*
X007150Y005570D01*
X007096Y005606D02*
X007096Y009770D01*
X006996Y009770D02*
X006996Y005646D01*
X006925Y005580D02*
X006868Y005580D01*
X006796Y005646D02*
X006796Y009770D01*
X006896Y009770D02*
X006896Y005290D01*
X006868Y005280D02*
X003525Y005280D01*
X003596Y005290D02*
X003596Y005232D01*
X003696Y005232D02*
X003696Y005290D01*
X003796Y005290D02*
X003796Y005232D01*
X003886Y005180D02*
X006507Y005180D01*
X006596Y005232D02*
X006596Y005290D01*
X006696Y005290D02*
X006696Y005232D01*
X006796Y005232D02*
X006796Y005290D01*
X006868Y005380D02*
X006925Y005380D01*
X006925Y005480D02*
X006868Y005480D01*
X006925Y005280D02*
X010386Y005280D01*
X010386Y005180D02*
X007286Y005180D01*
X007196Y005232D02*
X007196Y005290D01*
X007096Y005290D02*
X007096Y005232D01*
X006996Y005232D02*
X006996Y005290D01*
X007277Y005380D02*
X010386Y005380D01*
X010386Y005480D02*
X007228Y005480D01*
X007196Y005523D02*
X007196Y009770D01*
X007296Y009770D02*
X007296Y004625D01*
X007315Y004580D02*
X010386Y004580D01*
X010386Y004480D02*
X007324Y004480D01*
X007320Y004380D02*
X010386Y004380D01*
X010386Y004280D02*
X007279Y004280D01*
X007296Y004322D02*
X007296Y003838D01*
X007279Y003880D02*
X010386Y003880D01*
X010386Y003780D02*
X007320Y003780D01*
X007324Y003680D02*
X010386Y003680D01*
X010386Y003580D02*
X007315Y003580D01*
X007296Y003535D02*
X007296Y003266D01*
X007282Y003280D02*
X010386Y003280D01*
X010396Y003183D02*
X010396Y002145D01*
X010296Y002150D02*
X010296Y007268D01*
X010292Y007280D02*
X009606Y007280D01*
X009606Y007180D02*
X010344Y007180D01*
X010386Y007080D02*
X009606Y007080D01*
X009606Y006980D02*
X010386Y006980D01*
X010386Y006880D02*
X009606Y006880D01*
X009606Y006780D02*
X010386Y006780D01*
X010386Y006680D02*
X009606Y006680D01*
X009616Y006580D02*
X010386Y006580D01*
X010386Y006480D02*
X009601Y006480D01*
X009596Y006468D02*
X009596Y001945D01*
X009561Y001980D02*
X009832Y001980D01*
X009896Y002045D02*
X009896Y009770D01*
X009996Y009770D02*
X009996Y002145D01*
X009932Y002080D02*
X009461Y002080D01*
X009496Y002045D02*
X009496Y006327D01*
X009549Y006380D02*
X010386Y006380D01*
X010386Y006280D02*
X009408Y006280D01*
X009396Y006275D02*
X009396Y002145D01*
X009296Y002150D02*
X009296Y006260D01*
X009196Y006275D02*
X009196Y002150D01*
X009096Y002150D02*
X009096Y006327D01*
X009044Y006380D02*
X008449Y006380D01*
X008496Y006292D02*
X008496Y008168D01*
X008501Y008180D02*
X008986Y008180D01*
X008986Y008280D02*
X008516Y008280D01*
X008501Y008380D02*
X008986Y008380D01*
X008986Y008480D02*
X008449Y008480D01*
X008396Y008533D02*
X008396Y009770D01*
X008296Y009770D02*
X008296Y008585D01*
X008308Y008580D02*
X008986Y008580D01*
X008986Y008680D02*
X004516Y008680D01*
X004499Y008780D02*
X008986Y008780D01*
X008986Y008880D02*
X004443Y008880D01*
X004396Y008926D02*
X004396Y009770D01*
X004296Y009770D02*
X004296Y008979D01*
X004293Y008980D02*
X008986Y008980D01*
X008986Y009080D02*
X003633Y009080D01*
X003696Y009054D02*
X003696Y009117D01*
X003777Y009180D02*
X008986Y009180D01*
X008986Y009280D02*
X003852Y009280D01*
X003796Y009199D02*
X003796Y008978D01*
X003795Y008980D02*
X004100Y008980D01*
X004096Y008979D02*
X004096Y009770D01*
X003996Y009770D02*
X003996Y008926D01*
X003950Y008880D02*
X003874Y008880D01*
X003896Y008825D02*
X003896Y009770D01*
X003796Y009770D02*
X003796Y009723D01*
X003828Y009680D02*
X008986Y009680D01*
X008986Y009580D02*
X003877Y009580D01*
X003796Y009490D02*
X003796Y009432D01*
X003696Y009432D02*
X003696Y009490D01*
X003596Y009490D02*
X003596Y009432D01*
X003525Y009480D02*
X008986Y009480D01*
X008986Y009380D02*
X003886Y009380D01*
X003496Y009490D02*
X003496Y009770D01*
X003468Y009680D02*
X003525Y009680D01*
X003525Y009580D02*
X003468Y009580D01*
X003468Y009480D02*
X002506Y009480D01*
X002506Y009380D02*
X003107Y009380D01*
X003196Y009432D02*
X003196Y009490D01*
X003296Y009490D02*
X003296Y009432D01*
X003396Y009432D02*
X003396Y009490D01*
X003115Y009580D02*
X002506Y009580D01*
X002506Y009680D02*
X003165Y009680D01*
X003196Y009723D02*
X003196Y009770D01*
X003096Y009770D02*
X003096Y008825D01*
X003078Y008780D02*
X002506Y008780D01*
X002506Y008680D02*
X003069Y008680D01*
X003073Y008580D02*
X002506Y008580D01*
X002506Y008880D02*
X003119Y008880D01*
X003196Y008978D02*
X003196Y009199D01*
X003215Y009180D02*
X002506Y009180D01*
X002506Y009280D02*
X003141Y009280D01*
X003296Y009117D02*
X003296Y009054D01*
X003360Y009080D02*
X002506Y009080D01*
X002506Y008980D02*
X003198Y008980D01*
X004196Y008994D02*
X004196Y009770D01*
X004496Y009770D02*
X004496Y008786D01*
X003986Y007980D02*
X003920Y007980D01*
X003924Y007880D02*
X003986Y007880D01*
X003986Y007780D02*
X003915Y007780D01*
X003896Y007735D02*
X003896Y007492D01*
X003892Y007480D02*
X003882Y007480D01*
X003796Y007526D02*
X003796Y007582D01*
X003795Y007580D02*
X003944Y007580D01*
X003986Y007680D02*
X003874Y007680D01*
X003198Y007580D02*
X002506Y007580D01*
X002506Y007680D02*
X003119Y007680D01*
X003196Y007582D02*
X003196Y007526D01*
X003924Y007180D02*
X003944Y007180D01*
X003996Y007127D02*
X003996Y004779D01*
X003852Y005080D02*
X006541Y005080D01*
X006515Y005380D02*
X003877Y005380D01*
X003525Y005380D02*
X003468Y005380D01*
X003468Y005480D02*
X003525Y005480D01*
X002506Y005780D02*
X010386Y005780D01*
X010386Y005880D02*
X008308Y005880D01*
X008296Y005875D02*
X008296Y002150D01*
X008196Y002150D02*
X008196Y005860D01*
X008096Y005875D02*
X008096Y002150D01*
X007996Y002145D02*
X007996Y005927D01*
X007944Y005980D02*
X002506Y005980D01*
X002506Y005880D02*
X008085Y005880D01*
X008396Y005927D02*
X008396Y002145D01*
X008461Y002080D02*
X008932Y002080D01*
X008896Y002045D02*
X008896Y009770D01*
X008596Y009770D02*
X008596Y001945D01*
X008561Y001980D02*
X008832Y001980D01*
X008996Y002145D02*
X008996Y006468D01*
X008992Y006480D02*
X008406Y006480D01*
X008406Y006580D02*
X008976Y006580D01*
X008986Y006680D02*
X008406Y006680D01*
X008406Y006780D02*
X008986Y006780D01*
X008986Y006880D02*
X008406Y006880D01*
X008406Y006980D02*
X008986Y006980D01*
X008986Y007080D02*
X008406Y007080D01*
X008406Y007180D02*
X008986Y007180D01*
X008986Y007280D02*
X008406Y007280D01*
X008406Y007380D02*
X008986Y007380D01*
X008976Y007480D02*
X008406Y007480D01*
X008406Y007580D02*
X008986Y007580D01*
X008986Y007680D02*
X008406Y007680D01*
X008406Y007780D02*
X008986Y007780D01*
X008986Y007880D02*
X008406Y007880D01*
X008406Y007980D02*
X008986Y007980D01*
X008986Y008080D02*
X008449Y008080D01*
X008496Y008392D02*
X008496Y009770D01*
X008196Y009770D02*
X008196Y008600D01*
X008096Y008585D02*
X008096Y009770D01*
X007596Y009770D02*
X007596Y001945D01*
X007561Y001980D02*
X007832Y001980D01*
X007896Y002045D02*
X007896Y006068D01*
X007892Y006080D02*
X002506Y006080D01*
X002506Y006180D02*
X007876Y006180D01*
X008449Y005980D02*
X010386Y005980D01*
X010386Y006080D02*
X008501Y006080D01*
X008496Y006068D02*
X008496Y002045D01*
X007932Y002080D02*
X007461Y002080D01*
X007496Y002045D02*
X007496Y009770D01*
X007396Y009770D02*
X007396Y002145D01*
X007296Y002150D02*
X007296Y002532D01*
X007245Y002480D02*
X017916Y002480D01*
X017916Y002980D02*
X015586Y002980D01*
X015496Y002928D02*
X015496Y002870D01*
X015396Y002870D02*
X015396Y002928D01*
X015296Y002928D02*
X015296Y002870D01*
X015225Y002780D02*
X015168Y002780D01*
X015168Y002680D02*
X015225Y002680D01*
X015496Y002637D02*
X015496Y002045D01*
X014832Y001980D02*
X014561Y001980D01*
X014596Y001945D02*
X014596Y004264D01*
X014496Y004264D02*
X014496Y002045D01*
X014661Y001880D02*
X014732Y001880D01*
X014796Y001945D02*
X014796Y003535D01*
X014819Y003480D02*
X011249Y003480D01*
X011196Y003533D02*
X011196Y004127D01*
X011249Y004180D02*
X014886Y004180D01*
X014896Y004169D02*
X014896Y003991D01*
X014886Y003980D02*
X010806Y003980D01*
X010806Y004080D02*
X010885Y004080D01*
X010896Y004075D02*
X010896Y003585D01*
X010885Y003580D02*
X010806Y003580D01*
X010806Y003680D02*
X014769Y003680D01*
X014769Y003601D02*
X014769Y003771D01*
X014834Y003928D01*
X014954Y004049D01*
X015030Y004080D01*
X014996Y004066D02*
X014996Y004094D01*
X014796Y004264D02*
X014796Y003838D01*
X014814Y003880D02*
X010806Y003880D01*
X010806Y003780D02*
X014773Y003780D01*
X015363Y004080D02*
X015439Y004111D01*
X015559Y004232D01*
X015624Y004389D01*
X015624Y004559D01*
X015559Y004716D01*
X015441Y004834D01*
X015536Y004834D01*
X015624Y004921D01*
X015624Y005601D01*
X015536Y005689D01*
X014857Y005689D01*
X014769Y005601D01*
X014769Y005471D01*
X014083Y005471D01*
X014006Y005548D01*
X014006Y008367D01*
X013883Y008490D01*
X011939Y008490D01*
X011899Y008530D01*
X011939Y008570D01*
X014777Y008570D01*
X014834Y008432D01*
X014954Y008311D01*
X015030Y008280D01*
X014006Y008280D01*
X013996Y008377D02*
X013996Y008570D01*
X013896Y008570D02*
X013896Y008477D01*
X013893Y008480D02*
X014814Y008480D01*
X014796Y008522D02*
X014796Y008038D01*
X014814Y008080D02*
X014006Y008080D01*
X014006Y007980D02*
X014773Y007980D01*
X014769Y007971D02*
X014769Y007801D01*
X014834Y007644D01*
X014954Y007524D01*
X015069Y007476D01*
X015008Y007451D01*
X014943Y007408D01*
X014888Y007352D01*
X014844Y007287D01*
X014814Y007215D01*
X014799Y007138D01*
X014799Y007128D01*
X015168Y007128D01*
X015168Y007070D01*
X015225Y007070D01*
X015225Y006701D01*
X015236Y006701D01*
X015312Y006717D01*
X015385Y006747D01*
X015450Y006790D01*
X015505Y006846D01*
X015549Y006911D01*
X015579Y006983D01*
X015594Y007060D01*
X015594Y007070D01*
X015225Y007070D01*
X015225Y007128D01*
X015594Y007128D01*
X015594Y007138D01*
X015579Y007215D01*
X015549Y007287D01*
X015505Y007352D01*
X015450Y007408D01*
X015385Y007451D01*
X015324Y007476D01*
X015439Y007524D01*
X015559Y007644D01*
X015624Y007801D01*
X015624Y007971D01*
X015559Y008128D01*
X015439Y008249D01*
X015363Y008280D01*
X017916Y008280D01*
X017916Y008180D02*
X015507Y008180D01*
X015496Y008191D02*
X015496Y008369D01*
X015507Y008380D02*
X017916Y008380D01*
X017916Y008480D02*
X015579Y008480D01*
X015596Y008522D02*
X015596Y008038D01*
X015579Y008080D02*
X017916Y008080D01*
X017916Y007980D02*
X015620Y007980D01*
X015624Y007880D02*
X017916Y007880D01*
X017916Y007780D02*
X015615Y007780D01*
X015596Y007735D02*
X015596Y005628D01*
X015624Y005580D02*
X017916Y005580D01*
X017916Y005680D02*
X015545Y005680D01*
X015496Y005689D02*
X015496Y006837D01*
X015528Y006880D02*
X017916Y006880D01*
X017916Y006780D02*
X015435Y006780D01*
X015396Y006754D02*
X015396Y005689D01*
X015296Y005689D02*
X015296Y006714D01*
X015225Y006780D02*
X015168Y006780D01*
X015168Y006701D02*
X015168Y007070D01*
X014799Y007070D01*
X014799Y007060D01*
X014814Y006983D01*
X014844Y006911D01*
X014888Y006846D01*
X014943Y006790D01*
X015008Y006747D01*
X015081Y006717D01*
X015157Y006701D01*
X015168Y006701D01*
X015096Y006714D02*
X015096Y005689D01*
X014996Y005689D02*
X014996Y006754D01*
X014958Y006780D02*
X014006Y006780D01*
X014006Y006680D02*
X017916Y006680D01*
X017916Y006580D02*
X014006Y006580D01*
X014006Y006480D02*
X017916Y006480D01*
X017916Y006380D02*
X014006Y006380D01*
X014006Y006280D02*
X017916Y006280D01*
X017916Y006180D02*
X014006Y006180D01*
X014006Y006080D02*
X017916Y006080D01*
X017916Y005980D02*
X014006Y005980D01*
X014006Y005880D02*
X017916Y005880D01*
X017916Y005780D02*
X014006Y005780D01*
X014006Y005680D02*
X014848Y005680D01*
X014896Y005689D02*
X014896Y006837D01*
X014865Y006880D02*
X014006Y006880D01*
X014006Y006980D02*
X014815Y006980D01*
X014896Y007070D02*
X014896Y007128D01*
X014996Y007128D02*
X014996Y007070D01*
X015096Y007070D02*
X015096Y007128D01*
X015168Y007080D02*
X014006Y007080D01*
X014006Y007180D02*
X014807Y007180D01*
X014841Y007280D02*
X014006Y007280D01*
X014006Y007380D02*
X014915Y007380D01*
X014896Y007361D02*
X014896Y007582D01*
X014898Y007580D02*
X014006Y007580D01*
X014006Y007480D02*
X015060Y007480D01*
X014996Y007506D02*
X014996Y007443D01*
X014819Y007680D02*
X014006Y007680D01*
X014006Y007780D02*
X014778Y007780D01*
X014796Y007735D02*
X014796Y005628D01*
X014769Y005580D02*
X014006Y005580D01*
X014075Y005480D02*
X014769Y005480D01*
X014696Y005471D02*
X014696Y008570D01*
X014596Y008570D02*
X014596Y005471D01*
X014496Y005471D02*
X014496Y008570D01*
X014396Y008570D02*
X014396Y005471D01*
X014296Y005471D02*
X014296Y008570D01*
X014196Y008570D02*
X014196Y005471D01*
X014096Y005471D02*
X014096Y008570D01*
X013993Y008380D02*
X014886Y008380D01*
X014896Y008369D02*
X014896Y008191D01*
X014886Y008180D02*
X014006Y008180D01*
X013796Y008490D02*
X013796Y008570D01*
X013696Y008570D02*
X013696Y008490D01*
X013596Y008490D02*
X013596Y008570D01*
X013496Y008570D02*
X013496Y008490D01*
X013396Y008490D02*
X013396Y008570D01*
X013296Y008570D02*
X013296Y008490D01*
X013196Y008490D02*
X013196Y008570D01*
X013096Y008570D02*
X013096Y008490D01*
X012996Y008490D02*
X012996Y008570D01*
X012896Y008570D02*
X012896Y008490D01*
X012796Y008490D02*
X012796Y008570D01*
X012696Y008570D02*
X012696Y008490D01*
X012596Y008490D02*
X012596Y008570D01*
X012496Y008570D02*
X012496Y008490D01*
X012396Y008490D02*
X012396Y008570D01*
X012296Y008570D02*
X012296Y008490D01*
X012196Y008490D02*
X012196Y008570D01*
X012096Y008570D02*
X012096Y008490D01*
X011996Y008490D02*
X011996Y008570D01*
X011996Y008990D02*
X011996Y009070D01*
X011939Y009070D02*
X011899Y009030D01*
X011939Y008990D01*
X014908Y008990D01*
X014952Y009034D01*
X014857Y009034D01*
X014820Y009070D01*
X011939Y009070D01*
X012096Y009070D02*
X012096Y008990D01*
X012196Y008990D02*
X012196Y009070D01*
X012296Y009070D02*
X012296Y008990D01*
X012396Y008990D02*
X012396Y009070D01*
X012496Y009070D02*
X012496Y008990D01*
X012596Y008990D02*
X012596Y009070D01*
X012696Y009070D02*
X012696Y008990D01*
X012796Y008990D02*
X012796Y009070D01*
X012896Y009070D02*
X012896Y008990D01*
X012996Y008990D02*
X012996Y009070D01*
X013096Y009070D02*
X013096Y008990D01*
X013196Y008990D02*
X013196Y009070D01*
X013296Y009070D02*
X013296Y008990D01*
X013396Y008990D02*
X013396Y009070D01*
X013496Y009070D02*
X013496Y008990D01*
X013596Y008990D02*
X013596Y009070D01*
X013696Y009070D02*
X013696Y008990D01*
X013796Y008990D02*
X013796Y009070D01*
X013896Y009070D02*
X013896Y008990D01*
X013996Y008990D02*
X013996Y009070D01*
X014096Y009070D02*
X014096Y008990D01*
X014196Y008990D02*
X014196Y009070D01*
X014296Y009070D02*
X014296Y008990D01*
X014396Y008990D02*
X014396Y009070D01*
X014496Y009070D02*
X014496Y008990D01*
X014596Y008990D02*
X014596Y009070D01*
X014696Y009070D02*
X014696Y008990D01*
X014796Y008990D02*
X014796Y009070D01*
X014896Y009034D02*
X014896Y008990D01*
X015441Y009034D02*
X015536Y009034D01*
X015624Y009121D01*
X015624Y009801D01*
X015536Y009889D01*
X014857Y009889D01*
X014769Y009801D01*
X014769Y009490D01*
X011939Y009490D01*
X011878Y009551D01*
X011760Y009600D01*
X011633Y009600D01*
X011515Y009551D01*
X011425Y009461D01*
X011376Y009344D01*
X011376Y009216D01*
X011425Y009099D01*
X011494Y009030D01*
X011425Y008961D01*
X011376Y008844D01*
X011376Y008716D01*
X011425Y008599D01*
X011494Y008530D01*
X011425Y008461D01*
X011376Y008344D01*
X011376Y008216D01*
X011425Y008099D01*
X011494Y008030D01*
X011425Y007961D01*
X011376Y007844D01*
X011376Y007716D01*
X011425Y007599D01*
X011396Y007668D02*
X011396Y002145D01*
X011461Y002080D02*
X011932Y002080D01*
X011896Y002045D02*
X011896Y007527D01*
X011996Y007570D02*
X011996Y002145D01*
X012096Y002150D02*
X012096Y007570D01*
X012196Y007570D02*
X012196Y002150D01*
X012296Y002150D02*
X012296Y007570D01*
X012396Y007570D02*
X012396Y002145D01*
X012461Y002080D02*
X012932Y002080D01*
X012896Y002045D02*
X012896Y007570D01*
X012796Y007570D02*
X012796Y001945D01*
X012832Y001980D02*
X012561Y001980D01*
X012596Y001945D02*
X012596Y007570D01*
X012496Y007570D02*
X012496Y002045D01*
X012661Y001880D02*
X012732Y001880D01*
X012726Y001780D02*
X012666Y001780D01*
X012666Y001680D02*
X012726Y001680D01*
X012726Y001580D02*
X012666Y001580D01*
X012661Y001480D02*
X012732Y001480D01*
X012796Y001415D02*
X012796Y000360D01*
X012696Y000360D02*
X012696Y007570D01*
X012996Y007570D02*
X012996Y002145D01*
X013096Y002150D02*
X013096Y007570D01*
X013196Y007570D02*
X013196Y002150D01*
X013296Y002150D02*
X013296Y004777D01*
X013493Y004580D02*
X011249Y004580D01*
X011316Y004380D02*
X013693Y004380D01*
X013696Y004377D02*
X013696Y000360D01*
X013596Y000360D02*
X013596Y001415D01*
X013561Y001380D02*
X013832Y001380D01*
X013796Y001415D02*
X013796Y000360D01*
X013896Y000360D02*
X013896Y001315D01*
X013732Y001480D02*
X013661Y001480D01*
X013666Y001580D02*
X013726Y001580D01*
X013726Y001680D02*
X013666Y001680D01*
X013666Y001780D02*
X013726Y001780D01*
X013732Y001880D02*
X013661Y001880D01*
X013496Y002045D02*
X013496Y004577D01*
X013706Y004961D02*
X013983Y004684D01*
X014821Y004684D01*
X014834Y004716D01*
X014952Y004834D01*
X014857Y004834D01*
X014769Y004921D01*
X014769Y005051D01*
X013909Y005051D01*
X013786Y005174D01*
X013706Y005254D01*
X013706Y004961D01*
X013706Y004980D02*
X014769Y004980D01*
X014796Y004894D02*
X014796Y004684D01*
X014696Y004684D02*
X014696Y005051D01*
X014596Y005051D02*
X014596Y004684D01*
X014496Y004684D02*
X014496Y005051D01*
X014396Y005051D02*
X014396Y004684D01*
X014296Y004684D02*
X014296Y005051D01*
X014196Y005051D02*
X014196Y004684D01*
X014096Y004684D02*
X014096Y005051D01*
X013996Y005051D02*
X013996Y004684D01*
X013896Y004771D02*
X013896Y005064D01*
X013881Y005080D02*
X013706Y005080D01*
X013706Y005180D02*
X013781Y005180D01*
X013796Y005164D02*
X013796Y004871D01*
X013787Y004880D02*
X014810Y004880D01*
X014896Y004834D02*
X014896Y004778D01*
X014898Y004780D02*
X013887Y004780D01*
X014696Y004264D02*
X014696Y000360D01*
X014596Y000360D02*
X014596Y001415D01*
X014561Y001380D02*
X014832Y001380D01*
X014796Y001415D02*
X014796Y000360D01*
X015696Y000360D02*
X015696Y012000D01*
X015596Y012000D02*
X015596Y011132D01*
X015496Y011150D02*
X015496Y012000D01*
X015396Y012000D02*
X015396Y011150D01*
X015296Y011150D02*
X015296Y012000D01*
X015196Y012000D02*
X015196Y011150D01*
X015096Y011150D02*
X015096Y012000D01*
X014996Y012000D02*
X014996Y011150D01*
X014896Y011150D02*
X014896Y012000D01*
X014796Y012000D02*
X014796Y011132D01*
X014744Y011080D02*
X014461Y011080D01*
X014496Y011045D02*
X014496Y012000D01*
X014396Y012000D02*
X014396Y011145D01*
X014391Y011150D02*
X014002Y011150D01*
X013726Y010875D01*
X013726Y010485D01*
X014002Y010210D01*
X014391Y010210D01*
X014666Y010485D01*
X014666Y010875D01*
X014391Y011150D01*
X014296Y011150D02*
X014296Y012000D01*
X014196Y012000D02*
X014196Y011150D01*
X014096Y011150D02*
X014096Y012000D01*
X013996Y012000D02*
X013996Y011145D01*
X013932Y011080D02*
X013461Y011080D01*
X013496Y011045D02*
X013496Y012000D01*
X013396Y012000D02*
X013396Y011145D01*
X013391Y011150D02*
X013002Y011150D01*
X012726Y010875D01*
X012726Y010485D01*
X013002Y010210D01*
X013391Y010210D01*
X013666Y010485D01*
X013666Y010875D01*
X013391Y011150D01*
X013296Y011150D02*
X013296Y012000D01*
X013196Y012000D02*
X013196Y011150D01*
X013096Y011150D02*
X013096Y012000D01*
X012996Y012000D02*
X012996Y011145D01*
X012932Y011080D02*
X012461Y011080D01*
X012496Y011045D02*
X012496Y012000D01*
X012396Y012000D02*
X012396Y011145D01*
X012296Y011150D02*
X012296Y012000D01*
X012196Y012000D02*
X012196Y011150D01*
X012096Y011150D02*
X012096Y012000D01*
X011996Y012000D02*
X011996Y011145D01*
X011932Y011080D02*
X011461Y011080D01*
X011496Y011045D02*
X011496Y012000D01*
X011396Y012000D02*
X011396Y011145D01*
X011296Y011150D02*
X011296Y012000D01*
X011196Y012000D02*
X011196Y011150D01*
X011096Y011150D02*
X011096Y012000D01*
X010996Y012000D02*
X010996Y011145D01*
X010932Y011080D02*
X010461Y011080D01*
X010496Y011045D02*
X010496Y012000D01*
X010396Y012000D02*
X010396Y011145D01*
X010296Y011150D02*
X010296Y012000D01*
X010196Y012000D02*
X010196Y011150D01*
X010096Y011150D02*
X010096Y012000D01*
X009996Y012000D02*
X009996Y011145D01*
X009932Y011080D02*
X009461Y011080D01*
X009496Y011045D02*
X009496Y012000D01*
X009396Y012000D02*
X009396Y011145D01*
X009296Y011150D02*
X009296Y012000D01*
X009196Y012000D02*
X009196Y011150D01*
X009096Y011150D02*
X009096Y012000D01*
X008996Y012000D02*
X008996Y011145D01*
X008932Y011080D02*
X008461Y011080D01*
X008496Y011045D02*
X008496Y012000D01*
X008396Y012000D02*
X008396Y011145D01*
X008296Y011150D02*
X008296Y012000D01*
X008196Y012000D02*
X008196Y011150D01*
X008096Y011150D02*
X008096Y012000D01*
X007996Y012000D02*
X007996Y011145D01*
X007932Y011080D02*
X007461Y011080D01*
X007496Y011045D02*
X007496Y012000D01*
X007396Y012000D02*
X007396Y011145D01*
X007296Y011150D02*
X007296Y012000D01*
X007196Y012000D02*
X007196Y011150D01*
X007096Y011150D02*
X007096Y012000D01*
X006996Y012000D02*
X006996Y011145D01*
X006932Y011080D02*
X006461Y011080D01*
X006496Y011045D02*
X006496Y012000D01*
X006396Y012000D02*
X006396Y011145D01*
X006296Y011150D02*
X006296Y012000D01*
X006196Y012000D02*
X006196Y011150D01*
X006096Y011150D02*
X006096Y012000D01*
X005996Y012000D02*
X005996Y011145D01*
X005932Y011080D02*
X005461Y011080D01*
X005496Y011045D02*
X005496Y012000D01*
X005396Y012000D02*
X005396Y011145D01*
X005296Y011150D02*
X005296Y012000D01*
X005196Y012000D02*
X005196Y011150D01*
X005096Y011150D02*
X005096Y012000D01*
X004996Y012000D02*
X004996Y011145D01*
X004932Y011080D02*
X004419Y011080D01*
X004396Y011102D02*
X004396Y012000D01*
X004296Y012000D02*
X004296Y011120D01*
X004246Y011120D02*
X004246Y010730D01*
X004636Y010730D01*
X004636Y010862D01*
X004379Y011120D01*
X004246Y011120D01*
X004246Y011080D02*
X004146Y011080D01*
X004096Y011120D02*
X004096Y012000D01*
X003996Y012000D02*
X003996Y011102D01*
X003974Y011080D02*
X001765Y011080D01*
X001796Y011111D02*
X001796Y001249D01*
X001765Y001280D02*
X001958Y001280D01*
X001996Y001242D02*
X001996Y000360D01*
X001896Y000360D02*
X001896Y001394D01*
X001902Y001380D02*
X001665Y001380D01*
X001696Y001349D02*
X001696Y011011D01*
X001665Y010980D02*
X003874Y010980D01*
X003896Y011002D02*
X003896Y012000D01*
X003896Y011780D02*
X003696Y011780D01*
X003896Y011780D02*
X004196Y011480D01*
X004146Y010980D02*
X004246Y010980D01*
X004246Y010880D02*
X004146Y010880D01*
X004146Y010780D02*
X004246Y010780D01*
X004196Y010730D02*
X004196Y012000D01*
X004496Y012000D02*
X004496Y011002D01*
X004519Y010980D02*
X004832Y010980D01*
X004796Y010945D02*
X004796Y012000D01*
X004696Y012000D02*
X004696Y010390D01*
X004732Y010480D02*
X004619Y010480D01*
X004596Y010458D02*
X004596Y010390D01*
X004796Y010390D02*
X004796Y010415D01*
X004726Y010580D02*
X004636Y010580D01*
X004596Y010630D02*
X004596Y010730D01*
X004636Y010780D02*
X004726Y010780D01*
X004726Y010680D02*
X004246Y010680D01*
X004296Y010630D02*
X004296Y010730D01*
X004396Y010730D02*
X004396Y010630D01*
X004496Y010630D02*
X004496Y010730D01*
X004619Y010880D02*
X004732Y010880D01*
X004596Y010902D02*
X004596Y012000D01*
X004896Y012000D02*
X004896Y011045D01*
X005561Y010980D02*
X005832Y010980D01*
X005796Y010945D02*
X005796Y012000D01*
X005696Y012000D02*
X005696Y010390D01*
X005661Y010480D02*
X005732Y010480D01*
X005796Y010415D02*
X005796Y010390D01*
X005596Y010390D02*
X005596Y010415D01*
X005666Y010580D02*
X005726Y010580D01*
X005726Y010680D02*
X005666Y010680D01*
X005666Y010780D02*
X005726Y010780D01*
X005732Y010880D02*
X005661Y010880D01*
X005596Y010945D02*
X005596Y012000D01*
X005896Y012000D02*
X005896Y011045D01*
X006561Y010980D02*
X006832Y010980D01*
X006796Y010945D02*
X006796Y012000D01*
X006696Y012000D02*
X006696Y010390D01*
X006661Y010480D02*
X006732Y010480D01*
X006796Y010415D02*
X006796Y010390D01*
X006596Y010390D02*
X006596Y010415D01*
X006666Y010580D02*
X006726Y010580D01*
X006726Y010680D02*
X006666Y010680D01*
X006666Y010780D02*
X006726Y010780D01*
X006732Y010880D02*
X006661Y010880D01*
X006596Y010945D02*
X006596Y012000D01*
X006896Y012000D02*
X006896Y011045D01*
X007561Y010980D02*
X007832Y010980D01*
X007796Y010945D02*
X007796Y012000D01*
X007696Y012000D02*
X007696Y010390D01*
X007661Y010480D02*
X007732Y010480D01*
X007796Y010415D02*
X007796Y010390D01*
X007596Y010390D02*
X007596Y010415D01*
X007666Y010580D02*
X007726Y010580D01*
X007726Y010680D02*
X007666Y010680D01*
X007666Y010780D02*
X007726Y010780D01*
X007732Y010880D02*
X007661Y010880D01*
X007596Y010945D02*
X007596Y012000D01*
X007896Y012000D02*
X007896Y011045D01*
X008561Y010980D02*
X008832Y010980D01*
X008796Y010945D02*
X008796Y012000D01*
X008696Y012000D02*
X008696Y010390D01*
X008661Y010480D02*
X008732Y010480D01*
X008796Y010415D02*
X008796Y010390D01*
X008596Y010390D02*
X008596Y010415D01*
X008666Y010580D02*
X008726Y010580D01*
X008726Y010680D02*
X008666Y010680D01*
X008666Y010780D02*
X008726Y010780D01*
X008732Y010880D02*
X008661Y010880D01*
X008596Y010945D02*
X008596Y012000D01*
X008896Y012000D02*
X008896Y011045D01*
X009561Y010980D02*
X009832Y010980D01*
X009796Y010945D02*
X009796Y012000D01*
X009696Y012000D02*
X009696Y010390D01*
X009661Y010480D02*
X009732Y010480D01*
X009796Y010415D02*
X009796Y010390D01*
X009596Y010390D02*
X009596Y010415D01*
X009666Y010580D02*
X009726Y010580D01*
X009726Y010680D02*
X009666Y010680D01*
X009666Y010780D02*
X009726Y010780D01*
X009732Y010880D02*
X009661Y010880D01*
X009596Y010945D02*
X009596Y012000D01*
X009896Y012000D02*
X009896Y011045D01*
X010561Y010980D02*
X010832Y010980D01*
X010796Y010945D02*
X010796Y012000D01*
X010696Y012000D02*
X010696Y010390D01*
X010661Y010480D02*
X010732Y010480D01*
X010796Y010415D02*
X010796Y010390D01*
X010596Y010390D02*
X010596Y010415D01*
X010666Y010580D02*
X010726Y010580D01*
X010726Y010680D02*
X010666Y010680D01*
X010666Y010780D02*
X010726Y010780D01*
X010732Y010880D02*
X010661Y010880D01*
X010596Y010945D02*
X010596Y012000D01*
X010896Y012000D02*
X010896Y011045D01*
X011561Y010980D02*
X011832Y010980D01*
X011796Y010945D02*
X011796Y012000D01*
X011696Y012000D02*
X011696Y010400D01*
X011661Y010480D02*
X011732Y010480D01*
X011796Y010415D02*
X011796Y010385D01*
X011808Y010380D02*
X011832Y010380D01*
X011996Y010215D02*
X011996Y010192D01*
X012001Y010180D02*
X017916Y010180D01*
X017916Y010080D02*
X012016Y010080D01*
X012001Y009980D02*
X017916Y009980D01*
X017916Y009880D02*
X015545Y009880D01*
X015496Y009889D02*
X015496Y010210D01*
X015396Y010210D02*
X015396Y009889D01*
X015296Y009889D02*
X015296Y010210D01*
X015196Y010210D02*
X015196Y009889D01*
X015096Y009889D02*
X015096Y010210D01*
X014996Y010210D02*
X014996Y009889D01*
X014896Y009889D02*
X014896Y010210D01*
X014796Y010228D02*
X014796Y009828D01*
X014769Y009780D02*
X011808Y009780D01*
X011796Y009775D02*
X011796Y009585D01*
X011808Y009580D02*
X014769Y009580D01*
X014769Y009680D02*
X009606Y009680D01*
X009606Y009580D02*
X011585Y009580D01*
X011596Y009585D02*
X011596Y009770D01*
X011496Y009770D02*
X011496Y009533D01*
X011444Y009480D02*
X009606Y009480D01*
X009606Y009380D02*
X011392Y009380D01*
X011396Y009392D02*
X011396Y009770D01*
X011296Y009770D02*
X011296Y007792D01*
X011301Y007780D02*
X011376Y007780D01*
X011392Y007680D02*
X011316Y007680D01*
X011249Y007880D02*
X011392Y007880D01*
X011396Y007892D02*
X011396Y008168D01*
X011392Y008180D02*
X009606Y008180D01*
X009606Y008280D02*
X011376Y008280D01*
X011392Y008380D02*
X009606Y008380D01*
X009606Y008480D02*
X011444Y008480D01*
X011444Y008580D02*
X009606Y008580D01*
X009606Y008680D02*
X011392Y008680D01*
X011396Y008668D02*
X011396Y008392D01*
X011444Y008080D02*
X009606Y008080D01*
X009606Y007980D02*
X010885Y007980D01*
X010896Y007985D02*
X010896Y009770D01*
X010796Y009770D02*
X010796Y007933D01*
X010744Y007880D02*
X009606Y007880D01*
X009606Y007780D02*
X010692Y007780D01*
X010696Y007792D02*
X010696Y009770D01*
X010596Y009770D02*
X010596Y007700D01*
X010496Y007685D02*
X010496Y009770D01*
X010396Y009770D02*
X010396Y007633D01*
X010344Y007580D02*
X009606Y007580D01*
X009606Y007680D02*
X010485Y007680D01*
X010296Y007492D02*
X010296Y009770D01*
X010196Y009770D02*
X010196Y002150D01*
X010096Y002150D02*
X010096Y009770D01*
X009606Y009280D02*
X011376Y009280D01*
X011392Y009180D02*
X009606Y009180D01*
X009606Y009080D02*
X011444Y009080D01*
X011444Y008980D02*
X009606Y008980D01*
X009606Y008880D02*
X011392Y008880D01*
X011396Y008892D02*
X011396Y009168D01*
X011696Y009600D02*
X011696Y009760D01*
X011896Y009827D02*
X011896Y009533D01*
X011996Y009490D02*
X011996Y009968D01*
X011949Y009880D02*
X014848Y009880D01*
X014696Y009490D02*
X014696Y012000D01*
X014596Y012000D02*
X014596Y010945D01*
X014561Y010980D02*
X014726Y010980D01*
X014726Y010880D02*
X014661Y010880D01*
X014666Y010780D02*
X014726Y010780D01*
X014726Y010680D02*
X014666Y010680D01*
X014666Y010580D02*
X014726Y010580D01*
X014726Y010480D02*
X014661Y010480D01*
X014596Y010415D02*
X014596Y009490D01*
X014496Y009490D02*
X014496Y010315D01*
X014461Y010280D02*
X014744Y010280D01*
X014726Y010380D02*
X014561Y010380D01*
X014396Y010215D02*
X014396Y009490D01*
X014296Y009490D02*
X014296Y010210D01*
X014196Y010210D02*
X014196Y009490D01*
X014096Y009490D02*
X014096Y010210D01*
X013996Y010215D02*
X013996Y009490D01*
X013896Y009490D02*
X013896Y010315D01*
X013932Y010280D02*
X013461Y010280D01*
X013496Y010315D02*
X013496Y009490D01*
X013396Y009490D02*
X013396Y010215D01*
X013296Y010210D02*
X013296Y009490D01*
X013196Y009490D02*
X013196Y010210D01*
X013096Y010210D02*
X013096Y009490D01*
X012996Y009490D02*
X012996Y010215D01*
X012932Y010280D02*
X012461Y010280D01*
X012496Y010315D02*
X012496Y009490D01*
X012396Y009490D02*
X012396Y010215D01*
X012296Y010210D02*
X012296Y009490D01*
X012196Y009490D02*
X012196Y010210D01*
X012096Y010210D02*
X012096Y009490D01*
X012596Y009490D02*
X012596Y010415D01*
X012561Y010380D02*
X012832Y010380D01*
X012796Y010415D02*
X012796Y009490D01*
X012696Y009490D02*
X012696Y012000D01*
X012596Y012000D02*
X012596Y010945D01*
X012561Y010980D02*
X012832Y010980D01*
X012796Y010945D02*
X012796Y012000D01*
X012896Y012000D02*
X012896Y011045D01*
X012732Y010880D02*
X012661Y010880D01*
X012666Y010780D02*
X012726Y010780D01*
X012726Y010680D02*
X012666Y010680D01*
X012666Y010580D02*
X012726Y010580D01*
X012732Y010480D02*
X012661Y010480D01*
X012896Y010315D02*
X012896Y009490D01*
X013596Y009490D02*
X013596Y010415D01*
X013561Y010380D02*
X013832Y010380D01*
X013796Y010415D02*
X013796Y009490D01*
X013696Y009490D02*
X013696Y012000D01*
X013596Y012000D02*
X013596Y010945D01*
X013561Y010980D02*
X013832Y010980D01*
X013796Y010945D02*
X013796Y012000D01*
X013896Y012000D02*
X013896Y011045D01*
X013732Y010880D02*
X013661Y010880D01*
X013666Y010780D02*
X013726Y010780D01*
X013726Y010680D02*
X013666Y010680D01*
X013666Y010580D02*
X013726Y010580D01*
X013732Y010480D02*
X013661Y010480D01*
X011896Y011045D02*
X011896Y012000D01*
X011596Y012000D02*
X011596Y010945D01*
X011661Y010880D02*
X011732Y010880D01*
X011726Y010780D02*
X011666Y010780D01*
X011666Y010680D02*
X011726Y010680D01*
X011726Y010580D02*
X011666Y010580D01*
X011596Y010415D02*
X011596Y010390D01*
X011196Y009770D02*
X011196Y007933D01*
X011108Y007980D02*
X011444Y007980D01*
X011096Y007985D02*
X011096Y009770D01*
X010996Y009770D02*
X010996Y008000D01*
X011249Y007480D02*
X011585Y007480D01*
X011496Y007527D02*
X011496Y002045D01*
X011661Y001880D02*
X011732Y001880D01*
X011726Y001780D02*
X011666Y001780D01*
X011666Y001680D02*
X011726Y001680D01*
X011726Y001580D02*
X011666Y001580D01*
X011661Y001480D02*
X011732Y001480D01*
X011596Y001415D02*
X011596Y000360D01*
X011896Y000360D02*
X011896Y001315D01*
X012561Y001380D02*
X012832Y001380D01*
X012896Y001315D02*
X012896Y000360D01*
X012596Y000360D02*
X012596Y001415D01*
X010832Y001980D02*
X010561Y001980D01*
X010596Y001945D02*
X010596Y003070D01*
X010696Y003070D02*
X010696Y000360D01*
X007196Y002150D02*
X007196Y002471D01*
X007096Y002471D02*
X007096Y002150D01*
X005744Y002480D02*
X003845Y002480D01*
X003924Y002680D02*
X005676Y002680D01*
X005744Y002880D02*
X004208Y002880D01*
X003069Y002880D02*
X002506Y002880D01*
X002506Y002780D02*
X003069Y002780D01*
X003069Y002680D02*
X002506Y002680D01*
X002506Y002980D02*
X003069Y002980D01*
X003069Y003080D02*
X002506Y003080D01*
X002506Y003180D02*
X003069Y003180D01*
X003886Y003862D02*
X003859Y003928D01*
X003739Y004049D01*
X003663Y004080D01*
X003739Y004111D01*
X003831Y004204D01*
X003886Y004204D01*
X003886Y003862D01*
X003886Y003880D02*
X003879Y003880D01*
X003886Y003980D02*
X003807Y003980D01*
X003796Y003991D02*
X003796Y004169D01*
X003807Y004180D02*
X003886Y004180D01*
X003886Y004080D02*
X003663Y004080D01*
X003696Y004066D02*
X003696Y004094D01*
X004896Y004204D02*
X004896Y002045D01*
X004496Y001730D02*
X004496Y001630D01*
X004396Y001630D02*
X004396Y001730D01*
X004246Y001580D02*
X004146Y001580D01*
X004146Y001480D02*
X004246Y001480D01*
X004246Y001380D02*
X004146Y001380D01*
X004146Y001280D02*
X004246Y001280D01*
X004296Y001240D02*
X004296Y001015D01*
X004261Y000980D02*
X004132Y000980D01*
X004137Y000975D02*
X003991Y001121D01*
X003800Y001200D01*
X003796Y001200D02*
X003796Y001458D01*
X003774Y001480D02*
X002635Y001480D01*
X002596Y001518D02*
X002596Y009770D01*
X002696Y009770D02*
X002696Y001419D01*
X002717Y001398D02*
X002675Y001441D01*
X002673Y001441D01*
X002506Y001608D01*
X002535Y001580D02*
X003756Y001580D01*
X003796Y001630D02*
X003796Y001730D01*
X003756Y001780D02*
X002506Y001780D01*
X002717Y001398D02*
X002759Y001356D01*
X002760Y001354D01*
X002761Y001352D01*
X002784Y001297D01*
X002806Y001242D01*
X002806Y001240D01*
X002827Y001189D01*
X002991Y001121D01*
X003137Y000975D01*
X003196Y000832D01*
X003176Y000880D02*
X003216Y000880D01*
X003196Y000528D02*
X003256Y000385D01*
X003281Y000360D01*
X003112Y000360D01*
X003137Y000385D01*
X003196Y000528D01*
X003196Y000360D01*
X003132Y000380D02*
X003261Y000380D01*
X003216Y000480D02*
X003176Y000480D01*
X002261Y000380D02*
X001171Y000380D01*
X001196Y000370D02*
X001196Y000404D01*
X001096Y000411D02*
X001096Y000445D01*
X001028Y000480D02*
X000975Y000480D01*
X000996Y000459D02*
X000996Y000511D01*
X001296Y000386D02*
X001296Y000360D01*
X001396Y000360D02*
X001396Y000386D01*
X001496Y000404D02*
X001496Y000360D01*
X001596Y000360D02*
X001596Y000445D01*
X001665Y000480D02*
X002216Y000480D01*
X002196Y000528D02*
X002196Y000360D01*
X002096Y000360D02*
X002096Y001142D01*
X002058Y001180D02*
X001831Y001180D01*
X001873Y001080D02*
X002158Y001080D01*
X002196Y001042D02*
X002196Y000832D01*
X002216Y000880D02*
X001890Y000880D01*
X001890Y000980D02*
X002243Y000980D01*
X002176Y000780D02*
X001873Y000780D01*
X001831Y000680D02*
X002176Y000680D01*
X002176Y000580D02*
X001765Y000580D01*
X001796Y000611D02*
X001796Y000360D01*
X001696Y000360D02*
X001696Y000511D01*
X000820Y000780D02*
X000786Y000780D01*
X000776Y000980D02*
X000803Y000980D01*
X000820Y001080D02*
X000776Y001080D01*
X000776Y001180D02*
X000862Y001180D01*
X000896Y001249D02*
X000896Y011111D01*
X000928Y011080D02*
X000776Y011080D01*
X000776Y011180D02*
X000862Y011180D01*
X000820Y011280D02*
X000776Y011280D01*
X000776Y011380D02*
X000803Y011380D01*
X001096Y010945D02*
X001096Y001415D01*
X001196Y001456D02*
X001196Y010904D01*
X001296Y010886D02*
X001296Y001474D01*
X001396Y001474D02*
X001396Y010886D01*
X001496Y010904D02*
X001496Y001456D01*
X001596Y001415D02*
X001596Y010945D01*
X001831Y011180D02*
X016862Y011180D01*
X016820Y011280D02*
X001873Y011280D01*
X001890Y011380D02*
X016803Y011380D01*
X016803Y011480D02*
X001890Y011480D01*
X001873Y011580D02*
X016820Y011580D01*
X016862Y011680D02*
X001831Y011680D01*
X001796Y011749D02*
X001796Y012000D01*
X001696Y012000D02*
X001696Y011849D01*
X001665Y011880D02*
X017028Y011880D01*
X016996Y011849D02*
X016996Y012000D01*
X016896Y012000D02*
X016896Y011749D01*
X016928Y011780D02*
X001765Y011780D01*
X001596Y011915D02*
X001596Y012000D01*
X001496Y012000D02*
X001496Y011956D01*
X001396Y011974D02*
X001396Y012000D01*
X001196Y011990D02*
X001196Y011956D01*
X000752Y012180D02*
X000596Y012025D01*
X000596Y012180D01*
X000596Y012025D01*
X000596Y012080D02*
X000652Y012080D01*
X000696Y012125D02*
X000696Y012180D01*
X000752Y012180D02*
X000596Y012180D01*
X000776Y010780D02*
X003756Y010780D01*
X003796Y010730D02*
X003796Y010630D01*
X003756Y010580D02*
X000776Y010580D01*
X000776Y010480D02*
X003774Y010480D01*
X003796Y010458D02*
X003796Y010390D01*
X003896Y010630D02*
X003896Y010730D01*
X003996Y010730D02*
X003996Y010630D01*
X004096Y010630D02*
X004096Y010730D01*
X004146Y010680D02*
X000776Y010680D01*
X002796Y009770D02*
X002796Y001266D01*
X002791Y001280D02*
X003974Y001280D01*
X003996Y001258D02*
X003996Y001115D01*
X004032Y001080D02*
X004361Y001080D01*
X004396Y001115D02*
X004396Y001258D01*
X004419Y001280D02*
X004650Y001280D01*
X004596Y001200D02*
X004596Y001458D01*
X004619Y001480D02*
X004732Y001480D01*
X004246Y001880D02*
X004146Y001880D01*
X004146Y001980D02*
X004246Y001980D01*
X003996Y001730D02*
X003996Y001630D01*
X003896Y001630D02*
X003896Y001730D01*
X003874Y001380D02*
X002735Y001380D01*
X003896Y001358D02*
X003896Y001160D01*
X004096Y001240D02*
X004096Y001015D01*
X004137Y000975D02*
X004196Y000832D01*
X004176Y000880D02*
X004216Y000880D01*
X004196Y000528D02*
X004256Y000385D01*
X004281Y000360D01*
X004112Y000360D01*
X004137Y000385D01*
X004196Y000528D01*
X004196Y000360D01*
X004132Y000380D02*
X004261Y000380D01*
X004216Y000480D02*
X004176Y000480D01*
X000928Y001280D02*
X000776Y001280D01*
X007063Y004080D02*
X010386Y004080D01*
X010386Y003980D02*
X007207Y003980D01*
X007196Y003991D02*
X007196Y004169D01*
X007207Y004180D02*
X010386Y004180D01*
X010996Y004060D02*
X010996Y003600D01*
X011316Y003280D02*
X015060Y003280D01*
X014996Y003306D02*
X014996Y003243D01*
X015333Y003280D02*
X017916Y003280D01*
X017916Y003180D02*
X015477Y003180D01*
X015496Y003161D02*
X015496Y003382D01*
X015495Y003380D02*
X017916Y003380D01*
X017916Y003480D02*
X015574Y003480D01*
X015396Y003306D02*
X015396Y003243D01*
X015552Y003080D02*
X017916Y003080D01*
X017916Y004380D02*
X015620Y004380D01*
X015624Y004480D02*
X017916Y004480D01*
X017916Y004580D02*
X015615Y004580D01*
X015596Y004625D02*
X015596Y004894D01*
X015582Y004880D02*
X017916Y004880D01*
X017916Y004780D02*
X015495Y004780D01*
X015496Y004778D02*
X015496Y004834D01*
X015624Y004980D02*
X017916Y004980D01*
X017916Y005080D02*
X015624Y005080D01*
X015624Y005180D02*
X017916Y005180D01*
X017916Y005280D02*
X015624Y005280D01*
X015624Y005380D02*
X017916Y005380D01*
X017916Y005480D02*
X015624Y005480D01*
X015196Y005689D02*
X015196Y007070D01*
X015225Y007080D02*
X017916Y007080D01*
X017916Y007180D02*
X015586Y007180D01*
X015496Y007128D02*
X015496Y007070D01*
X015396Y007070D02*
X015396Y007128D01*
X015296Y007128D02*
X015296Y007070D01*
X015225Y006980D02*
X015168Y006980D01*
X015168Y006880D02*
X015225Y006880D01*
X015577Y006980D02*
X017916Y006980D01*
X017916Y007280D02*
X015552Y007280D01*
X015496Y007361D02*
X015496Y007582D01*
X015495Y007580D02*
X017916Y007580D01*
X017916Y007480D02*
X015333Y007480D01*
X015396Y007506D02*
X015396Y007443D01*
X015477Y007380D02*
X017916Y007380D01*
X017916Y007680D02*
X015574Y007680D01*
X015396Y008266D02*
X015396Y008294D01*
X015363Y008280D02*
X015439Y008311D01*
X015559Y008432D01*
X015624Y008589D01*
X015624Y008759D01*
X015559Y008916D01*
X015441Y009034D01*
X015496Y009034D02*
X015496Y008978D01*
X015495Y008980D02*
X017916Y008980D01*
X017916Y008880D02*
X015574Y008880D01*
X015596Y008825D02*
X015596Y009094D01*
X015582Y009080D02*
X017916Y009080D01*
X017916Y009180D02*
X015624Y009180D01*
X015624Y009280D02*
X017916Y009280D01*
X017916Y009380D02*
X015624Y009380D01*
X015624Y009480D02*
X017916Y009480D01*
X017916Y009580D02*
X015624Y009580D01*
X015624Y009680D02*
X017916Y009680D01*
X017916Y009780D02*
X015624Y009780D01*
X015596Y009828D02*
X015596Y010228D01*
X015649Y010280D02*
X017916Y010280D01*
X017916Y010380D02*
X015666Y010380D01*
X015666Y010480D02*
X017916Y010480D01*
X017916Y010580D02*
X015666Y010580D01*
X015666Y010680D02*
X017916Y010680D01*
X017916Y010780D02*
X015666Y010780D01*
X015666Y010880D02*
X017916Y010880D01*
X017916Y010980D02*
X017665Y010980D01*
X017696Y011011D02*
X017696Y001349D01*
X017665Y001380D02*
X017916Y001380D01*
X017916Y001280D02*
X017765Y001280D01*
X017796Y001249D02*
X017796Y011111D01*
X017765Y011080D02*
X017916Y011080D01*
X017916Y011180D02*
X017831Y011180D01*
X017873Y011280D02*
X017916Y011280D01*
X017916Y011380D02*
X017890Y011380D01*
X017873Y011580D02*
X017907Y011580D01*
X017296Y011974D02*
X017296Y012000D01*
X017196Y012000D02*
X017196Y011956D01*
X017096Y011915D02*
X017096Y012000D01*
X016796Y012000D02*
X016796Y000360D01*
X016696Y000360D02*
X016696Y012000D01*
X016596Y012000D02*
X016596Y000360D01*
X016496Y000360D02*
X016496Y012000D01*
X016396Y012000D02*
X016396Y000360D01*
X016296Y000360D02*
X016296Y012000D01*
X016196Y012000D02*
X016196Y000360D01*
X016096Y000360D02*
X016096Y012000D01*
X015996Y012000D02*
X015996Y000360D01*
X015896Y000360D02*
X015896Y012000D01*
X015796Y012000D02*
X015796Y000360D01*
X017096Y000360D02*
X017096Y000445D01*
X017196Y000404D02*
X017196Y000360D01*
X017296Y000360D02*
X017296Y000386D01*
X017496Y000370D02*
X017496Y000404D01*
X017941Y000180D02*
X018096Y000180D01*
X018096Y000335D01*
X017941Y000180D01*
X018096Y000180D01*
X017996Y000180D02*
X017996Y000235D01*
X018041Y000280D02*
X018096Y000280D01*
X017916Y000980D02*
X017890Y000980D01*
X017873Y001080D02*
X017916Y001080D01*
X017916Y001180D02*
X017831Y001180D01*
X017596Y001415D02*
X017596Y010945D01*
X017496Y010904D02*
X017496Y001456D01*
X017396Y001474D02*
X017396Y010886D01*
X017296Y010886D02*
X017296Y001474D01*
X017196Y001456D02*
X017196Y010904D01*
X017096Y010945D02*
X017096Y001415D01*
X014732Y001480D02*
X014661Y001480D01*
X014666Y001580D02*
X014726Y001580D01*
X014726Y001680D02*
X014666Y001680D01*
X014666Y001780D02*
X014726Y001780D01*
X015396Y004066D02*
X015396Y004094D01*
X015574Y004680D02*
X017916Y004680D01*
X014769Y007880D02*
X014006Y007880D01*
X013586Y007887D02*
X013586Y008070D01*
X011939Y008070D01*
X011899Y008030D01*
X011939Y007990D01*
X013262Y007990D01*
X013313Y008007D01*
X013346Y007990D01*
X013383Y007990D01*
X013421Y007953D01*
X013546Y007890D01*
X013583Y007890D01*
X013586Y007887D01*
X013586Y007980D02*
X013393Y007980D01*
X013396Y007977D02*
X013396Y008070D01*
X013296Y008070D02*
X013296Y008001D01*
X013196Y007990D02*
X013196Y008070D01*
X013096Y008070D02*
X013096Y007990D01*
X012996Y007990D02*
X012996Y008070D01*
X012896Y008070D02*
X012896Y007990D01*
X012796Y007990D02*
X012796Y008070D01*
X012696Y008070D02*
X012696Y007990D01*
X012596Y007990D02*
X012596Y008070D01*
X012496Y008070D02*
X012496Y007990D01*
X012396Y007990D02*
X012396Y008070D01*
X012296Y008070D02*
X012296Y007990D01*
X012196Y007990D02*
X012196Y008070D01*
X012096Y008070D02*
X012096Y007990D01*
X011996Y007990D02*
X011996Y008070D01*
X011376Y008780D02*
X009606Y008780D01*
X009616Y007480D02*
X010292Y007480D01*
X010276Y007380D02*
X009606Y007380D01*
X009185Y006280D02*
X008501Y006280D01*
X008516Y006180D02*
X010386Y006180D01*
X010386Y005080D02*
X007252Y005080D01*
X007196Y004999D02*
X007196Y004778D01*
X007195Y004780D02*
X010386Y004780D01*
X010386Y004680D02*
X007274Y004680D01*
X007096Y004854D02*
X007096Y004917D01*
X007033Y004880D02*
X010386Y004880D01*
X010386Y004980D02*
X007177Y004980D01*
X007096Y004094D02*
X007096Y004066D01*
X007274Y003480D02*
X010386Y003480D01*
X010386Y003380D02*
X007195Y003380D01*
X007196Y003382D02*
X007196Y003326D01*
X007324Y003180D02*
X010399Y003180D01*
X004085Y007080D02*
X003924Y007080D01*
X003296Y008266D02*
X003296Y008294D01*
X013496Y008070D02*
X013496Y007915D01*
X014769Y007971D02*
X014834Y008128D01*
X014954Y008249D01*
X015030Y008280D01*
X014996Y008266D02*
X014996Y008294D01*
X015620Y008580D02*
X017916Y008580D01*
X017916Y008680D02*
X015624Y008680D01*
X015615Y008780D02*
X017916Y008780D01*
X018096Y012025D02*
X017941Y012180D01*
X018096Y012180D01*
X018096Y012025D01*
X018096Y012080D02*
X018041Y012080D01*
X017996Y012125D02*
X017996Y012180D01*
D20*
X008796Y005280D02*
X008778Y005261D01*
X006896Y005261D01*
X006878Y005261D02*
X006896Y005280D01*
X006878Y005261D02*
X003496Y005261D01*
X003496Y004474D02*
X004096Y004474D01*
X006896Y004474D01*
M02*
