G75*
%MOIN*%
%OFA0B0*%
%FSLAX24Y24*%
%IPPOS*%
%LPD*%
%AMOC8*
5,1,8,0,0,1.08239X$1,22.5*
%
%ADD10R,0.0640X0.0640*%
%ADD11OC8,0.0640*%
%ADD12R,0.0555X0.0555*%
%ADD13C,0.0555*%
%ADD14R,0.0580X0.0140*%
%ADD15R,0.0500X0.0250*%
%ADD16R,0.0394X0.0433*%
%ADD17R,0.0433X0.0394*%
%ADD18C,0.0250*%
%ADD19C,0.0740*%
%ADD20C,0.0118*%
%ADD21C,0.0320*%
%ADD22C,0.0120*%
%ADD23C,0.0340*%
%ADD24C,0.0160*%
%ADD25C,0.0100*%
%ADD26C,0.0070*%
%ADD27C,0.0240*%
D10*
X015196Y010680D03*
D11*
X014196Y010680D03*
X013196Y010680D03*
X012196Y010680D03*
X011196Y010680D03*
X010196Y010680D03*
X009196Y010680D03*
X008196Y010680D03*
X007196Y010680D03*
X006196Y010680D03*
X005196Y010680D03*
X004196Y010680D03*
X004196Y001680D03*
X005196Y001680D03*
X006196Y001680D03*
X007196Y001680D03*
X008196Y001680D03*
X009196Y001680D03*
X010196Y001680D03*
X011196Y001680D03*
X012196Y001680D03*
X013196Y001680D03*
X014196Y001680D03*
X015196Y001680D03*
D12*
X015196Y005261D03*
X015196Y009461D03*
X006896Y002899D03*
X003496Y002899D03*
X003496Y007099D03*
D13*
X003496Y007886D03*
X003496Y008674D03*
X003496Y009461D03*
X003496Y005261D03*
X003496Y004474D03*
X003496Y003686D03*
X006896Y003686D03*
X006896Y004474D03*
X006896Y005261D03*
X015196Y004474D03*
X015196Y003686D03*
X015196Y002899D03*
X015196Y007099D03*
X015196Y007886D03*
X015196Y008674D03*
D14*
X009846Y008760D03*
X009846Y008510D03*
X009846Y008250D03*
X009846Y008000D03*
X009846Y007740D03*
X009846Y007480D03*
X009846Y009020D03*
X009846Y009280D03*
X007546Y009280D03*
X007546Y009020D03*
X007546Y008760D03*
X007546Y008510D03*
X007546Y008250D03*
X007546Y008000D03*
X007546Y007740D03*
X007546Y007480D03*
D15*
X010696Y009603D03*
X010696Y009957D03*
X011696Y005757D03*
X011696Y005403D03*
X011696Y004457D03*
X011696Y004103D03*
X011696Y003157D03*
X011696Y002803D03*
D16*
X012596Y003115D03*
X012596Y003745D03*
X012596Y004415D03*
X012596Y005045D03*
X012596Y005715D03*
X013696Y005715D03*
X013696Y005045D03*
X013696Y004415D03*
X013696Y003745D03*
X013696Y003115D03*
X013696Y002445D03*
X012596Y002445D03*
X009196Y002445D03*
X009196Y003115D03*
X009196Y003745D03*
X009196Y004415D03*
X009196Y005045D03*
X009196Y005715D03*
X012596Y007945D03*
X012596Y008615D03*
X012596Y009245D03*
X012596Y009915D03*
X013696Y009915D03*
X013696Y009245D03*
X013696Y008615D03*
X013696Y007945D03*
X013696Y007315D03*
X013696Y006645D03*
X004896Y006645D03*
X004896Y007315D03*
X004896Y007945D03*
X004896Y008615D03*
X004896Y009245D03*
X004896Y009915D03*
X004896Y005715D03*
X004896Y005045D03*
X004896Y004415D03*
X004896Y003745D03*
X004896Y003115D03*
X004896Y002445D03*
D17*
X007462Y006880D03*
X008131Y006880D03*
X003231Y010980D03*
X002562Y010980D03*
D18*
X001996Y011480D03*
X016496Y011480D03*
X001996Y001380D03*
X016496Y000980D03*
D19*
X004696Y000680D03*
X003696Y000680D03*
X002696Y000680D03*
D20*
X002313Y011642D02*
X002313Y011918D01*
X002589Y011918D01*
X002589Y011642D01*
X002313Y011642D01*
X002313Y011759D02*
X002589Y011759D01*
X002589Y011876D02*
X002313Y011876D01*
X003004Y011918D02*
X003004Y011642D01*
X003004Y011918D02*
X003280Y011918D01*
X003280Y011642D01*
X003004Y011642D01*
X003004Y011759D02*
X003280Y011759D01*
X003280Y011876D02*
X003004Y011876D01*
D21*
X003596Y010980D02*
X004096Y011480D01*
X015996Y011480D01*
X016096Y011380D01*
X016096Y010080D01*
X016096Y007880D01*
X016090Y007886D01*
X015196Y007886D01*
X013756Y007886D01*
X013696Y007945D01*
X013756Y007886D02*
X013756Y007374D01*
X013696Y007315D01*
X013696Y006645D02*
X013762Y006580D01*
X015096Y006580D01*
X015196Y006680D01*
X015196Y007099D01*
X016096Y007880D02*
X016096Y005710D01*
X016096Y003680D01*
X015203Y003680D01*
X015196Y003686D01*
X013756Y003686D01*
X013696Y003745D01*
X013696Y003115D01*
X013696Y002445D02*
X013762Y002380D01*
X015096Y002380D01*
X015196Y002480D01*
X015196Y002899D01*
X008796Y006880D02*
X008131Y006880D01*
X004896Y008615D02*
X004837Y008674D01*
X004196Y008674D01*
X003496Y008674D01*
X003366Y008720D02*
X002696Y008720D01*
X002696Y009480D01*
X003596Y010380D01*
X003596Y010980D01*
X004196Y010680D02*
X004196Y009880D01*
X004231Y009915D01*
X004896Y009915D01*
X004196Y009880D02*
X004196Y009480D01*
X003515Y009480D01*
X003496Y009461D01*
X002696Y008720D02*
X002696Y004480D01*
X002696Y001580D01*
X003496Y000780D01*
X003696Y000680D01*
X003496Y004474D02*
X003490Y004480D01*
X002696Y004480D01*
X004896Y008615D02*
X004896Y009245D01*
D22*
X005496Y009080D02*
X005696Y009280D01*
X007546Y009280D01*
X007546Y009020D02*
X005936Y009020D01*
X005796Y008880D01*
X005796Y007880D01*
X005496Y007580D01*
X005496Y006880D01*
X005296Y006680D01*
X004931Y006680D01*
X004896Y006645D01*
X004831Y006580D01*
X003596Y006580D01*
X003496Y006680D01*
X003496Y007099D01*
X004196Y007380D02*
X004262Y007315D01*
X004896Y007315D01*
X004837Y007886D02*
X004896Y007945D01*
X005362Y007945D01*
X005496Y008080D01*
X005496Y009080D01*
X006096Y008680D02*
X006096Y007780D01*
X005796Y007480D01*
X005796Y006680D01*
X005496Y006380D01*
X005496Y003880D01*
X005396Y003780D01*
X004931Y003780D01*
X004896Y003745D01*
X004837Y003686D01*
X003496Y003686D01*
X004096Y003180D02*
X004162Y003115D01*
X004896Y003115D01*
X005396Y003380D02*
X005396Y002580D01*
X005196Y002380D01*
X004962Y002380D01*
X004896Y002445D01*
X004862Y002480D01*
X003596Y002480D01*
X003496Y002580D01*
X003496Y002899D01*
X005396Y003380D02*
X005796Y003780D01*
X005796Y006280D01*
X006096Y006580D01*
X006096Y007380D01*
X006396Y007680D01*
X006396Y008480D01*
X006426Y008510D01*
X007546Y008510D01*
X007546Y008760D02*
X006176Y008760D01*
X006096Y008680D01*
X006716Y008000D02*
X006696Y007980D01*
X006696Y007580D01*
X006396Y007280D01*
X006396Y006480D01*
X006096Y006180D01*
X006096Y003180D01*
X006296Y002980D01*
X006878Y002980D01*
X006878Y002910D01*
X006878Y002599D01*
X007196Y002280D01*
X007196Y001680D01*
X007196Y002280D02*
X009031Y002280D01*
X009196Y002445D01*
X009231Y003080D02*
X009196Y003115D01*
X009231Y003080D02*
X009496Y003080D01*
X009596Y003180D01*
X009596Y004380D01*
X009562Y004415D01*
X009196Y004415D01*
X009156Y003786D02*
X009196Y003745D01*
X009137Y003686D01*
X006896Y003686D01*
X006890Y003680D01*
X006596Y003680D01*
X006396Y003880D01*
X006396Y005980D01*
X006696Y006280D01*
X006696Y007180D01*
X006996Y007480D01*
X006996Y007580D01*
X007156Y007740D01*
X007546Y007740D01*
X007546Y008000D02*
X006716Y008000D01*
X007546Y008250D02*
X008166Y008250D01*
X008196Y008280D01*
X009846Y007740D02*
X010936Y007740D01*
X010996Y007680D01*
X010596Y007380D02*
X010496Y007480D01*
X009846Y007480D01*
X012196Y008280D02*
X012196Y008580D01*
X012562Y008580D01*
X012596Y008615D01*
X012531Y008680D01*
X012196Y008580D02*
X012196Y009180D01*
X012531Y009180D01*
X012596Y009245D01*
X012196Y009180D02*
X012196Y009480D01*
X012074Y009603D01*
X010696Y009603D01*
X010696Y009957D02*
X010674Y009980D01*
X010296Y009980D01*
X010196Y010180D01*
X010196Y010680D01*
X012596Y009915D02*
X012696Y010015D01*
X012596Y009915D02*
X012962Y009915D01*
X013096Y009780D01*
X013096Y006380D01*
X013062Y006345D01*
X013096Y006380D02*
X013096Y005111D01*
X013031Y005045D01*
X013096Y004980D01*
X013096Y003780D01*
X013062Y003745D01*
X012596Y003745D01*
X013096Y003780D02*
X013096Y002480D01*
X012996Y002380D01*
X012662Y002380D01*
X012596Y002445D01*
X011696Y002380D02*
X011696Y002803D01*
X011739Y003115D02*
X011696Y003157D01*
X011119Y003157D01*
X010996Y003280D01*
X011739Y003115D02*
X012596Y003115D01*
X011696Y003580D02*
X011696Y004103D01*
X011739Y004415D02*
X011696Y004457D01*
X011074Y004457D01*
X010996Y004380D01*
X010946Y004330D01*
X011739Y004415D02*
X012596Y004415D01*
X012596Y005045D02*
X013031Y005045D01*
X013696Y005045D02*
X013912Y005261D01*
X015196Y005261D01*
X015196Y004474D02*
X013756Y004474D01*
X013696Y004415D01*
X012596Y005715D02*
X011739Y005715D01*
X011696Y005757D01*
X011396Y005757D01*
X011696Y005403D02*
X011696Y004980D01*
X012596Y007480D02*
X012596Y007945D01*
X013696Y008615D02*
X013756Y008674D01*
X015196Y008674D01*
X015196Y009461D02*
X013912Y009461D01*
X013696Y009245D01*
X013696Y010080D02*
X013726Y010080D01*
X016096Y010080D01*
X004931Y005080D02*
X004896Y005045D01*
X004837Y004986D01*
X004837Y004474D01*
X004896Y004415D01*
X005996Y002680D02*
X006196Y002580D01*
X006196Y001680D01*
X004837Y007886D02*
X003496Y007886D01*
D23*
X004196Y007380D03*
X004196Y008674D03*
X008196Y008280D03*
X009296Y007480D03*
X008796Y006880D03*
X009296Y006580D03*
X008196Y006180D03*
X010596Y007380D03*
X010996Y007680D03*
X011696Y007780D03*
X011696Y008280D03*
X011696Y008780D03*
X011696Y009280D03*
X011696Y010080D03*
X008796Y009280D03*
X012596Y007480D03*
X011696Y006180D03*
X011696Y004980D03*
X010996Y004380D03*
X011696Y003580D03*
X010996Y003280D03*
X011696Y002380D03*
X005996Y002680D03*
X004096Y003180D03*
X004096Y004474D03*
X003696Y011780D03*
D24*
X008796Y009280D02*
X009846Y009280D01*
X011696Y010080D02*
X011962Y010015D01*
X012696Y010015D01*
X009296Y007480D02*
X007546Y007480D01*
X007462Y007395D01*
X007462Y006880D01*
D25*
X000596Y000335D02*
X000596Y000180D01*
X000752Y000180D01*
X000596Y000180D01*
X000596Y000335D01*
X000752Y000180D01*
X000696Y000180D02*
X000696Y000235D01*
X000652Y000280D02*
X000596Y000280D01*
X000875Y000580D02*
X000928Y000580D01*
X000896Y000559D02*
X000896Y000611D01*
X000886Y000622D02*
X001038Y000469D01*
X001238Y000386D01*
X001455Y000386D01*
X001654Y000469D01*
X001807Y000622D01*
X001890Y000822D01*
X001890Y001038D01*
X001846Y001145D01*
X001942Y001105D01*
X002051Y001105D01*
X002152Y001147D01*
X002230Y001224D01*
X002271Y001325D01*
X002271Y001435D01*
X002230Y001536D01*
X002152Y001613D01*
X002051Y001655D01*
X001942Y001655D01*
X001841Y001613D01*
X001763Y001536D01*
X001721Y001435D01*
X001721Y001325D01*
X001722Y001323D01*
X001654Y001391D01*
X001455Y001474D01*
X001238Y001474D01*
X001038Y001391D01*
X000886Y001238D01*
X000803Y001038D01*
X000803Y000822D01*
X000886Y000622D01*
X000864Y000591D02*
X000786Y000779D01*
X000776Y000880D01*
X000803Y000880D01*
X000776Y000880D02*
X000776Y011480D01*
X000803Y011480D01*
X000776Y011480D02*
X000786Y011581D01*
X000864Y011769D01*
X001008Y011912D01*
X001195Y011990D01*
X001296Y012000D01*
X002104Y012000D01*
X002104Y011733D01*
X002051Y011755D01*
X001942Y011755D01*
X001841Y011713D01*
X001824Y011697D01*
X001807Y011738D01*
X001654Y011891D01*
X001455Y011974D01*
X001238Y011974D01*
X001038Y011891D01*
X000886Y011738D01*
X000803Y011538D01*
X000803Y011322D01*
X000886Y011122D01*
X001038Y010969D01*
X001238Y010886D01*
X001455Y010886D01*
X001654Y010969D01*
X001807Y011122D01*
X001856Y011240D01*
X001942Y011205D01*
X002051Y011205D01*
X002152Y011247D01*
X002230Y011324D01*
X002271Y011425D01*
X002271Y011433D01*
X002362Y011433D01*
X002362Y011327D01*
X002283Y011327D01*
X002195Y011239D01*
X002195Y010721D01*
X002283Y010633D01*
X002840Y010633D01*
X002896Y010689D01*
X002952Y010633D01*
X003286Y010633D01*
X003286Y010508D01*
X002434Y009656D01*
X002386Y009542D01*
X002386Y001518D01*
X002434Y001404D01*
X002521Y001317D01*
X002638Y001200D01*
X002593Y001200D01*
X002402Y001121D01*
X002256Y000975D01*
X002176Y000783D01*
X002176Y000577D01*
X002256Y000385D01*
X002281Y000360D01*
X001296Y000360D01*
X001195Y000370D01*
X001008Y000448D01*
X000864Y000591D01*
X000862Y000680D02*
X000827Y000680D01*
X000796Y000754D02*
X000796Y011606D01*
X000786Y011580D02*
X000820Y011580D01*
X000827Y011680D02*
X000862Y011680D01*
X000896Y011749D02*
X000896Y011801D01*
X000875Y011780D02*
X000928Y011780D01*
X000996Y011849D02*
X000996Y011901D01*
X000975Y011880D02*
X001028Y011880D01*
X001096Y011915D02*
X001096Y011949D01*
X001171Y011980D02*
X002104Y011980D01*
X002096Y012000D02*
X002096Y011736D01*
X002104Y011780D02*
X001765Y011780D01*
X001796Y011749D02*
X001796Y012000D01*
X001696Y012000D02*
X001696Y011849D01*
X001665Y011880D02*
X002104Y011880D01*
X001996Y012000D02*
X001996Y011755D01*
X001896Y011736D02*
X001896Y012000D01*
X001596Y012000D02*
X001596Y011915D01*
X001496Y011956D02*
X001496Y012000D01*
X001396Y012000D02*
X001396Y011974D01*
X001296Y011974D02*
X001296Y012000D01*
X001196Y011990D02*
X001196Y011956D01*
X000752Y012180D02*
X000596Y012025D01*
X000596Y012180D01*
X000596Y012025D01*
X000596Y012080D02*
X000652Y012080D01*
X000696Y012125D02*
X000696Y012180D01*
X000752Y012180D02*
X000596Y012180D01*
X000776Y011380D02*
X000803Y011380D01*
X000820Y011280D02*
X000776Y011280D01*
X000776Y011180D02*
X000862Y011180D01*
X000896Y011111D02*
X000896Y001249D01*
X000928Y001280D02*
X000776Y001280D01*
X000776Y001180D02*
X000862Y001180D01*
X000820Y001080D02*
X000776Y001080D01*
X000776Y000980D02*
X000803Y000980D01*
X000786Y000780D02*
X000820Y000780D01*
X000996Y000511D02*
X000996Y000459D01*
X000975Y000480D02*
X001028Y000480D01*
X001096Y000445D02*
X001096Y000411D01*
X001171Y000380D02*
X002261Y000380D01*
X002196Y000360D02*
X002196Y000528D01*
X002216Y000480D02*
X001665Y000480D01*
X001696Y000511D02*
X001696Y000360D01*
X001596Y000360D02*
X001596Y000445D01*
X001496Y000404D02*
X001496Y000360D01*
X001396Y000360D02*
X001396Y000386D01*
X001296Y000386D02*
X001296Y000360D01*
X001196Y000370D02*
X001196Y000404D01*
X001765Y000580D02*
X002176Y000580D01*
X002176Y000680D02*
X001831Y000680D01*
X001796Y000611D02*
X001796Y000360D01*
X001896Y000360D02*
X001896Y001124D01*
X001873Y001080D02*
X002361Y001080D01*
X002396Y001115D02*
X002396Y001494D01*
X002402Y001480D02*
X002253Y001480D01*
X002271Y001380D02*
X002458Y001380D01*
X002496Y001342D02*
X002496Y001160D01*
X002545Y001180D02*
X002185Y001180D01*
X002196Y001191D02*
X002196Y000832D01*
X002216Y000880D02*
X001890Y000880D01*
X001890Y000980D02*
X002261Y000980D01*
X002296Y001015D02*
X002296Y010633D01*
X002236Y010680D02*
X000776Y010680D01*
X000776Y010580D02*
X003286Y010580D01*
X003258Y010480D02*
X000776Y010480D01*
X000776Y010380D02*
X003158Y010380D01*
X003196Y010418D02*
X003196Y010633D01*
X003096Y010633D02*
X003096Y010318D01*
X003058Y010280D02*
X000776Y010280D01*
X000776Y010180D02*
X002958Y010180D01*
X002996Y010218D02*
X002996Y010633D01*
X002906Y010680D02*
X002887Y010680D01*
X002896Y010689D02*
X002896Y010118D01*
X002858Y010080D02*
X000776Y010080D01*
X000776Y009980D02*
X002758Y009980D01*
X002796Y010018D02*
X002796Y010633D01*
X002696Y010633D02*
X002696Y009918D01*
X002658Y009880D02*
X000776Y009880D01*
X000776Y009780D02*
X002558Y009780D01*
X002596Y009818D02*
X002596Y010633D01*
X002496Y010633D02*
X002496Y009718D01*
X002458Y009680D02*
X000776Y009680D01*
X000776Y009580D02*
X002402Y009580D01*
X002396Y009566D02*
X002396Y010633D01*
X002196Y010720D02*
X002196Y001569D01*
X002185Y001580D02*
X002386Y001580D01*
X002386Y001680D02*
X000776Y001680D01*
X000776Y001580D02*
X001808Y001580D01*
X001796Y001569D02*
X001796Y011111D01*
X001765Y011080D02*
X002195Y011080D01*
X002195Y010980D02*
X001665Y010980D01*
X001696Y011011D02*
X001696Y001349D01*
X001721Y001380D02*
X001665Y001380D01*
X001596Y001415D02*
X001596Y010945D01*
X001496Y010904D02*
X001496Y001456D01*
X001396Y001474D02*
X001396Y010886D01*
X001296Y010886D02*
X001296Y001474D01*
X001196Y001456D02*
X001196Y010904D01*
X001096Y010945D02*
X001096Y001415D01*
X001028Y001380D02*
X000776Y001380D01*
X000776Y001480D02*
X001740Y001480D01*
X001896Y001636D02*
X001896Y011224D01*
X001831Y011180D02*
X002195Y011180D01*
X002196Y011240D02*
X002196Y011291D01*
X002185Y011280D02*
X002236Y011280D01*
X002296Y011327D02*
X002296Y011433D01*
X002253Y011380D02*
X002362Y011380D01*
X002096Y011224D02*
X002096Y001636D01*
X001996Y001655D02*
X001996Y011205D01*
X002195Y010880D02*
X000776Y010880D01*
X000776Y010780D02*
X002195Y010780D01*
X002562Y010980D02*
X002562Y011669D01*
X002451Y011780D01*
X002798Y011780D02*
X003093Y011780D01*
X003093Y011828D02*
X003093Y011732D01*
X002825Y011732D01*
X002825Y011619D01*
X002837Y011573D01*
X002861Y011532D01*
X002894Y011499D01*
X002935Y011475D01*
X002980Y011463D01*
X003093Y011463D01*
X003093Y011732D01*
X003190Y011732D01*
X003190Y011828D01*
X003459Y011828D01*
X003459Y011941D01*
X003446Y011987D01*
X003439Y012000D01*
X017396Y012000D01*
X017396Y011974D01*
X017396Y012000D02*
X017498Y011990D01*
X017685Y011912D01*
X017829Y011769D01*
X017906Y011581D01*
X017916Y011480D01*
X017890Y011480D01*
X017916Y011480D02*
X017916Y000880D01*
X017890Y000880D01*
X017916Y000880D02*
X017906Y000779D01*
X017829Y000591D01*
X017685Y000448D01*
X017498Y000370D01*
X017396Y000360D01*
X017396Y000386D01*
X017396Y000360D02*
X005112Y000360D01*
X005137Y000385D01*
X005216Y000577D01*
X005216Y000783D01*
X005137Y000975D01*
X004991Y001121D01*
X004800Y001200D01*
X004593Y001200D01*
X004402Y001121D01*
X004256Y000975D01*
X004196Y000832D01*
X004196Y001630D01*
X004146Y001630D02*
X004246Y001630D01*
X004246Y001240D01*
X004379Y001240D01*
X004636Y001498D01*
X004636Y001630D01*
X004246Y001630D01*
X004246Y001730D01*
X004146Y001730D01*
X004146Y001630D01*
X003756Y001630D01*
X003756Y001498D01*
X004014Y001240D01*
X004146Y001240D01*
X004146Y001630D01*
X004096Y001630D02*
X004096Y001730D01*
X004146Y001730D02*
X003756Y001730D01*
X003756Y001862D01*
X004014Y002120D01*
X004146Y002120D01*
X004146Y001730D01*
X004146Y001680D02*
X003035Y001680D01*
X003006Y001708D02*
X003006Y004170D01*
X003196Y004170D01*
X003254Y004111D01*
X003330Y004080D01*
X003254Y004049D01*
X003134Y003928D01*
X003069Y003771D01*
X003069Y003601D01*
X003134Y003444D01*
X003252Y003326D01*
X003157Y003326D01*
X003069Y003239D01*
X003069Y002559D01*
X003157Y002471D01*
X003308Y002471D01*
X003409Y002370D01*
X003409Y002370D01*
X003509Y002270D01*
X004550Y002270D01*
X004550Y002167D01*
X004637Y002079D01*
X004931Y002079D01*
X004726Y001875D01*
X004726Y001485D01*
X005002Y001210D01*
X005391Y001210D01*
X005666Y001485D01*
X005666Y001875D01*
X005391Y002150D01*
X005227Y002150D01*
X005243Y002167D01*
X005243Y002170D01*
X005283Y002170D01*
X005406Y002293D01*
X005606Y002493D01*
X005606Y003293D01*
X005886Y003573D01*
X005886Y003093D01*
X005979Y003000D01*
X005933Y003000D01*
X005815Y002951D01*
X005725Y002861D01*
X005676Y002744D01*
X005676Y002616D01*
X005725Y002499D01*
X005815Y002409D01*
X005933Y002360D01*
X005986Y002360D01*
X005986Y002135D01*
X005726Y001875D01*
X005726Y001485D01*
X006002Y001210D01*
X006391Y001210D01*
X006666Y001485D01*
X006666Y001875D01*
X006406Y002135D01*
X006406Y002530D01*
X006423Y002564D01*
X006406Y002614D01*
X006406Y002667D01*
X006380Y002693D01*
X006368Y002729D01*
X006321Y002753D01*
X006307Y002766D01*
X006306Y002770D01*
X006469Y002770D01*
X006469Y002559D01*
X006557Y002471D01*
X006708Y002471D01*
X006986Y002193D01*
X006986Y002135D01*
X006726Y001875D01*
X006726Y001485D01*
X007002Y001210D01*
X007391Y001210D01*
X007666Y001485D01*
X007666Y001875D01*
X007471Y002070D01*
X007922Y002070D01*
X007726Y001875D01*
X007726Y001485D01*
X008002Y001210D01*
X008391Y001210D01*
X008666Y001485D01*
X008666Y001875D01*
X008471Y002070D01*
X008922Y002070D01*
X008726Y001875D01*
X008726Y001485D01*
X009002Y001210D01*
X009391Y001210D01*
X009666Y001485D01*
X009666Y001875D01*
X009459Y002082D01*
X009543Y002167D01*
X009543Y002724D01*
X009487Y002780D01*
X009543Y002836D01*
X009543Y002870D01*
X009583Y002870D01*
X009706Y002993D01*
X009806Y003093D01*
X009806Y004467D01*
X009683Y004590D01*
X009649Y004625D01*
X009543Y004625D01*
X009543Y004693D01*
X009507Y004730D01*
X009543Y004767D01*
X009543Y005324D01*
X009466Y005401D01*
X009467Y005402D01*
X009489Y005424D01*
X009505Y005452D01*
X009513Y005482D01*
X009513Y005666D01*
X009245Y005666D01*
X009245Y005763D01*
X009513Y005763D01*
X009513Y005947D01*
X009505Y005977D01*
X009504Y005980D01*
X011096Y005980D01*
X011096Y005774D01*
X011096Y004685D01*
X011108Y004680D02*
X011332Y004680D01*
X011319Y004667D02*
X011139Y004667D01*
X011060Y004700D01*
X010933Y004700D01*
X010815Y004651D01*
X010725Y004561D01*
X010676Y004444D01*
X010676Y004316D01*
X010725Y004199D01*
X010815Y004109D01*
X010933Y004060D01*
X011060Y004060D01*
X011178Y004109D01*
X011268Y004199D01*
X011288Y004247D01*
X011319Y004247D01*
X011326Y004240D01*
X011326Y004115D01*
X011684Y004115D01*
X011684Y004090D01*
X011709Y004090D01*
X011709Y003858D01*
X011962Y003858D01*
X011993Y003866D01*
X012020Y003882D01*
X012042Y003904D01*
X012058Y003932D01*
X012066Y003962D01*
X012066Y004090D01*
X011709Y004090D01*
X011709Y004115D01*
X012066Y004115D01*
X012066Y004205D01*
X012250Y004205D01*
X012250Y004136D01*
X012306Y004080D01*
X012066Y004080D01*
X011996Y004090D02*
X011996Y004115D01*
X012066Y004180D02*
X012250Y004180D01*
X012196Y004205D02*
X012196Y003325D01*
X012250Y003325D02*
X012096Y003325D01*
X012096Y003344D01*
X012009Y003432D01*
X011384Y003432D01*
X011319Y003367D01*
X011307Y003367D01*
X011268Y003461D01*
X011178Y003551D01*
X011060Y003600D01*
X010933Y003600D01*
X010815Y003551D01*
X010725Y003461D01*
X010676Y003344D01*
X010676Y003216D01*
X010725Y003099D01*
X010815Y003009D01*
X010933Y002960D01*
X011019Y002960D01*
X011032Y002947D01*
X011319Y002947D01*
X011326Y002940D01*
X011326Y002815D01*
X011684Y002815D01*
X011684Y002790D01*
X011709Y002790D01*
X011709Y002558D01*
X011962Y002558D01*
X011993Y002566D01*
X012020Y002582D01*
X012042Y002604D01*
X012058Y002632D01*
X012066Y002662D01*
X012066Y002790D01*
X011709Y002790D01*
X011709Y002815D01*
X012066Y002815D01*
X012066Y002905D01*
X012250Y002905D01*
X012250Y002836D01*
X012306Y002780D01*
X012250Y002724D01*
X012250Y002167D01*
X012266Y002150D01*
X012002Y002150D01*
X011726Y001875D01*
X011726Y001485D01*
X012002Y001210D01*
X012391Y001210D01*
X012666Y001485D01*
X012666Y001875D01*
X012462Y002079D01*
X012855Y002079D01*
X012943Y002167D01*
X012943Y002170D01*
X013083Y002170D01*
X013206Y002293D01*
X013306Y002393D01*
X013306Y009867D01*
X013183Y009990D01*
X013049Y010125D01*
X012943Y010125D01*
X012943Y010193D01*
X012855Y010281D01*
X012462Y010281D01*
X012666Y010485D01*
X012666Y010875D01*
X012391Y011150D01*
X012002Y011150D01*
X011726Y010875D01*
X011726Y010485D01*
X011848Y010363D01*
X011760Y010400D01*
X011633Y010400D01*
X011545Y010363D01*
X011666Y010485D01*
X011666Y010875D01*
X011391Y011150D01*
X011002Y011150D01*
X010726Y010875D01*
X010726Y010485D01*
X010980Y010232D01*
X010413Y010232D01*
X010666Y010485D01*
X010666Y010875D01*
X010391Y011150D01*
X010002Y011150D01*
X009726Y010875D01*
X009726Y010485D01*
X009986Y010225D01*
X009986Y010214D01*
X009970Y010164D01*
X009986Y010130D01*
X009986Y010093D01*
X010024Y010056D01*
X010086Y009930D01*
X010086Y009893D01*
X010124Y009856D01*
X010148Y009808D01*
X010183Y009796D01*
X010209Y009770D01*
X010262Y009770D01*
X010296Y009759D01*
X010296Y009416D01*
X010296Y009220D01*
X010256Y009220D02*
X010256Y009280D01*
X009846Y009280D01*
X007986Y009280D01*
X007986Y009180D02*
X009434Y009180D01*
X009439Y009185D02*
X009406Y009152D01*
X009406Y007781D01*
X009360Y007800D01*
X009233Y007800D01*
X009115Y007751D01*
X009074Y007710D01*
X007986Y007710D01*
X007986Y008037D01*
X008015Y008009D01*
X008133Y007960D01*
X008260Y007960D01*
X008378Y008009D01*
X008468Y008099D01*
X008516Y008216D01*
X008516Y008344D01*
X008468Y008461D01*
X008378Y008551D01*
X008260Y008600D01*
X008133Y008600D01*
X008015Y008551D01*
X007986Y008523D01*
X007986Y009412D01*
X007899Y009500D01*
X007194Y009500D01*
X007184Y009490D01*
X005609Y009490D01*
X005486Y009367D01*
X005286Y009167D01*
X005286Y008167D01*
X005275Y008155D01*
X005243Y008155D01*
X005243Y008224D01*
X005187Y008280D01*
X005243Y008336D01*
X005243Y008893D01*
X005207Y008930D01*
X005243Y008967D01*
X005243Y009524D01*
X005166Y009601D01*
X005167Y009602D01*
X005189Y009624D01*
X005205Y009652D01*
X005213Y009682D01*
X005213Y009866D01*
X004945Y009866D01*
X004945Y009963D01*
X005213Y009963D01*
X005213Y010147D01*
X005205Y010177D01*
X005189Y010205D01*
X005184Y010210D01*
X005391Y010210D01*
X005666Y010485D01*
X005666Y010875D01*
X005391Y011150D01*
X005002Y011150D01*
X004726Y010875D01*
X004726Y010485D01*
X004961Y010251D01*
X004945Y010251D01*
X004945Y009963D01*
X004848Y009963D01*
X004848Y009866D01*
X004580Y009866D01*
X004580Y009682D01*
X004588Y009652D01*
X004604Y009624D01*
X004626Y009602D01*
X004627Y009601D01*
X004550Y009524D01*
X004550Y008984D01*
X004284Y008984D01*
X004260Y008994D01*
X004133Y008994D01*
X004109Y008984D01*
X003791Y008984D01*
X003739Y009036D01*
X003624Y009084D01*
X003685Y009109D01*
X003750Y009152D01*
X003805Y009208D01*
X003849Y009273D01*
X003879Y009345D01*
X003894Y009422D01*
X003894Y009432D01*
X003525Y009432D01*
X003525Y009490D01*
X003468Y009490D01*
X003468Y009813D01*
X003772Y010117D01*
X003859Y010204D01*
X003906Y010318D01*
X003906Y010348D01*
X004014Y010240D01*
X004146Y010240D01*
X004146Y010630D01*
X004246Y010630D01*
X004246Y010240D01*
X004379Y010240D01*
X004636Y010498D01*
X004636Y010630D01*
X004246Y010630D01*
X004246Y010730D01*
X004146Y010730D01*
X004146Y011092D01*
X004225Y011170D01*
X015786Y011170D01*
X015786Y010290D01*
X015659Y010290D01*
X015666Y010298D01*
X015666Y011062D01*
X015579Y011150D01*
X014814Y011150D01*
X014726Y011062D01*
X014726Y010298D01*
X014734Y010290D01*
X014471Y010290D01*
X014666Y010485D01*
X014666Y010875D01*
X014391Y011150D01*
X014002Y011150D01*
X013726Y010875D01*
X013726Y010485D01*
X013922Y010290D01*
X013609Y010290D01*
X013601Y010281D01*
X013462Y010281D01*
X013666Y010485D01*
X013666Y010875D01*
X013391Y011150D01*
X013002Y011150D01*
X012726Y010875D01*
X012726Y010485D01*
X013002Y010210D01*
X013366Y010210D01*
X013350Y010193D01*
X013350Y009636D01*
X013406Y009580D01*
X013350Y009524D01*
X013350Y008967D01*
X013386Y008930D01*
X013350Y008893D01*
X013350Y008336D01*
X013406Y008280D01*
X013306Y008280D01*
X013350Y008224D02*
X013350Y007667D01*
X013386Y007630D01*
X013350Y007593D01*
X013350Y007036D01*
X013427Y006959D01*
X013426Y006958D01*
X013404Y006936D01*
X013388Y006908D01*
X013380Y006878D01*
X013380Y006694D01*
X013648Y006694D01*
X013648Y006597D01*
X013380Y006597D01*
X013380Y006413D01*
X013388Y006383D01*
X013404Y006355D01*
X013426Y006333D01*
X013453Y006317D01*
X013484Y006309D01*
X013648Y006309D01*
X013648Y006597D01*
X013745Y006597D01*
X013745Y006694D01*
X014013Y006694D01*
X014013Y006878D01*
X014005Y006908D01*
X013989Y006936D01*
X013967Y006958D01*
X013966Y006959D01*
X014043Y007036D01*
X014043Y007258D01*
X014066Y007312D01*
X014066Y007576D01*
X014902Y007576D01*
X014954Y007524D01*
X015069Y007476D01*
X015008Y007451D01*
X014943Y007408D01*
X014888Y007352D01*
X014844Y007287D01*
X014814Y007215D01*
X014799Y007138D01*
X014799Y007128D01*
X015168Y007128D01*
X015168Y007070D01*
X015225Y007070D01*
X015225Y006701D01*
X015236Y006701D01*
X015312Y006717D01*
X015385Y006747D01*
X015450Y006790D01*
X015505Y006846D01*
X015549Y006911D01*
X015579Y006983D01*
X015594Y007060D01*
X015594Y007070D01*
X015225Y007070D01*
X015225Y007128D01*
X015594Y007128D01*
X015594Y007138D01*
X015579Y007215D01*
X015549Y007287D01*
X015505Y007352D01*
X015450Y007408D01*
X015385Y007451D01*
X015324Y007476D01*
X015439Y007524D01*
X015491Y007576D01*
X015786Y007576D01*
X015786Y005895D01*
X014043Y005895D01*
X014043Y005993D01*
X013955Y006081D01*
X013437Y006081D01*
X013350Y005993D01*
X013350Y005436D01*
X013406Y005380D01*
X013350Y005324D01*
X013350Y004767D01*
X013386Y004730D01*
X013350Y004693D01*
X013350Y004136D01*
X013406Y004080D01*
X013306Y004080D01*
X013350Y004024D02*
X013350Y003467D01*
X013386Y003430D01*
X013350Y003393D01*
X013350Y002836D01*
X013427Y002759D01*
X013426Y002758D01*
X013404Y002736D01*
X013388Y002708D01*
X013380Y002678D01*
X013380Y002494D01*
X013648Y002494D01*
X013648Y002397D01*
X013380Y002397D01*
X013380Y002213D01*
X013388Y002183D01*
X013404Y002155D01*
X013426Y002133D01*
X013453Y002117D01*
X013484Y002109D01*
X013648Y002109D01*
X013648Y002397D01*
X013745Y002397D01*
X013745Y002494D01*
X014013Y002494D01*
X014013Y002678D01*
X014005Y002708D01*
X013989Y002736D01*
X013967Y002758D01*
X013966Y002759D01*
X014043Y002836D01*
X014043Y003376D01*
X014902Y003376D01*
X014954Y003324D01*
X015069Y003276D01*
X015008Y003251D01*
X014943Y003208D01*
X014888Y003152D01*
X014844Y003087D01*
X014814Y003015D01*
X014799Y002938D01*
X014799Y002928D01*
X015168Y002928D01*
X015168Y002870D01*
X015225Y002870D01*
X015225Y002501D01*
X015236Y002501D01*
X015312Y002517D01*
X015385Y002547D01*
X015450Y002590D01*
X015505Y002646D01*
X015549Y002711D01*
X015579Y002783D01*
X015594Y002860D01*
X015594Y002870D01*
X015225Y002870D01*
X015225Y002928D01*
X015594Y002928D01*
X015594Y002938D01*
X015579Y003015D01*
X015549Y003087D01*
X015505Y003152D01*
X015450Y003208D01*
X015385Y003251D01*
X015324Y003276D01*
X015439Y003324D01*
X015485Y003370D01*
X016158Y003370D01*
X016272Y003417D01*
X016359Y003504D01*
X016406Y003618D01*
X016406Y011220D01*
X016442Y011205D01*
X016551Y011205D01*
X016652Y011247D01*
X016730Y011324D01*
X016771Y011425D01*
X016771Y011535D01*
X016730Y011636D01*
X016652Y011713D01*
X016551Y011755D01*
X016442Y011755D01*
X016341Y011713D01*
X016271Y011644D01*
X016172Y011743D01*
X016058Y011790D01*
X004035Y011790D01*
X003921Y011743D01*
X003834Y011656D01*
X003505Y011327D01*
X002952Y011327D01*
X002896Y011271D01*
X002840Y011327D01*
X002762Y011327D01*
X002762Y011519D01*
X002798Y011556D01*
X002798Y012000D01*
X002845Y012000D01*
X002837Y011987D01*
X002825Y011941D01*
X002825Y011828D01*
X003093Y011828D01*
X003142Y011780D02*
X003696Y011780D01*
X003796Y011618D02*
X003796Y012000D01*
X003696Y012000D02*
X003696Y011518D01*
X003658Y011480D02*
X003357Y011480D01*
X003349Y011475D02*
X003389Y011499D01*
X003423Y011532D01*
X003446Y011573D01*
X003459Y011619D01*
X003459Y011732D01*
X003190Y011732D01*
X003190Y011463D01*
X003303Y011463D01*
X003349Y011475D01*
X003296Y011463D02*
X003296Y011327D01*
X003196Y011327D02*
X003196Y011463D01*
X003190Y011480D02*
X003093Y011480D01*
X002996Y011463D02*
X002996Y011327D01*
X003096Y011327D02*
X003096Y011732D01*
X003093Y011680D02*
X003190Y011680D01*
X003196Y011732D02*
X003196Y011828D01*
X003190Y011780D02*
X004011Y011780D01*
X003996Y011774D02*
X003996Y012000D01*
X003896Y012000D02*
X003896Y011718D01*
X003858Y011680D02*
X003459Y011680D01*
X003396Y011732D02*
X003396Y011828D01*
X003459Y011880D02*
X017028Y011880D01*
X017038Y011891D02*
X016886Y011738D01*
X016803Y011538D01*
X016803Y011322D01*
X016886Y011122D01*
X017038Y010969D01*
X017238Y010886D01*
X017455Y010886D01*
X017654Y010969D01*
X017807Y011122D01*
X017890Y011322D01*
X017890Y011538D01*
X017807Y011738D01*
X017654Y011891D01*
X017455Y011974D01*
X017238Y011974D01*
X017038Y011891D01*
X016996Y011849D02*
X016996Y012000D01*
X016896Y012000D02*
X016896Y011749D01*
X016928Y011780D02*
X016082Y011780D01*
X016096Y011774D02*
X016096Y012000D01*
X015996Y012000D02*
X015996Y011790D01*
X015896Y011790D02*
X015896Y012000D01*
X015796Y012000D02*
X015796Y011790D01*
X015696Y011790D02*
X015696Y012000D01*
X015596Y012000D02*
X015596Y011790D01*
X015496Y011790D02*
X015496Y012000D01*
X015396Y012000D02*
X015396Y011790D01*
X015296Y011790D02*
X015296Y012000D01*
X015196Y012000D02*
X015196Y011790D01*
X015096Y011790D02*
X015096Y012000D01*
X014996Y012000D02*
X014996Y011790D01*
X014896Y011790D02*
X014896Y012000D01*
X014796Y012000D02*
X014796Y011790D01*
X014696Y011790D02*
X014696Y012000D01*
X014596Y012000D02*
X014596Y011790D01*
X014496Y011790D02*
X014496Y012000D01*
X014396Y012000D02*
X014396Y011790D01*
X014296Y011790D02*
X014296Y012000D01*
X014196Y012000D02*
X014196Y011790D01*
X014096Y011790D02*
X014096Y012000D01*
X013996Y012000D02*
X013996Y011790D01*
X013896Y011790D02*
X013896Y012000D01*
X013796Y012000D02*
X013796Y011790D01*
X013696Y011790D02*
X013696Y012000D01*
X013596Y012000D02*
X013596Y011790D01*
X013496Y011790D02*
X013496Y012000D01*
X013396Y012000D02*
X013396Y011790D01*
X013296Y011790D02*
X013296Y012000D01*
X013196Y012000D02*
X013196Y011790D01*
X013096Y011790D02*
X013096Y012000D01*
X012996Y012000D02*
X012996Y011790D01*
X012896Y011790D02*
X012896Y012000D01*
X012796Y012000D02*
X012796Y011790D01*
X012696Y011790D02*
X012696Y012000D01*
X012596Y012000D02*
X012596Y011790D01*
X012496Y011790D02*
X012496Y012000D01*
X012396Y012000D02*
X012396Y011790D01*
X012296Y011790D02*
X012296Y012000D01*
X012196Y012000D02*
X012196Y011790D01*
X012096Y011790D02*
X012096Y012000D01*
X011996Y012000D02*
X011996Y011790D01*
X011896Y011790D02*
X011896Y012000D01*
X011796Y012000D02*
X011796Y011790D01*
X011696Y011790D02*
X011696Y012000D01*
X011596Y012000D02*
X011596Y011790D01*
X011496Y011790D02*
X011496Y012000D01*
X011396Y012000D02*
X011396Y011790D01*
X011296Y011790D02*
X011296Y012000D01*
X011196Y012000D02*
X011196Y011790D01*
X011096Y011790D02*
X011096Y012000D01*
X010996Y012000D02*
X010996Y011790D01*
X010896Y011790D02*
X010896Y012000D01*
X010796Y012000D02*
X010796Y011790D01*
X010696Y011790D02*
X010696Y012000D01*
X010596Y012000D02*
X010596Y011790D01*
X010496Y011790D02*
X010496Y012000D01*
X010396Y012000D02*
X010396Y011790D01*
X010296Y011790D02*
X010296Y012000D01*
X010196Y012000D02*
X010196Y011790D01*
X010096Y011790D02*
X010096Y012000D01*
X009996Y012000D02*
X009996Y011790D01*
X009896Y011790D02*
X009896Y012000D01*
X009796Y012000D02*
X009796Y011790D01*
X009696Y011790D02*
X009696Y012000D01*
X009596Y012000D02*
X009596Y011790D01*
X009496Y011790D02*
X009496Y012000D01*
X009396Y012000D02*
X009396Y011790D01*
X009296Y011790D02*
X009296Y012000D01*
X009196Y012000D02*
X009196Y011790D01*
X009096Y011790D02*
X009096Y012000D01*
X008996Y012000D02*
X008996Y011790D01*
X008896Y011790D02*
X008896Y012000D01*
X008796Y012000D02*
X008796Y011790D01*
X008696Y011790D02*
X008696Y012000D01*
X008596Y012000D02*
X008596Y011790D01*
X008496Y011790D02*
X008496Y012000D01*
X008396Y012000D02*
X008396Y011790D01*
X008296Y011790D02*
X008296Y012000D01*
X008196Y012000D02*
X008196Y011790D01*
X008096Y011790D02*
X008096Y012000D01*
X007996Y012000D02*
X007996Y011790D01*
X007896Y011790D02*
X007896Y012000D01*
X007796Y012000D02*
X007796Y011790D01*
X007696Y011790D02*
X007696Y012000D01*
X007596Y012000D02*
X007596Y011790D01*
X007496Y011790D02*
X007496Y012000D01*
X007396Y012000D02*
X007396Y011790D01*
X007296Y011790D02*
X007296Y012000D01*
X007196Y012000D02*
X007196Y011790D01*
X007096Y011790D02*
X007096Y012000D01*
X006996Y012000D02*
X006996Y011790D01*
X006896Y011790D02*
X006896Y012000D01*
X006796Y012000D02*
X006796Y011790D01*
X006696Y011790D02*
X006696Y012000D01*
X006596Y012000D02*
X006596Y011790D01*
X006496Y011790D02*
X006496Y012000D01*
X006396Y012000D02*
X006396Y011790D01*
X006296Y011790D02*
X006296Y012000D01*
X006196Y012000D02*
X006196Y011790D01*
X006096Y011790D02*
X006096Y012000D01*
X005996Y012000D02*
X005996Y011790D01*
X005896Y011790D02*
X005896Y012000D01*
X005796Y012000D02*
X005796Y011790D01*
X005696Y011790D02*
X005696Y012000D01*
X005596Y012000D02*
X005596Y011790D01*
X005496Y011790D02*
X005496Y012000D01*
X005396Y012000D02*
X005396Y011790D01*
X005296Y011790D02*
X005296Y012000D01*
X005196Y012000D02*
X005196Y011790D01*
X005096Y011790D02*
X005096Y012000D01*
X004996Y012000D02*
X004996Y011790D01*
X004896Y011790D02*
X004896Y012000D01*
X004796Y012000D02*
X004796Y011790D01*
X004696Y011790D02*
X004696Y012000D01*
X004596Y012000D02*
X004596Y011790D01*
X004496Y011790D02*
X004496Y012000D01*
X004396Y012000D02*
X004396Y011790D01*
X004296Y011790D02*
X004296Y012000D01*
X004196Y012000D02*
X004196Y011790D01*
X004096Y011790D02*
X004096Y012000D01*
X003596Y012000D02*
X003596Y011418D01*
X003558Y011380D02*
X002762Y011380D01*
X002796Y011327D02*
X002796Y011554D01*
X002798Y011580D02*
X002835Y011580D01*
X002825Y011680D02*
X002798Y011680D01*
X002896Y011732D02*
X002896Y011828D01*
X002825Y011880D02*
X002798Y011880D01*
X002798Y011980D02*
X002835Y011980D01*
X002996Y011828D02*
X002996Y011732D01*
X003093Y011580D02*
X003190Y011580D01*
X003296Y011732D02*
X003296Y011828D01*
X003448Y011980D02*
X017522Y011980D01*
X017496Y011990D02*
X017496Y011956D01*
X017596Y011949D02*
X017596Y011915D01*
X017665Y011880D02*
X017718Y011880D01*
X017696Y011901D02*
X017696Y011849D01*
X017765Y011780D02*
X017818Y011780D01*
X017796Y011801D02*
X017796Y011749D01*
X017831Y011680D02*
X017866Y011680D01*
X017896Y011606D02*
X017896Y000754D01*
X017907Y000780D02*
X017873Y000780D01*
X017890Y000822D02*
X017807Y000622D01*
X017654Y000469D01*
X017455Y000386D01*
X017238Y000386D01*
X017038Y000469D01*
X016886Y000622D01*
X016803Y000822D01*
X016803Y001038D01*
X016886Y001238D01*
X017038Y001391D01*
X017238Y001474D01*
X017455Y001474D01*
X017654Y001391D01*
X017807Y001238D01*
X017890Y001038D01*
X017890Y000822D01*
X017866Y000680D02*
X017831Y000680D01*
X017796Y000611D02*
X017796Y000559D01*
X017818Y000580D02*
X017765Y000580D01*
X017696Y000511D02*
X017696Y000459D01*
X017718Y000480D02*
X017665Y000480D01*
X017596Y000445D02*
X017596Y000411D01*
X017522Y000380D02*
X005132Y000380D01*
X005196Y000360D02*
X005196Y000528D01*
X005176Y000480D02*
X017028Y000480D01*
X016996Y000511D02*
X016996Y000360D01*
X016896Y000360D02*
X016896Y000611D01*
X016928Y000580D02*
X005216Y000580D01*
X005216Y000680D02*
X016862Y000680D01*
X016820Y000780D02*
X016685Y000780D01*
X016696Y000791D02*
X016696Y000360D01*
X016596Y000360D02*
X016596Y000724D01*
X016551Y000705D02*
X016652Y000747D01*
X016730Y000824D01*
X016771Y000925D01*
X016771Y001035D01*
X016730Y001136D01*
X016652Y001213D01*
X016551Y001255D01*
X016442Y001255D01*
X016341Y001213D01*
X016263Y001136D01*
X016221Y001035D01*
X016221Y000925D01*
X016263Y000824D01*
X016341Y000747D01*
X016442Y000705D01*
X016551Y000705D01*
X016496Y000705D02*
X016496Y000360D01*
X016396Y000360D02*
X016396Y000724D01*
X016308Y000780D02*
X005216Y000780D01*
X005196Y000832D02*
X005196Y001210D01*
X005096Y001210D02*
X005096Y001015D01*
X005132Y000980D02*
X016221Y000980D01*
X016240Y000880D02*
X005176Y000880D01*
X005032Y001080D02*
X016240Y001080D01*
X016296Y001169D02*
X016296Y003442D01*
X016335Y003480D02*
X017916Y003480D01*
X017916Y003580D02*
X016391Y003580D01*
X016396Y003594D02*
X016396Y001236D01*
X016496Y001255D02*
X016496Y011205D01*
X016406Y011180D02*
X016862Y011180D01*
X016896Y011111D02*
X016896Y001249D01*
X016928Y001280D02*
X015461Y001280D01*
X015496Y001315D02*
X015496Y000360D01*
X015396Y000360D02*
X015396Y001215D01*
X015391Y001210D02*
X015666Y001485D01*
X015666Y001875D01*
X015391Y002150D01*
X015002Y002150D01*
X014726Y001875D01*
X014726Y001485D01*
X015002Y001210D01*
X015391Y001210D01*
X015296Y001210D02*
X015296Y000360D01*
X015196Y000360D02*
X015196Y001210D01*
X015096Y001210D02*
X015096Y000360D01*
X014996Y000360D02*
X014996Y001215D01*
X014932Y001280D02*
X014461Y001280D01*
X014496Y001315D02*
X014496Y000360D01*
X014396Y000360D02*
X014396Y001215D01*
X014391Y001210D02*
X014666Y001485D01*
X014666Y001875D01*
X014391Y002150D01*
X014002Y002150D01*
X013726Y001875D01*
X013726Y001485D01*
X014002Y001210D01*
X014391Y001210D01*
X014296Y001210D02*
X014296Y000360D01*
X014196Y000360D02*
X014196Y001210D01*
X014096Y001210D02*
X014096Y000360D01*
X013996Y000360D02*
X013996Y001215D01*
X013932Y001280D02*
X013461Y001280D01*
X013496Y001315D02*
X013496Y000360D01*
X013396Y000360D02*
X013396Y001215D01*
X013391Y001210D02*
X013666Y001485D01*
X013666Y001875D01*
X013391Y002150D01*
X013002Y002150D01*
X012726Y001875D01*
X012726Y001485D01*
X013002Y001210D01*
X013391Y001210D01*
X013296Y001210D02*
X013296Y000360D01*
X013196Y000360D02*
X013196Y001210D01*
X013096Y001210D02*
X013096Y000360D01*
X012996Y000360D02*
X012996Y001215D01*
X012932Y001280D02*
X012461Y001280D01*
X012496Y001315D02*
X012496Y000360D01*
X012396Y000360D02*
X012396Y001215D01*
X012296Y001210D02*
X012296Y000360D01*
X012196Y000360D02*
X012196Y001210D01*
X012096Y001210D02*
X012096Y000360D01*
X011996Y000360D02*
X011996Y001215D01*
X011932Y001280D02*
X011461Y001280D01*
X011496Y001315D02*
X011496Y000360D01*
X011396Y000360D02*
X011396Y001215D01*
X011391Y001210D02*
X011666Y001485D01*
X011666Y001875D01*
X011391Y002150D01*
X011002Y002150D01*
X010726Y001875D01*
X010726Y001485D01*
X011002Y001210D01*
X011391Y001210D01*
X011296Y001210D02*
X011296Y000360D01*
X011196Y000360D02*
X011196Y001210D01*
X011096Y001210D02*
X011096Y000360D01*
X010996Y000360D02*
X010996Y001215D01*
X010932Y001280D02*
X010461Y001280D01*
X010496Y001315D02*
X010496Y000360D01*
X010396Y000360D02*
X010396Y001215D01*
X010391Y001210D02*
X010666Y001485D01*
X010666Y001875D01*
X010391Y002150D01*
X010002Y002150D01*
X009726Y001875D01*
X009726Y001485D01*
X010002Y001210D01*
X010391Y001210D01*
X010296Y001210D02*
X010296Y000360D01*
X010196Y000360D02*
X010196Y001210D01*
X010096Y001210D02*
X010096Y000360D01*
X009996Y000360D02*
X009996Y001215D01*
X009932Y001280D02*
X009461Y001280D01*
X009496Y001315D02*
X009496Y000360D01*
X009396Y000360D02*
X009396Y001215D01*
X009296Y001210D02*
X009296Y000360D01*
X009196Y000360D02*
X009196Y001210D01*
X009096Y001210D02*
X009096Y000360D01*
X008996Y000360D02*
X008996Y001215D01*
X008932Y001280D02*
X008461Y001280D01*
X008496Y001315D02*
X008496Y000360D01*
X008396Y000360D02*
X008396Y001215D01*
X008296Y001210D02*
X008296Y000360D01*
X008196Y000360D02*
X008196Y001210D01*
X008096Y001210D02*
X008096Y000360D01*
X007996Y000360D02*
X007996Y001215D01*
X007932Y001280D02*
X007461Y001280D01*
X007496Y001315D02*
X007496Y000360D01*
X007396Y000360D02*
X007396Y001215D01*
X007296Y001210D02*
X007296Y000360D01*
X007196Y000360D02*
X007196Y001210D01*
X007096Y001210D02*
X007096Y000360D01*
X006996Y000360D02*
X006996Y001215D01*
X006932Y001280D02*
X006461Y001280D01*
X006496Y001315D02*
X006496Y000360D01*
X006396Y000360D02*
X006396Y001215D01*
X006296Y001210D02*
X006296Y000360D01*
X006196Y000360D02*
X006196Y001210D01*
X006096Y001210D02*
X006096Y000360D01*
X005996Y000360D02*
X005996Y001215D01*
X005932Y001280D02*
X005461Y001280D01*
X005496Y001315D02*
X005496Y000360D01*
X005396Y000360D02*
X005396Y001215D01*
X005296Y001210D02*
X005296Y000360D01*
X005596Y000360D02*
X005596Y001415D01*
X005561Y001380D02*
X005832Y001380D01*
X005796Y001415D02*
X005796Y000360D01*
X005696Y000360D02*
X005696Y002568D01*
X005692Y002580D02*
X005606Y002580D01*
X005596Y002483D02*
X005596Y001945D01*
X005561Y001980D02*
X005832Y001980D01*
X005796Y001945D02*
X005796Y002427D01*
X005744Y002480D02*
X005593Y002480D01*
X005496Y002383D02*
X005496Y002045D01*
X005461Y002080D02*
X005932Y002080D01*
X005896Y002045D02*
X005896Y002375D01*
X005885Y002380D02*
X005493Y002380D01*
X005396Y002283D02*
X005396Y002145D01*
X005296Y002150D02*
X005296Y002183D01*
X005293Y002180D02*
X005986Y002180D01*
X005986Y002280D02*
X005393Y002280D01*
X004896Y002079D02*
X004896Y002045D01*
X004832Y001980D02*
X004519Y001980D01*
X004496Y002002D02*
X004496Y002270D01*
X004396Y002270D02*
X004396Y002102D01*
X004379Y002120D02*
X004246Y002120D01*
X004246Y001730D01*
X004636Y001730D01*
X004636Y001862D01*
X004379Y002120D01*
X004419Y002080D02*
X004636Y002080D01*
X004596Y002120D02*
X004596Y001902D01*
X004619Y001880D02*
X004732Y001880D01*
X004796Y001945D02*
X004796Y002079D01*
X004696Y002079D02*
X004696Y001200D01*
X004596Y001200D02*
X004596Y001458D01*
X004619Y001480D02*
X004732Y001480D01*
X004796Y001415D02*
X004796Y001200D01*
X004848Y001180D02*
X016308Y001180D01*
X016596Y001236D02*
X016596Y011224D01*
X016685Y011280D02*
X016820Y011280D01*
X016803Y011380D02*
X016753Y011380D01*
X016771Y011480D02*
X016803Y011480D01*
X016820Y011580D02*
X016753Y011580D01*
X016696Y011669D02*
X016696Y012000D01*
X016596Y012000D02*
X016596Y011736D01*
X016496Y011755D02*
X016496Y012000D01*
X016396Y012000D02*
X016396Y011736D01*
X016308Y011680D02*
X016235Y011680D01*
X016196Y011718D02*
X016196Y012000D01*
X016296Y012000D02*
X016296Y011669D01*
X016685Y011680D02*
X016862Y011680D01*
X016796Y012000D02*
X016796Y000360D01*
X017096Y000360D02*
X017096Y000445D01*
X017196Y000404D02*
X017196Y000360D01*
X017296Y000360D02*
X017296Y000386D01*
X017496Y000370D02*
X017496Y000404D01*
X017941Y000180D02*
X018096Y000180D01*
X018096Y000335D01*
X017941Y000180D01*
X018096Y000180D01*
X017996Y000180D02*
X017996Y000235D01*
X018041Y000280D02*
X018096Y000280D01*
X017916Y000980D02*
X017890Y000980D01*
X017873Y001080D02*
X017916Y001080D01*
X017916Y001180D02*
X017831Y001180D01*
X017796Y001249D02*
X017796Y011111D01*
X017765Y011080D02*
X017916Y011080D01*
X017916Y010980D02*
X017665Y010980D01*
X017696Y011011D02*
X017696Y001349D01*
X017665Y001380D02*
X017916Y001380D01*
X017916Y001480D02*
X015661Y001480D01*
X015596Y001415D02*
X015596Y000360D01*
X015696Y000360D02*
X015696Y003370D01*
X015596Y003370D02*
X015596Y001945D01*
X015561Y001980D02*
X017916Y001980D01*
X017916Y001880D02*
X015661Y001880D01*
X015666Y001780D02*
X017916Y001780D01*
X017916Y001680D02*
X015666Y001680D01*
X015666Y001580D02*
X017916Y001580D01*
X017596Y001415D02*
X017596Y010945D01*
X017496Y010904D02*
X017496Y001456D01*
X017396Y001474D02*
X017396Y010886D01*
X017296Y010886D02*
X017296Y001474D01*
X017196Y001456D02*
X017196Y010904D01*
X017096Y010945D02*
X017096Y001415D01*
X017028Y001380D02*
X015561Y001380D01*
X014896Y001315D02*
X014896Y000360D01*
X014796Y000360D02*
X014796Y001415D01*
X014832Y001380D02*
X014561Y001380D01*
X014596Y001415D02*
X014596Y000360D01*
X014696Y000360D02*
X014696Y003376D01*
X014596Y003376D02*
X014596Y001945D01*
X014561Y001980D02*
X014832Y001980D01*
X014796Y001945D02*
X014796Y003376D01*
X014896Y003376D02*
X014896Y003161D01*
X014915Y003180D02*
X014043Y003180D01*
X014043Y003080D02*
X014841Y003080D01*
X014807Y002980D02*
X014043Y002980D01*
X014043Y002880D02*
X015168Y002880D01*
X015168Y002870D02*
X014799Y002870D01*
X014799Y002860D01*
X014814Y002783D01*
X014844Y002711D01*
X014888Y002646D01*
X014943Y002590D01*
X015008Y002547D01*
X015081Y002517D01*
X015157Y002501D01*
X015168Y002501D01*
X015168Y002870D01*
X015196Y002870D02*
X015196Y002150D01*
X015096Y002150D02*
X015096Y002514D01*
X015168Y002580D02*
X015225Y002580D01*
X015296Y002514D02*
X015296Y002150D01*
X015396Y002145D02*
X015396Y002554D01*
X015435Y002580D02*
X017916Y002580D01*
X017916Y002480D02*
X013745Y002480D01*
X013796Y002494D02*
X013796Y002397D01*
X013745Y002397D02*
X014013Y002397D01*
X014013Y002213D01*
X014005Y002183D01*
X013989Y002155D01*
X013967Y002133D01*
X013940Y002117D01*
X013909Y002109D01*
X013745Y002109D01*
X013745Y002397D01*
X013745Y002380D02*
X013648Y002380D01*
X013696Y002397D02*
X013696Y000360D01*
X013596Y000360D02*
X013596Y001415D01*
X013561Y001380D02*
X013832Y001380D01*
X013796Y001415D02*
X013796Y000360D01*
X013896Y000360D02*
X013896Y001315D01*
X013732Y001480D02*
X013661Y001480D01*
X013666Y001580D02*
X013726Y001580D01*
X013726Y001680D02*
X013666Y001680D01*
X013666Y001780D02*
X013726Y001780D01*
X013732Y001880D02*
X013661Y001880D01*
X013596Y001945D02*
X013596Y002109D01*
X013648Y002180D02*
X013745Y002180D01*
X013796Y002109D02*
X013796Y001945D01*
X013832Y001980D02*
X013561Y001980D01*
X013496Y002045D02*
X013496Y002109D01*
X013461Y002080D02*
X013932Y002080D01*
X013896Y002109D02*
X013896Y002045D01*
X013996Y002145D02*
X013996Y002167D01*
X014004Y002180D02*
X017916Y002180D01*
X017916Y002080D02*
X015461Y002080D01*
X015496Y002045D02*
X015496Y002637D01*
X015528Y002680D02*
X017916Y002680D01*
X017916Y002780D02*
X015577Y002780D01*
X015496Y002870D02*
X015496Y002928D01*
X015396Y002928D02*
X015396Y002870D01*
X015296Y002870D02*
X015296Y002928D01*
X015225Y002880D02*
X017916Y002880D01*
X017916Y002980D02*
X015586Y002980D01*
X015552Y003080D02*
X017916Y003080D01*
X017916Y003180D02*
X015477Y003180D01*
X015496Y003161D02*
X015496Y003370D01*
X015396Y003306D02*
X015396Y003243D01*
X015333Y003280D02*
X017916Y003280D01*
X017916Y003380D02*
X016182Y003380D01*
X016196Y003386D02*
X016196Y000360D01*
X016096Y000360D02*
X016096Y003370D01*
X015996Y003370D02*
X015996Y000360D01*
X015896Y000360D02*
X015896Y003370D01*
X015796Y003370D02*
X015796Y000360D01*
X016296Y000360D02*
X016296Y000791D01*
X016753Y000880D02*
X016803Y000880D01*
X016803Y000980D02*
X016771Y000980D01*
X016753Y001080D02*
X016820Y001080D01*
X016862Y001180D02*
X016685Y001180D01*
X016696Y001169D02*
X016696Y011291D01*
X016928Y011080D02*
X016406Y011080D01*
X016406Y010980D02*
X017028Y010980D01*
X016996Y011011D02*
X016996Y001349D01*
X017765Y001280D02*
X017916Y001280D01*
X017916Y002280D02*
X014013Y002280D01*
X014013Y002380D02*
X017916Y002380D01*
X017916Y003680D02*
X016406Y003680D01*
X016406Y003780D02*
X017916Y003780D01*
X017916Y003880D02*
X016406Y003880D01*
X016406Y003980D02*
X017916Y003980D01*
X017916Y004080D02*
X016406Y004080D01*
X016406Y004180D02*
X017916Y004180D01*
X017916Y004280D02*
X016406Y004280D01*
X016406Y004380D02*
X017916Y004380D01*
X017916Y004480D02*
X016406Y004480D01*
X016406Y004580D02*
X017916Y004580D01*
X017916Y004680D02*
X016406Y004680D01*
X016406Y004780D02*
X017916Y004780D01*
X017916Y004880D02*
X016406Y004880D01*
X016406Y004980D02*
X017916Y004980D01*
X017916Y005080D02*
X016406Y005080D01*
X016406Y005180D02*
X017916Y005180D01*
X017916Y005280D02*
X016406Y005280D01*
X016406Y005380D02*
X017916Y005380D01*
X017916Y005480D02*
X016406Y005480D01*
X016406Y005580D02*
X017916Y005580D01*
X017916Y005680D02*
X016406Y005680D01*
X016406Y005780D02*
X017916Y005780D01*
X017916Y005880D02*
X016406Y005880D01*
X016406Y005980D02*
X017916Y005980D01*
X017916Y006080D02*
X016406Y006080D01*
X016406Y006180D02*
X017916Y006180D01*
X017916Y006280D02*
X016406Y006280D01*
X016406Y006380D02*
X017916Y006380D01*
X017916Y006480D02*
X016406Y006480D01*
X016406Y006580D02*
X017916Y006580D01*
X017916Y006680D02*
X016406Y006680D01*
X016406Y006780D02*
X017916Y006780D01*
X017916Y006880D02*
X016406Y006880D01*
X016406Y006980D02*
X017916Y006980D01*
X017916Y007080D02*
X016406Y007080D01*
X016406Y007180D02*
X017916Y007180D01*
X017916Y007280D02*
X016406Y007280D01*
X016406Y007380D02*
X017916Y007380D01*
X017916Y007480D02*
X016406Y007480D01*
X016406Y007580D02*
X017916Y007580D01*
X017916Y007680D02*
X016406Y007680D01*
X016406Y007780D02*
X017916Y007780D01*
X017916Y007880D02*
X016406Y007880D01*
X016406Y007980D02*
X017916Y007980D01*
X017916Y008080D02*
X016406Y008080D01*
X016406Y008180D02*
X017916Y008180D01*
X017916Y008280D02*
X016406Y008280D01*
X016406Y008380D02*
X017916Y008380D01*
X017916Y008480D02*
X016406Y008480D01*
X016406Y008580D02*
X017916Y008580D01*
X017916Y008680D02*
X016406Y008680D01*
X016406Y008780D02*
X017916Y008780D01*
X017916Y008880D02*
X016406Y008880D01*
X016406Y008980D02*
X017916Y008980D01*
X017916Y009080D02*
X016406Y009080D01*
X016406Y009180D02*
X017916Y009180D01*
X017916Y009280D02*
X016406Y009280D01*
X016406Y009380D02*
X017916Y009380D01*
X017916Y009480D02*
X016406Y009480D01*
X016406Y009580D02*
X017916Y009580D01*
X017916Y009680D02*
X016406Y009680D01*
X016406Y009780D02*
X017916Y009780D01*
X017916Y009880D02*
X016406Y009880D01*
X016406Y009980D02*
X017916Y009980D01*
X017916Y010080D02*
X016406Y010080D01*
X016406Y010180D02*
X017916Y010180D01*
X017916Y010280D02*
X016406Y010280D01*
X016406Y010380D02*
X017916Y010380D01*
X017916Y010480D02*
X016406Y010480D01*
X016406Y010580D02*
X017916Y010580D01*
X017916Y010680D02*
X016406Y010680D01*
X016406Y010780D02*
X017916Y010780D01*
X017916Y010880D02*
X016406Y010880D01*
X015786Y010880D02*
X015666Y010880D01*
X015666Y010780D02*
X015786Y010780D01*
X015786Y010680D02*
X015666Y010680D01*
X015666Y010580D02*
X015786Y010580D01*
X015786Y010480D02*
X015666Y010480D01*
X015666Y010380D02*
X015786Y010380D01*
X015696Y010290D02*
X015696Y011170D01*
X015596Y011170D02*
X015596Y011132D01*
X015649Y011080D02*
X015786Y011080D01*
X015786Y010980D02*
X015666Y010980D01*
X015496Y011150D02*
X015496Y011170D01*
X015396Y011170D02*
X015396Y011150D01*
X015296Y011150D02*
X015296Y011170D01*
X015196Y011170D02*
X015196Y011150D01*
X015096Y011150D02*
X015096Y011170D01*
X014996Y011170D02*
X014996Y011150D01*
X014896Y011150D02*
X014896Y011170D01*
X014796Y011170D02*
X014796Y011132D01*
X014744Y011080D02*
X014461Y011080D01*
X014496Y011045D02*
X014496Y011170D01*
X014396Y011170D02*
X014396Y011145D01*
X014296Y011150D02*
X014296Y011170D01*
X014196Y011170D02*
X014196Y011150D01*
X014096Y011150D02*
X014096Y011170D01*
X013996Y011170D02*
X013996Y011145D01*
X013932Y011080D02*
X013461Y011080D01*
X013496Y011045D02*
X013496Y011170D01*
X013396Y011170D02*
X013396Y011145D01*
X013296Y011150D02*
X013296Y011170D01*
X013196Y011170D02*
X013196Y011150D01*
X013096Y011150D02*
X013096Y011170D01*
X012996Y011170D02*
X012996Y011145D01*
X012932Y011080D02*
X012461Y011080D01*
X012496Y011045D02*
X012496Y011170D01*
X012396Y011170D02*
X012396Y011145D01*
X012296Y011150D02*
X012296Y011170D01*
X012196Y011170D02*
X012196Y011150D01*
X012096Y011150D02*
X012096Y011170D01*
X011996Y011170D02*
X011996Y011145D01*
X011932Y011080D02*
X011461Y011080D01*
X011496Y011045D02*
X011496Y011170D01*
X011396Y011170D02*
X011396Y011145D01*
X011296Y011150D02*
X011296Y011170D01*
X011196Y011170D02*
X011196Y011150D01*
X011096Y011150D02*
X011096Y011170D01*
X010996Y011170D02*
X010996Y011145D01*
X010932Y011080D02*
X010461Y011080D01*
X010496Y011045D02*
X010496Y011170D01*
X010396Y011170D02*
X010396Y011145D01*
X010296Y011150D02*
X010296Y011170D01*
X010196Y011170D02*
X010196Y011150D01*
X010096Y011150D02*
X010096Y011170D01*
X009996Y011170D02*
X009996Y011145D01*
X009932Y011080D02*
X009461Y011080D01*
X009496Y011045D02*
X009496Y011170D01*
X009396Y011170D02*
X009396Y011145D01*
X009391Y011150D02*
X009002Y011150D01*
X008726Y010875D01*
X008726Y010485D01*
X009002Y010210D01*
X009391Y010210D01*
X009666Y010485D01*
X009666Y010875D01*
X009391Y011150D01*
X009296Y011150D02*
X009296Y011170D01*
X009196Y011170D02*
X009196Y011150D01*
X009096Y011150D02*
X009096Y011170D01*
X008996Y011170D02*
X008996Y011145D01*
X008932Y011080D02*
X008461Y011080D01*
X008496Y011045D02*
X008496Y011170D01*
X008396Y011170D02*
X008396Y011145D01*
X008391Y011150D02*
X008002Y011150D01*
X007726Y010875D01*
X007726Y010485D01*
X008002Y010210D01*
X008391Y010210D01*
X008666Y010485D01*
X008666Y010875D01*
X008391Y011150D01*
X008296Y011150D02*
X008296Y011170D01*
X008196Y011170D02*
X008196Y011150D01*
X008096Y011150D02*
X008096Y011170D01*
X007996Y011170D02*
X007996Y011145D01*
X007932Y011080D02*
X007461Y011080D01*
X007496Y011045D02*
X007496Y011170D01*
X007396Y011170D02*
X007396Y011145D01*
X007391Y011150D02*
X007002Y011150D01*
X006726Y010875D01*
X006726Y010485D01*
X007002Y010210D01*
X007391Y010210D01*
X007666Y010485D01*
X007666Y010875D01*
X007391Y011150D01*
X007296Y011150D02*
X007296Y011170D01*
X007196Y011170D02*
X007196Y011150D01*
X007096Y011150D02*
X007096Y011170D01*
X006996Y011170D02*
X006996Y011145D01*
X006932Y011080D02*
X006461Y011080D01*
X006496Y011045D02*
X006496Y011170D01*
X006396Y011170D02*
X006396Y011145D01*
X006391Y011150D02*
X006002Y011150D01*
X005726Y010875D01*
X005726Y010485D01*
X006002Y010210D01*
X006391Y010210D01*
X006666Y010485D01*
X006666Y010875D01*
X006391Y011150D01*
X006296Y011150D02*
X006296Y011170D01*
X006196Y011170D02*
X006196Y011150D01*
X006096Y011150D02*
X006096Y011170D01*
X005996Y011170D02*
X005996Y011145D01*
X005932Y011080D02*
X005461Y011080D01*
X005496Y011045D02*
X005496Y011170D01*
X005396Y011170D02*
X005396Y011145D01*
X005296Y011150D02*
X005296Y011170D01*
X005196Y011170D02*
X005196Y011150D01*
X005096Y011150D02*
X005096Y011170D01*
X004996Y011170D02*
X004996Y011145D01*
X004932Y011080D02*
X004419Y011080D01*
X004396Y011102D02*
X004396Y011170D01*
X004379Y011120D02*
X004246Y011120D01*
X004246Y010730D01*
X004636Y010730D01*
X004636Y010862D01*
X004379Y011120D01*
X004296Y011120D02*
X004296Y011170D01*
X004246Y011080D02*
X004146Y011080D01*
X004196Y011142D02*
X004196Y010730D01*
X004146Y010780D02*
X004246Y010780D01*
X004296Y010730D02*
X004296Y010630D01*
X004246Y010680D02*
X004726Y010680D01*
X004726Y010580D02*
X004636Y010580D01*
X004596Y010630D02*
X004596Y010730D01*
X004636Y010780D02*
X004726Y010780D01*
X004732Y010880D02*
X004619Y010880D01*
X004596Y010902D02*
X004596Y011170D01*
X004496Y011170D02*
X004496Y011002D01*
X004519Y010980D02*
X004832Y010980D01*
X004796Y010945D02*
X004796Y011170D01*
X004696Y011170D02*
X004696Y010251D01*
X004684Y010251D02*
X004653Y010243D01*
X004626Y010227D01*
X004604Y010205D01*
X004588Y010177D01*
X004580Y010147D01*
X004580Y009963D01*
X004848Y009963D01*
X004848Y010251D01*
X004684Y010251D01*
X004596Y010193D02*
X004596Y010458D01*
X004619Y010480D02*
X004732Y010480D01*
X004796Y010415D02*
X004796Y010251D01*
X004848Y010180D02*
X004945Y010180D01*
X004945Y010080D02*
X004848Y010080D01*
X004848Y009980D02*
X004945Y009980D01*
X004896Y009963D02*
X004896Y010315D01*
X004932Y010280D02*
X004419Y010280D01*
X004396Y010258D02*
X004396Y008984D01*
X004296Y008984D02*
X004296Y010240D01*
X004246Y010280D02*
X004146Y010280D01*
X004096Y010240D02*
X004096Y008984D01*
X003996Y008984D02*
X003996Y010258D01*
X003974Y010280D02*
X003891Y010280D01*
X003896Y010294D02*
X003896Y008984D01*
X003796Y008984D02*
X003796Y009199D01*
X003777Y009180D02*
X004550Y009180D01*
X004550Y009280D02*
X003852Y009280D01*
X003886Y009380D02*
X004550Y009380D01*
X004550Y009480D02*
X003525Y009480D01*
X003525Y009490D02*
X003894Y009490D01*
X003894Y009500D01*
X003879Y009577D01*
X003849Y009649D01*
X003805Y009714D01*
X003750Y009770D01*
X003685Y009813D01*
X003612Y009843D01*
X003536Y009859D01*
X003525Y009859D01*
X003525Y009490D01*
X003496Y009490D02*
X003496Y009842D01*
X003535Y009880D02*
X004848Y009880D01*
X004796Y009866D02*
X004796Y009963D01*
X004696Y009963D02*
X004696Y009866D01*
X004596Y009866D02*
X004596Y009963D01*
X004580Y009980D02*
X003635Y009980D01*
X003596Y009942D02*
X003596Y009846D01*
X003525Y009780D02*
X003468Y009780D01*
X003468Y009680D02*
X003525Y009680D01*
X003525Y009580D02*
X003468Y009580D01*
X003468Y009490D02*
X003145Y009490D01*
X003006Y009352D01*
X003006Y009030D01*
X003248Y009030D01*
X003254Y009036D01*
X003369Y009084D01*
X003308Y009109D01*
X003243Y009152D01*
X003188Y009208D01*
X003144Y009273D01*
X003114Y009345D01*
X003099Y009422D01*
X003099Y009432D01*
X003468Y009432D01*
X003468Y009490D01*
X003468Y009480D02*
X003135Y009480D01*
X003096Y009442D02*
X003096Y009030D01*
X003196Y009030D02*
X003196Y009199D01*
X003215Y009180D02*
X003006Y009180D01*
X003006Y009280D02*
X003141Y009280D01*
X003107Y009380D02*
X003035Y009380D01*
X003196Y009432D02*
X003196Y009490D01*
X003296Y009490D02*
X003296Y009432D01*
X003396Y009432D02*
X003396Y009490D01*
X003596Y009490D02*
X003596Y009432D01*
X003696Y009432D02*
X003696Y009490D01*
X003796Y009490D02*
X003796Y009432D01*
X003877Y009580D02*
X004606Y009580D01*
X004596Y009571D02*
X004596Y009637D01*
X004580Y009680D02*
X003828Y009680D01*
X003796Y009723D02*
X003796Y010142D01*
X003835Y010180D02*
X004589Y010180D01*
X004580Y010080D02*
X003735Y010080D01*
X003696Y010042D02*
X003696Y009806D01*
X003735Y009780D02*
X004580Y009780D01*
X004945Y009880D02*
X010099Y009880D01*
X010096Y009883D02*
X010096Y009470D01*
X010152Y009470D02*
X009846Y009470D01*
X009541Y009470D01*
X009510Y009462D01*
X009483Y009446D01*
X009460Y009424D01*
X009445Y009396D01*
X009436Y009366D01*
X009436Y009280D01*
X009436Y009194D01*
X009439Y009185D01*
X009436Y009280D02*
X009846Y009280D01*
X009846Y009280D01*
X009436Y009280D01*
X009496Y009280D02*
X009496Y009280D01*
X009596Y009280D02*
X009596Y009280D01*
X009696Y009280D02*
X009696Y009280D01*
X009796Y009280D02*
X009796Y009280D01*
X009846Y009280D02*
X009846Y009470D01*
X009846Y009280D01*
X009846Y009280D01*
X011376Y009280D01*
X011376Y009243D02*
X011354Y009220D01*
X010256Y009220D01*
X010256Y009280D02*
X010256Y009366D01*
X010248Y009396D01*
X010232Y009424D01*
X010210Y009446D01*
X010183Y009462D01*
X010152Y009470D01*
X010196Y009454D02*
X010196Y009783D01*
X010199Y009780D02*
X005213Y009780D01*
X005196Y009866D02*
X005196Y009963D01*
X005213Y009980D02*
X010062Y009980D01*
X009999Y010080D02*
X005213Y010080D01*
X005204Y010180D02*
X009975Y010180D01*
X009996Y010083D02*
X009996Y009470D01*
X009896Y009470D02*
X009896Y010315D01*
X009932Y010280D02*
X009461Y010280D01*
X009496Y010315D02*
X009496Y009454D01*
X009440Y009380D02*
X007986Y009380D01*
X007919Y009480D02*
X010296Y009480D01*
X010296Y009416D02*
X010384Y009328D01*
X011009Y009328D01*
X011074Y009393D01*
X011397Y009393D01*
X011376Y009344D01*
X011376Y009243D01*
X011296Y009220D02*
X011296Y009393D01*
X011392Y009380D02*
X011061Y009380D01*
X011096Y009393D02*
X011096Y009220D01*
X010996Y009220D02*
X010996Y009328D01*
X010896Y009328D02*
X010896Y009220D01*
X010796Y009220D02*
X010796Y009328D01*
X010696Y009328D02*
X010696Y009220D01*
X010596Y009220D02*
X010596Y009328D01*
X010496Y009328D02*
X010496Y009220D01*
X010396Y009220D02*
X010396Y009328D01*
X010332Y009380D02*
X010253Y009380D01*
X010256Y009280D02*
X009846Y009280D01*
X009846Y009280D01*
X009896Y009280D02*
X009896Y009280D01*
X009996Y009280D02*
X009996Y009280D01*
X010096Y009280D02*
X010096Y009280D01*
X010196Y009280D02*
X010196Y009280D01*
X009846Y009380D02*
X009846Y009380D01*
X009796Y009470D02*
X009796Y010415D01*
X009832Y010380D02*
X009561Y010380D01*
X009596Y010415D02*
X009596Y009470D01*
X009696Y009470D02*
X009696Y011170D01*
X009596Y011170D02*
X009596Y010945D01*
X009561Y010980D02*
X009832Y010980D01*
X009796Y010945D02*
X009796Y011170D01*
X009896Y011170D02*
X009896Y011045D01*
X009732Y010880D02*
X009661Y010880D01*
X009666Y010780D02*
X009726Y010780D01*
X009726Y010680D02*
X009666Y010680D01*
X009666Y010580D02*
X009726Y010580D01*
X009732Y010480D02*
X009661Y010480D01*
X009396Y010215D02*
X009396Y007785D01*
X009406Y007880D02*
X007986Y007880D01*
X007986Y007780D02*
X009185Y007780D01*
X009196Y007785D02*
X009196Y010210D01*
X009096Y010210D02*
X009096Y007733D01*
X008996Y007710D02*
X008996Y010215D01*
X008932Y010280D02*
X008461Y010280D01*
X008496Y010315D02*
X008496Y008392D01*
X008501Y008380D02*
X009406Y008380D01*
X009406Y008280D02*
X008516Y008280D01*
X008501Y008180D02*
X009406Y008180D01*
X009406Y008080D02*
X008449Y008080D01*
X008396Y008027D02*
X008396Y007710D01*
X008296Y007710D02*
X008296Y007975D01*
X008308Y007980D02*
X009406Y007980D01*
X009296Y007800D02*
X009296Y010210D01*
X008896Y010315D02*
X008896Y007710D01*
X008796Y007710D02*
X008796Y010415D01*
X008832Y010380D02*
X008561Y010380D01*
X008596Y010415D02*
X008596Y007710D01*
X008496Y007710D02*
X008496Y008168D01*
X008196Y007960D02*
X008196Y007710D01*
X008096Y007710D02*
X008096Y007975D01*
X008085Y007980D02*
X007986Y007980D01*
X007996Y008027D02*
X007996Y007710D01*
X007996Y007250D02*
X007996Y007197D01*
X008083Y007197D02*
X007899Y007197D01*
X007868Y007189D01*
X007841Y007173D01*
X007819Y007151D01*
X007818Y007149D01*
X007740Y007227D01*
X007692Y007227D01*
X007692Y007250D01*
X009074Y007250D01*
X009115Y007209D01*
X009233Y007160D01*
X009360Y007160D01*
X009478Y007209D01*
X009529Y007260D01*
X010199Y007260D01*
X010209Y007270D01*
X010296Y007270D01*
X010325Y007199D01*
X010415Y007109D01*
X010533Y007060D01*
X010660Y007060D01*
X010778Y007109D01*
X010868Y007199D01*
X010916Y007316D01*
X010916Y007367D01*
X010933Y007360D01*
X011060Y007360D01*
X011178Y007409D01*
X011181Y007412D01*
X011314Y007280D01*
X010901Y007280D01*
X010896Y007268D02*
X010896Y006380D01*
X010796Y006380D02*
X010796Y007127D01*
X010849Y007180D02*
X012886Y007180D01*
X012886Y007080D02*
X010708Y007080D01*
X010696Y007075D02*
X010696Y006380D01*
X010596Y006380D02*
X010596Y007060D01*
X010496Y007075D02*
X010496Y006380D01*
X010396Y006380D02*
X010396Y007127D01*
X010344Y007180D02*
X009408Y007180D01*
X009396Y007175D02*
X009396Y006885D01*
X009408Y006880D02*
X012886Y006880D01*
X012886Y006780D02*
X009549Y006780D01*
X009568Y006761D02*
X009478Y006851D01*
X009360Y006900D01*
X009233Y006900D01*
X009115Y006851D01*
X009025Y006761D01*
X008976Y006644D01*
X008976Y006516D01*
X009025Y006399D01*
X009044Y006380D01*
X008449Y006380D01*
X009044Y006380D01*
X008996Y006380D02*
X008996Y006468D01*
X008992Y006480D02*
X008308Y006480D01*
X008296Y006485D02*
X008296Y006563D01*
X008363Y006563D02*
X008394Y006571D01*
X008421Y006587D01*
X008444Y006609D01*
X008459Y006637D01*
X008468Y006667D01*
X008468Y006832D01*
X008180Y006832D01*
X008180Y006928D01*
X008468Y006928D01*
X008468Y007093D01*
X008459Y007123D01*
X008444Y007151D01*
X008421Y007173D01*
X008394Y007189D01*
X008363Y007197D01*
X008180Y007197D01*
X008180Y006928D01*
X008083Y006928D01*
X008083Y007197D01*
X008083Y007180D02*
X008180Y007180D01*
X008196Y007197D02*
X008196Y007250D01*
X008096Y007250D02*
X008096Y006928D01*
X008083Y006980D02*
X008180Y006980D01*
X008196Y006928D02*
X008196Y006832D01*
X008180Y006832D02*
X008180Y006563D01*
X008363Y006563D01*
X008396Y006573D02*
X008396Y006433D01*
X008378Y006451D02*
X008260Y006500D01*
X008133Y006500D01*
X008015Y006451D01*
X007925Y006361D01*
X007876Y006244D01*
X007876Y006116D01*
X007925Y005999D01*
X008015Y005909D01*
X008133Y005860D01*
X008260Y005860D01*
X008378Y005909D01*
X008449Y005980D01*
X008889Y005980D01*
X008888Y005977D01*
X008880Y005947D01*
X008880Y005763D01*
X009148Y005763D01*
X009148Y005666D01*
X008880Y005666D01*
X008880Y005482D01*
X008888Y005452D01*
X008904Y005424D01*
X008926Y005402D01*
X008927Y005401D01*
X008850Y005324D01*
X008850Y004767D01*
X008886Y004730D01*
X008850Y004693D01*
X008850Y004685D01*
X007272Y004685D01*
X007259Y004716D01*
X007139Y004836D01*
X007024Y004884D01*
X007085Y004909D01*
X007150Y004952D01*
X007205Y005008D01*
X007249Y005073D01*
X007279Y005145D01*
X007294Y005222D01*
X007294Y005232D01*
X006925Y005232D01*
X006925Y005290D01*
X006868Y005290D01*
X006868Y005659D01*
X006857Y005659D01*
X006781Y005643D01*
X006708Y005613D01*
X006643Y005570D01*
X006606Y005533D01*
X006606Y005893D01*
X006906Y006193D01*
X006906Y007093D01*
X007134Y007320D01*
X007194Y007260D01*
X007232Y007260D01*
X007232Y007227D01*
X007183Y007227D01*
X007095Y007139D01*
X007095Y006621D01*
X007183Y006533D01*
X007740Y006533D01*
X007818Y006611D01*
X007819Y006609D01*
X007841Y006587D01*
X007868Y006571D01*
X007899Y006563D01*
X008083Y006563D01*
X008083Y006832D01*
X008180Y006832D01*
X008180Y006880D02*
X009185Y006880D01*
X009196Y006885D02*
X009196Y007175D01*
X009185Y007180D02*
X008409Y007180D01*
X008396Y007187D02*
X008396Y007250D01*
X008296Y007250D02*
X008296Y007197D01*
X008180Y007080D02*
X008083Y007080D01*
X007896Y007196D02*
X007896Y007250D01*
X007853Y007180D02*
X007787Y007180D01*
X007796Y007171D02*
X007796Y007250D01*
X007696Y007250D02*
X007696Y007227D01*
X007196Y007227D02*
X007196Y007260D01*
X007174Y007280D02*
X007093Y007280D01*
X007096Y007283D02*
X007096Y007140D01*
X007136Y007180D02*
X006993Y007180D01*
X006996Y007183D02*
X006996Y005646D01*
X007012Y005643D02*
X006936Y005659D01*
X006925Y005659D01*
X006925Y005290D01*
X007294Y005290D01*
X007294Y005300D01*
X007279Y005377D01*
X007249Y005449D01*
X007205Y005514D01*
X007150Y005570D01*
X007085Y005613D01*
X007012Y005643D01*
X007096Y005606D02*
X007096Y006620D01*
X007136Y006580D02*
X006906Y006580D01*
X006906Y006680D02*
X007095Y006680D01*
X007095Y006780D02*
X006906Y006780D01*
X006906Y006880D02*
X007095Y006880D01*
X007095Y006980D02*
X006906Y006980D01*
X006906Y007080D02*
X007095Y007080D01*
X007787Y006580D02*
X007853Y006580D01*
X007896Y006564D02*
X007896Y006292D01*
X007892Y006280D02*
X006906Y006280D01*
X006896Y006183D02*
X006896Y005290D01*
X006925Y005280D02*
X008850Y005280D01*
X008850Y005180D02*
X007286Y005180D01*
X007196Y005232D02*
X007196Y005290D01*
X007096Y005290D02*
X007096Y005232D01*
X006996Y005232D02*
X006996Y005290D01*
X006925Y005380D02*
X006868Y005380D01*
X006868Y005480D02*
X006925Y005480D01*
X006925Y005580D02*
X006868Y005580D01*
X006796Y005646D02*
X006796Y006083D01*
X006793Y006080D02*
X007892Y006080D01*
X007896Y006068D02*
X007896Y004685D01*
X007796Y004685D02*
X007796Y006589D01*
X007696Y006533D02*
X007696Y004685D01*
X007596Y004685D02*
X007596Y006533D01*
X007496Y006533D02*
X007496Y004685D01*
X007396Y004685D02*
X007396Y006533D01*
X007296Y006533D02*
X007296Y004685D01*
X007196Y004778D02*
X007196Y004999D01*
X007177Y004980D02*
X008850Y004980D01*
X008850Y004880D02*
X007033Y004880D01*
X007096Y004854D02*
X007096Y004917D01*
X007195Y004780D02*
X008850Y004780D01*
X008796Y004685D02*
X008796Y005980D01*
X008696Y005980D02*
X008696Y004685D01*
X008596Y004685D02*
X008596Y005980D01*
X008496Y005980D02*
X008496Y004685D01*
X008396Y004685D02*
X008396Y005927D01*
X008308Y005880D02*
X008880Y005880D01*
X008880Y005780D02*
X006606Y005780D01*
X006606Y005680D02*
X009148Y005680D01*
X009096Y005666D02*
X009096Y005763D01*
X008996Y005763D02*
X008996Y005666D01*
X008896Y005666D02*
X008896Y005763D01*
X008880Y005580D02*
X007135Y005580D01*
X007196Y005523D02*
X007196Y006533D01*
X006906Y006480D02*
X008085Y006480D01*
X008096Y006485D02*
X008096Y006832D01*
X008083Y006780D02*
X008180Y006780D01*
X008180Y006680D02*
X008083Y006680D01*
X008083Y006580D02*
X008180Y006580D01*
X008196Y006563D02*
X008196Y006500D01*
X008378Y006451D02*
X008449Y006380D01*
X008496Y006380D02*
X008496Y007250D01*
X008596Y007250D02*
X008596Y006380D01*
X008696Y006380D02*
X008696Y007250D01*
X008796Y007250D02*
X008796Y006380D01*
X008896Y006380D02*
X008896Y007250D01*
X008996Y007250D02*
X008996Y006692D01*
X008992Y006680D02*
X008468Y006680D01*
X008468Y006780D02*
X009044Y006780D01*
X009096Y006833D02*
X009096Y007227D01*
X009296Y007160D02*
X009296Y006900D01*
X009496Y006833D02*
X009496Y007227D01*
X009596Y007260D02*
X009596Y006692D01*
X009601Y006680D02*
X012886Y006680D01*
X012886Y006580D02*
X009616Y006580D01*
X009616Y006644D02*
X009568Y006761D01*
X009616Y006644D02*
X009616Y006516D01*
X009568Y006399D01*
X009549Y006380D01*
X011279Y006380D01*
X011379Y006280D01*
X012852Y006280D01*
X012852Y006258D02*
X012886Y006224D01*
X012886Y006050D01*
X012855Y006081D01*
X012337Y006081D01*
X012250Y005993D01*
X012250Y005925D01*
X012096Y005925D01*
X012096Y005944D01*
X012009Y006032D01*
X011496Y006032D01*
X011496Y006163D01*
X011379Y006280D01*
X011396Y006263D02*
X011396Y007280D01*
X011314Y007280D02*
X012179Y007280D01*
X012886Y007280D01*
X012886Y007380D02*
X012279Y007380D01*
X012296Y007397D02*
X012396Y007497D01*
X012396Y007609D01*
X012548Y007609D01*
X012548Y007897D01*
X012645Y007897D01*
X012645Y007609D01*
X012809Y007609D01*
X012840Y007617D01*
X012867Y007633D01*
X012886Y007652D01*
X012886Y006467D01*
X012852Y006432D01*
X012852Y006258D01*
X012886Y006180D02*
X011479Y006180D01*
X011496Y006080D02*
X012336Y006080D01*
X012296Y006040D02*
X012296Y007397D01*
X012179Y007280D01*
X012196Y007297D02*
X012196Y005925D01*
X012250Y005980D02*
X012061Y005980D01*
X012096Y005925D02*
X012096Y007280D01*
X011996Y007280D02*
X011996Y006032D01*
X011896Y006032D02*
X011896Y007280D01*
X011796Y007280D02*
X011796Y006032D01*
X011696Y006032D02*
X011696Y007280D01*
X011596Y007280D02*
X011596Y006032D01*
X011496Y006032D02*
X011496Y007280D01*
X011296Y007297D02*
X011296Y006363D01*
X011196Y006380D02*
X011196Y007397D01*
X011214Y007380D02*
X011108Y007380D01*
X011096Y007375D02*
X011096Y006380D01*
X010996Y006380D02*
X010996Y007360D01*
X011296Y007580D02*
X011396Y007480D01*
X012096Y007480D01*
X012196Y007580D01*
X012196Y008280D01*
X011996Y008168D02*
X011996Y007892D01*
X011968Y007961D01*
X011899Y008030D01*
X011968Y008099D01*
X011996Y008168D01*
X011996Y008080D02*
X011949Y008080D01*
X011949Y007980D02*
X011996Y007980D01*
X011696Y007780D02*
X011226Y008250D01*
X009846Y008250D01*
X009846Y008000D02*
X011176Y008000D01*
X011296Y007880D01*
X011296Y007580D01*
X010485Y007080D02*
X008468Y007080D01*
X008468Y006980D02*
X012886Y006980D01*
X013306Y006980D02*
X013406Y006980D01*
X013396Y006989D02*
X013396Y006923D01*
X013380Y006880D02*
X013306Y006880D01*
X013306Y006780D02*
X013380Y006780D01*
X013396Y006694D02*
X013396Y006597D01*
X013380Y006580D02*
X013306Y006580D01*
X013306Y006680D02*
X013648Y006680D01*
X013596Y006694D02*
X013596Y006597D01*
X013648Y006580D02*
X013745Y006580D01*
X013745Y006597D02*
X013745Y006309D01*
X013909Y006309D01*
X013940Y006317D01*
X013967Y006333D01*
X013989Y006355D01*
X014005Y006383D01*
X014013Y006413D01*
X014013Y006597D01*
X013745Y006597D01*
X013696Y006597D02*
X013696Y006081D01*
X013596Y006081D02*
X013596Y006309D01*
X013648Y006380D02*
X013745Y006380D01*
X013796Y006309D02*
X013796Y006081D01*
X013896Y006081D02*
X013896Y006309D01*
X013996Y006367D02*
X013996Y006040D01*
X013957Y006080D02*
X015786Y006080D01*
X015786Y006180D02*
X013306Y006180D01*
X013306Y006080D02*
X013436Y006080D01*
X013396Y006040D02*
X013396Y006367D01*
X013389Y006380D02*
X013306Y006380D01*
X013306Y006280D02*
X015786Y006280D01*
X015786Y006380D02*
X014004Y006380D01*
X014013Y006480D02*
X015786Y006480D01*
X015786Y006580D02*
X014013Y006580D01*
X013996Y006597D02*
X013996Y006694D01*
X014013Y006780D02*
X014958Y006780D01*
X014943Y006790D02*
X015008Y006747D01*
X015081Y006717D01*
X015157Y006701D01*
X015168Y006701D01*
X015168Y007070D01*
X014799Y007070D01*
X014799Y007060D01*
X014814Y006983D01*
X014844Y006911D01*
X014888Y006846D01*
X014943Y006790D01*
X014996Y006754D02*
X014996Y005895D01*
X014896Y005895D02*
X014896Y006837D01*
X014865Y006880D02*
X014013Y006880D01*
X013996Y006923D02*
X013996Y006989D01*
X013987Y006980D02*
X014815Y006980D01*
X014896Y007070D02*
X014896Y007128D01*
X014996Y007128D02*
X014996Y007070D01*
X015096Y007070D02*
X015096Y007128D01*
X015168Y007080D02*
X014043Y007080D01*
X014043Y007180D02*
X014807Y007180D01*
X014841Y007280D02*
X014052Y007280D01*
X014066Y007380D02*
X014915Y007380D01*
X014896Y007361D02*
X014896Y007576D01*
X014796Y007576D02*
X014796Y005895D01*
X014696Y005895D02*
X014696Y007576D01*
X014596Y007576D02*
X014596Y005895D01*
X014496Y005895D02*
X014496Y007576D01*
X014396Y007576D02*
X014396Y005895D01*
X014296Y005895D02*
X014296Y007576D01*
X014196Y007576D02*
X014196Y005895D01*
X014096Y005895D02*
X014096Y007576D01*
X014066Y007480D02*
X015060Y007480D01*
X014996Y007506D02*
X014996Y007443D01*
X015333Y007480D02*
X015786Y007480D01*
X015786Y007380D02*
X015477Y007380D01*
X015496Y007361D02*
X015496Y007576D01*
X015596Y007576D02*
X015596Y005895D01*
X015496Y005895D02*
X015496Y006837D01*
X015528Y006880D02*
X015786Y006880D01*
X015786Y006980D02*
X015577Y006980D01*
X015496Y007070D02*
X015496Y007128D01*
X015396Y007128D02*
X015396Y007070D01*
X015296Y007070D02*
X015296Y007128D01*
X015225Y007080D02*
X015786Y007080D01*
X015786Y007180D02*
X015586Y007180D01*
X015552Y007280D02*
X015786Y007280D01*
X015396Y007443D02*
X015396Y007506D01*
X015696Y007576D02*
X015696Y005895D01*
X015786Y005980D02*
X014043Y005980D01*
X013496Y006081D02*
X013496Y006309D01*
X013380Y006480D02*
X013306Y006480D01*
X013496Y006597D02*
X013496Y006694D01*
X013745Y006680D02*
X015786Y006680D01*
X015786Y006780D02*
X015435Y006780D01*
X015396Y006754D02*
X015396Y005895D01*
X015296Y005895D02*
X015296Y006714D01*
X015225Y006780D02*
X015168Y006780D01*
X015096Y006714D02*
X015096Y005895D01*
X015196Y005895D02*
X015196Y007070D01*
X015168Y006980D02*
X015225Y006980D01*
X015225Y006880D02*
X015168Y006880D01*
X013896Y006694D02*
X013896Y006597D01*
X013796Y006597D02*
X013796Y006694D01*
X013745Y006480D02*
X013648Y006480D01*
X013350Y005980D02*
X013306Y005980D01*
X013306Y005880D02*
X013350Y005880D01*
X013350Y005780D02*
X013306Y005780D01*
X013306Y005680D02*
X013350Y005680D01*
X013350Y005580D02*
X013306Y005580D01*
X013306Y005480D02*
X013350Y005480D01*
X013396Y005389D02*
X013396Y005371D01*
X013406Y005380D02*
X013306Y005380D01*
X013306Y005280D02*
X013350Y005280D01*
X013350Y005180D02*
X013306Y005180D01*
X013306Y005080D02*
X013350Y005080D01*
X013350Y004980D02*
X013306Y004980D01*
X013306Y004880D02*
X013350Y004880D01*
X013350Y004780D02*
X013306Y004780D01*
X013306Y004680D02*
X013350Y004680D01*
X013350Y004580D02*
X013306Y004580D01*
X013306Y004480D02*
X013350Y004480D01*
X013350Y004380D02*
X013306Y004380D01*
X013306Y004280D02*
X013350Y004280D01*
X013350Y004180D02*
X013306Y004180D01*
X013396Y004089D02*
X013396Y004071D01*
X013406Y004080D02*
X013350Y004024D01*
X013350Y003980D02*
X013306Y003980D01*
X013306Y003880D02*
X013350Y003880D01*
X013350Y003780D02*
X013306Y003780D01*
X013306Y003680D02*
X013350Y003680D01*
X013350Y003580D02*
X013306Y003580D01*
X013306Y003480D02*
X013350Y003480D01*
X013350Y003380D02*
X013306Y003380D01*
X013306Y003280D02*
X013350Y003280D01*
X013350Y003180D02*
X013306Y003180D01*
X013306Y003080D02*
X013350Y003080D01*
X013350Y002980D02*
X013306Y002980D01*
X013306Y002880D02*
X013350Y002880D01*
X013396Y002789D02*
X013396Y002723D01*
X013380Y002680D02*
X013306Y002680D01*
X013306Y002580D02*
X013380Y002580D01*
X013396Y002494D02*
X013396Y002397D01*
X013380Y002380D02*
X013293Y002380D01*
X013296Y002383D02*
X013296Y002150D01*
X013389Y002180D02*
X013093Y002180D01*
X013096Y002183D02*
X013096Y002150D01*
X012996Y002145D02*
X012996Y002170D01*
X012932Y002080D02*
X012857Y002080D01*
X012896Y002045D02*
X012896Y002120D01*
X012796Y002079D02*
X012796Y001945D01*
X012832Y001980D02*
X012561Y001980D01*
X012596Y001945D02*
X012596Y002079D01*
X012496Y002079D02*
X012496Y002045D01*
X012696Y002079D02*
X012696Y000360D01*
X012596Y000360D02*
X012596Y001415D01*
X012561Y001380D02*
X012832Y001380D01*
X012796Y001415D02*
X012796Y000360D01*
X012896Y000360D02*
X012896Y001315D01*
X012732Y001480D02*
X012661Y001480D01*
X012666Y001580D02*
X012726Y001580D01*
X012726Y001680D02*
X012666Y001680D01*
X012666Y001780D02*
X012726Y001780D01*
X012732Y001880D02*
X012661Y001880D01*
X012250Y002180D02*
X009543Y002180D01*
X009496Y002120D02*
X009496Y002045D01*
X009461Y002080D02*
X009932Y002080D01*
X009896Y002045D02*
X009896Y005980D01*
X009796Y005980D02*
X009796Y004477D01*
X009793Y004480D02*
X010692Y004480D01*
X010696Y004492D02*
X010696Y005980D01*
X010596Y005980D02*
X010596Y001945D01*
X010561Y001980D02*
X010832Y001980D01*
X010796Y001945D02*
X010796Y003027D01*
X010744Y003080D02*
X009793Y003080D01*
X009796Y003083D02*
X009796Y001945D01*
X009832Y001980D02*
X009561Y001980D01*
X009596Y001945D02*
X009596Y002883D01*
X009593Y002880D02*
X011326Y002880D01*
X011296Y002947D02*
X011296Y002150D01*
X011196Y002150D02*
X011196Y002947D01*
X011096Y002947D02*
X011096Y002150D01*
X010996Y002145D02*
X010996Y002960D01*
X010896Y002975D02*
X010896Y002045D01*
X010932Y002080D02*
X010461Y002080D01*
X010496Y002045D02*
X010496Y005980D01*
X010396Y005980D02*
X010396Y002145D01*
X010296Y002150D02*
X010296Y005980D01*
X010196Y005980D02*
X010196Y002150D01*
X010096Y002150D02*
X010096Y005980D01*
X009996Y005980D02*
X009996Y002145D01*
X009732Y001880D02*
X009661Y001880D01*
X009666Y001780D02*
X009726Y001780D01*
X009726Y001680D02*
X009666Y001680D01*
X009666Y001580D02*
X009726Y001580D01*
X009732Y001480D02*
X009661Y001480D01*
X009596Y001415D02*
X009596Y000360D01*
X009696Y000360D02*
X009696Y002983D01*
X009693Y002980D02*
X010885Y002980D01*
X010696Y003168D02*
X010696Y000360D01*
X010596Y000360D02*
X010596Y001415D01*
X010561Y001380D02*
X010832Y001380D01*
X010796Y001415D02*
X010796Y000360D01*
X010896Y000360D02*
X010896Y001315D01*
X010732Y001480D02*
X010661Y001480D01*
X010666Y001580D02*
X010726Y001580D01*
X010726Y001680D02*
X010666Y001680D01*
X010666Y001780D02*
X010726Y001780D01*
X010732Y001880D02*
X010661Y001880D01*
X011396Y002145D02*
X011396Y002568D01*
X011400Y002566D02*
X011431Y002558D01*
X011684Y002558D01*
X011684Y002790D01*
X011326Y002790D01*
X011326Y002662D01*
X011335Y002632D01*
X011350Y002604D01*
X011373Y002582D01*
X011400Y002566D01*
X011376Y002580D02*
X009543Y002580D01*
X009543Y002480D02*
X012250Y002480D01*
X012250Y002580D02*
X012017Y002580D01*
X011996Y002568D02*
X011996Y002145D01*
X011932Y002080D02*
X011461Y002080D01*
X011496Y002045D02*
X011496Y002558D01*
X011596Y002558D02*
X011596Y001945D01*
X011561Y001980D02*
X011832Y001980D01*
X011796Y001945D02*
X011796Y002558D01*
X011709Y002580D02*
X011684Y002580D01*
X011684Y002680D02*
X011709Y002680D01*
X011709Y002780D02*
X011684Y002780D01*
X011696Y002790D02*
X011696Y000360D01*
X011596Y000360D02*
X011596Y001415D01*
X011561Y001380D02*
X011832Y001380D01*
X011796Y001415D02*
X011796Y000360D01*
X011896Y000360D02*
X011896Y001315D01*
X011732Y001480D02*
X011661Y001480D01*
X011666Y001580D02*
X011726Y001580D01*
X011726Y001680D02*
X011666Y001680D01*
X011666Y001780D02*
X011726Y001780D01*
X011732Y001880D02*
X011661Y001880D01*
X011896Y002045D02*
X011896Y002558D01*
X012066Y002680D02*
X012250Y002680D01*
X012296Y002771D02*
X012296Y002789D01*
X012306Y002780D02*
X012066Y002780D01*
X011996Y002790D02*
X011996Y002815D01*
X012066Y002880D02*
X012250Y002880D01*
X012196Y002905D02*
X012196Y002150D01*
X012096Y002150D02*
X012096Y002905D01*
X011896Y002815D02*
X011896Y002790D01*
X011796Y002790D02*
X011796Y002815D01*
X011596Y002815D02*
X011596Y002790D01*
X011496Y002790D02*
X011496Y002815D01*
X011396Y002815D02*
X011396Y002790D01*
X011326Y002780D02*
X009487Y002780D01*
X009496Y002771D02*
X009496Y002789D01*
X009543Y002680D02*
X011326Y002680D01*
X010692Y003180D02*
X009806Y003180D01*
X009806Y003280D02*
X010676Y003280D01*
X010692Y003380D02*
X009806Y003380D01*
X009806Y003480D02*
X010744Y003480D01*
X010796Y003533D02*
X010796Y004127D01*
X010744Y004180D02*
X009806Y004180D01*
X009806Y004080D02*
X010885Y004080D01*
X010896Y004075D02*
X010896Y003585D01*
X010885Y003580D02*
X009806Y003580D01*
X009806Y003680D02*
X012250Y003680D01*
X012250Y003580D02*
X011108Y003580D01*
X011096Y003585D02*
X011096Y004075D01*
X011108Y004080D02*
X011326Y004080D01*
X011326Y004090D02*
X011326Y003962D01*
X011335Y003932D01*
X011350Y003904D01*
X011373Y003882D01*
X011400Y003866D01*
X011431Y003858D01*
X011684Y003858D01*
X011684Y004090D01*
X011326Y004090D01*
X011396Y004090D02*
X011396Y004115D01*
X011326Y004180D02*
X011249Y004180D01*
X011196Y004127D02*
X011196Y003533D01*
X011249Y003480D02*
X012250Y003480D01*
X012250Y003467D02*
X012286Y003430D01*
X012250Y003393D01*
X012250Y003325D01*
X012250Y003380D02*
X012061Y003380D01*
X012096Y003325D02*
X012096Y004205D01*
X011896Y004115D02*
X011896Y004090D01*
X011796Y004090D02*
X011796Y004115D01*
X011709Y004080D02*
X011684Y004080D01*
X011696Y004090D02*
X011696Y003432D01*
X011596Y003432D02*
X011596Y003858D01*
X011684Y003880D02*
X011709Y003880D01*
X011796Y003858D02*
X011796Y003432D01*
X011896Y003432D02*
X011896Y003858D01*
X011996Y003868D02*
X011996Y003432D01*
X012250Y003467D02*
X012250Y004024D01*
X012306Y004080D01*
X012296Y004071D02*
X012296Y004089D01*
X012250Y003980D02*
X012066Y003980D01*
X012017Y003880D02*
X012250Y003880D01*
X012250Y003780D02*
X009806Y003780D01*
X009806Y003880D02*
X011376Y003880D01*
X011396Y003868D02*
X011396Y003432D01*
X011332Y003380D02*
X011301Y003380D01*
X011296Y003392D02*
X011296Y004247D01*
X011496Y004115D02*
X011496Y004090D01*
X011596Y004090D02*
X011596Y004115D01*
X011684Y003980D02*
X011709Y003980D01*
X011496Y003858D02*
X011496Y003432D01*
X010996Y003600D02*
X010996Y004060D01*
X011326Y003980D02*
X009806Y003980D01*
X009806Y004280D02*
X010692Y004280D01*
X010696Y004268D02*
X010696Y003392D01*
X010676Y004380D02*
X009806Y004380D01*
X009696Y004577D02*
X009696Y005980D01*
X009596Y005980D02*
X009596Y004625D01*
X009543Y004680D02*
X010885Y004680D01*
X010896Y004685D02*
X010896Y005980D01*
X010796Y005980D02*
X010796Y004633D01*
X010744Y004580D02*
X009693Y004580D01*
X009543Y004780D02*
X012250Y004780D01*
X012250Y004767D02*
X012286Y004730D01*
X012250Y004693D01*
X012250Y004625D01*
X012096Y004625D01*
X012096Y004644D01*
X012009Y004732D01*
X011384Y004732D01*
X011319Y004667D01*
X011296Y004667D02*
X011296Y005560D01*
X011309Y005547D02*
X011319Y005547D01*
X011326Y005540D01*
X011326Y005415D01*
X011684Y005415D01*
X011684Y005390D01*
X011709Y005390D01*
X011709Y005158D01*
X011962Y005158D01*
X011993Y005166D01*
X012020Y005182D01*
X012042Y005204D01*
X012058Y005232D01*
X012066Y005262D01*
X012066Y005390D01*
X011709Y005390D01*
X011709Y005415D01*
X012066Y005415D01*
X012066Y005505D01*
X012250Y005505D01*
X012250Y005436D01*
X012306Y005380D01*
X012066Y005380D01*
X011996Y005390D02*
X011996Y005415D01*
X012066Y005480D02*
X012250Y005480D01*
X012196Y005505D02*
X012196Y004625D01*
X012250Y004680D02*
X012061Y004680D01*
X012096Y004625D02*
X012096Y005505D01*
X011896Y005415D02*
X011896Y005390D01*
X011796Y005390D02*
X011796Y005415D01*
X011709Y005380D02*
X011684Y005380D01*
X011684Y005390D02*
X011684Y005158D01*
X011431Y005158D01*
X011400Y005166D01*
X011373Y005182D01*
X011350Y005204D01*
X011335Y005232D01*
X011326Y005262D01*
X011326Y005390D01*
X011684Y005390D01*
X011696Y005390D02*
X011696Y004732D01*
X011596Y004732D02*
X011596Y005158D01*
X011684Y005180D02*
X011709Y005180D01*
X011796Y005158D02*
X011796Y004732D01*
X011896Y004732D02*
X011896Y005158D01*
X011996Y005168D02*
X011996Y004732D01*
X012250Y004767D02*
X012250Y005324D01*
X012306Y005380D01*
X012296Y005371D02*
X012296Y005389D01*
X012250Y005280D02*
X012066Y005280D01*
X012017Y005180D02*
X012250Y005180D01*
X012250Y005080D02*
X009543Y005080D01*
X009543Y005180D02*
X011376Y005180D01*
X011396Y005168D02*
X011396Y004732D01*
X011496Y004732D02*
X011496Y005158D01*
X011326Y005280D02*
X009543Y005280D01*
X009496Y005371D02*
X009496Y005437D01*
X009513Y005480D02*
X011326Y005480D01*
X011309Y005547D02*
X011186Y005670D01*
X011186Y005684D01*
X011096Y005774D01*
X011096Y005780D02*
X009513Y005780D01*
X009496Y005763D02*
X009496Y005666D01*
X009513Y005580D02*
X011277Y005580D01*
X011196Y005660D02*
X011196Y004667D01*
X010996Y004700D02*
X010996Y005980D01*
X011096Y005880D02*
X009513Y005880D01*
X009396Y005763D02*
X009396Y005666D01*
X009296Y005666D02*
X009296Y005763D01*
X009245Y005680D02*
X011186Y005680D01*
X011296Y005857D02*
X011396Y005757D01*
X011296Y005857D02*
X011296Y006080D01*
X011196Y006180D01*
X008196Y006180D01*
X007876Y006180D02*
X006893Y006180D01*
X006696Y005983D02*
X006696Y005606D01*
X006658Y005580D02*
X006606Y005580D01*
X006606Y005880D02*
X008085Y005880D01*
X008096Y005875D02*
X008096Y004685D01*
X007996Y004685D02*
X007996Y005927D01*
X007944Y005980D02*
X006693Y005980D01*
X006906Y006380D02*
X007944Y006380D01*
X007996Y006433D02*
X007996Y006563D01*
X008296Y006832D02*
X008296Y006928D01*
X008396Y006928D02*
X008396Y006832D01*
X008409Y006580D02*
X008976Y006580D01*
X009549Y006380D02*
X012852Y006380D01*
X012886Y006480D02*
X009601Y006480D01*
X009596Y006468D02*
X009596Y006380D01*
X009696Y006380D02*
X009696Y007260D01*
X009796Y007260D02*
X009796Y006380D01*
X009896Y006380D02*
X009896Y007260D01*
X009996Y007260D02*
X009996Y006380D01*
X010096Y006380D02*
X010096Y007260D01*
X010196Y007260D02*
X010196Y006380D01*
X010296Y006380D02*
X010296Y007268D01*
X011466Y008510D02*
X011696Y008280D01*
X011986Y008416D02*
X011968Y008461D01*
X011899Y008530D01*
X011968Y008599D01*
X011986Y008644D01*
X011986Y008416D01*
X011986Y008480D02*
X011949Y008480D01*
X011949Y008580D02*
X011986Y008580D01*
X011696Y008780D02*
X011676Y008760D01*
X009846Y008760D01*
X009846Y008510D02*
X011466Y008510D01*
X011436Y009020D02*
X011696Y009280D01*
X011949Y009080D02*
X011986Y009080D01*
X011968Y009099D02*
X011986Y009144D01*
X011986Y008916D01*
X011968Y008961D01*
X011899Y009030D01*
X011968Y009099D01*
X011949Y008980D02*
X011986Y008980D01*
X011436Y009020D02*
X009846Y009020D01*
X009406Y008980D02*
X007986Y008980D01*
X007986Y008880D02*
X009406Y008880D01*
X009406Y008780D02*
X007986Y008780D01*
X007986Y008680D02*
X009406Y008680D01*
X009406Y008580D02*
X008308Y008580D01*
X008296Y008585D02*
X008296Y010210D01*
X008196Y010210D02*
X008196Y008600D01*
X008096Y008585D02*
X008096Y010210D01*
X007996Y010215D02*
X007996Y008533D01*
X007986Y008580D02*
X008085Y008580D01*
X008396Y008533D02*
X008396Y010215D01*
X008661Y010480D02*
X008732Y010480D01*
X008726Y010580D02*
X008666Y010580D01*
X008666Y010680D02*
X008726Y010680D01*
X008726Y010780D02*
X008666Y010780D01*
X008661Y010880D02*
X008732Y010880D01*
X008796Y010945D02*
X008796Y011170D01*
X008696Y011170D02*
X008696Y007710D01*
X008449Y008480D02*
X009406Y008480D01*
X009406Y009080D02*
X007986Y009080D01*
X007896Y009500D02*
X007896Y010315D01*
X007932Y010280D02*
X007461Y010280D01*
X007496Y010315D02*
X007496Y009500D01*
X007396Y009500D02*
X007396Y010215D01*
X007296Y010210D02*
X007296Y009500D01*
X007196Y009500D02*
X007196Y010210D01*
X007096Y010210D02*
X007096Y009490D01*
X006996Y009490D02*
X006996Y010215D01*
X006932Y010280D02*
X006461Y010280D01*
X006496Y010315D02*
X006496Y009490D01*
X006396Y009490D02*
X006396Y010215D01*
X006296Y010210D02*
X006296Y009490D01*
X006196Y009490D02*
X006196Y010210D01*
X006096Y010210D02*
X006096Y009490D01*
X005996Y009490D02*
X005996Y010215D01*
X005932Y010280D02*
X005461Y010280D01*
X005496Y010315D02*
X005496Y009377D01*
X005499Y009380D02*
X005243Y009380D01*
X005243Y009280D02*
X005399Y009280D01*
X005396Y009277D02*
X005396Y010215D01*
X005296Y010210D02*
X005296Y009177D01*
X005299Y009180D02*
X005243Y009180D01*
X005243Y009080D02*
X005286Y009080D01*
X005286Y008980D02*
X005243Y008980D01*
X005243Y008880D02*
X005286Y008880D01*
X005286Y008780D02*
X005243Y008780D01*
X005243Y008680D02*
X005286Y008680D01*
X005286Y008580D02*
X005243Y008580D01*
X005243Y008480D02*
X005286Y008480D01*
X005286Y008380D02*
X005243Y008380D01*
X005196Y008289D02*
X005196Y008271D01*
X005187Y008280D02*
X005286Y008280D01*
X005286Y008180D02*
X005243Y008180D01*
X005243Y007735D02*
X005355Y007735D01*
X005286Y007667D01*
X005286Y006967D01*
X005243Y006924D01*
X005187Y006980D01*
X005243Y007036D01*
X005243Y007593D01*
X005207Y007630D01*
X005243Y007667D01*
X005243Y007735D01*
X005296Y007735D02*
X005296Y007677D01*
X005299Y007680D02*
X005243Y007680D01*
X005243Y007580D02*
X005286Y007580D01*
X005286Y007480D02*
X005243Y007480D01*
X005243Y007380D02*
X005286Y007380D01*
X005286Y007280D02*
X005243Y007280D01*
X005243Y007180D02*
X005286Y007180D01*
X005286Y007080D02*
X005243Y007080D01*
X005196Y006989D02*
X005196Y006971D01*
X005187Y006980D02*
X005286Y006980D01*
X005243Y006924D02*
X005243Y006924D01*
X005243Y006470D02*
X005289Y006470D01*
X005286Y006467D01*
X005286Y003990D01*
X005243Y003990D01*
X005243Y004024D01*
X005187Y004080D01*
X005243Y004136D01*
X005243Y004693D01*
X005207Y004730D01*
X005243Y004767D01*
X005243Y005324D01*
X005166Y005401D01*
X005167Y005402D01*
X005189Y005424D01*
X005205Y005452D01*
X005213Y005482D01*
X005213Y005666D01*
X004945Y005666D01*
X004945Y005763D01*
X005213Y005763D01*
X005213Y005947D01*
X005205Y005977D01*
X005189Y006005D01*
X005167Y006027D01*
X005140Y006043D01*
X005109Y006051D01*
X004945Y006051D01*
X004945Y005763D01*
X004848Y005763D01*
X004848Y005666D01*
X004580Y005666D01*
X004580Y005482D01*
X004588Y005452D01*
X004604Y005424D01*
X004626Y005402D01*
X004627Y005401D01*
X004550Y005324D01*
X004550Y004767D01*
X004573Y004744D01*
X004279Y004744D01*
X004278Y004745D01*
X004160Y004794D01*
X004033Y004794D01*
X003915Y004745D01*
X003867Y004697D01*
X003859Y004716D01*
X003739Y004836D01*
X003624Y004884D01*
X003685Y004909D01*
X003750Y004952D01*
X003805Y005008D01*
X003849Y005073D01*
X003879Y005145D01*
X003894Y005222D01*
X003894Y005232D01*
X003525Y005232D01*
X003525Y005290D01*
X003468Y005290D01*
X003468Y005659D01*
X003457Y005659D01*
X003381Y005643D01*
X003308Y005613D01*
X003243Y005570D01*
X003188Y005514D01*
X003144Y005449D01*
X003114Y005377D01*
X003099Y005300D01*
X003099Y005290D01*
X003468Y005290D01*
X003468Y005232D01*
X003099Y005232D01*
X003099Y005222D01*
X003114Y005145D01*
X003144Y005073D01*
X003188Y005008D01*
X003243Y004952D01*
X003308Y004909D01*
X003369Y004884D01*
X003254Y004836D01*
X003208Y004790D01*
X003006Y004790D01*
X003006Y008410D01*
X003156Y008410D01*
X003254Y008311D01*
X003330Y008280D01*
X003254Y008249D01*
X003134Y008128D01*
X003069Y007971D01*
X003069Y007801D01*
X003134Y007644D01*
X003252Y007526D01*
X003157Y007526D01*
X003069Y007439D01*
X003069Y006759D01*
X003157Y006671D01*
X003286Y006671D01*
X003286Y006593D01*
X003386Y006493D01*
X003509Y006370D01*
X004550Y006370D01*
X004550Y006367D01*
X004637Y006279D01*
X005155Y006279D01*
X005243Y006367D01*
X005243Y006470D01*
X005243Y006380D02*
X005286Y006380D01*
X005286Y006280D02*
X005157Y006280D01*
X005196Y006320D02*
X005196Y005993D01*
X005204Y005980D02*
X005286Y005980D01*
X005286Y005880D02*
X005213Y005880D01*
X005213Y005780D02*
X005286Y005780D01*
X005196Y005763D02*
X005196Y005666D01*
X005213Y005580D02*
X005286Y005580D01*
X005286Y005680D02*
X004945Y005680D01*
X004996Y005666D02*
X004996Y005763D01*
X004945Y005780D02*
X004848Y005780D01*
X004848Y005763D02*
X004848Y006051D01*
X004684Y006051D01*
X004653Y006043D01*
X004626Y006027D01*
X004604Y006005D01*
X004588Y005977D01*
X004580Y005947D01*
X004580Y005763D01*
X004848Y005763D01*
X004896Y005763D02*
X004896Y006279D01*
X004796Y006279D02*
X004796Y006051D01*
X004848Y005980D02*
X004945Y005980D01*
X004996Y006051D02*
X004996Y006279D01*
X005096Y006279D02*
X005096Y006051D01*
X005286Y006080D02*
X003006Y006080D01*
X003006Y006180D02*
X005286Y006180D01*
X004945Y005880D02*
X004848Y005880D01*
X004796Y005763D02*
X004796Y005666D01*
X004848Y005680D02*
X003006Y005680D01*
X003006Y005580D02*
X003258Y005580D01*
X003296Y005606D02*
X003296Y006583D01*
X003299Y006580D02*
X003006Y006580D01*
X003006Y006680D02*
X003148Y006680D01*
X003196Y006671D02*
X003196Y005523D01*
X003165Y005480D02*
X003006Y005480D01*
X003006Y005380D02*
X003115Y005380D01*
X003196Y005290D02*
X003196Y005232D01*
X003296Y005232D02*
X003296Y005290D01*
X003396Y005290D02*
X003396Y005232D01*
X003468Y005280D02*
X003006Y005280D01*
X003006Y005180D02*
X003107Y005180D01*
X003141Y005080D02*
X003006Y005080D01*
X003006Y004980D02*
X003215Y004980D01*
X003196Y004999D02*
X003196Y004790D01*
X003096Y004790D02*
X003096Y006732D01*
X003069Y006780D02*
X003006Y006780D01*
X003006Y006880D02*
X003069Y006880D01*
X003069Y006980D02*
X003006Y006980D01*
X003006Y007080D02*
X003069Y007080D01*
X003069Y007180D02*
X003006Y007180D01*
X003006Y007280D02*
X003069Y007280D01*
X003069Y007380D02*
X003006Y007380D01*
X003006Y007480D02*
X003110Y007480D01*
X003096Y007466D02*
X003096Y007735D01*
X003078Y007780D02*
X003006Y007780D01*
X003006Y007680D02*
X003119Y007680D01*
X003196Y007582D02*
X003196Y007526D01*
X003198Y007580D02*
X003006Y007580D01*
X003006Y007880D02*
X003069Y007880D01*
X003073Y007980D02*
X003006Y007980D01*
X003006Y008080D02*
X003114Y008080D01*
X003096Y008038D02*
X003096Y008410D01*
X003006Y008380D02*
X003186Y008380D01*
X003196Y008369D02*
X003196Y008191D01*
X003186Y008180D02*
X003006Y008180D01*
X003006Y008280D02*
X003330Y008280D01*
X003296Y008266D02*
X003296Y008294D01*
X003663Y008280D02*
X003739Y008311D01*
X003791Y008364D01*
X004109Y008364D01*
X004133Y008354D01*
X004260Y008354D01*
X004284Y008364D01*
X004550Y008364D01*
X004550Y008336D01*
X004606Y008280D01*
X004550Y008224D01*
X004550Y008096D01*
X003872Y008096D01*
X003859Y008128D01*
X003739Y008249D01*
X003663Y008280D01*
X004606Y008280D01*
X004596Y008271D02*
X004596Y008289D01*
X004550Y008180D02*
X003807Y008180D01*
X003796Y008191D02*
X003796Y008364D01*
X003896Y008364D02*
X003896Y008096D01*
X003996Y008096D02*
X003996Y008364D01*
X004096Y008364D02*
X004096Y008096D01*
X004196Y008096D02*
X004196Y008354D01*
X004296Y008364D02*
X004296Y008096D01*
X004396Y008096D02*
X004396Y008364D01*
X004496Y008364D02*
X004496Y008096D01*
X004496Y007676D02*
X004496Y007525D01*
X004483Y007525D02*
X004550Y007525D01*
X004550Y007593D01*
X004586Y007630D01*
X004550Y007667D01*
X004550Y007676D01*
X004317Y007676D01*
X004378Y007651D01*
X004468Y007561D01*
X004483Y007525D01*
X004449Y007580D02*
X004550Y007580D01*
X004396Y007633D02*
X004396Y007676D01*
X004076Y007676D02*
X004015Y007651D01*
X003925Y007561D01*
X003889Y007474D01*
X003836Y007526D01*
X003741Y007526D01*
X003859Y007644D01*
X003872Y007676D01*
X004076Y007676D01*
X003996Y007676D02*
X003996Y007633D01*
X003944Y007580D02*
X003795Y007580D01*
X003796Y007582D02*
X003796Y007526D01*
X003882Y007480D02*
X003892Y007480D01*
X003896Y007492D02*
X003896Y007676D01*
X003924Y007202D02*
X003925Y007199D01*
X004015Y007109D01*
X004133Y007060D01*
X004260Y007060D01*
X004368Y007105D01*
X004550Y007105D01*
X004550Y007036D01*
X004606Y006980D01*
X004550Y006924D01*
X004550Y006790D01*
X003924Y006790D01*
X003924Y007202D01*
X003924Y007180D02*
X003944Y007180D01*
X003996Y007127D02*
X003996Y006790D01*
X004096Y006790D02*
X004096Y007075D01*
X004085Y007080D02*
X003924Y007080D01*
X003924Y006980D02*
X004606Y006980D01*
X004596Y006971D02*
X004596Y006989D01*
X004550Y007080D02*
X004308Y007080D01*
X004296Y007075D02*
X004296Y006790D01*
X004196Y006790D02*
X004196Y007060D01*
X004396Y007105D02*
X004396Y006790D01*
X004496Y006790D02*
X004496Y007105D01*
X004550Y006880D02*
X003924Y006880D01*
X003399Y006480D02*
X003006Y006480D01*
X003006Y006380D02*
X003499Y006380D01*
X003496Y006383D02*
X003496Y005290D01*
X003525Y005290D02*
X003525Y005659D01*
X003536Y005659D01*
X003612Y005643D01*
X003685Y005613D01*
X003750Y005570D01*
X003805Y005514D01*
X003849Y005449D01*
X003879Y005377D01*
X003894Y005300D01*
X003894Y005290D01*
X003525Y005290D01*
X003525Y005280D02*
X004550Y005280D01*
X004550Y005180D02*
X003886Y005180D01*
X003796Y005232D02*
X003796Y005290D01*
X003696Y005290D02*
X003696Y005232D01*
X003596Y005232D02*
X003596Y005290D01*
X003525Y005380D02*
X003468Y005380D01*
X003468Y005480D02*
X003525Y005480D01*
X003525Y005580D02*
X003468Y005580D01*
X003396Y005646D02*
X003396Y006483D01*
X003596Y006370D02*
X003596Y005646D01*
X003696Y005606D02*
X003696Y006370D01*
X003796Y006370D02*
X003796Y005523D01*
X003828Y005480D02*
X004580Y005480D01*
X004596Y005437D02*
X004596Y005371D01*
X004606Y005380D02*
X003877Y005380D01*
X003735Y005580D02*
X004580Y005580D01*
X004596Y005666D02*
X004596Y005763D01*
X004580Y005780D02*
X003006Y005780D01*
X003006Y005880D02*
X004580Y005880D01*
X004589Y005980D02*
X003006Y005980D01*
X003006Y006280D02*
X004636Y006280D01*
X004596Y006320D02*
X004596Y005993D01*
X004696Y006051D02*
X004696Y006279D01*
X004496Y006370D02*
X004496Y004744D01*
X004550Y004780D02*
X004193Y004780D01*
X004196Y004779D02*
X004196Y006370D01*
X004096Y006370D02*
X004096Y004794D01*
X004000Y004780D02*
X003795Y004780D01*
X003796Y004778D02*
X003796Y004999D01*
X003777Y004980D02*
X004550Y004980D01*
X004550Y004880D02*
X003633Y004880D01*
X003696Y004854D02*
X003696Y004917D01*
X003896Y004726D02*
X003896Y006370D01*
X003996Y006370D02*
X003996Y004779D01*
X004296Y004744D02*
X004296Y006370D01*
X004396Y006370D02*
X004396Y004744D01*
X004550Y005080D02*
X003852Y005080D01*
X003360Y004880D02*
X003006Y004880D01*
X003296Y004854D02*
X003296Y004917D01*
X003867Y004251D02*
X003915Y004202D01*
X004033Y004154D01*
X004160Y004154D01*
X004278Y004202D01*
X004279Y004204D01*
X004550Y004204D01*
X004550Y004136D01*
X004606Y004080D01*
X004550Y004024D01*
X004550Y003896D01*
X003872Y003896D01*
X003859Y003928D01*
X003739Y004049D01*
X003663Y004080D01*
X003739Y004111D01*
X003859Y004232D01*
X003867Y004251D01*
X003896Y004221D02*
X003896Y003896D01*
X003996Y003896D02*
X003996Y004169D01*
X003969Y004180D02*
X003807Y004180D01*
X003796Y004169D02*
X003796Y003991D01*
X003807Y003980D02*
X004550Y003980D01*
X004496Y003896D02*
X004496Y004204D01*
X004550Y004180D02*
X004224Y004180D01*
X004196Y004169D02*
X004196Y003896D01*
X004096Y003896D02*
X004096Y004154D01*
X004296Y004204D02*
X004296Y003896D01*
X004396Y003896D02*
X004396Y004204D01*
X004596Y004089D02*
X004596Y004071D01*
X004606Y004080D02*
X003663Y004080D01*
X003696Y004066D02*
X003696Y004094D01*
X003330Y004080D02*
X003006Y004080D01*
X003006Y003980D02*
X003186Y003980D01*
X003196Y003991D02*
X003196Y004169D01*
X003096Y004170D02*
X003096Y003838D01*
X003114Y003880D02*
X003006Y003880D01*
X003006Y003780D02*
X003073Y003780D01*
X003069Y003680D02*
X003006Y003680D01*
X003006Y003580D02*
X003078Y003580D01*
X003096Y003535D02*
X003096Y003266D01*
X003110Y003280D02*
X003006Y003280D01*
X003006Y003180D02*
X003069Y003180D01*
X003069Y003080D02*
X003006Y003080D01*
X003006Y002980D02*
X003069Y002980D01*
X003069Y002880D02*
X003006Y002880D01*
X003006Y002780D02*
X003069Y002780D01*
X003069Y002680D02*
X003006Y002680D01*
X003006Y002580D02*
X003069Y002580D01*
X003096Y002532D02*
X003096Y001618D01*
X003135Y001580D02*
X003756Y001580D01*
X003796Y001630D02*
X003796Y001730D01*
X003756Y001780D02*
X003006Y001780D01*
X003006Y001708D02*
X003538Y001177D01*
X003593Y001200D01*
X003800Y001200D01*
X003991Y001121D01*
X004137Y000975D01*
X004196Y000832D01*
X004176Y000880D02*
X004216Y000880D01*
X004261Y000980D02*
X004132Y000980D01*
X004096Y001015D02*
X004096Y001240D01*
X004146Y001280D02*
X004246Y001280D01*
X004296Y001240D02*
X004296Y001015D01*
X004361Y001080D02*
X004032Y001080D01*
X003996Y001115D02*
X003996Y001258D01*
X003974Y001280D02*
X003435Y001280D01*
X003396Y001318D02*
X003396Y002383D01*
X003399Y002380D02*
X003006Y002380D01*
X003006Y002280D02*
X003499Y002280D01*
X003496Y002283D02*
X003496Y001218D01*
X003535Y001180D02*
X003545Y001180D01*
X003596Y001200D02*
X003596Y002270D01*
X003696Y002270D02*
X003696Y001200D01*
X003796Y001200D02*
X003796Y001458D01*
X003774Y001480D02*
X003235Y001480D01*
X003196Y001518D02*
X003196Y002471D01*
X003148Y002480D02*
X003006Y002480D01*
X003296Y002471D02*
X003296Y001418D01*
X003335Y001380D02*
X003874Y001380D01*
X003896Y001358D02*
X003896Y001160D01*
X003848Y001180D02*
X004545Y001180D01*
X004496Y001160D02*
X004496Y001358D01*
X004519Y001380D02*
X004832Y001380D01*
X004896Y001315D02*
X004896Y001160D01*
X004996Y001115D02*
X004996Y001215D01*
X004932Y001280D02*
X004419Y001280D01*
X004396Y001258D02*
X004396Y001115D01*
X004246Y001380D02*
X004146Y001380D01*
X004146Y001480D02*
X004246Y001480D01*
X004246Y001580D02*
X004146Y001580D01*
X004246Y001680D02*
X004726Y001680D01*
X004726Y001580D02*
X004636Y001580D01*
X004596Y001630D02*
X004596Y001730D01*
X004636Y001780D02*
X004726Y001780D01*
X004496Y001730D02*
X004496Y001630D01*
X004396Y001630D02*
X004396Y001730D01*
X004296Y001730D02*
X004296Y001630D01*
X004196Y001730D02*
X004196Y002270D01*
X004096Y002270D02*
X004096Y002120D01*
X004146Y002080D02*
X004246Y002080D01*
X004296Y002120D02*
X004296Y002270D01*
X003996Y002270D02*
X003996Y002102D01*
X003974Y002080D02*
X003006Y002080D01*
X003006Y001980D02*
X003874Y001980D01*
X003896Y002002D02*
X003896Y002270D01*
X003796Y002270D02*
X003796Y001902D01*
X003774Y001880D02*
X003006Y001880D01*
X003006Y002180D02*
X004550Y002180D01*
X004246Y001980D02*
X004146Y001980D01*
X004146Y001880D02*
X004246Y001880D01*
X004246Y001780D02*
X004146Y001780D01*
X003996Y001730D02*
X003996Y001630D01*
X003896Y001630D02*
X003896Y001730D01*
X002596Y001242D02*
X002596Y001200D01*
X002558Y001280D02*
X002253Y001280D01*
X002096Y001124D02*
X002096Y000360D01*
X001996Y000360D02*
X001996Y001105D01*
X001873Y000780D02*
X002176Y000780D01*
X003112Y000360D02*
X003281Y000360D01*
X003256Y000385D01*
X003196Y000528D01*
X003196Y000360D01*
X003137Y000385D02*
X003196Y000528D01*
X003176Y000480D02*
X003216Y000480D01*
X003261Y000380D02*
X003132Y000380D01*
X003137Y000385D02*
X003112Y000360D01*
X004112Y000360D02*
X004281Y000360D01*
X004256Y000385D01*
X004196Y000528D01*
X004196Y000360D01*
X004137Y000385D02*
X004196Y000528D01*
X004176Y000480D02*
X004216Y000480D01*
X004261Y000380D02*
X004132Y000380D01*
X004137Y000385D02*
X004112Y000360D01*
X005661Y001480D02*
X005732Y001480D01*
X005726Y001580D02*
X005666Y001580D01*
X005666Y001680D02*
X005726Y001680D01*
X005726Y001780D02*
X005666Y001780D01*
X005661Y001880D02*
X005732Y001880D01*
X006406Y002180D02*
X006986Y002180D01*
X006932Y002080D02*
X006461Y002080D01*
X006496Y002045D02*
X006496Y002532D01*
X006469Y002580D02*
X006418Y002580D01*
X006396Y002677D02*
X006396Y002770D01*
X006393Y002680D02*
X006469Y002680D01*
X006406Y002480D02*
X006548Y002480D01*
X006596Y002471D02*
X006596Y001945D01*
X006561Y001980D02*
X006832Y001980D01*
X006796Y001945D02*
X006796Y002383D01*
X006799Y002380D02*
X006406Y002380D01*
X006406Y002280D02*
X006899Y002280D01*
X006896Y002283D02*
X006896Y002045D01*
X006732Y001880D02*
X006661Y001880D01*
X006666Y001780D02*
X006726Y001780D01*
X006726Y001680D02*
X006666Y001680D01*
X006666Y001580D02*
X006726Y001580D01*
X006732Y001480D02*
X006661Y001480D01*
X006596Y001415D02*
X006596Y000360D01*
X006696Y000360D02*
X006696Y002471D01*
X007269Y002504D02*
X007324Y002559D01*
X007324Y003239D01*
X007236Y003326D01*
X007141Y003326D01*
X007259Y003444D01*
X007272Y003476D01*
X008850Y003476D01*
X008850Y003467D01*
X008886Y003430D01*
X008850Y003393D01*
X008850Y002836D01*
X008906Y002780D01*
X008850Y002724D01*
X008850Y002490D01*
X007283Y002490D01*
X007269Y002504D01*
X007296Y002490D02*
X007296Y002532D01*
X007324Y002580D02*
X008850Y002580D01*
X008850Y002680D02*
X007324Y002680D01*
X007324Y002780D02*
X008906Y002780D01*
X008896Y002771D02*
X008896Y002789D01*
X008850Y002880D02*
X007324Y002880D01*
X007324Y002980D02*
X008850Y002980D01*
X008850Y003080D02*
X007324Y003080D01*
X007324Y003180D02*
X008850Y003180D01*
X008850Y003280D02*
X007282Y003280D01*
X007296Y003266D02*
X007296Y003476D01*
X007396Y003476D02*
X007396Y002490D01*
X007496Y002490D02*
X007496Y003476D01*
X007596Y003476D02*
X007596Y002490D01*
X007696Y002490D02*
X007696Y003476D01*
X007796Y003476D02*
X007796Y002490D01*
X007896Y002490D02*
X007896Y003476D01*
X007996Y003476D02*
X007996Y002490D01*
X008096Y002490D02*
X008096Y003476D01*
X008196Y003476D02*
X008196Y002490D01*
X008296Y002490D02*
X008296Y003476D01*
X008396Y003476D02*
X008396Y002490D01*
X008496Y002490D02*
X008496Y003476D01*
X008596Y003476D02*
X008596Y002490D01*
X008696Y002490D02*
X008696Y003476D01*
X008796Y003476D02*
X008796Y002490D01*
X008796Y002070D02*
X008796Y001945D01*
X008832Y001980D02*
X008561Y001980D01*
X008596Y001945D02*
X008596Y002070D01*
X008496Y002070D02*
X008496Y002045D01*
X008696Y002070D02*
X008696Y000360D01*
X008596Y000360D02*
X008596Y001415D01*
X008561Y001380D02*
X008832Y001380D01*
X008796Y001415D02*
X008796Y000360D01*
X008896Y000360D02*
X008896Y001315D01*
X008732Y001480D02*
X008661Y001480D01*
X008666Y001580D02*
X008726Y001580D01*
X008726Y001680D02*
X008666Y001680D01*
X008666Y001780D02*
X008726Y001780D01*
X008732Y001880D02*
X008661Y001880D01*
X008896Y002045D02*
X008896Y002070D01*
X009543Y002280D02*
X012250Y002280D01*
X012250Y002380D02*
X009543Y002380D01*
X009796Y001415D02*
X009796Y000360D01*
X009896Y000360D02*
X009896Y001315D01*
X009832Y001380D02*
X009561Y001380D01*
X007896Y001315D02*
X007896Y000360D01*
X007796Y000360D02*
X007796Y001415D01*
X007832Y001380D02*
X007561Y001380D01*
X007596Y001415D02*
X007596Y000360D01*
X007696Y000360D02*
X007696Y002070D01*
X007596Y002070D02*
X007596Y001945D01*
X007561Y001980D02*
X007832Y001980D01*
X007796Y001945D02*
X007796Y002070D01*
X007896Y002070D02*
X007896Y002045D01*
X007732Y001880D02*
X007661Y001880D01*
X007666Y001780D02*
X007726Y001780D01*
X007726Y001680D02*
X007666Y001680D01*
X007666Y001580D02*
X007726Y001580D01*
X007732Y001480D02*
X007661Y001480D01*
X006896Y001315D02*
X006896Y000360D01*
X006796Y000360D02*
X006796Y001415D01*
X006832Y001380D02*
X006561Y001380D01*
X005896Y001315D02*
X005896Y000360D01*
X007496Y002045D02*
X007496Y002070D01*
X006469Y003190D02*
X006383Y003190D01*
X006306Y003267D01*
X006306Y003673D01*
X006309Y003670D01*
X006309Y003670D01*
X006386Y003593D01*
X006509Y003470D01*
X006523Y003470D01*
X006534Y003444D01*
X006652Y003326D01*
X006557Y003326D01*
X006469Y003239D01*
X006469Y003190D01*
X006396Y003190D02*
X006396Y003583D01*
X006399Y003580D02*
X006306Y003580D01*
X006306Y003480D02*
X006499Y003480D01*
X006496Y003483D02*
X006496Y003266D01*
X006510Y003280D02*
X006306Y003280D01*
X006306Y003380D02*
X006598Y003380D01*
X006596Y003382D02*
X006596Y003326D01*
X007196Y003326D02*
X007196Y003382D01*
X007195Y003380D02*
X008850Y003380D01*
X008850Y003896D02*
X007272Y003896D01*
X007259Y003928D01*
X007139Y004049D01*
X007063Y004080D01*
X007139Y004111D01*
X007172Y004145D01*
X008850Y004145D01*
X008850Y004136D01*
X008906Y004080D01*
X008850Y004024D01*
X008850Y003896D01*
X008796Y003896D02*
X008796Y004145D01*
X008696Y004145D02*
X008696Y003896D01*
X008596Y003896D02*
X008596Y004145D01*
X008496Y004145D02*
X008496Y003896D01*
X008396Y003896D02*
X008396Y004145D01*
X008296Y004145D02*
X008296Y003896D01*
X008196Y003896D02*
X008196Y004145D01*
X008096Y004145D02*
X008096Y003896D01*
X007996Y003896D02*
X007996Y004145D01*
X007896Y004145D02*
X007896Y003896D01*
X007796Y003896D02*
X007796Y004145D01*
X007696Y004145D02*
X007696Y003896D01*
X007596Y003896D02*
X007596Y004145D01*
X007496Y004145D02*
X007496Y003896D01*
X007396Y003896D02*
X007396Y004145D01*
X007296Y004145D02*
X007296Y003896D01*
X007207Y003980D02*
X008850Y003980D01*
X008896Y004071D02*
X008896Y004089D01*
X008906Y004080D02*
X007063Y004080D01*
X007096Y004066D02*
X007096Y004094D01*
X007196Y004145D02*
X007196Y003991D01*
X006730Y004080D02*
X006654Y004049D01*
X006606Y004001D01*
X006606Y004159D01*
X006654Y004111D01*
X006730Y004080D01*
X006606Y004080D01*
X006696Y004066D02*
X006696Y004094D01*
X006606Y004788D02*
X006606Y004989D01*
X006643Y004952D01*
X006708Y004909D01*
X006769Y004884D01*
X006654Y004836D01*
X006606Y004788D01*
X006606Y004880D02*
X006760Y004880D01*
X006696Y004854D02*
X006696Y004917D01*
X006615Y004980D02*
X006606Y004980D01*
X007252Y005080D02*
X008850Y005080D01*
X008896Y005371D02*
X008896Y005437D01*
X008880Y005480D02*
X007228Y005480D01*
X007277Y005380D02*
X008906Y005380D01*
X009487Y005380D02*
X011326Y005380D01*
X011396Y005390D02*
X011396Y005415D01*
X011496Y005415D02*
X011496Y005390D01*
X011596Y005390D02*
X011596Y005415D01*
X011684Y005280D02*
X011709Y005280D01*
X012250Y004980D02*
X009543Y004980D01*
X009543Y004880D02*
X012250Y004880D01*
X014007Y004730D02*
X014043Y004767D01*
X014043Y005051D01*
X014769Y005051D01*
X014769Y004921D01*
X014857Y004834D01*
X014952Y004834D01*
X014834Y004716D01*
X014821Y004684D01*
X014043Y004684D01*
X014043Y004693D01*
X014007Y004730D01*
X014043Y004780D02*
X014898Y004780D01*
X014896Y004778D02*
X014896Y004834D01*
X014810Y004880D02*
X014043Y004880D01*
X014043Y004980D02*
X014769Y004980D01*
X014796Y004894D02*
X014796Y004684D01*
X014696Y004684D02*
X014696Y005051D01*
X014596Y005051D02*
X014596Y004684D01*
X014496Y004684D02*
X014496Y005051D01*
X014396Y005051D02*
X014396Y004684D01*
X014296Y004684D02*
X014296Y005051D01*
X014196Y005051D02*
X014196Y004684D01*
X014096Y004684D02*
X014096Y005051D01*
X014096Y005471D02*
X014096Y005525D01*
X014043Y005525D02*
X014769Y005525D01*
X014769Y005471D01*
X014043Y005471D01*
X014043Y005525D01*
X014043Y005480D02*
X014769Y005480D01*
X014696Y005471D02*
X014696Y005525D01*
X014596Y005525D02*
X014596Y005471D01*
X014496Y005471D02*
X014496Y005525D01*
X014396Y005525D02*
X014396Y005471D01*
X014296Y005471D02*
X014296Y005525D01*
X014196Y005525D02*
X014196Y005471D01*
X015441Y004834D02*
X015536Y004834D01*
X015624Y004921D01*
X015624Y005525D01*
X015786Y005525D01*
X015786Y003990D01*
X015497Y003990D01*
X015439Y004049D01*
X015363Y004080D01*
X015786Y004080D01*
X015786Y004180D02*
X015507Y004180D01*
X015496Y004169D02*
X015496Y003991D01*
X015596Y003990D02*
X015596Y004322D01*
X015579Y004280D02*
X015786Y004280D01*
X015786Y004380D02*
X015620Y004380D01*
X015624Y004389D02*
X015624Y004559D01*
X015559Y004716D01*
X015441Y004834D01*
X015496Y004834D02*
X015496Y004778D01*
X015495Y004780D02*
X015786Y004780D01*
X015786Y004680D02*
X015574Y004680D01*
X015596Y004625D02*
X015596Y004894D01*
X015582Y004880D02*
X015786Y004880D01*
X015786Y004980D02*
X015624Y004980D01*
X015624Y005080D02*
X015786Y005080D01*
X015786Y005180D02*
X015624Y005180D01*
X015624Y005280D02*
X015786Y005280D01*
X015786Y005380D02*
X015624Y005380D01*
X015624Y005480D02*
X015786Y005480D01*
X015696Y005525D02*
X015696Y003990D01*
X015559Y004232D02*
X015439Y004111D01*
X015363Y004080D01*
X015396Y004066D02*
X015396Y004094D01*
X015559Y004232D02*
X015624Y004389D01*
X015624Y004480D02*
X015786Y004480D01*
X015786Y004580D02*
X015615Y004580D01*
X014996Y004094D02*
X014996Y004066D01*
X015030Y004080D02*
X013987Y004080D01*
X014043Y004136D01*
X014043Y004264D01*
X014821Y004264D01*
X014834Y004232D01*
X014954Y004111D01*
X015030Y004080D01*
X014954Y004049D01*
X014902Y003996D01*
X014043Y003996D01*
X014043Y004024D01*
X013987Y004080D01*
X013996Y004071D02*
X013996Y004089D01*
X014043Y004180D02*
X014886Y004180D01*
X014896Y004169D02*
X014896Y003996D01*
X014796Y003996D02*
X014796Y004264D01*
X014696Y004264D02*
X014696Y003996D01*
X014596Y003996D02*
X014596Y004264D01*
X014496Y004264D02*
X014496Y003996D01*
X014396Y003996D02*
X014396Y004264D01*
X014296Y004264D02*
X014296Y003996D01*
X014196Y003996D02*
X014196Y004264D01*
X014096Y004264D02*
X014096Y003996D01*
X014096Y003376D02*
X014096Y002150D01*
X014196Y002150D02*
X014196Y003376D01*
X014296Y003376D02*
X014296Y002150D01*
X014396Y002145D02*
X014396Y003376D01*
X014496Y003376D02*
X014496Y002045D01*
X014461Y002080D02*
X014932Y002080D01*
X014896Y002045D02*
X014896Y002637D01*
X014865Y002680D02*
X014013Y002680D01*
X013996Y002723D02*
X013996Y002789D01*
X013987Y002780D02*
X014815Y002780D01*
X014896Y002870D02*
X014896Y002928D01*
X014996Y002928D02*
X014996Y002870D01*
X015096Y002870D02*
X015096Y002928D01*
X015168Y002780D02*
X015225Y002780D01*
X015225Y002680D02*
X015168Y002680D01*
X014996Y002554D02*
X014996Y002145D01*
X014732Y001880D02*
X014661Y001880D01*
X014666Y001780D02*
X014726Y001780D01*
X014726Y001680D02*
X014666Y001680D01*
X014666Y001580D02*
X014726Y001580D01*
X014732Y001480D02*
X014661Y001480D01*
X013745Y002280D02*
X013648Y002280D01*
X013596Y002397D02*
X013596Y002494D01*
X013648Y002480D02*
X013306Y002480D01*
X013496Y002494D02*
X013496Y002397D01*
X013380Y002280D02*
X013193Y002280D01*
X013196Y002283D02*
X013196Y002150D01*
X013396Y002145D02*
X013396Y002167D01*
X013896Y002397D02*
X013896Y002494D01*
X013996Y002494D02*
X013996Y002397D01*
X014013Y002580D02*
X014958Y002580D01*
X014996Y003243D02*
X014996Y003306D01*
X015060Y003280D02*
X014043Y003280D01*
X013406Y002780D02*
X013306Y002780D01*
X012886Y006080D02*
X012857Y006080D01*
X012796Y006081D02*
X012796Y007609D01*
X012886Y007580D02*
X012396Y007580D01*
X012396Y007609D02*
X012396Y006081D01*
X012496Y006081D02*
X012496Y007609D01*
X012548Y007680D02*
X012645Y007680D01*
X012696Y007609D02*
X012696Y006081D01*
X012596Y006081D02*
X012596Y007897D01*
X012548Y007880D02*
X012645Y007880D01*
X012645Y007780D02*
X012548Y007780D01*
X012379Y007480D02*
X012886Y007480D01*
X013306Y007480D02*
X013350Y007480D01*
X013350Y007380D02*
X013306Y007380D01*
X013306Y007280D02*
X013350Y007280D01*
X013350Y007180D02*
X013306Y007180D01*
X013306Y007080D02*
X013350Y007080D01*
X013350Y007580D02*
X013306Y007580D01*
X013306Y007680D02*
X013350Y007680D01*
X013350Y007780D02*
X013306Y007780D01*
X013306Y007880D02*
X013350Y007880D01*
X013350Y007980D02*
X013306Y007980D01*
X013306Y008080D02*
X013350Y008080D01*
X013350Y008180D02*
X013306Y008180D01*
X013350Y008224D02*
X013406Y008280D01*
X013396Y008271D02*
X013396Y008289D01*
X013350Y008380D02*
X013306Y008380D01*
X013306Y008480D02*
X013350Y008480D01*
X013350Y008580D02*
X013306Y008580D01*
X013306Y008680D02*
X013350Y008680D01*
X013350Y008780D02*
X013306Y008780D01*
X013306Y008880D02*
X013350Y008880D01*
X013350Y008980D02*
X013306Y008980D01*
X013306Y009080D02*
X013350Y009080D01*
X013350Y009180D02*
X013306Y009180D01*
X013306Y009280D02*
X013350Y009280D01*
X013350Y009380D02*
X013306Y009380D01*
X013306Y009480D02*
X013350Y009480D01*
X013396Y009571D02*
X013396Y009589D01*
X013406Y009580D02*
X013306Y009580D01*
X013306Y009680D02*
X013350Y009680D01*
X013350Y009780D02*
X013306Y009780D01*
X013296Y009877D02*
X013296Y010210D01*
X013350Y010180D02*
X012943Y010180D01*
X012996Y010215D02*
X012996Y010125D01*
X013093Y010080D02*
X013350Y010080D01*
X013350Y009980D02*
X013193Y009980D01*
X013196Y009977D02*
X013196Y010210D01*
X013096Y010210D02*
X013096Y010077D01*
X012896Y010240D02*
X012896Y010315D01*
X012932Y010280D02*
X012857Y010280D01*
X012796Y010281D02*
X012796Y010415D01*
X012832Y010380D02*
X012561Y010380D01*
X012596Y010415D02*
X012596Y010281D01*
X012496Y010281D02*
X012496Y010315D01*
X012696Y010281D02*
X012696Y011170D01*
X012596Y011170D02*
X012596Y010945D01*
X012561Y010980D02*
X012832Y010980D01*
X012796Y010945D02*
X012796Y011170D01*
X012896Y011170D02*
X012896Y011045D01*
X012732Y010880D02*
X012661Y010880D01*
X012666Y010780D02*
X012726Y010780D01*
X012726Y010680D02*
X012666Y010680D01*
X012666Y010580D02*
X012726Y010580D01*
X012732Y010480D02*
X012661Y010480D01*
X011832Y010380D02*
X011808Y010380D01*
X011796Y010385D02*
X011796Y010415D01*
X011732Y010480D02*
X011661Y010480D01*
X011696Y010400D02*
X011696Y011170D01*
X011596Y011170D02*
X011596Y010945D01*
X011561Y010980D02*
X011832Y010980D01*
X011796Y010945D02*
X011796Y011170D01*
X011896Y011170D02*
X011896Y011045D01*
X011732Y010880D02*
X011661Y010880D01*
X011666Y010780D02*
X011726Y010780D01*
X011726Y010680D02*
X011666Y010680D01*
X011666Y010580D02*
X011726Y010580D01*
X011596Y010415D02*
X011596Y010385D01*
X011585Y010380D02*
X011561Y010380D01*
X011413Y010232D02*
X011391Y010210D01*
X011031Y010210D01*
X011096Y010144D01*
X011096Y009813D01*
X011511Y009813D01*
X011425Y009899D01*
X011376Y010016D01*
X011376Y010144D01*
X011413Y010232D01*
X011396Y010215D02*
X011396Y010192D01*
X011392Y010180D02*
X011061Y010180D01*
X011096Y010210D02*
X011096Y009813D01*
X011096Y009880D02*
X011444Y009880D01*
X011496Y009827D02*
X011496Y009813D01*
X011396Y009813D02*
X011396Y009968D01*
X011392Y009980D02*
X011096Y009980D01*
X011096Y010080D02*
X011376Y010080D01*
X011296Y010210D02*
X011296Y009813D01*
X011196Y009813D02*
X011196Y010210D01*
X010932Y010280D02*
X010461Y010280D01*
X010496Y010315D02*
X010496Y010232D01*
X010596Y010232D02*
X010596Y010415D01*
X010561Y010380D02*
X010832Y010380D01*
X010796Y010415D02*
X010796Y010232D01*
X010696Y010232D02*
X010696Y011170D01*
X010596Y011170D02*
X010596Y010945D01*
X010561Y010980D02*
X010832Y010980D01*
X010796Y010945D02*
X010796Y011170D01*
X010896Y011170D02*
X010896Y011045D01*
X010732Y010880D02*
X010661Y010880D01*
X010666Y010780D02*
X010726Y010780D01*
X010726Y010680D02*
X010666Y010680D01*
X010666Y010580D02*
X010726Y010580D01*
X010732Y010480D02*
X010661Y010480D01*
X010896Y010315D02*
X010896Y010232D01*
X010296Y009680D02*
X005213Y009680D01*
X005196Y009637D02*
X005196Y009571D01*
X005187Y009580D02*
X010296Y009580D01*
X011196Y009393D02*
X011196Y009220D01*
X011396Y009392D02*
X011396Y009393D01*
X012189Y009785D02*
X012250Y009724D01*
X012250Y009785D01*
X012189Y009785D01*
X012193Y009780D02*
X012250Y009780D01*
X012196Y009777D02*
X012196Y009785D01*
X013293Y009880D02*
X013350Y009880D01*
X013496Y010281D02*
X013496Y010315D01*
X013561Y010380D02*
X013832Y010380D01*
X013796Y010415D02*
X013796Y010290D01*
X013696Y010290D02*
X013696Y011170D01*
X013596Y011170D02*
X013596Y010945D01*
X013561Y010980D02*
X013832Y010980D01*
X013796Y010945D02*
X013796Y011170D01*
X013896Y011170D02*
X013896Y011045D01*
X013732Y010880D02*
X013661Y010880D01*
X013666Y010780D02*
X013726Y010780D01*
X013726Y010680D02*
X013666Y010680D01*
X013666Y010580D02*
X013726Y010580D01*
X013732Y010480D02*
X013661Y010480D01*
X013596Y010415D02*
X013596Y010281D01*
X013896Y010290D02*
X013896Y010315D01*
X014496Y010290D02*
X014496Y010315D01*
X014561Y010380D02*
X014726Y010380D01*
X014696Y010290D02*
X014696Y011170D01*
X014596Y011170D02*
X014596Y010945D01*
X014561Y010980D02*
X014726Y010980D01*
X014726Y010880D02*
X014661Y010880D01*
X014666Y010780D02*
X014726Y010780D01*
X014726Y010680D02*
X014666Y010680D01*
X014666Y010580D02*
X014726Y010580D01*
X014726Y010480D02*
X014661Y010480D01*
X014596Y010415D02*
X014596Y010290D01*
X014596Y009870D02*
X014596Y009671D01*
X014496Y009671D02*
X014496Y009870D01*
X014396Y009870D02*
X014396Y009671D01*
X014296Y009671D02*
X014296Y009870D01*
X014196Y009870D02*
X014196Y009671D01*
X014096Y009671D02*
X014096Y009870D01*
X014043Y009870D02*
X014838Y009870D01*
X014769Y009801D01*
X014769Y009671D01*
X014043Y009671D01*
X014043Y009870D01*
X014043Y009780D02*
X014769Y009780D01*
X014796Y009828D02*
X014796Y009870D01*
X014696Y009870D02*
X014696Y009671D01*
X014769Y009680D02*
X014043Y009680D01*
X014043Y009251D02*
X014769Y009251D01*
X014769Y009121D01*
X014857Y009034D01*
X014952Y009034D01*
X014834Y008916D01*
X014821Y008884D01*
X014043Y008884D01*
X014043Y008893D01*
X014007Y008930D01*
X014043Y008967D01*
X014043Y009251D01*
X014096Y009251D02*
X014096Y008884D01*
X014196Y008884D02*
X014196Y009251D01*
X014296Y009251D02*
X014296Y008884D01*
X014396Y008884D02*
X014396Y009251D01*
X014496Y009251D02*
X014496Y008884D01*
X014596Y008884D02*
X014596Y009251D01*
X014696Y009251D02*
X014696Y008884D01*
X014796Y008884D02*
X014796Y009094D01*
X014810Y009080D02*
X014043Y009080D01*
X014043Y008980D02*
X014898Y008980D01*
X014896Y008978D02*
X014896Y009034D01*
X014769Y009180D02*
X014043Y009180D01*
X014043Y008464D02*
X014821Y008464D01*
X014834Y008432D01*
X014954Y008311D01*
X015030Y008280D01*
X013987Y008280D01*
X014043Y008336D01*
X014043Y008464D01*
X014096Y008464D02*
X014096Y008196D01*
X014043Y008196D02*
X014043Y008224D01*
X013987Y008280D01*
X013996Y008271D02*
X013996Y008289D01*
X014043Y008380D02*
X014886Y008380D01*
X014896Y008369D02*
X014896Y008196D01*
X014902Y008196D02*
X014043Y008196D01*
X014196Y008196D02*
X014196Y008464D01*
X014296Y008464D02*
X014296Y008196D01*
X014396Y008196D02*
X014396Y008464D01*
X014496Y008464D02*
X014496Y008196D01*
X014596Y008196D02*
X014596Y008464D01*
X014696Y008464D02*
X014696Y008196D01*
X014796Y008196D02*
X014796Y008464D01*
X014996Y008294D02*
X014996Y008266D01*
X015030Y008280D02*
X014954Y008249D01*
X014902Y008196D01*
X015363Y008280D02*
X015786Y008280D01*
X015786Y008196D02*
X015491Y008196D01*
X015439Y008249D01*
X015363Y008280D01*
X015439Y008311D01*
X015559Y008432D01*
X015624Y008589D01*
X015624Y008759D01*
X015559Y008916D01*
X015441Y009034D01*
X015536Y009034D01*
X015624Y009121D01*
X015624Y009801D01*
X015555Y009870D01*
X015786Y009870D01*
X015786Y008196D01*
X015696Y008196D02*
X015696Y009870D01*
X015596Y009870D02*
X015596Y009828D01*
X015624Y009780D02*
X015786Y009780D01*
X015786Y009680D02*
X015624Y009680D01*
X015624Y009580D02*
X015786Y009580D01*
X015786Y009480D02*
X015624Y009480D01*
X015624Y009380D02*
X015786Y009380D01*
X015786Y009280D02*
X015624Y009280D01*
X015624Y009180D02*
X015786Y009180D01*
X015786Y009080D02*
X015582Y009080D01*
X015596Y009094D02*
X015596Y008825D01*
X015615Y008780D02*
X015786Y008780D01*
X015786Y008680D02*
X015624Y008680D01*
X015620Y008580D02*
X015786Y008580D01*
X015786Y008480D02*
X015579Y008480D01*
X015596Y008522D02*
X015596Y008196D01*
X015496Y008196D02*
X015496Y008369D01*
X015507Y008380D02*
X015786Y008380D01*
X015396Y008294D02*
X015396Y008266D01*
X015574Y008880D02*
X015786Y008880D01*
X015786Y008980D02*
X015495Y008980D01*
X015496Y008978D02*
X015496Y009034D01*
X017831Y011180D02*
X017916Y011180D01*
X017916Y011280D02*
X017873Y011280D01*
X017890Y011380D02*
X017916Y011380D01*
X017907Y011580D02*
X017873Y011580D01*
X017296Y011974D02*
X017296Y012000D01*
X017196Y012000D02*
X017196Y011956D01*
X017096Y011915D02*
X017096Y012000D01*
X017941Y012180D02*
X018096Y012180D01*
X018096Y012025D01*
X017941Y012180D01*
X017996Y012180D02*
X017996Y012125D01*
X018041Y012080D02*
X018096Y012080D01*
X008896Y011170D02*
X008896Y011045D01*
X008832Y010980D02*
X008561Y010980D01*
X008596Y010945D02*
X008596Y011170D01*
X007896Y011170D02*
X007896Y011045D01*
X007832Y010980D02*
X007561Y010980D01*
X007596Y010945D02*
X007596Y011170D01*
X007696Y011170D02*
X007696Y009500D01*
X007596Y009500D02*
X007596Y010415D01*
X007561Y010380D02*
X007832Y010380D01*
X007796Y010415D02*
X007796Y009500D01*
X006896Y009490D02*
X006896Y010315D01*
X006832Y010380D02*
X006561Y010380D01*
X006596Y010415D02*
X006596Y009490D01*
X006696Y009490D02*
X006696Y011170D01*
X006596Y011170D02*
X006596Y010945D01*
X006561Y010980D02*
X006832Y010980D01*
X006796Y010945D02*
X006796Y011170D01*
X006896Y011170D02*
X006896Y011045D01*
X006732Y010880D02*
X006661Y010880D01*
X006666Y010780D02*
X006726Y010780D01*
X006726Y010680D02*
X006666Y010680D01*
X006666Y010580D02*
X006726Y010580D01*
X006732Y010480D02*
X006661Y010480D01*
X006796Y010415D02*
X006796Y009490D01*
X005896Y009490D02*
X005896Y010315D01*
X005832Y010380D02*
X005561Y010380D01*
X005596Y010415D02*
X005596Y009477D01*
X005599Y009480D02*
X005243Y009480D01*
X005696Y009490D02*
X005696Y011170D01*
X005596Y011170D02*
X005596Y010945D01*
X005561Y010980D02*
X005832Y010980D01*
X005796Y010945D02*
X005796Y011170D01*
X005896Y011170D02*
X005896Y011045D01*
X005732Y010880D02*
X005661Y010880D01*
X005666Y010780D02*
X005726Y010780D01*
X005726Y010680D02*
X005666Y010680D01*
X005666Y010580D02*
X005726Y010580D01*
X005732Y010480D02*
X005661Y010480D01*
X005796Y010415D02*
X005796Y009490D01*
X005096Y009866D02*
X005096Y009963D01*
X004996Y009963D02*
X004996Y009866D01*
X005196Y010193D02*
X005196Y010210D01*
X004832Y010380D02*
X004519Y010380D01*
X004496Y010358D02*
X004496Y008984D01*
X004550Y009080D02*
X003633Y009080D01*
X003696Y009054D02*
X003696Y009117D01*
X003360Y009080D02*
X003006Y009080D01*
X003296Y009054D02*
X003296Y009117D01*
X004196Y008994D02*
X004196Y010630D01*
X004146Y010580D02*
X004246Y010580D01*
X004246Y010480D02*
X004146Y010480D01*
X004146Y010380D02*
X004246Y010380D01*
X004396Y010630D02*
X004396Y010730D01*
X004496Y010730D02*
X004496Y010630D01*
X004246Y010880D02*
X004146Y010880D01*
X004146Y010980D02*
X004246Y010980D01*
X003596Y010980D02*
X003231Y010980D01*
X003396Y011327D02*
X003396Y011506D01*
X003448Y011580D02*
X003758Y011580D01*
X003496Y011327D02*
X003496Y012000D01*
X002927Y011480D02*
X002762Y011480D01*
X002896Y011498D02*
X002896Y011271D01*
X002887Y011280D02*
X002906Y011280D01*
X001028Y010980D02*
X000776Y010980D01*
X000776Y011080D02*
X000928Y011080D01*
X000996Y011011D02*
X000996Y001349D01*
X000776Y001780D02*
X002386Y001780D01*
X002386Y001880D02*
X000776Y001880D01*
X000776Y001980D02*
X002386Y001980D01*
X002386Y002080D02*
X000776Y002080D01*
X000776Y002180D02*
X002386Y002180D01*
X002386Y002280D02*
X000776Y002280D01*
X000776Y002380D02*
X002386Y002380D01*
X002386Y002480D02*
X000776Y002480D01*
X000776Y002580D02*
X002386Y002580D01*
X002386Y002680D02*
X000776Y002680D01*
X000776Y002780D02*
X002386Y002780D01*
X002386Y002880D02*
X000776Y002880D01*
X000776Y002980D02*
X002386Y002980D01*
X002386Y003080D02*
X000776Y003080D01*
X000776Y003180D02*
X002386Y003180D01*
X002386Y003280D02*
X000776Y003280D01*
X000776Y003380D02*
X002386Y003380D01*
X002386Y003480D02*
X000776Y003480D01*
X000776Y003580D02*
X002386Y003580D01*
X002386Y003680D02*
X000776Y003680D01*
X000776Y003780D02*
X002386Y003780D01*
X002386Y003880D02*
X000776Y003880D01*
X000776Y003980D02*
X002386Y003980D01*
X002386Y004080D02*
X000776Y004080D01*
X000776Y004180D02*
X002386Y004180D01*
X002386Y004280D02*
X000776Y004280D01*
X000776Y004380D02*
X002386Y004380D01*
X002386Y004480D02*
X000776Y004480D01*
X000776Y004580D02*
X002386Y004580D01*
X002386Y004680D02*
X000776Y004680D01*
X000776Y004780D02*
X002386Y004780D01*
X002386Y004880D02*
X000776Y004880D01*
X000776Y004980D02*
X002386Y004980D01*
X002386Y005080D02*
X000776Y005080D01*
X000776Y005180D02*
X002386Y005180D01*
X002386Y005280D02*
X000776Y005280D01*
X000776Y005380D02*
X002386Y005380D01*
X002386Y005480D02*
X000776Y005480D01*
X000776Y005580D02*
X002386Y005580D01*
X002386Y005680D02*
X000776Y005680D01*
X000776Y005780D02*
X002386Y005780D01*
X002386Y005880D02*
X000776Y005880D01*
X000776Y005980D02*
X002386Y005980D01*
X002386Y006080D02*
X000776Y006080D01*
X000776Y006180D02*
X002386Y006180D01*
X002386Y006280D02*
X000776Y006280D01*
X000776Y006380D02*
X002386Y006380D01*
X002386Y006480D02*
X000776Y006480D01*
X000776Y006580D02*
X002386Y006580D01*
X002386Y006680D02*
X000776Y006680D01*
X000776Y006780D02*
X002386Y006780D01*
X002386Y006880D02*
X000776Y006880D01*
X000776Y006980D02*
X002386Y006980D01*
X002386Y007080D02*
X000776Y007080D01*
X000776Y007180D02*
X002386Y007180D01*
X002386Y007280D02*
X000776Y007280D01*
X000776Y007380D02*
X002386Y007380D01*
X002386Y007480D02*
X000776Y007480D01*
X000776Y007580D02*
X002386Y007580D01*
X002386Y007680D02*
X000776Y007680D01*
X000776Y007780D02*
X002386Y007780D01*
X002386Y007880D02*
X000776Y007880D01*
X000776Y007980D02*
X002386Y007980D01*
X002386Y008080D02*
X000776Y008080D01*
X000776Y008180D02*
X002386Y008180D01*
X002386Y008280D02*
X000776Y008280D01*
X000776Y008380D02*
X002386Y008380D01*
X002386Y008480D02*
X000776Y008480D01*
X000776Y008580D02*
X002386Y008580D01*
X002386Y008680D02*
X000776Y008680D01*
X000776Y008780D02*
X002386Y008780D01*
X002386Y008880D02*
X000776Y008880D01*
X000776Y008980D02*
X002386Y008980D01*
X002386Y009080D02*
X000776Y009080D01*
X000776Y009180D02*
X002386Y009180D01*
X002386Y009280D02*
X000776Y009280D01*
X000776Y009380D02*
X002386Y009380D01*
X002386Y009480D02*
X000776Y009480D01*
X003696Y008294D02*
X003696Y008266D01*
X006606Y008280D02*
X007106Y008280D01*
X007106Y008300D02*
X007106Y008210D01*
X006629Y008210D01*
X006609Y008190D01*
X006606Y008187D01*
X006606Y008300D01*
X007106Y008300D01*
X007096Y008300D02*
X007096Y008210D01*
X006996Y008210D02*
X006996Y008300D01*
X006896Y008300D02*
X006896Y008210D01*
X006796Y008210D02*
X006796Y008300D01*
X006696Y008300D02*
X006696Y008210D01*
X007661Y010480D02*
X007732Y010480D01*
X007726Y010580D02*
X007666Y010580D01*
X007666Y010680D02*
X007726Y010680D01*
X007726Y010780D02*
X007666Y010780D01*
X007661Y010880D02*
X007732Y010880D01*
X007796Y010945D02*
X007796Y011170D01*
X004896Y011170D02*
X004896Y011045D01*
X008196Y005860D02*
X008196Y004685D01*
X008296Y004685D02*
X008296Y005875D01*
X005286Y005480D02*
X005213Y005480D01*
X005196Y005437D02*
X005196Y005371D01*
X005187Y005380D02*
X005286Y005380D01*
X005286Y005280D02*
X005243Y005280D01*
X005243Y005180D02*
X005286Y005180D01*
X005286Y005080D02*
X005243Y005080D01*
X005243Y004980D02*
X005286Y004980D01*
X005286Y004880D02*
X005243Y004880D01*
X005243Y004780D02*
X005286Y004780D01*
X005286Y004680D02*
X005243Y004680D01*
X005243Y004580D02*
X005286Y004580D01*
X005286Y004480D02*
X005243Y004480D01*
X005243Y004380D02*
X005286Y004380D01*
X005286Y004280D02*
X005243Y004280D01*
X005243Y004180D02*
X005286Y004180D01*
X005286Y004080D02*
X005187Y004080D01*
X005196Y004071D02*
X005196Y004089D01*
X005796Y003483D02*
X005796Y002933D01*
X005744Y002880D02*
X005606Y002880D01*
X005606Y002780D02*
X005692Y002780D01*
X005696Y002792D02*
X005696Y003383D01*
X005693Y003380D02*
X005886Y003380D01*
X005886Y003480D02*
X005793Y003480D01*
X005886Y003280D02*
X005606Y003280D01*
X005606Y003180D02*
X005886Y003180D01*
X005896Y003083D02*
X005896Y002985D01*
X005885Y002980D02*
X005606Y002980D01*
X005606Y003080D02*
X005899Y003080D01*
X005676Y002680D02*
X005606Y002680D01*
X004606Y002780D02*
X004550Y002724D01*
X004550Y002690D01*
X003924Y002690D01*
X003924Y002905D01*
X004033Y002860D01*
X004160Y002860D01*
X004268Y002905D01*
X004550Y002905D01*
X004550Y002836D01*
X004606Y002780D01*
X003924Y002780D01*
X003924Y002880D02*
X003985Y002880D01*
X003996Y002875D02*
X003996Y002690D01*
X004096Y002690D02*
X004096Y002860D01*
X004196Y002875D02*
X004196Y002690D01*
X004296Y002690D02*
X004296Y002905D01*
X004208Y002880D02*
X004550Y002880D01*
X004496Y002905D02*
X004496Y002690D01*
X004396Y002690D02*
X004396Y002905D01*
X004596Y002789D02*
X004596Y002771D01*
X004550Y003325D02*
X004383Y003325D01*
X004368Y003361D01*
X004278Y003451D01*
X004217Y003476D01*
X004550Y003476D01*
X004550Y003467D01*
X004586Y003430D01*
X004550Y003393D01*
X004550Y003325D01*
X004496Y003325D02*
X004496Y003476D01*
X004396Y003476D02*
X004396Y003325D01*
X004349Y003380D02*
X004550Y003380D01*
X004296Y003433D02*
X004296Y003476D01*
X003976Y003476D02*
X003915Y003451D01*
X003825Y003361D01*
X003811Y003326D01*
X003741Y003326D01*
X003859Y003444D01*
X003872Y003476D01*
X003976Y003476D01*
X003896Y003476D02*
X003896Y003433D01*
X003844Y003380D02*
X003795Y003380D01*
X003796Y003382D02*
X003796Y003326D01*
X003196Y003326D02*
X003196Y003382D01*
X003198Y003380D02*
X003006Y003380D01*
X003006Y003480D02*
X003119Y003480D01*
X003296Y004066D02*
X003296Y004094D01*
X004696Y005666D02*
X004696Y005763D01*
X005096Y005763D02*
X005096Y005666D01*
D26*
X006878Y002910D02*
X006896Y002910D01*
X006896Y002899D01*
X011993Y006366D02*
X012006Y006410D01*
X013696Y005715D02*
X013726Y005710D01*
X016096Y005710D01*
X013696Y009915D02*
X013726Y009980D01*
X013726Y010080D01*
X003496Y009461D02*
X003466Y009490D01*
X003468Y009490D01*
X003496Y009461D02*
X003466Y009420D01*
X003468Y009432D01*
X003496Y009461D02*
X003396Y009490D01*
X003396Y009490D01*
X003186Y009280D02*
X003144Y009273D01*
X003326Y009140D02*
X003306Y009110D01*
X003006Y009030D02*
X002976Y009000D01*
X003366Y008720D02*
X003496Y008674D01*
D27*
X003950Y005715D02*
X003496Y005261D01*
X003950Y005715D02*
X004896Y005715D01*
X004837Y004474D02*
X004096Y004474D01*
X006896Y004474D02*
X006956Y004415D01*
X009196Y004415D01*
X009196Y005045D01*
X009196Y005715D02*
X007350Y005715D01*
X006896Y005261D01*
M02*
