%
M48
M72
T01C0.0140
T02C0.0315
T03C0.0400
T04C0.0787
%
T01
X4096Y3180
X4096Y4474
X5996Y2680
X10996Y3280
X11696Y3580
X10996Y4380
X11696Y4980
X11696Y6180
X10596Y7380
X10996Y7680
X11696Y7780
X11696Y8280
X11696Y8780
X11696Y9280
X11696Y10080
X8796Y9280
X8196Y8280
X9296Y7480
X8796Y6880
X9296Y6580
X8196Y6180
X4196Y7380
X4196Y8674
X3696Y11780
X12596Y7480
X11696Y2380
T02
X15196Y2899
X15196Y3686
X15196Y4474
X15196Y5261
X15196Y7099
X15196Y7886
X15196Y8674
X15196Y9461
X6896Y5261
X6896Y4474
X6896Y3686
X6896Y2899
X3496Y2899
X3496Y3686
X3496Y4474
X3496Y5261
X3496Y7099
X3496Y7886
X3496Y8674
X3496Y9461
T03
X4196Y10680
X5196Y10680
X6196Y10680
X7196Y10680
X8196Y10680
X9196Y10680
X10196Y10680
X11196Y10680
X12196Y10680
X13196Y10680
X14196Y10680
X15196Y10680
X15196Y1680
X14196Y1680
X13196Y1680
X12196Y1680
X11196Y1680
X10196Y1680
X9196Y1680
X8196Y1680
X7196Y1680
X6196Y1680
X5196Y1680
X4196Y1680
X3696Y680
X2696Y680
X4696Y680
T04
X1346Y930
X1346Y11430
X17346Y11430
X17346Y930
M30
