G75*
%MOIN*%
%OFA0B0*%
%FSLAX24Y24*%
%IPPOS*%
%LPD*%
%AMOC8*
5,1,8,0,0,1.08239X$1,22.5*
%
%ADD10C,0.0060*%
%ADD11C,0.0000*%
D10*
X001296Y000180D02*
X017396Y000180D01*
X017446Y000182D01*
X017496Y000187D01*
X017545Y000196D01*
X017593Y000208D01*
X017641Y000224D01*
X017687Y000243D01*
X017731Y000266D01*
X017774Y000291D01*
X017815Y000320D01*
X017854Y000351D01*
X017891Y000385D01*
X017925Y000422D01*
X017956Y000461D01*
X017985Y000502D01*
X018010Y000545D01*
X018033Y000589D01*
X018052Y000635D01*
X018068Y000683D01*
X018080Y000731D01*
X018089Y000780D01*
X018094Y000830D01*
X018096Y000880D01*
X018096Y011480D01*
X018094Y011530D01*
X018089Y011580D01*
X018080Y011629D01*
X018068Y011677D01*
X018052Y011725D01*
X018033Y011771D01*
X018010Y011815D01*
X017985Y011858D01*
X017956Y011899D01*
X017925Y011938D01*
X017891Y011975D01*
X017854Y012009D01*
X017815Y012040D01*
X017774Y012069D01*
X017731Y012094D01*
X017687Y012117D01*
X017641Y012136D01*
X017593Y012152D01*
X017545Y012164D01*
X017496Y012173D01*
X017446Y012178D01*
X017396Y012180D01*
X001296Y012180D01*
X001246Y012178D01*
X001196Y012173D01*
X001147Y012164D01*
X001099Y012152D01*
X001051Y012136D01*
X001005Y012117D01*
X000961Y012094D01*
X000918Y012069D01*
X000877Y012040D01*
X000838Y012009D01*
X000801Y011975D01*
X000767Y011938D01*
X000736Y011899D01*
X000707Y011858D01*
X000682Y011815D01*
X000659Y011771D01*
X000640Y011725D01*
X000624Y011677D01*
X000612Y011629D01*
X000603Y011580D01*
X000598Y011530D01*
X000596Y011480D01*
X000596Y000880D01*
X000598Y000830D01*
X000603Y000780D01*
X000612Y000731D01*
X000624Y000683D01*
X000640Y000635D01*
X000659Y000589D01*
X000682Y000545D01*
X000707Y000502D01*
X000736Y000461D01*
X000767Y000422D01*
X000801Y000385D01*
X000838Y000351D01*
X000877Y000320D01*
X000918Y000291D01*
X000961Y000266D01*
X001005Y000243D01*
X001051Y000224D01*
X001099Y000208D01*
X001147Y000196D01*
X001196Y000187D01*
X001246Y000182D01*
X001296Y000180D01*
D11*
X000952Y000930D02*
X000954Y000969D01*
X000960Y001008D01*
X000970Y001046D01*
X000983Y001083D01*
X001000Y001118D01*
X001020Y001152D01*
X001044Y001183D01*
X001071Y001212D01*
X001100Y001238D01*
X001132Y001261D01*
X001166Y001281D01*
X001202Y001297D01*
X001239Y001309D01*
X001278Y001318D01*
X001317Y001323D01*
X001356Y001324D01*
X001395Y001321D01*
X001434Y001314D01*
X001471Y001303D01*
X001508Y001289D01*
X001543Y001271D01*
X001576Y001250D01*
X001607Y001225D01*
X001635Y001198D01*
X001660Y001168D01*
X001682Y001135D01*
X001701Y001101D01*
X001716Y001065D01*
X001728Y001027D01*
X001736Y000989D01*
X001740Y000950D01*
X001740Y000910D01*
X001736Y000871D01*
X001728Y000833D01*
X001716Y000795D01*
X001701Y000759D01*
X001682Y000725D01*
X001660Y000692D01*
X001635Y000662D01*
X001607Y000635D01*
X001576Y000610D01*
X001543Y000589D01*
X001508Y000571D01*
X001471Y000557D01*
X001434Y000546D01*
X001395Y000539D01*
X001356Y000536D01*
X001317Y000537D01*
X001278Y000542D01*
X001239Y000551D01*
X001202Y000563D01*
X001166Y000579D01*
X001132Y000599D01*
X001100Y000622D01*
X001071Y000648D01*
X001044Y000677D01*
X001020Y000708D01*
X001000Y000742D01*
X000983Y000777D01*
X000970Y000814D01*
X000960Y000852D01*
X000954Y000891D01*
X000952Y000930D01*
X000952Y011430D02*
X000954Y011469D01*
X000960Y011508D01*
X000970Y011546D01*
X000983Y011583D01*
X001000Y011618D01*
X001020Y011652D01*
X001044Y011683D01*
X001071Y011712D01*
X001100Y011738D01*
X001132Y011761D01*
X001166Y011781D01*
X001202Y011797D01*
X001239Y011809D01*
X001278Y011818D01*
X001317Y011823D01*
X001356Y011824D01*
X001395Y011821D01*
X001434Y011814D01*
X001471Y011803D01*
X001508Y011789D01*
X001543Y011771D01*
X001576Y011750D01*
X001607Y011725D01*
X001635Y011698D01*
X001660Y011668D01*
X001682Y011635D01*
X001701Y011601D01*
X001716Y011565D01*
X001728Y011527D01*
X001736Y011489D01*
X001740Y011450D01*
X001740Y011410D01*
X001736Y011371D01*
X001728Y011333D01*
X001716Y011295D01*
X001701Y011259D01*
X001682Y011225D01*
X001660Y011192D01*
X001635Y011162D01*
X001607Y011135D01*
X001576Y011110D01*
X001543Y011089D01*
X001508Y011071D01*
X001471Y011057D01*
X001434Y011046D01*
X001395Y011039D01*
X001356Y011036D01*
X001317Y011037D01*
X001278Y011042D01*
X001239Y011051D01*
X001202Y011063D01*
X001166Y011079D01*
X001132Y011099D01*
X001100Y011122D01*
X001071Y011148D01*
X001044Y011177D01*
X001020Y011208D01*
X001000Y011242D01*
X000983Y011277D01*
X000970Y011314D01*
X000960Y011352D01*
X000954Y011391D01*
X000952Y011430D01*
X016952Y011430D02*
X016954Y011469D01*
X016960Y011508D01*
X016970Y011546D01*
X016983Y011583D01*
X017000Y011618D01*
X017020Y011652D01*
X017044Y011683D01*
X017071Y011712D01*
X017100Y011738D01*
X017132Y011761D01*
X017166Y011781D01*
X017202Y011797D01*
X017239Y011809D01*
X017278Y011818D01*
X017317Y011823D01*
X017356Y011824D01*
X017395Y011821D01*
X017434Y011814D01*
X017471Y011803D01*
X017508Y011789D01*
X017543Y011771D01*
X017576Y011750D01*
X017607Y011725D01*
X017635Y011698D01*
X017660Y011668D01*
X017682Y011635D01*
X017701Y011601D01*
X017716Y011565D01*
X017728Y011527D01*
X017736Y011489D01*
X017740Y011450D01*
X017740Y011410D01*
X017736Y011371D01*
X017728Y011333D01*
X017716Y011295D01*
X017701Y011259D01*
X017682Y011225D01*
X017660Y011192D01*
X017635Y011162D01*
X017607Y011135D01*
X017576Y011110D01*
X017543Y011089D01*
X017508Y011071D01*
X017471Y011057D01*
X017434Y011046D01*
X017395Y011039D01*
X017356Y011036D01*
X017317Y011037D01*
X017278Y011042D01*
X017239Y011051D01*
X017202Y011063D01*
X017166Y011079D01*
X017132Y011099D01*
X017100Y011122D01*
X017071Y011148D01*
X017044Y011177D01*
X017020Y011208D01*
X017000Y011242D01*
X016983Y011277D01*
X016970Y011314D01*
X016960Y011352D01*
X016954Y011391D01*
X016952Y011430D01*
X016952Y000930D02*
X016954Y000969D01*
X016960Y001008D01*
X016970Y001046D01*
X016983Y001083D01*
X017000Y001118D01*
X017020Y001152D01*
X017044Y001183D01*
X017071Y001212D01*
X017100Y001238D01*
X017132Y001261D01*
X017166Y001281D01*
X017202Y001297D01*
X017239Y001309D01*
X017278Y001318D01*
X017317Y001323D01*
X017356Y001324D01*
X017395Y001321D01*
X017434Y001314D01*
X017471Y001303D01*
X017508Y001289D01*
X017543Y001271D01*
X017576Y001250D01*
X017607Y001225D01*
X017635Y001198D01*
X017660Y001168D01*
X017682Y001135D01*
X017701Y001101D01*
X017716Y001065D01*
X017728Y001027D01*
X017736Y000989D01*
X017740Y000950D01*
X017740Y000910D01*
X017736Y000871D01*
X017728Y000833D01*
X017716Y000795D01*
X017701Y000759D01*
X017682Y000725D01*
X017660Y000692D01*
X017635Y000662D01*
X017607Y000635D01*
X017576Y000610D01*
X017543Y000589D01*
X017508Y000571D01*
X017471Y000557D01*
X017434Y000546D01*
X017395Y000539D01*
X017356Y000536D01*
X017317Y000537D01*
X017278Y000542D01*
X017239Y000551D01*
X017202Y000563D01*
X017166Y000579D01*
X017132Y000599D01*
X017100Y000622D01*
X017071Y000648D01*
X017044Y000677D01*
X017020Y000708D01*
X017000Y000742D01*
X016983Y000777D01*
X016970Y000814D01*
X016960Y000852D01*
X016954Y000891D01*
X016952Y000930D01*
M02*
