G75*
%MOIN*%
%OFA0B0*%
%FSLAX24Y24*%
%IPPOS*%
%LPD*%
%AMOC8*
5,1,8,0,0,1.08239X$1,22.5*
%
%ADD10R,0.0720X0.0720*%
%ADD11OC8,0.0720*%
%ADD12R,0.0635X0.0635*%
%ADD13C,0.0635*%
%ADD14C,0.0867*%
%ADD15C,0.0820*%
D10*
X015196Y010680D03*
D11*
X014196Y010680D03*
X013196Y010680D03*
X012196Y010680D03*
X011196Y010680D03*
X010196Y010680D03*
X009196Y010680D03*
X008196Y010680D03*
X007196Y010680D03*
X006196Y010680D03*
X005196Y010680D03*
X004196Y010680D03*
X004196Y001680D03*
X005196Y001680D03*
X006196Y001680D03*
X007196Y001680D03*
X008196Y001680D03*
X009196Y001680D03*
X010196Y001680D03*
X011196Y001680D03*
X012196Y001680D03*
X013196Y001680D03*
X014196Y001680D03*
X015196Y001680D03*
D12*
X015196Y005261D03*
X015196Y009461D03*
X006896Y002899D03*
X003496Y002899D03*
X003496Y007099D03*
D13*
X003496Y007886D03*
X003496Y008674D03*
X003496Y009461D03*
X003496Y005261D03*
X003496Y004474D03*
X003496Y003686D03*
X006896Y003686D03*
X006896Y004474D03*
X006896Y005261D03*
X015196Y004474D03*
X015196Y003686D03*
X015196Y002899D03*
X015196Y007099D03*
X015196Y007886D03*
X015196Y008674D03*
D14*
X001346Y000930D03*
X001346Y011430D03*
X017346Y011430D03*
X017346Y000930D03*
D15*
X004696Y000680D03*
X003696Y000680D03*
X002696Y000680D03*
M02*
